<?xml version="1.0" encoding="UTF-8" standalone="no"?>
<!-- Created with Inkscape (http://www.inkscape.org/) -->

<svg
   xmlns:dc="http://purl.org/dc/elements/1.1/"
   xmlns:cc="http://creativecommons.org/ns#"
   xmlns:rdf="http://www.w3.org/1999/02/22-rdf-syntax-ns#"
   xmlns:svg="http://www.w3.org/2000/svg"
   xmlns="http://www.w3.org/2000/svg"
   xmlns:xlink="http://www.w3.org/1999/xlink"
   xmlns:sodipodi="http://sodipodi.sourceforge.net/DTD/sodipodi-0.dtd"
   xmlns:inkscape="http://www.inkscape.org/namespaces/inkscape"
   width="252.65266"
   height="384.87143"
   viewBox="0 0 252.65267 384.87144"
   id="svg3727"
   version="1.1"
   inkscape:version="0.91 r13725"
   sodipodi:docname="100.svg">
  <defs
     id="defs3729">
    <linearGradient
       gradientTransform="translate(-181.35078,333.00689)"
       inkscape:collect="always"
       xlink:href="#linearGradient7097"
       id="linearGradient7188"
       x1="667.54541"
       y1="352.30496"
       x2="499.37598"
       y2="191.66278"
       gradientUnits="userSpaceOnUse" />
    <linearGradient
       inkscape:collect="always"
       id="linearGradient7097">
      <stop
         style="stop-color:#ffffff;stop-opacity:1;"
         offset="0"
         id="stop7099" />
      <stop
         style="stop-color:#ffffff;stop-opacity:0;"
         offset="1"
         id="stop7101" />
    </linearGradient>
    <filter
       style="color-interpolation-filters:sRGB"
       inkscape:collect="always"
       id="filter6976"
       x="-0.12000015"
       width="1.2400002"
       y="-0.17999965"
       height="1.3599993">
      <feGaussianBlur
         inkscape:collect="always"
         stdDeviation="0.5476452"
         id="feGaussianBlur6978" />
    </filter>
    <filter
       style="color-interpolation-filters:sRGB"
       inkscape:collect="always"
       id="filter6864"
       x="-0.85087895"
       width="2.7017579"
       y="-0.46687919"
       height="1.9337584">
      <feGaussianBlur
         inkscape:collect="always"
         stdDeviation="1.4899372"
         id="feGaussianBlur6866" />
    </filter>
    <filter
       style="color-interpolation-filters:sRGB"
       inkscape:collect="always"
       id="filter6872"
       x="-0.8522442"
       width="2.7044885"
       y="-0.46678507"
       height="1.9335701">
      <feGaussianBlur
         inkscape:collect="always"
         stdDeviation="1.4899372"
         id="feGaussianBlur6874" />
    </filter>
    <filter
       style="color-interpolation-filters:sRGB"
       inkscape:collect="always"
       id="filter7008"
       x="-0.20316014"
       width="1.4063203"
       y="-0.2931599"
       height="1.5863198">
      <feGaussianBlur
         inkscape:collect="always"
         stdDeviation="0.87355902"
         id="feGaussianBlur7010" />
    </filter>
    <linearGradient
       inkscape:collect="always"
       xlink:href="#linearGradient7097"
       id="linearGradient7022"
       x1="569.34906"
       y1="120.14254"
       x2="496.6203"
       y2="119.20377"
       gradientUnits="userSpaceOnUse"
       gradientTransform="matrix(2.2160303,0,0,2.2416675,-778.15638,305.65724)" />
    <radialGradient
       inkscape:collect="always"
       xlink:href="#linearGradient7097"
       id="radialGradient7038"
       cx="534.15814"
       cy="133.82091"
       fx="534.15814"
       fy="133.82091"
       r="36.625"
       gradientTransform="matrix(2.2240911,0,0,2.9381213,-781.64478,222.72422)"
       gradientUnits="userSpaceOnUse" />
    <filter
       style="color-interpolation-filters:sRGB"
       inkscape:collect="always"
       id="filter7066">
      <feGaussianBlur
         inkscape:collect="always"
         stdDeviation="1.6056117"
         id="feGaussianBlur7068" />
    </filter>
    <radialGradient
       inkscape:collect="always"
       xlink:href="#linearGradient7097"
       id="radialGradient7105"
       cx="574.86005"
       cy="73.241486"
       fx="574.86005"
       fy="73.241486"
       r="10.620971"
       gradientTransform="matrix(-2.4481471,-0.01097484,0.00368826,-0.82273834,1775.134,636.19906)"
       gradientUnits="userSpaceOnUse" />
    <linearGradient
       inkscape:collect="always"
       xlink:href="#linearGradient7097"
       id="linearGradient7093"
       x1="522.75085"
       y1="60.960983"
       x2="514.60187"
       y2="61.126934"
       gradientUnits="userSpaceOnUse"
       gradientTransform="matrix(1.9371691,0,0,2.2129947,-635.67955,306.70977)" />
    <filter
       style="color-interpolation-filters:sRGB"
       inkscape:collect="always"
       id="filter7153">
      <feGaussianBlur
         inkscape:collect="always"
         stdDeviation="6.6408754"
         id="feGaussianBlur7155" />
    </filter>
  </defs>
  <sodipodi:namedview
     id="base"
     pagecolor="#ffffff"
     bordercolor="#666666"
     borderopacity="1.0"
     inkscape:pageopacity="0.0"
     inkscape:pageshadow="2"
     inkscape:zoom="0.35"
     inkscape:cx="78.469188"
     inkscape:cy="181.00717"
     inkscape:document-units="px"
     inkscape:current-layer="layer1"
     showgrid="false"
     units="px"
     fit-margin-top="0"
     fit-margin-left="0"
     fit-margin-right="0"
     fit-margin-bottom="0"
     showborder="false"
     inkscape:window-width="1600"
     inkscape:window-height="872"
     inkscape:window-x="0"
     inkscape:window-y="0"
     inkscape:window-maximized="1" />
  <metadata
     id="metadata3732">
    <rdf:RDF>
      <cc:Work
         rdf:about="">
        <dc:format>image/svg+xml</dc:format>
        <dc:type
           rdf:resource="http://purl.org/dc/dcmitype/StillImage" />
        <dc:title></dc:title>
      </cc:Work>
    </rdf:RDF>
  </metadata>
  <g
     inkscape:label="Calque 1"
     inkscape:groupmode="layer"
     id="layer1"
     transform="translate(-296.53081,-328.49792)">
    <path
       inkscape:connector-curvature="0"
       style="display:inline;fill:#000000;fill-opacity:1;stroke:none;filter:url(#filter7153);enable-background:new"
       d="m 364.9915,360.57796 c -8.2834,-0.74029 -17.9375,53.95787 -17.9375,136.65625 l 2.625,-0.90625 c -0.3232,0.40913 -0.6088,0.84908 -0.875,1.34375 -9.574,22.64796 -6.5971,37.08578 -15.0313,73.03125 -4.9931,29.5624 -16.1875,52.65038 -16.1875,89.0625 8.5633,0.66177 19.8218,21.53125 83.875,21.53125 64.0532,0 75.2805,-20.86948 83.8438,-21.53125 0,-36.41212 -11.1945,-59.5001 -16.1875,-89.0625 -8.4342,-35.94547 -5.4261,-50.38329 -15,-73.03125 -2.181,-4.05187 -6.3522,-4.82654 -11.375,-9.25 l 12.0937,5 c 119.8043,-48.88419 80.0594,-72.70165 -28.0937,-25.84375 l 1.9062,5.25 c -11.5989,-10.89407 -19.2742,-10.51808 -27.1875,-10.65625 -7.5235,0.13136 -14.8621,-0.20371 -25.5312,9.125 l 0.7812,-2.9375 c 0,-75.18682 -5.4779,-107.2235 -11.7187,-107.78125 z"
       id="path6591-8"
       inkscape:export-filename="/media/0D64-9616/domogik/mirror/nabaztagtag.png"
       inkscape:export-xdpi="300"
       inkscape:export-ydpi="300" />
    <path
       inkscape:connector-curvature="0"
       style="display:inline;fill:#bdcb2f;fill-opacity:1;stroke:#9bb528;stroke-width:4.57876396;stroke-linecap:butt;stroke-linejoin:miter;stroke-miterlimit:4;stroke-dasharray:none;stroke-opacity:1;enable-background:new"
       d="m 377.6888,468.56386 c 0,-174.98023 -29.6344,-116.13077 -29.6344,28.87461 l 24.3154,-8.35844 5.319,-20.51617 z"
       id="path6591"
       sodipodi:nodetypes="cccc"
       inkscape:export-filename="/media/0D64-9616/domogik/mirror/nabaztagtag.png"
       inkscape:export-xdpi="300"
       inkscape:export-ydpi="300" />
    <path
       inkscape:connector-curvature="0"
       sodipodi:nodetypes="cccc"
       id="path7085"
       d="m 375.4092,469.52729 c 0,-169.14186 -25.0753,-112.25597 -25.0753,27.91118 l 20.5746,-8.07956 4.5007,-19.83162 z"
       style="display:inline;opacity:0.8;fill:url(#linearGradient7093);fill-opacity:1;stroke:none;enable-background:new"
       inkscape:export-filename="/media/0D64-9616/domogik/mirror/nabaztagtag.png"
       inkscape:export-xdpi="300"
       inkscape:export-ydpi="300" />
    <path
       inkscape:connector-curvature="0"
       style="display:inline;fill:#bdcb2f;fill-opacity:1;stroke:#9bb528;stroke-width:4.57876396;stroke-linecap:butt;stroke-linejoin:miter;stroke-miterlimit:4;stroke-dasharray:none;stroke-opacity:1;enable-background:new"
       d="m 455.8359,493.63918 c 119.8042,-48.8842 80.0383,-72.69309 -28.1148,-25.83518 l 6.0789,16.71688 22.0359,9.1183 z"
       id="path6589"
       sodipodi:nodetypes="cccc"
       inkscape:export-filename="/media/0D64-9616/domogik/mirror/nabaztagtag.png"
       inkscape:export-xdpi="300"
       inkscape:export-ydpi="300" />
    <ellipse
       ry="8.7383671"
       rx="24.315458"
       cy="569.63153"
       cx="368.06207"
       style="display:inline;opacity:0.8;fill:url(#radialGradient7105);fill-opacity:1;fill-rule:nonzero;stroke:none;enable-background:new"
       id="path7095"
       transform="matrix(0.96588782,-0.25896085,0.25896085,0.96588782,0,0)"
       inkscape:export-filename="/media/0D64-9616/domogik/mirror/nabaztagtag.png"
       inkscape:export-xdpi="300"
       inkscape:export-ydpi="300" />
    <path
       inkscape:connector-curvature="0"
       style="display:inline;fill:#bdcb2f;fill-opacity:1;stroke:#9bb528;stroke-width:4.57876396;stroke-linecap:round;stroke-linejoin:round;stroke-miterlimit:4;stroke-dasharray:none;stroke-opacity:1;enable-background:new"
       d="m 402.4338,462.38622 c -10.2578,0.1791 -20.1037,-0.5156 -38.6333,23.60925 -6.1981,6.90359 -11.4664,7.12738 -14.0225,11.87617 -9.574,22.64796 -6.5899,37.10012 -15.0241,73.04559 -4.993,29.5624 -16.1687,52.65915 -16.1687,89.07127 8.5632,0.66177 19.7954,21.5345 83.8486,21.5345 64.0532,0 75.2853,-20.87273 83.8486,-21.5345 0,-36.41212 -11.1757,-59.50887 -16.1688,-89.07127 -8.4341,-35.94547 -5.4501,-50.39763 -15.024,-73.04559 -2.5561,-4.74879 -7.8244,-4.97258 -14.0225,-11.87617 -18.5296,-24.12485 -28.3756,-23.43015 -38.6333,-23.60925 z"
       id="path6580"
       inkscape:export-filename="/media/0D64-9616/domogik/mirror/nabaztagtag.png"
       inkscape:export-xdpi="300"
       inkscape:export-ydpi="300" />
    <path
       inkscape:connector-curvature="0"
       sodipodi:nodetypes="cccccsccccc"
       id="path7048"
       d="m 533.10205,70.864663 c -4.35265,0.07724 -8.53055,-0.222347 -16.39317,10.18122 -2.62999,2.977094 -4.86548,3.073601 -5.9501,5.121462 -4.06249,9.766673 -2.79628,15.999005 -6.37512,31.500075 -2.11869,12.74845 -6.86084,22.70866 -6.86084,38.41097 3.63362,0.28537 8.62773,4.189 35.80721,4.189 27.17949,0 31.71761,-3.90363 35.35123,-4.189 0,-15.70231 -4.74216,-25.66252 -6.86084,-38.41097 -3.57885,-15.50107 -2.31263,-21.733402 -6.37512,-31.500075 -1.08463,-2.047861 -3.32011,-2.144368 -5.9501,-5.121462 -7.86262,-10.403567 -12.04052,-10.103984 -16.39315,-10.18122 z"
       style="display:inline;fill:none;stroke:#9bb528;stroke-width:1;stroke-miterlimit:4;stroke-dasharray:none;stroke-opacity:1;filter:url(#filter7066);enable-background:new"
       transform="matrix(2.2893819,0,0,2.2893819,-817.23448,300.12628)"
       inkscape:export-filename="/media/0D64-9616/domogik/mirror/nabaztagtag.png"
       inkscape:export-xdpi="300"
       inkscape:export-ydpi="300" />
    <path
       inkscape:connector-curvature="0"
       style="display:inline;opacity:0.5;fill:url(#radialGradient7038);fill-opacity:1;stroke:none;enable-background:new"
       d="m 403.2398,463.97155 c -9.9653,0.17589 -19.5304,-0.50638 -37.5316,23.18698 -6.0213,6.78012 -11.1393,6.99991 -13.6225,11.66376 -9.301,22.24289 -6.402,36.43656 -14.5957,71.73913 -4.8506,29.03369 -15.7076,51.71732 -15.7076,87.47819 8.3191,0.64989 19.7529,9.54016 81.9793,9.54016 62.2265,0 72.6163,-8.89027 80.9354,-9.54016 0,-35.76087 -10.857,-58.4445 -15.7077,-87.47819 -8.1936,-35.30257 -5.2946,-49.49624 -14.5956,-71.73913 -2.4832,-4.66385 -7.6012,-4.88364 -13.6225,-11.66376 -18.0012,-23.69336 -27.5664,-23.01108 -37.5315,-23.18698 z"
       id="path7036"
       sodipodi:nodetypes="cccccsccccc"
       inkscape:export-filename="/media/0D64-9616/domogik/mirror/nabaztagtag.png"
       inkscape:export-xdpi="300"
       inkscape:export-ydpi="300" />
    <path
       inkscape:connector-curvature="0"
       id="path7013"
       d="m 402.4338,464.53542 c -9.9291,0.17539 -19.4596,-0.50485 -37.3955,23.1172 -5.9995,6.75971 -11.099,6.97883 -13.5732,11.62865 -9.2672,22.17594 -6.3788,36.32692 -14.5427,71.52321 -4.8331,28.94628 -15.6507,51.56162 -15.6507,87.21485 8.2889,0.64799 18.6411,8.45924 80.642,8.45924 62.0009,0 73.3933,-7.81125 81.6822,-8.45924 0,-35.65323 -10.8176,-58.26857 -15.6507,-87.21485 -8.164,-35.19629 -5.2755,-49.34727 -14.5427,-71.52321 -2.4742,-4.64982 -7.5738,-4.86894 -13.5732,-11.62865 -17.9359,-23.62205 -27.4664,-22.94183 -37.3955,-23.1172 z"
       style="display:inline;opacity:0.5;fill:url(#linearGradient7022);fill-opacity:1;stroke:none;enable-background:new"
       sodipodi:nodetypes="cccccsccccc"
       inkscape:export-filename="/media/0D64-9616/domogik/mirror/nabaztagtag.png"
       inkscape:export-xdpi="300"
       inkscape:export-ydpi="300" />
    <path
       inkscape:connector-curvature="0"
       style="display:inline;fill:#9bb528;fill-opacity:1;stroke:none;filter:url(#filter7008);enable-background:new"
       d="m 532.9375,99.75 c -3.0039,-0.493859 -6.18754,0.73879 -3.5625,3.71875 1.69799,2.54553 5.32931,5.1993 7.40625,1.5 1.77391,-1.73539 3.51216,-5.680345 -0.53125,-5.09375 -1.0983,-0.09088 -2.21004,-0.199326 -3.3125,-0.125 z"
       id="path6604"
       transform="matrix(2.2893819,0,0,2.2893819,-817.23448,300.12628)"
       inkscape:export-filename="/media/0D64-9616/domogik/mirror/nabaztagtag.png"
       inkscape:export-xdpi="300"
       inkscape:export-ydpi="300" />
    <path
       inkscape:connector-curvature="0"
       style="display:inline;opacity:0.5;fill:#000000;fill-opacity:1;fill-rule:nonzero;stroke:none;filter:url(#filter6872);enable-background:new"
       d="m 523.8125,89.59375 c -2.63882,1.214795 -2.61123,7.854309 0.875,7.65625 1.90555,-1.676068 2.23491,-7.200814 -0.875,-7.65625 z"
       id="path6600"
       transform="matrix(2.2893819,0,0,2.2893819,-817.23448,300.12628)"
       inkscape:export-filename="/media/0D64-9616/domogik/mirror/nabaztagtag.png"
       inkscape:export-xdpi="300"
       inkscape:export-ydpi="300" />
    <path
       inkscape:connector-curvature="0"
       style="display:inline;opacity:0.5;fill:#000000;fill-opacity:1;fill-rule:nonzero;stroke:none;filter:url(#filter6864);enable-background:new"
       d="m 542.125,89.59375 c -2.62742,1.319213 -2.5907,7.813163 0.90625,7.65625 1.91206,-1.644808 2.20907,-7.321505 -0.90625,-7.65625 z"
       id="path6602"
       transform="matrix(2.2893819,0,0,2.2893819,-817.23448,300.12628)"
       inkscape:export-filename="/media/0D64-9616/domogik/mirror/nabaztagtag.png"
       inkscape:export-xdpi="300"
       inkscape:export-ydpi="300" />
    <path
       inkscape:connector-curvature="0"
       style="display:inline;fill:#403e3f;fill-opacity:1;stroke:none;filter:url(#filter6976);enable-background:new"
       d="m 528.06137,100.12581 10.95287,0 0,2.65525 -3.98287,0 -0.0415,4.64667 -2.64332,-0.0445 0,-4.6022 -4.2852,0 0,-2.65525 z"
       id="path6598"
       sodipodi:nodetypes="ccccccccc"
       transform="matrix(2.1421239,0,0,2.1421239,-739.33828,314.07849)"
       inkscape:export-filename="/media/0D64-9616/domogik/mirror/nabaztagtag.png"
       inkscape:export-xdpi="300"
       inkscape:export-ydpi="300" />
    <ellipse
       ry="9.1182966"
       rx="4.5591483"
       cy="514.15533"
       cx="382.58142"
       style="display:inline;fill:#403e3f;fill-opacity:1;fill-rule:nonzero;stroke:none;enable-background:new"
       id="path6594"
       inkscape:export-filename="/media/0D64-9616/domogik/mirror/nabaztagtag.png"
       inkscape:export-xdpi="300"
       inkscape:export-ydpi="300" />
    <ellipse
       ry="9.1182966"
       rx="4.5591483"
       cy="514.15533"
       cx="424.55017"
       id="path6596"
       style="display:inline;fill:#403e3f;fill-opacity:1;fill-rule:nonzero;stroke:none;enable-background:new"
       inkscape:export-filename="/media/0D64-9616/domogik/mirror/nabaztagtag.png"
       inkscape:export-xdpi="300"
       inkscape:export-ydpi="300" />
    <path
       inkscape:connector-curvature="0"
       style="display:inline;opacity:0.5;fill:url(#linearGradient7188);fill-opacity:1;stroke:none;enable-background:new"
       d="m 461.493,526.03814 c -7.5893,2.98139 -15.0591,6.11652 -22.3438,9.5 -7.9064,3.67225 -15.6516,7.55043 -23.25,11.5625 -7.5984,4.01207 -15.0635,8.15823 -22.4062,12.375 -7.3428,4.21677 -14.5481,8.52616 -21.6875,12.8125 -14.2789,8.57268 -28.2204,17.14726 -42,25.1875 -0.8159,0.47606 -1.6225,0.90274 -2.4375,1.375 -4.7979,18.30375 -9.7813,36.62291 -9.7813,60.90625 8.5633,0.66177 19.8218,21.53125 83.875,21.53125 64.0532,0 75.2805,-20.86948 83.8438,-21.53125 0,-36.41212 -11.1945,-59.5001 -16.1875,-89.0625 -4.6432,-19.78867 -5.9091,-32.94597 -7.625,-44.65625 z"
       id="path7180"
       inkscape:export-filename="/media/0D64-9616/domogik/mirror/nabaztagtag.png"
       inkscape:export-xdpi="300"
       inkscape:export-ydpi="300" />
  </g>
</svg>
