<?xml version="1.0" encoding="UTF-8"?>
<!-- Created with Inkscape (http://www.inkscape.org/) -->
<svg id="svg2" width="307.2" height="307.2" version="1.1" xmlns="http://www.w3.org/2000/svg" xmlns:cc="http://creativecommons.org/ns#" xmlns:dc="http://purl.org/dc/elements/1.1/" xmlns:rdf="http://www.w3.org/1999/02/22-rdf-syntax-ns#" xmlns:xlink="http://www.w3.org/1999/xlink">
 <defs id="defs4">
  <linearGradient id="linearGradient10136-3" x1="900.16" x2="644.16" y1="255.27" y2="511.27" gradientTransform="translate(-415.56 -145.89)" gradientUnits="userSpaceOnUse" xlink:href="#linearGradient9955-3"/>
  <linearGradient id="linearGradient9955-3">
   <stop id="stop9957-3" stop-color="#fff" offset="0"/>
   <stop id="stop9959-5" stop-color="#fff" stop-opacity="0" offset="1"/>
  </linearGradient>
  <filter id="filter9869-2" color-interpolation-filters="sRGB">
   <feGaussianBlur id="feGaussianBlur9871-1" stdDeviation="6.4"/>
  </filter>
  <linearGradient id="linearGradient4093" x1="168.79" x2="168.79" y1="131.94" y2="107.12" gradientTransform="matrix(1 0 0 .8031 248.24 21.36)" gradientUnits="userSpaceOnUse" xlink:href="#linearGradient9955-3"/>
 </defs>
 <metadata id="metadata7">
  <rdf:RDF>
   <cc:Work rdf:about="">
    <dc:format>image/svg+xml</dc:format>
    <dc:type rdf:resource="http://purl.org/dc/dcmitype/StillImage"/>
    <dc:title/>
   </cc:Work>
  </rdf:RDF>
 </metadata>
 <g id="layer6" transform="translate(-203.1 -84.519)">
  <rect id="rect9867-7" x="228.7" y="110.12" width="256" height="256" ry="10.051" filter="url(#filter9869-2)"/>
  <rect id="rect9859-4" x="228.7" y="110.12" width="256" height="256" ry="10.051"/>
  <path id="rect9861-4" d="m469.92 113.91c-77.552 0.62325-155.21-0.15905-232.75 0.40625-6.9586 2.2925-4.1097 11.521-4.4634 16.969 0.2478 75.677-0.52269 151.44 0.40085 227.06 3.5349 6.6874 12.839 2.8973 18.781 3.7748 75.021-0.244 150.12 0.52223 225.09-0.39975 6.5599-3.5424 2.8725-12.766 3.7133-18.656-0.24823-75.052 0.52336-150.19-0.40081-225.19-1.513-3.9989-6.8046-4.1797-10.375-3.9688z" fill-opacity="0"/>
  <g id="g4089" transform="matrix(1.064 0 0 .18481 -213.27 98.927)">
   <rect id="rect10150-4" x="415.57" y="107.48" width="240.5" height="20" ry="2.4882" fill="#403e3f"/>
   <rect id="rect4631-3" x="415.57" y="107.57" width="240.5" height="19.538" ry="2.4307" fill="url(#linearGradient4093)" opacity=".5"/>
  </g>
  <g id="g4095" transform="matrix(1.064 0 0 .18481 -213.27 104.93)">
   <rect id="rect4097" x="415.57" y="107.48" width="240.5" height="20" ry="2.4882" fill="#403e3f"/>
   <rect id="rect4099" x="415.57" y="107.57" width="240.5" height="19.538" ry="2.4307" fill="url(#linearGradient4093)" opacity=".5"/>
  </g>
  <g id="g4103" transform="matrix(1.064 0 0 .18481 -213.27 110.93)">
   <rect id="rect4105" x="415.57" y="107.48" width="240.5" height="20" ry="2.4882" fill="#403e3f"/>
   <rect id="rect4107" x="415.57" y="107.57" width="240.5" height="19.538" ry="2.4307" fill="url(#linearGradient4093)" opacity=".5"/>
  </g>
  <g id="g4111" transform="matrix(1.064 0 0 .18481 -213.27 116.93)">
   <rect id="rect4113" x="415.57" y="107.48" width="240.5" height="20" ry="2.4882" fill="#403e3f"/>
   <rect id="rect4115" x="415.57" y="107.57" width="240.5" height="19.538" ry="2.4307" fill="url(#linearGradient4093)" opacity=".5"/>
  </g>
  <g id="g4119" transform="matrix(1.064 0 0 .18481 -213.27 122.93)">
   <rect id="rect4121" x="415.57" y="107.48" width="240.5" height="20" ry="2.4882" fill="#403e3f"/>
   <rect id="rect4123" x="415.57" y="107.57" width="240.5" height="19.538" ry="2.4307" fill="url(#linearGradient4093)" opacity=".5"/>
  </g>
  <g id="g4127" transform="matrix(1.064 0 0 .18481 -213.27 128.93)">
   <rect id="rect4129" x="415.57" y="107.48" width="240.5" height="20" ry="2.4882" fill="#403e3f"/>
   <rect id="rect4132" x="415.57" y="107.57" width="240.5" height="19.538" ry="2.4307" fill="url(#linearGradient4093)" opacity=".5"/>
  </g>
  <g id="g4136" transform="matrix(1.064 0 0 .18481 -213.27 134.93)">
   <rect id="rect4138" x="415.57" y="107.48" width="240.5" height="20" ry="2.4882" fill="#403e3f"/>
   <rect id="rect4140" x="415.57" y="107.57" width="240.5" height="19.538" ry="2.4307" fill="url(#linearGradient4093)" opacity=".5"/>
  </g>
  <g id="g4144" transform="matrix(1.064 0 0 .18481 -213.27 140.93)">
   <rect id="rect4146" x="415.57" y="107.48" width="240.5" height="20" ry="2.4882" fill="#403e3f"/>
   <rect id="rect4148" x="415.57" y="107.57" width="240.5" height="19.538" ry="2.4307" fill="url(#linearGradient4093)" opacity=".5"/>
  </g>
  <g id="g4152" transform="matrix(1.064 0 0 .18481 -213.27 146.93)">
   <rect id="rect4154" x="415.57" y="107.48" width="240.5" height="20" ry="2.4882" fill="#403e3f"/>
   <rect id="rect4156" x="415.57" y="107.57" width="240.5" height="19.538" ry="2.4307" fill="url(#linearGradient4093)" opacity=".5"/>
  </g>
  <path id="path4160" d="m403.5 116.5v99.973" opacity=".25" stroke="#000" stroke-linecap="round" stroke-linejoin="round" stroke-width="4"/>
  <path id="path4162" d="m445.42 116.5v99.973" opacity=".25" stroke="#000" stroke-linecap="round" stroke-linejoin="round" stroke-width="4"/>
  <path id="path9970-0" d="m484.6 171.8c-1.722 0.31472-3.4828 0.56284-5.1875 0.90625-4.5722 0.92103-9.0786 1.9467-13.531 3.0625s-8.8478 2.3314-13.188 3.625-8.6105 2.6704-12.844 4.125c-4.2333 1.4546-8.4292 2.9638-12.562 4.5625-8.2668 3.1973-16.344 6.6715-24.25 10.344-7.9064 3.6722-15.652 7.5504-23.25 11.562s-15.032 8.1582-22.375 12.375-14.579 8.4949-21.719 12.781c-14.279 8.5727-28.22 17.147-42 25.188-6.8898 4.0201-13.719 7.9094-20.562 11.594s-13.682 7.1616-20.531 10.375c-6.8496 3.2134-13.717 6.1739-20.625 8.7813-1.1204 0.42288-2.2523 0.78262-3.375 1.1875v63.062c0 5.5683 4.4942 10.062 10.062 10.062h235.88c5.5682 0 10.062-4.4942 10.062-10.062v-183.53z" fill="url(#linearGradient10136-3)" opacity=".5"/>
  <path id="path4164" d="m319.66 116.5v99.973" opacity=".25" stroke="#000" stroke-linecap="round" stroke-linejoin="round" stroke-width="4"/>
  <path id="path4166" d="m361.58 116.5v99.973" opacity=".25" stroke="#000" stroke-linecap="round" stroke-linejoin="round" stroke-width="4"/>
  <path id="path4168" d="m277.73 116.5v99.973" opacity=".25" stroke="#000" stroke-linecap="round" stroke-linejoin="round" stroke-width="4"/>
 </g>
</svg>
