<?xml version="1.0" encoding="UTF-8"?>
<!-- Created with Inkscape (http://www.inkscape.org/) -->
<svg id="svg2" width="307.2" height="307.2" version="1.1" xmlns="http://www.w3.org/2000/svg" xmlns:cc="http://creativecommons.org/ns#" xmlns:dc="http://purl.org/dc/elements/1.1/" xmlns:rdf="http://www.w3.org/1999/02/22-rdf-syntax-ns#" xmlns:xlink="http://www.w3.org/1999/xlink">
 <defs id="defs4">
  <linearGradient id="linearGradient4091">
   <stop id="stop4093" offset="0"/>
   <stop id="stop4095" stop-opacity="0" offset="1"/>
  </linearGradient>
  <filter id="filter9869">
   <feGaussianBlur id="feGaussianBlur9871" stdDeviation="6.4"/>
  </filter>
  <linearGradient id="linearGradient10136" x1="900.16" x2="644.16" y1="255.27" y2="511.27" gradientTransform="translate(-484.01 -156.7)" gradientUnits="userSpaceOnUse">
   <stop id="stop9957" stop-color="#fff" offset="0"/>
   <stop id="stop9959" stop-color="#fff" stop-opacity="0" offset="1"/>
  </linearGradient>
  <linearGradient id="linearGradient4133" x1="168.79" x2="168.79" y1="131.94" y2="107.12" gradientTransform="matrix(1 0 0 .16721 0 89.351)" gradientUnits="userSpaceOnUse" xlink:href="#linearGradient4091"/>
  <filter id="filter4162-4" color-interpolation-filters="sRGB">
   <feGaussianBlur id="feGaussianBlur4164-8" stdDeviation="5.9751801"/>
  </filter>
  <filter id="filter6524">
   <feGaussianBlur id="feGaussianBlur6526" stdDeviation="1.6440149"/>
  </filter>
  <filter id="filter7026">
   <feGaussianBlur id="feGaussianBlur7028" stdDeviation="1.5920014"/>
  </filter>
  <filter id="filter7323">
   <feGaussianBlur id="feGaussianBlur7325" stdDeviation="1.6234428"/>
  </filter>
 </defs>
 <metadata id="metadata7">
  <rdf:RDF>
   <cc:Work rdf:about="">
    <dc:format>image/svg+xml</dc:format>
    <dc:type rdf:resource="http://purl.org/dc/dcmitype/StillImage"/>
    <dc:title/>
   </cc:Work>
  </rdf:RDF>
 </metadata>
 <g id="layer1" transform="translate(-134.65 -73.709)">
  <rect id="rect9867" x="160.25" y="99.309" width="256" height="256" ry="10.051" filter="url(#filter9869)"/>
  <rect id="rect9859" x="160.25" y="99.309" width="256" height="256" ry="10.051" fill="#b9c248"/>
  <path id="rect9861" d="m401.46 103.1c-77.552 0.62325-155.21-0.15905-232.75 0.40625-6.9586 2.2925-4.1097 11.521-4.4634 16.969 0.2478 75.677-0.52269 151.44 0.40085 227.06 3.5349 6.6874 12.839 2.8973 18.781 3.7748 75.021-0.244 150.12 0.52223 225.09-0.39975 6.5599-3.5424 2.8725-12.766 3.7133-18.656-0.24823-75.052 0.52336-150.19-0.40081-225.19-1.513-3.9989-6.8046-4.1797-10.375-3.9688z" fill-opacity="0"/>
  <g id="g3224" transform="matrix(1.0652 0 0 1 -18.19 0)">
   <rect id="rect10150" x="167.33" y="107.67" width="240.5" height="3.8373" ry=".47739" fill="#9bb528"/>
   <rect id="rect4131" x="167.33" y="107.3" width="240.5" height="4.0679" ry=".50608" fill="url(#linearGradient4133)" opacity=".5"/>
  </g>
  <path id="path10146" d="m282.18 106.79c-37.97-0.11661-75.941-0.17554-113.91 0.625-2.0288 8.2392 0.6714 16.725-0.5 25.062 0.23644 71.26-0.7131 142.53 0.65625 213.78 8.2381 2.0589 16.726-0.60406 25.062 0.53125 29.442-0.14333 58.869 6e-3 88.312 0.0937v-239.19c0-0.35654 0.24508-0.59806 0.375-0.90625z" fill-opacity="0" opacity=".55"/>
  <g id="g3228" transform="matrix(1.0652 0 0 1 -18.19 6)">
   <rect id="rect3230" x="167.33" y="107.67" width="240.5" height="3.8373" ry=".47739" fill="#9bb528"/>
   <rect id="rect3232" x="167.33" y="107.3" width="240.5" height="4.0679" ry=".50608" fill="url(#linearGradient4133)" opacity=".5"/>
  </g>
  <g id="g3236" transform="matrix(1.0652 0 0 1 -18.19 12)">
   <rect id="rect3238" x="167.33" y="107.67" width="240.5" height="3.8373" ry=".47739" fill="#9bb528"/>
   <rect id="rect3240" x="167.33" y="107.3" width="240.5" height="4.0679" ry=".50608" fill="url(#linearGradient4133)" opacity=".5"/>
  </g>
  <g id="g3244" transform="matrix(1.0652 0 0 1 -18.19 18)">
   <rect id="rect3246" x="167.33" y="107.67" width="240.5" height="3.8373" ry=".47739" fill="#9bb528"/>
   <rect id="rect3248" x="167.33" y="107.3" width="240.5" height="4.0679" ry=".50608" fill="url(#linearGradient4133)" opacity=".5"/>
  </g>
  <g id="g3252" transform="matrix(1.0652 0 0 1 -18.19 24)">
   <rect id="rect3254" x="167.33" y="107.67" width="240.5" height="3.8373" ry=".47739" fill="#9bb528"/>
   <rect id="rect3256" x="167.33" y="107.3" width="240.5" height="4.0679" ry=".50608" fill="url(#linearGradient4133)" opacity=".5"/>
  </g>
  <g id="g3260" transform="matrix(1.0652 0 0 1 -18.19 30)">
   <rect id="rect3262" x="167.33" y="107.67" width="240.5" height="3.8373" ry=".47739" fill="#9bb528"/>
   <rect id="rect3264" x="167.33" y="107.3" width="240.5" height="4.0679" ry=".50608" fill="url(#linearGradient4133)" opacity=".5"/>
  </g>
  <g id="g3268" transform="matrix(1.0652 0 0 1 -18.19 36)">
   <rect id="rect3270" x="167.33" y="107.67" width="240.5" height="3.8373" ry=".47739" fill="#9bb528"/>
   <rect id="rect3272" x="167.33" y="107.3" width="240.5" height="4.0679" ry=".50608" fill="url(#linearGradient4133)" opacity=".5"/>
  </g>
  <g id="g3276" transform="matrix(1.0652 0 0 1 -18.19 42)">
   <rect id="rect3278" x="167.33" y="107.67" width="240.5" height="3.8373" ry=".47739" fill="#9bb528"/>
   <rect id="rect3280" x="167.33" y="107.3" width="240.5" height="4.0679" ry=".50608" fill="url(#linearGradient4133)" opacity=".5"/>
  </g>
  <g id="g4062" transform="matrix(1.0652 0 0 1 -18.19 48)">
   <rect id="rect4064" x="167.33" y="107.67" width="240.5" height="3.8373" ry=".47739" fill="#9bb528"/>
   <rect id="rect4066" x="167.33" y="107.3" width="240.5" height="4.0679" ry=".50608" fill="url(#linearGradient4133)" opacity=".5"/>
  </g>
  <path id="path4077" d="m329.73 105.19v99.973" fill="#b9c248" opacity=".25" stroke="#b9c248" stroke-linecap="round" stroke-linejoin="round" stroke-width="4"/>
  <path id="path4072" d="m371.66 105.19v99.973" fill="#b9c248" opacity=".25" stroke="#b9c248" stroke-linecap="round" stroke-linejoin="round" stroke-width="4"/>
  <path id="path9970" d="m416.14 160.99c-1.722 0.31472-3.4828 0.56284-5.1875 0.90625-4.5722 0.92103-9.0786 1.9467-13.531 3.0625s-8.8478 2.3314-13.188 3.625-8.6105 2.6704-12.844 4.125c-4.2333 1.4546-8.4292 2.9638-12.562 4.5625-8.2668 3.1973-16.344 6.6715-24.25 10.344-7.9064 3.6722-15.652 7.5504-23.25 11.562s-15.032 8.1582-22.375 12.375-14.579 8.4949-21.719 12.781c-14.279 8.5727-28.22 17.147-42 25.188-6.8898 4.0201-13.719 7.9094-20.562 11.594s-13.682 7.1616-20.531 10.375-13.717 6.1739-20.625 8.7812c-1.1204 0.42288-2.2523 0.78262-3.375 1.1875v63.062c0 5.5683 4.4942 10.062 10.062 10.062h235.88c5.5682 0 10.062-4.4942 10.062-10.062v-183.53z" fill="url(#linearGradient10136)" opacity=".5"/>
  <path id="path4079" d="m245.89 105.19v99.973" fill="#b9c248" opacity=".25" stroke="#b9c248" stroke-linecap="round" stroke-linejoin="round" stroke-width="4"/>
  <path id="path4075" d="m287.81 105.19v99.973" fill="#b9c248" opacity=".25" stroke="#b9c248" stroke-linecap="round" stroke-linejoin="round" stroke-width="4"/>
  <path id="path4070" d="m203.97 105.19v99.973" fill="#b9c248" opacity=".25" stroke="#b9c248" stroke-linecap="round" stroke-linejoin="round" stroke-width="4"/>
 </g>
 <g id="layer2" transform="translate(-134.65 -73.709)" display="none">
  <g id="g7408" transform="matrix(1.6732 0 0 1.6732 -327.65 -228.4)">
   <path id="path4251" transform="matrix(.25291 0 0 .25291 208.56 172.65)" d="m630.98 388.42c-1.0862-3e-3 -2.0908 0.97629-2.0938 2.0625l-1.25 23.906-21.094-11.125c-0.92963-0.45056-2.1991-0.0491-2.7188 0.84375-0.51972 0.89285-0.2259 2.1642 0.625 2.75l20.125 13 3.1562 5.5 0.25 6.6875-0.34375 6.6562-21.094-11.125c-0.92967-0.45066-2.1678-0.0491-2.6875 0.84375-0.51977 0.89286-0.25714 2.1642 0.59375 2.75l20.125 13 3.1562 5.5 0.21875 5.6875-0.40625 7.7188-21.125-11.094c-0.92966-0.45066-2.1678-0.0804-2.6875 0.8125-0.51977 0.89286-0.22589 2.1642 0.625 2.75l20.094 13 3.1875 5.5 0.125 3.3125-1.1875 29.875a1.1109 1.1109 0 0 1 -0.25 0.78125 1.1109 1.1109 0 0 1 -0.90625 0.25 1.1109 1.1109 0 0 1 -0.40625 0l-23.656-12.125-5.75-3.7188-3.1562-5.4062-0.96875-23.875c0-1.0918-0.97071-2.0938-2.0625-2.0938-1.0918 0-2.0938 1.002-2.0938 2.0938l-1.2188 23.906-4.875-2.5625-6.6875-4.3438-3.1562-5.4062-0.9375-23.875c0-1.0918-1.002-2.0938-2.0938-2.0938-1.0918 0-2.0938 1.002-2.0938 2.0938l-1.2188 23.906-5.9062-3.125-5.6562-3.6562-3.1562-5.375-0.9375-23.906c0-1.0918-1.002-2.0938-2.0938-2.0938-1.0918 0-2.0938 1.002-2.0938 2.0938l-1.2188 23.938-21.125-11.156c-0.93923-0.54563-2.2979-0.18912-2.8438 0.75-0.54581 0.93912-0.18902 2.2978 0.75 2.8438l20.094 13.031-20.188 12.719c-0.85501 0.5798-1.1384 1.8535-0.625 2.75 0.51337 0.89656 1.7547 1.2877 2.6875 0.84375l21.312-10.906h6.3438l6 3.1562 5.5312 3.5938-20.188 12.719c-0.85512 0.57978-1.1384 1.8535-0.625 2.75 0.51335 0.89656 1.7547 1.2877 2.6875 0.84375l21.312-10.906h6.3438l4.9688 2.625 6.5625 4.25-20.188 12.719c-0.85511 0.57978-1.1384 1.8535-0.625 2.75 0.51335 0.89656 1.7547 1.2877 2.6875 0.84375l21.312-10.906h6.3438l5.2812 2.7812 22.906 14.469a1.1109 1.1109 0 0 1 0.125 0.125 1.1109 1.1109 0 0 1 0.25 0.40625 1.1109 1.1109 0 0 1 0 0.65625 1.1109 1.1109 0 0 1 -0.125 0.375 1.1109 1.1109 0 0 1 -0.25 0.28125l-24.781 16.062-3.4062 1.7812h-6.3438l-21.312-10.938c-0.93278-0.44398-2.1742-0.0528-2.6875 0.84375-0.5134 0.89648-0.23011 2.1702 0.625 2.75l20.188 12.719-6.8125 4.4062-4.7188 2.5h-6.3438l-21.312-10.938c-0.93278-0.44398-2.1742-0.0528-2.6875 0.84375-0.5134 0.89648-0.23012 2.1702 0.625 2.75l20.188 12.75-5.4375 3.5312-6.0938 3.2188h-6.3438l-21.312-10.938c-0.93278-0.44399-2.1741-0.0528-2.6875 0.84375-0.51337 0.89648-0.23001 2.1702 0.625 2.75l20.188 12.719-20.094 13.031c-0.93902 0.546-1.2958 1.9046-0.75 2.8438 0.54582 0.93911 1.9045 1.2956 2.8438 0.75l21.125-11.125 1.2188 23.906c0 1.0918 1.002 2.0938 2.0938 2.0938 1.0918 0 2.0938-1.002 2.0938-2.0938l0.9375-23.875 3.1562-5.4062 5.6562-3.6562 5.9062-3.125 1.2188 23.906c0 1.0918 1.002 2.0938 2.0938 2.0938 1.0918 0 2.0938-1.002 2.0938-2.0938l0.9375-23.875 3.1562-5.4062 6.6875-4.3438 4.875-2.5625 1.2188 23.906c0 1.0918 1.002 2.0938 2.0938 2.0938 1.0918 0 2.0625-1.002 2.0625-2.0938l0.96875-23.875 3.1562-5.4062 7.1875-4.6562 21.844-11.5a1.1109 1.1109 0 0 1 0.25 0 1.1109 1.1109 0 0 1 0.65625 0 1.1109 1.1109 0 0 1 0.375 0.28125 1.1109 1.1109 0 0 1 0.28125 0.78125l1.5312 30.344-0.15625 3.2188-3.0938 5.4375-20.219 12.781c-0.94548 0.54588-1.2959 1.8982-0.75 2.8438 0.54587 0.94549 1.8983 1.2959 2.8438 0.75l21.344-10.906 0.21875 5.375-0.4375 8.0938-3.0938 5.4375-20.219 12.781c-0.94549 0.54588-1.2959 1.8982-0.75 2.8438 0.54588 0.94549 1.8983 1.2959 2.8438 0.75l21.312-10.875 0.25 6.5938-0.34375 6.7812-3.0938 5.4375-20.219 12.781c-0.9455 0.54588-1.2959 1.8982-0.75 2.8438 0.54588 0.94549 1.8983 1.2959 2.8438 0.75l21.312-10.875 0.9375 23.844c-3e-3 1.0862 0.97629 2.0908 2.0625 2.0938s2.0908-0.97629 2.0938-2.0625l1.25-23.938 21.094 11.125c0.92963 0.45057 2.1678 0.0803 2.6875-0.8125 0.51972-0.89285 0.25715-2.1642-0.59375-2.75l-20.125-13-3.1562-5.5-0.28125-6.9375 0.34375-6.4375 21.125 11.125c0.92967 0.45066 2.1678 0.0804 2.6875-0.8125 0.51977-0.89286 0.22589-2.1642-0.625-2.75l-20.094-13-3.1875-5.5-0.21875-5.3438 0.4375-8.0938 21.094 11.125c0.92966 0.45065 2.1991 0.0491 2.7188-0.84375 0.51977-0.89285 0.22589-2.1642-0.625-2.75l-20.125-12.969-3.1562-5.5-0.3125-8.4688 0.96875-24.781a1.1109 1.1109 0 0 1 0.25 -0.78125 1.1109 1.1109 0 0 1 0.9375 -0.25 1.1109 1.1109 0 0 1 0.375 0l25.219 12.875 4.5938 3 3.1562 5.4062 0.9375 23.875c0 1.0918 1.002 2.0938 2.0938 2.0938 1.0918 0 2.0938-1.002 2.0938-2.0938l1.2188-23.906 4.875 2.5625 6.6875 4.3438 3.1562 5.4062 0.9375 23.875c0 1.0918 1.002 2.0938 2.0938 2.0938 1.0918 0 2.0938-1.002 2.0938-2.0938l1.2188-23.906 5.7812 3.0625 5.75 3.7188 3.1875 5.4062 0.9375 23.875c0 1.0918 1.002 2.0938 2.0938 2.0938 1.0918 0 2.0625-1.002 2.0625-2.0938l1.25-23.906 21.125 11.125c0.93923 0.54564 2.2667 0.18911 2.8125-0.75 0.54581-0.93913 0.18902-2.2978-0.75-2.8438l-20.062-13.031 20.156-12.719c0.85501-0.5798 1.1696-1.8535 0.65625-2.75-0.51337-0.89656-1.7547-1.2877-2.6875-0.84375l-21.312 10.938h-6.3438l-6.0625-3.1875-5.4688-3.5625 20.188-12.75c0.85512-0.57978 1.1384-1.8535 0.625-2.75-0.51335-0.89656-1.7547-1.2877-2.6875-0.84375l-21.312 10.938h-6.3438l-4.7188-2.5-6.8125-4.4062 20.188-12.719c0.85511-0.57978 1.1384-1.8535 0.625-2.75-0.51335-0.89656-1.7547-1.2877-2.6875-0.84375l-21.312 10.938h-6.3438l-7.4375-3.9375-21.25-13.375a1.1109 1.1109 0 0 1 -0.15625 -0.15625 1.1109 1.1109 0 0 1 -0.25 -0.375 1.1109 1.1109 0 0 1 0 -0.65625 1.1109 1.1109 0 0 1 0.125 -0.40625 1.1109 1.1109 0 0 1 0.28125 -0.25l22.031-14.25 6.6562-3.5312h6.3438l21.312 10.906c0.93278 0.44398 2.1742 0.0528 2.6875-0.84375 0.5134-0.89648 0.23011-2.1702-0.625-2.75l-20.188-12.719 6.5625-4.25 4.9688-2.625h6.3438l21.312 10.906c0.93278 0.44398 2.1742 0.0528 2.6875-0.84375 0.5134-0.89648 0.23012-2.1702-0.625-2.75l-20.188-12.719 5.5625-3.5938 5.9688-3.1562h6.3438l21.312 10.906c0.93278 0.44399 2.1741 0.0528 2.6875-0.84375 0.51337-0.89648 0.19876-2.1702-0.65625-2.75l-20.156-12.719 20.062-13.031c0.93902-0.546 1.2958-1.9046 0.75-2.8438-0.54582-0.93912-1.8733-1.2956-2.8125-0.75l-21.125 11.156-1.25-23.938c0-1.0918-0.97073-2.0938-2.0625-2.0938-1.0918 0-2.0938 1.002-2.0938 2.0938l-0.9375 23.906-3.1875 5.375-5.75 3.7188-5.7812 3.0625-1.2188-23.906c0-1.0918-1.002-2.0938-2.0938-2.0938-1.0918 0-2.0938 1.002-2.0938 2.0938l-0.9375 23.875-3.1562 5.4062-6.6875 4.3438-4.875 2.5625-1.2188-23.906c0-1.0918-1.002-2.0938-2.0938-2.0938-1.0918 0-2.0938 1.002-2.0938 2.0938l-0.9375 23.875-3.1562 5.4062-4.9375 3.2188-24.469 12.875a1.1109 1.1109 0 0 1 -0.25 0 1.1109 1.1109 0 0 1 -0.65625 0 1.1109 1.1109 0 0 1 -0.40625 -0.25 1.1109 1.1109 0 0 1 -0.25 -0.78125l-1.375-27.031 0.34375-6.5 3.0938-5.4375 20.219-12.75c0.94548-0.54588 1.3272-1.8982 0.78125-2.8438-0.54587-0.94549-1.9295-1.3271-2.875-0.78125l-21.312 10.906-0.21875-5.2812 0.4375-8.1875 3.0938-5.4375 20.219-12.75c0.94549-0.54588 1.2959-1.8982 0.75-2.8438-0.54588-0.94549-1.8983-1.3271-2.8438-0.78125l-21.312 10.906-0.25-6.7188 0.34375-6.6875 3.0938-5.4375 20.188-12.75c0.9455-0.54588 1.3271-1.8982 0.78125-2.8438-0.54588-0.9455-1.8983-1.3271-2.8438-0.78125l-21.344 10.906-0.90625-23.875c3e-3 -1.0862-0.97629-2.0594-2.0625-2.0625z" filter="url(#filter4162-4)"/>
   <path id="path4253" d="m368.02 270.39c-1.5368 0.35227-0.76143 2.4392-1.05 3.5215 0.0696 1.8503 0.015 3.4818-1.9332 1.7786-1.28-0.31649-2.4882-2.0675-3.885-1.4273-1.0081 0.70018-0.11115 2.0533 0.85015 2.2634 1.5901 1.3588 4.263 1.9024 4.8259 4.1067 0.26732 1.5788 0.0195 2.7257-1.5673 1.3242-1.3234-0.36795-2.4818-1.9537-3.927-1.6322-1.0937 0.44914-0.57764 2.0136 0.45584 2.2133 1.6511 1.3543 4.104 1.9478 5.0292 3.991 0.0986 1.2802 0.31516 3.26-1.3596 1.7134-1.3831-0.42239-2.5676-1.9192-4.0702-1.7846-1.1794 0.37018-0.70501 2.0445 0.37634 2.2456 1.6496 1.3506 4.0793 1.9552 5.0297 3.9745 0.0213 2.6348-0.19388 5.269-0.26082 7.9036-2.3397-1.3539-5.0523-2.2427-7.1063-3.9806-1.1086-1.7396-0.41891-4.0042-0.73972-5.9739 0.36057-0.99225-0.6281-2.4295-1.662-1.6717-0.99383 1.0391-0.26184 2.7976-0.60283 4.0898 0.30355 2.0039-0.5161 2.1607-1.8996 0.85646-1.7251-1.4983-0.77239-4.1082-1.146-6.1281 0.27409-0.91212-0.26742-2.5141-1.4573-2.0507-1.3181 0.77302-0.4418 2.7389-0.8112 3.9636 0.2164 1.8221-0.27761 2.6489-1.7527 1.2476-1.9154-1.3197-0.9283-4.0029-1.2958-5.9745 0.17673-0.90334-0.0313-2.6493-1.3488-2.3587-1.4261 0.59588-0.57822 2.6002-0.91661 3.7585 0.2361 2.1413-0.30247 2.9199-2.1394 1.4145-1.22-0.29571-2.5137-2.1198-3.8201-1.2449-0.94806 0.91032 0.33233 2.0496 1.2107 2.3326 0.702 0.86001 4.0564 1.739 2.7153 2.5844-1.2819 1.0505-3.1516 1.5485-4.1711 2.8522-0.48541 1.1016 1.0628 1.9028 1.8492 1.0894 2.0716-0.77715 3.8776-2.6562 6.1809-2.4725 1.1834 0.55284 3.0142 1.3056 0.82691 2.0033-1.0543 0.97427-2.925 1.2709-3.5774 2.5966-0.31062 1.2285 1.3906 1.6786 2.1217 0.83186 1.9939-0.74969 3.7314-2.563 5.9557-2.3572 1.4494 0.59851 2.8514 1.4565 0.61181 2.1758-0.97784 0.95394-2.9081 1.1779-3.3781 2.5505-0.20158 1.1945 1.4356 1.5346 2.1375 0.73701 1.9939-0.74969 3.7314-2.563 5.9557-2.3572 2.3219 1.2006 4.4509 2.7357 6.6864 4.0862-2.3402 1.339-4.4622 3.2565-6.9394 4.2442-2.1524 0.0656-3.8642-1.6918-5.8234-2.426-1.052-1.2104-2.9149 0.54484-1.5744 1.5013 1.478 0.92999 2.956 1.86 4.4339 2.79-1.3589 1.1423-3.2926 1.8337-4.8117 0.54771-1.5443-0.55299-2.8938-1.9132-4.5303-2.1047-1.1752 0.13253-1.0959 1.8924 9e-3 2.1431 1.3354 0.84264 2.6708 1.6853 4.0061 2.5279-1.3745 1.112-3.2978 1.7891-4.8117 0.50819-1.5443-0.55299-2.8938-1.9132-4.5303-2.1047-1.1751 0.1323-1.0963 1.8929 9e-3 2.1425 1.3353 0.84019 2.6705 1.6804 4.0058 2.5206-1.5192 1.1731-3.4737 1.92-4.7896 3.2958-0.59045 1.1219 1.0658 2.0099 1.8624 1.1238 1.3973-0.73553 2.7945-1.4711 4.1918-2.2066 0.2815 1.9094-0.12334 4.009 0.47422 5.8328 0.72396 1.0197 2.2529 4e-3 1.8849-1.114 0.34526-2.1605-0.43155-4.6478 0.87346-6.5288 1.0651-0.75361 2.6342-2.0054 2.172 0.25093 0.3375 1.4275-0.33732 3.2416 0.54678 4.4754 0.95052 0.85773 2.1397-0.48651 1.7446-1.5248 0.33355-2.0794-0.42819-4.4808 0.87154-6.276 1.0844-0.77794 2.6193-2.0734 2.1642 0.21931 0.33749 1.4275-0.33733 3.2416 0.54678 4.4754 0.82646 0.7854 2.0397-0.27765 1.7275-1.2721 0.35009-2.1604-0.43026-4.654 0.88859-6.5288 2.1515-1.5168 4.5794-2.5634 6.8761-3.8332-9e-3 2.7195 0.57057 5.5393 0.21389 8.2019-1.0147 1.8989-3.4127 2.4727-5.0337 3.7908-1.1555 0.21056-1.3799 2.038-0.12783 2.21 1.6148-0.17701 2.9527-1.5155 4.4755-2.0616 1.4351-1.2142 0.88891 1.6616 0.53763 2.4377-1.0868 1.7178-3.3391 2.3223-4.909 3.5787-1.1555 0.21057-1.3799 2.038-0.12783 2.21 1.6148-0.17698 2.9555-1.5099 4.4794-2.0539 1.3821-1.1884 0.92696 1.6728 0.55617 2.4214-1.0931 1.7105-3.3384 2.3173-4.9078 3.5715-1.1555 0.21057-1.3799 2.038-0.12783 2.21 1.6148-0.177 2.9536-1.5137 4.4768-2.0591 1.6595-1.1441 0.61975 2.3225 1.0066 3.3523-0.25396 0.94897 0.12652 2.9231 1.5113 2.374 1.2599-0.82479 0.39566-2.731 0.76882-3.9634-0.38646-2.4031 0.68388-2.2403 2.3536-1.0218 1.1188 0.31067 2.5914 2.1486 3.7063 0.93849 0.80096-1.4304-1.3735-2.0385-2.1816-2.6881-1.6021-1.1314-4.1943-2.0035-3.8046-4.4321-0.44845-2.0906 1.5238-0.17981 2.4965 0.14888 1.0067 0.36472 2.6893 2.1107 3.5765 0.66418 0.51108-1.5079-1.6939-1.8919-2.4874-2.6694-1.5412-1.0626-3.9742-1.9466-3.5904-4.2541-0.35296-2.3708 2.079 0.19987 3.2032 0.45019 0.74531 0.58705 2.5286 1.549 2.9695 0.11096 0.18892-1.5095-1.9517-1.7502-2.7664-2.6119-1.5349-0.97974-3.7633-1.937-3.3728-4.1528-0.0435-2.2135 0.15523-4.4265 0.20356-6.6398 2.3613 1.3705 5.1084 2.2561 7.2016 3.9803 1.1193 1.7389 0.42036 4.0095 0.7396 5.9823-0.37061 1.0211 0.68557 2.462 1.717 1.6398 0.92721-1.0749 0.21728-2.7915 0.55618-4.0818-0.3114-2.0109 0.53104-2.116 1.8989-0.83278 1.7252 1.4983 0.77189 4.1082 1.1452 6.1282-0.28249 0.92668 0.30996 2.5645 1.5054 2.0269 1.2222-0.74521 0.40623-2.5609 0.75149-3.711-0.0613-1.5217-0.0207-3.1262 1.5217-1.6308 2.2001 1.2136 1.179 4.0973 1.5388 6.1445-0.23574 0.93032 0.1404 2.7765 1.4676 2.2955 1.2748-0.7133 0.44565-2.5807 0.7952-3.7345-0.24348-2.1482 0.32342-2.8701 2.1437-1.3858 1.2208 0.2943 2.5145 2.1144 3.8186 1.2396 0.92985-0.91604-0.33407-2.0636-1.2181-2.3335-0.69851-0.85988-4.0526-1.7388-2.7083-2.584 1.2836-1.0492 3.154-1.5582 4.1714-2.8596 0.4868-1.0936-1.0714-1.9061-1.8489-1.0809-2.0717 0.77964-3.8766 2.6632-6.1811 2.4799-1.1836-0.55174-3.0213-1.3051-0.82794-2.0049 1.0642-0.98033 2.9269-1.2765 3.5863-2.6187 0.28961-1.2111-1.407-1.6748-2.1292-0.81525-1.9941 0.75209-3.7306 2.5698-5.9562 2.3644-1.4345-0.60407-2.8356-1.4654-0.61181-2.1837 0.9911-0.95248 2.8848-1.1795 3.386-2.5505 0.19056-1.1845-1.4446-1.5528-2.145-0.73621-1.9941 0.75209-3.7306 2.5698-5.9561 2.3644-2.3787-1.1837-4.5467-2.7317-6.8129-4.1099 2.3641-1.3698 4.517-3.2792 7.0658-4.2205 2.1524-0.0654 3.8662 1.6879 5.8262 2.4204 0.79314 0.89945 2.4785 0.0992 1.943-1.0689-1.2964-1.3823-3.2881-2.0664-4.8054-3.2247 1.3634-1.1317 3.294-1.8225 4.8125-0.54141 1.5404 0.56466 2.8982 1.8876 4.5295 2.0984 1.1752-0.12297 1.1101-1.9044-9e-3 -2.1426l-4.0058-2.5206c1.376-1.1112 3.2958-1.7912 4.8125-0.50979 1.5404 0.56466 2.8982 1.8876 4.5295 2.0984 1.183-0.1253 1.096-1.9065-0.0169-2.1429-1.3327-0.84007-2.6654-1.6802-3.9981-2.5202 1.5043-1.1908 3.4945-1.904 4.7896-3.2958 0.57369-1.1298-1.062-2.0082-1.862-1.1232-1.3974 0.73796-2.7947 1.4759-4.1921 2.2139-0.2512-1.9093 0.0563-3.9492-0.4426-5.8012-0.6972-1.0702-2.2725-0.0865-1.9164 1.0508-0.28928 1.9956 0.2789 4.2444-0.59669 6.0669-0.37933 0.62922-2.6026 2.5025-2.4103 0.99235-0.27647-1.6541 0.15904-3.5072-0.43525-5.0751-0.72338-1.0221-2.2297-0.0142-1.8848 1.0903-0.34682 2.1686 0.43646 4.6694-0.88144 6.5525-1.0844 0.77794-2.6192 2.0734-2.1645-0.2193-0.31639-1.4292 0.28784-3.1557-0.4911-4.4438-0.82208-0.82597-2.0894 0.1915-1.79 1.2168-0.34558 2.1716 0.43421 4.6723-0.88143 6.5604-2.206 1.4701-4.6601 2.5179-6.971 3.8095 0.0106-2.7172-0.6132-5.5248-0.12695-8.1861 1.0146-1.8991 3.4149-2.4692 5.0369-3.7858 1.1953-0.22266 1.3715-2.1354 0.0456-2.2308-1.8608 0.44469-3.4727 1.7977-5.2559 2.5212-0.19356-1.7509 0.15079-3.7748 2.034-4.4299 1.272-1.0244 3.0483-1.5385 4.1071-2.7781 0.56088-1.1191-1.0672-2.0087-1.8731-1.1293-1.4121 0.72155-2.8243 1.4431-4.2364 2.1646-0.23649-1.7439 0.12303-3.7562 2.0018-4.4072 1.2648-1.0428 3.0895-1.5282 4.1156-2.8088 0.5214-1.1156-1.0881-1.9638-1.8812-1.098-1.4147 0.72164-2.8294 1.4433-4.2441 2.1649-0.23909-1.9057 0.14539-3.9615-0.37147-5.8012-0.22741-0.29395-0.58686-0.50392-0.97214-0.4426z" display="inline"/>
  </g>
 </g>
 <g id="layer3" transform="translate(-134.65 -73.709)" display="none">
  <g id="g7396" transform="matrix(1.6357 0 0 1.6357 -313.79 -222.3)">
   <g id="g6514" transform="translate(-1.8032 -2.9018)" filter="url(#filter6524)">
    <path id="path6516" d="m369.8 273.16c-1.5368 0.35227-0.76143 2.4392-1.05 3.5215l-0.17511 18.767-0.26082 7.9036-7.1063-3.9806-15.772-8.8271c-1.22-0.29571-2.5137-2.1198-3.8201-1.2449-0.94806 0.91032 0.33233 2.0496 1.2107 2.3326l17.228 10.234 6.6864 4.0862-6.9394 4.2442-13.618 8.0458c-1.5192 1.1731-3.4737 1.92-4.7896 3.2958-0.59045 1.1219 1.0658 2.0099 1.8624 1.1238l18.086-10.197 6.8761-3.8332 0.21389 8.2019 0.29811 19.608c-0.25396 0.94897 0.12652 2.9231 1.5113 2.374 1.2599-0.82479 0.39566-2.731 0.76882-3.9634l0.10251-19.517 0.20356-6.6398 7.2016 3.9803 15.781 8.8405c1.2208 0.2943 2.5145 2.1144 3.8186 1.2396 0.92985-0.91604-0.33407-2.0636-1.2181-2.3335l-17.221-10.225-6.8129-4.1099 7.0658-4.2205 13.618-8.0538c1.5043-1.1908 3.4945-1.904 4.7896-3.2958 0.57369-1.1298-1.062-2.0082-1.862-1.1232-1.3974 0.73796-2.7947 1.4759-4.1921 2.2139l-13.895 7.9905-6.971 3.8095-0.12695-8.1861-0.14965-15.817c-0.23909-1.9057 0.14539-3.9615-0.37147-5.8012-0.22741-0.29395-0.58686-0.50392-0.97214-0.4426h-1.4e-4z" display="inline"/>
    <path id="path6518" d="m402.74 305.97c-0.35227-1.5368-2.4392-0.76143-3.5215-1.05l-18.767-0.17511-7.9036-0.26082 3.9806-7.1063 8.8271-15.772c0.29571-1.22 2.1198-2.5137 1.2449-3.8201-0.91032-0.94806-2.0496 0.33233-2.3326 1.2107l-10.234 17.228-4.0862 6.6864-4.2442-6.9394-8.0458-13.618c-1.1731-1.5192-1.92-3.4737-3.2958-4.7896-1.1219-0.59045-2.0099 1.0658-1.1238 1.8624l10.197 18.086 3.8332 6.8761-8.2019 0.21389-19.608 0.29811c-0.94897-0.25396-2.9231 0.12652-2.374 1.5113 0.82479 1.2599 2.731 0.39566 3.9634 0.76882l19.517 0.10251 6.6398 0.20356-3.9803 7.2016-8.8405 15.781c-0.2943 1.2208-2.1144 2.5145-1.2396 3.8186 0.91604 0.92985 2.0636-0.33407 2.3335-1.2181l10.225-17.221 4.1099-6.8129 4.2205 7.0658 8.0538 13.618c1.1908 1.5043 1.904 3.4945 3.2958 4.7896 1.1298 0.57369 2.0082-1.062 1.1232-1.862-0.73796-1.3974-1.4759-2.7947-2.2139-4.1921l-7.9905-13.895-3.8095-6.971 8.1861-0.12695 15.817-0.14965c1.9057-0.23909 3.9615 0.14539 5.8012-0.37147 0.29395-0.22741 0.50392-0.58686 0.4426-0.97214v-1.4e-4z" display="inline"/>
    <path id="path6520" d="m393.69 312.37c0.0431-1.1817-1.6192-1.0251-2.3473-1.4442l-13.561-3.7697-5.6751-1.7232 4.2631-4.3754 9.4563-9.7124c0.45105-0.82644 2.0236-1.4095 1.6434-2.5258-0.47544-0.86352-1.5493-0.1571-1.9249 0.42431l-10.758 10.494-4.2581 4.0508-1.7277-5.851-3.1853-11.427c-0.55494-1.3283-0.71666-2.8892-1.4579-4.1096-0.69816-0.64552-1.663 0.38198-1.1756 1.131l3.8764 15.082 1.4422 5.7255-5.9834-1.4372-14.263-3.5902c-0.63818-0.36819-2.1422-0.47576-2.0132 0.63403 0.35296 1.0728 1.9017 0.81676 2.722 1.3263l14.119 3.8629 4.7707 1.4364-4.2814 4.4445-9.4678 9.7162c-0.45018 0.82727-2.0198 1.4112-1.6393 2.5258 0.48313 0.85145 1.5598 0.15858 1.927-0.42946l10.75-10.491 4.2998-4.1378 1.686 5.938 3.191 11.429c0.57065 1.3209 0.70102 2.9012 1.4579 4.1095 0.70709 0.63491 1.6609-0.37954 1.1752-1.1309-0.26337-1.1556-0.52674-2.3111-0.7901-3.4667l-3.0916-11.617-1.4066-5.7896 5.955 1.4971 11.488 2.9619c1.427 0.19672 2.8417 0.87432 4.2748 0.85699 0.25709-0.10768 0.47898-0.32733 0.50934-0.61834l3e-5 -1.1e-4z" display="inline"/>
    <path id="path6522" d="m387.33 323.43c0.62818-1.0018-0.88977-1.6974-1.3107-2.4244l-9.8596-10.045-4.0532-4.3298 5.8797-1.6577 13.046-3.683c0.80384-0.4902 2.4572-0.20891 2.6861-1.3657 0.02-0.98555-1.2632-0.91073-1.8792-0.59499l-14.564 3.7093-5.713 1.379 1.4293-5.931 2.9551-11.489c0.18357-1.4278 0.82397-2.8605 0.7922-4.2879-0.28186-0.90812-1.6312-0.50067-1.5836 0.39167l-4.1839 15-1.6137 5.6795-4.4632-4.2363-10.557-10.241c-0.36859-0.63795-1.6173-1.4831-2.0605-0.45751-0.23073 1.1056 1.2385 1.6582 1.6942 2.5096l10.296 10.405 3.4134 3.6292-5.9301 1.7084-13.057 3.6806c-0.8035 0.49135-2.4548 0.2122-2.6826 1.3677-7e-3 0.97894 1.2716 0.91726 1.8835 0.59155l14.556-3.71 5.7927-1.4335-1.509 5.9855-2.951 11.493c-0.16627 1.4293-0.84349 2.863-0.7922 4.2879 0.29491 0.90339 1.6282 0.50178 1.5832-0.39181 0.3497-1.1324 0.6994-2.2649 1.0491-3.3973l3.1311-11.606 1.6766-5.7172 4.4087 4.274 8.4676 8.3089c1.1375 0.88387 2.0238 2.178 3.2736 2.8796 0.27649 0.0353 0.57848-0.044 0.75027-0.28082l9e-5 -8e-5z" display="inline"/>
   </g>
   <g id="g6508" transform="translate(-1.8032 -2.9018)">
    <path id="path4253-0" d="m369.8 273.16c-1.5368 0.35227-0.76143 2.4392-1.05 3.5215l-0.17511 18.767-0.26082 7.9036-7.1063-3.9806-15.772-8.8271c-1.22-0.29571-2.5137-2.1198-3.8201-1.2449-0.94806 0.91032 0.33233 2.0496 1.2107 2.3326l17.228 10.234 6.6864 4.0862-6.9394 4.2442-13.618 8.0458c-1.5192 1.1731-3.4737 1.92-4.7896 3.2958-0.59045 1.1219 1.0658 2.0099 1.8624 1.1238l18.086-10.197 6.8761-3.8332 0.21389 8.2019 0.29811 19.608c-0.25396 0.94897 0.12652 2.9231 1.5113 2.374 1.2599-0.82479 0.39566-2.731 0.76882-3.9634l0.10251-19.517 0.20356-6.6398 7.2016 3.9803 15.781 8.8405c1.2208 0.2943 2.5145 2.1144 3.8186 1.2396 0.92985-0.91604-0.33407-2.0636-1.2181-2.3335l-17.221-10.225-6.8129-4.1099 7.0658-4.2205 13.618-8.0538c1.5043-1.1908 3.4945-1.904 4.7896-3.2958 0.57369-1.1298-1.062-2.0082-1.862-1.1232-1.3974 0.73796-2.7947 1.4759-4.1921 2.2139l-13.895 7.9905-6.971 3.8095-0.12695-8.1861-0.14965-15.817c-0.23909-1.9057 0.14539-3.9615-0.37147-5.8012-0.22741-0.29395-0.58686-0.50392-0.97214-0.4426h-1.4e-4z" display="inline"/>
    <path id="path6500" d="m402.74 305.97c-0.35227-1.5368-2.4392-0.76143-3.5215-1.05l-18.767-0.17511-7.9036-0.26082 3.9806-7.1063 8.8271-15.772c0.29571-1.22 2.1198-2.5137 1.2449-3.8201-0.91032-0.94806-2.0496 0.33233-2.3326 1.2107l-10.234 17.228-4.0862 6.6864-4.2442-6.9394-8.0458-13.618c-1.1731-1.5192-1.92-3.4737-3.2958-4.7896-1.1219-0.59045-2.0099 1.0658-1.1238 1.8624l10.197 18.086 3.8332 6.8761-8.2019 0.21389-19.608 0.29811c-0.94897-0.25396-2.9231 0.12652-2.374 1.5113 0.82479 1.2599 2.731 0.39566 3.9634 0.76882l19.517 0.10251 6.6398 0.20356-3.9803 7.2016-8.8405 15.781c-0.2943 1.2208-2.1144 2.5145-1.2396 3.8186 0.91604 0.92985 2.0636-0.33407 2.3335-1.2181l10.225-17.221 4.1099-6.8129 4.2205 7.0658 8.0538 13.618c1.1908 1.5043 1.904 3.4945 3.2958 4.7896 1.1298 0.57369 2.0082-1.062 1.1232-1.862-0.73796-1.3974-1.4759-2.7947-2.2139-4.1921l-7.9905-13.895-3.8095-6.971 8.1861-0.12695 15.817-0.14965c1.9057-0.23909 3.9615 0.14539 5.8012-0.37147 0.29395-0.22741 0.50392-0.58686 0.4426-0.97214v-1.4e-4z" display="inline"/>
    <path id="path6504" d="m393.69 312.37c0.0431-1.1817-1.6192-1.0251-2.3473-1.4442l-13.561-3.7697-5.6751-1.7232 4.2631-4.3754 9.4563-9.7124c0.45105-0.82644 2.0236-1.4095 1.6434-2.5258-0.47544-0.86352-1.5493-0.1571-1.9249 0.42431l-10.758 10.494-4.2581 4.0508-1.7277-5.851-3.1853-11.427c-0.55494-1.3283-0.71666-2.8892-1.4579-4.1096-0.69816-0.64552-1.663 0.38198-1.1756 1.131l3.8764 15.082 1.4422 5.7255-5.9834-1.4372-14.263-3.5902c-0.63818-0.36819-2.1422-0.47576-2.0132 0.63403 0.35296 1.0728 1.9017 0.81676 2.722 1.3263l14.119 3.8629 4.7707 1.4364-4.2814 4.4445-9.4678 9.7162c-0.45018 0.82727-2.0198 1.4112-1.6393 2.5258 0.48313 0.85145 1.5598 0.15858 1.927-0.42946l10.75-10.491 4.2998-4.1378 1.686 5.938 3.191 11.429c0.57065 1.3209 0.70102 2.9012 1.4579 4.1095 0.70709 0.63491 1.6609-0.37954 1.1752-1.1309-0.26337-1.1556-0.52674-2.3111-0.7901-3.4667l-3.0916-11.617-1.4066-5.7896 5.955 1.4971 11.488 2.9619c1.427 0.19672 2.8417 0.87432 4.2748 0.85699 0.25709-0.10768 0.47898-0.32733 0.50934-0.61834l3e-5 -1.1e-4z" display="inline"/>
    <path id="path6506" d="m387.33 323.43c0.62818-1.0018-0.88977-1.6974-1.3107-2.4244l-9.8596-10.045-4.0532-4.3298 5.8797-1.6577 13.046-3.683c0.80384-0.4902 2.4572-0.20891 2.6861-1.3657 0.02-0.98555-1.2632-0.91073-1.8792-0.59499l-14.564 3.7093-5.713 1.379 1.4293-5.931 2.9551-11.489c0.18357-1.4278 0.82397-2.8605 0.7922-4.2879-0.28186-0.90812-1.6312-0.50067-1.5836 0.39167l-4.1839 15-1.6137 5.6795-4.4632-4.2363-10.557-10.241c-0.36859-0.63795-1.6173-1.4831-2.0605-0.45751-0.23073 1.1056 1.2385 1.6582 1.6942 2.5096l10.296 10.405 3.4134 3.6292-5.9301 1.7084-13.057 3.6806c-0.8035 0.49135-2.4548 0.2122-2.6826 1.3677-7e-3 0.97894 1.2716 0.91726 1.8835 0.59155l14.556-3.71 5.7927-1.4335-1.509 5.9855-2.951 11.493c-0.16627 1.4293-0.84349 2.863-0.7922 4.2879 0.29491 0.90339 1.6282 0.50178 1.5832-0.39181 0.3497-1.1324 0.6994-2.2649 1.0491-3.3973l3.1311-11.606 1.6766-5.7172 4.4087 4.274 8.4676 8.3089c1.1375 0.88387 2.0238 2.178 3.2736 2.8796 0.27649 0.0353 0.57848-0.044 0.75027-0.28082l9e-5 -8e-5z" display="inline"/>
   </g>
  </g>
 </g>
 <g id="layer4" transform="translate(-134.65 -73.709)">
  <g id="g7004" transform="matrix(1.6384 0 0 1.6384 -637.03 -222.64)" filter="url(#filter7026)">
   <path id="path7006" d="m562.53 269.31c-1.5368 0.35227-0.74273 2.4177-1.0312 3.5l-0.1875 18.781-0.0625 1.5-2.875-10.438c-0.55494-1.3283-0.72752-2.9047-1.4688-4.125-0.17454-0.16138-0.38149-0.20476-0.5625-0.1875-0.54304 0.0518-0.99049 0.75072-0.625 1.3125l3.5625 13.812-0.84375-1.3438-8.0312-13.625c-1.1731-1.5192-1.9368-3.4654-3.3125-4.7812-0.14024-0.0738-0.27633-0.11534-0.40625-0.125-0.90945-0.0676-1.4941 1.2718-0.71875 1.9688l10.219 18.094 0.71875 1.3125-9.8125-9.5312c-0.36859-0.63795-1.6193-1.4631-2.0625-0.4375-0.23073 1.1056 1.2318 1.6485 1.6875 2.5l8.8125 8.9062-1.5938-0.875-15.75-8.8438c-1.22-0.29571-2.5061-2.1249-3.8125-1.25-0.13772 0.13224-0.22952 0.26767-0.28125 0.40625h0.0625l24.156 13.969 1.25 0.71875 5.7188 3.3125 0.0312 0.0312 0.6875 0.40625 0.46875 0.25 0.0312 0.0312 24.5 14.156c0.60753-0.87948-0.51827-1.9042-1.3438-2.1562l-17.219-10.219-1.2812-0.78125 10.5 2.7188c1.427 0.19672 2.8482 0.86108 4.2812 0.84375 0.25709-0.10768 0.46964-0.33399 0.5-0.625 0.0431-1.1817-1.6157-1.0184-2.3438-1.4375l-12.344-3.4374 1.6562-0.0312 15.812-0.125c1.9057-0.23909 3.9728 0.14186 5.8125-0.375 0.29395-0.22741 0.49882-0.58347 0.4375-0.96875-0.35227-1.5368-2.4177-0.77398-3.5-1.0625l-18.781-0.1875-1.4375-0.0312 12.031-3.4062c0.80384-0.4902 2.4587-0.2182 2.6875-1.375 0.02-0.98555-1.259-0.90949-1.875-0.59375l-13.406 3.4062 1.5-0.875 13.594-8.0312c1.5043-1.1908 3.5174-1.9207 4.8125-3.3125 0.57369-1.1298-1.075-2.01-1.875-1.125l-4.1875 2.2188-13.906 8-1.2812 0.71875 8.7188-9c0.45105-0.82644 2.0365-1.3838 1.6562-2.5-0.47544-0.86352-1.5619-0.17516-1.9375 0.40625l-9.7812 9.5625 0.78125-1.4062 8.8125-15.781c0.29571-1.22 2.1249-2.5061 1.25-3.8125-0.91032-0.94806-2.0607 0.30909-2.3438 1.1875l-10.219 17.25-0.78125 1.2812 2.6875-10.5c0.18357-1.4278 0.84427-2.8851 0.8125-4.3125-0.1057-0.34055-0.38029-0.48565-0.65625-0.5-0.45994-0.0239-0.96719 0.34854-0.9375 0.90625l-3.8438 13.781-0.0312-1.6562-0.15625-15.812c-0.23909-1.9057 0.17311-3.9728-0.34375-5.8125-0.22741-0.29395-0.61472-0.49882-1-0.4375z"/>
   <g id="g7008" transform="translate(61.974 -36.723)">
    <path id="path7010" d="m472.19 322.57c-0.47856 0.85123 0.61509 1.8076 1.4062 2.0625 0.702 0.86001 4.0598 1.7171 2.7188 2.5625-1.2819 1.0505-3.1367 1.5713-4.1562 2.875-0.48541 1.1016 1.0574 1.8759 1.8438 1.0625 2.0716-0.77715 3.8842-2.6524 6.1875-2.4688 1.1834 0.55284 2.9998 1.3024 0.8125 2-1.0543 0.97427-2.9101 1.2992-3.5625 2.625-0.31062 1.2285 1.3626 1.6593 2.0938 0.8125 1.9939-0.74969 3.7444-2.5495 5.9688-2.3438 1.4494 0.59851 2.8646 1.4369 0.625 2.1562-0.97784 0.95394-2.9051 1.1899-3.375 2.5625-0.20158 1.1945 1.4231 1.5476 2.125 0.75 1.9939-0.74969 3.7132-2.5807 5.9375-2.375 2.3219 1.2006 4.452 2.7433 6.6875 4.0938-2.3402 1.339-4.4603 3.2623-6.9375 4.25-2.1524 0.0656-3.8534-1.7033-5.8125-2.4375-1.052-1.2104-2.903 0.54353-1.5625 1.5l4.4375 2.7812c-1.3589 1.1423-3.2934 1.8485-4.8125 0.5625-1.5443-0.55299-2.8947-1.9022-4.5312-2.0938-1.1752 0.13253-1.1049 1.8743 0 2.125l4 2.5312c-1.3745 1.112-3.2986 1.7809-4.8125 0.5-1.5443-0.55299-2.8947-1.9022-4.5312-2.0938-1.1751 0.1323-1.1053 1.9066 0 2.1562l4.0312 2.5c-1.5192 1.1731-3.4966 1.9368-4.8125 3.3125-0.59045 1.1219 1.0785 2.0111 1.875 1.125l4.1875-2.2188c0.2815 1.9094-0.12881 4.0199 0.46875 5.8438 0.72396 1.0197 2.2743-7e-3 1.9062-1.125 0.34526-2.1605-0.43001-4.6503 0.875-6.5312 1.0651-0.75361 2.6184-2.0063 2.1562 0.25 0.3375 1.4275-0.3216 3.2349 0.5625 4.4688 0.95052 0.85773 2.1139-0.46169 1.7188-1.5 0.33355-2.0794-0.42473-4.4861 0.875-6.2812 1.0844-0.77794 2.6426-2.074 2.1875 0.21875 0.33749 1.4275-0.35286 3.2349 0.53125 4.4688 0.82646 0.7854 2.031-0.28683 1.7188-1.2812 0.35009-2.1604-0.4126-4.6565 0.90625-6.5312 2.1515-1.5168 4.5783-2.5427 6.875-3.8125-9e-3 2.7195 0.57543 5.5248 0.21875 8.1875-1.0147 1.8989-3.4102 2.4631-5.0312 3.7812-1.1555 0.21056-1.4084 2.0468-0.15625 2.2188 1.6148-0.17701 2.9772-1.5164 4.5-2.0625 1.4351-1.2142 0.88253 1.6614 0.53125 2.4375-1.0868 1.7178-3.3363 2.3374-4.9062 3.5938-1.1555 0.21057-1.3771 2.0156-0.125 2.1875 1.6148-0.17698 2.9449-1.4872 4.4688-2.0312 1.3821-1.1884 0.93329 1.6576 0.5625 2.4062-1.0931 1.7105-3.3369 2.3083-4.9062 3.5625-1.1555 0.21057-1.3771 2.0468-0.125 2.2188 1.6148-0.177 2.9456-1.5171 4.4688-2.0625 1.6595-1.1441 0.61319 2.3452 1 3.375-0.25396 0.94897 0.11521 2.9241 1.5 2.375 1.2599-0.82479 0.40809-2.7364 0.78125-3.9688-0.38646-2.4031 0.67407-2.2498 2.3438-1.0312 1.1188 0.31067 2.6038 2.1477 3.7188 0.9375 0.80096-1.4304-1.3794-2.0379-2.1875-2.6875-1.6021-1.1314-4.2023-2.009-3.8125-4.4375-0.44845-2.0906 1.5272-0.17244 2.5 0.15625 1.0067 0.36472 2.7065 2.1028 3.5938 0.65625 0.51108-1.5079-1.7065-1.8787-2.5-2.6562-1.5412-1.0626-3.9775-1.9425-3.5938-4.25-0.35296-2.3708 2.0945 0.18718 3.2188 0.4375 0.74531 0.58705 2.5278 1.563 2.9688 0.125 0.18892-1.5095-1.9665-1.7633-2.7812-2.625-1.5349-0.97974-3.7655-1.9404-3.375-4.1562-0.0435-2.2135 0.17042-4.4117 0.21875-6.625 2.3613 1.3705 5.0943 2.2445 7.1875 3.9688 1.1193 1.7389 0.43076 3.9959 0.75 5.9688-0.37061 1.0211 0.68736 2.4784 1.7188 1.6562 0.92721-1.0749 0.2236-2.8035 0.5625-4.0938-0.3114-2.0109 0.5384-2.0957 1.9062-0.8125 1.7252 1.4983 0.75169 4.1051 1.125 6.125-0.28249 0.92668 0.30451 2.5688 1.5 2.0312 1.2222-0.74521 0.40474-2.5687 0.75-3.7188-0.0613-1.5217-0.0111-3.1204 1.5312-1.625 2.2001 1.2136 1.1714 4.0778 1.5312 6.125-0.23574 0.93032 0.14157 2.7936 1.4688 2.3125 1.2748-0.7133 0.46295-2.5962 0.8125-3.75-0.24348-2.1482 0.3047-2.8592 2.125-1.375 1.2208 0.2943 2.5396 2.1247 3.8438 1.25 0.0872-0.0859 0.13677-0.19221 0.1875-0.28125l-56.906-32.906z"/>
    <path id="path7012" d="m472.63 322.82c-0.1165 0.23585-0.0411 0.55459 0.1875 0.6875l5.0938 3.2812-5.125 3.2188c-0.21624 0.14664-0.28609 0.49202-0.15625 0.71875 0.12984 0.22675 0.45158 0.29979 0.6875 0.1875l5.4062-2.75h1.5938l1.5 0.8125 1.4062 0.90625-5.0938 3.2188c-0.21627 0.14664-0.2861 0.46076-0.15625 0.6875 0.12983 0.22675 0.45158 0.33104 0.6875 0.21875l5.375-2.75h1.5938l1.2812 0.65625 1.6562 1.0625-5.125 3.2188c-0.21627 0.14664-0.28609 0.46076-0.15625 0.6875 0.12984 0.22675 0.45159 0.33104 0.6875 0.21875l5.4062-2.75h1.5938l1.3438 0.6875 5.7812 3.6875a0.28097 0.28097 0 0 1 0.0312 0.0312 0.28097 0.28097 0 0 1 0.0625 0.0937 0.28097 0.28097 0 0 1 0 0.0937 0.28097 0.28097 0 0 1 0 0.0625 0.28097 0.28097 0 0 1 -0.0312 0.0937 0.28097 0.28097 0 0 1 -0.0625 0.0625l-6.2812 4.0625-0.84375 0.46875h-1.5938l-5.4062-2.7812c-0.23591-0.11228-0.55766-8e-3 -0.6875 0.21875-0.12984 0.22673-0.06 0.54086 0.15625 0.6875l5.125 3.2188-1.7188 1.125-1.2188 0.625h-1.5938l-5.375-2.75c-0.23592-0.11228-0.55767-8e-3 -0.6875 0.21875-0.12985 0.22673-0.06 0.54086 0.15625 0.6875l5.0938 3.2188-1.375 0.90625-1.5312 0.8125h-1.5938l-5.4062-2.7812c-0.23592-0.11229-0.55766-8e-3 -0.6875 0.21875-0.12984 0.22673-0.06 0.54086 0.15625 0.6875l5.125 3.2188-5.0938 3.3125c-0.23749 0.13809-0.32555 0.48123-0.1875 0.71875 0.13804 0.23752 0.48121 0.3255 0.71875 0.1875l5.3438-2.8125 0.3125 6.0312c0 0.27612 0.25512 0.53125 0.53125 0.53125 0.27612 0 0.53125-0.25513 0.53125-0.53125l0.21875-6.0312 0.8125-1.375 1.4375-0.90625 1.5-0.8125 0.28125 6.0625c0 0.27612 0.25513 0.53125 0.53125 0.53125 0.27613 0 0.53125-0.25513 0.53125-0.53125l0.25-6.0312 0.78125-1.375 1.7188-1.0938 1.2188-0.65625 0.3125 6.0312c0 0.27612 0.25513 0.53125 0.53125 0.53125 0.27613 0 0.53125-0.25513 0.53125-0.53125l0.21875-6.0312 0.8125-1.375 1.8125-1.1562 5.5312-2.9062a0.28097 0.28097 0 0 1 0.0625 0 0.28097 0.28097 0 0 1 0.0937 -0.0312 0.28097 0.28097 0 0 1 0.0625 0.0312 0.28097 0.28097 0 0 1 0.0625 0.0312 0.28097 0.28097 0 0 1 0.0312 0.0312 0.28097 0.28097 0 0 1 0.0312 0.0312 0.28097 0.28097 0 0 1 0.0312 0.15625l0.40625 7.6875-0.0312 0.8125-0.78125 1.375-5.125 3.2188c-0.23913 0.13806-0.32557 0.47961-0.1875 0.71875 0.13806 0.23913 0.47962 0.32557 0.71875 0.1875l5.4062-2.75 0.0312 1.375-0.0937 2.0312-0.78125 1.375-5.125 3.25c-0.23912 0.13806-0.32557 0.47961-0.1875 0.71875 0.13806 0.23912 0.47963 0.32556 0.71875 0.1875l5.4062-2.75 0.0625 1.6562-0.0937 1.7188-0.78125 1.375-5.125 3.2188c-0.23913 0.13806-0.32557 0.47961-0.1875 0.71875 0.13806 0.23912 0.47963 0.32556 0.71875 0.1875l5.4062-2.75 0.21875 6.0312c-7.6e-4 0.27472 0.25654 0.53049 0.53125 0.53125 0.27472 7.6e-4 0.53049-0.22528 0.53125-0.5l0.3125-6.0625 5.3438 2.8125c0.23512 0.11396 0.52481 7e-3 0.65625-0.21875 0.13144-0.22581 0.0902-0.53933-0.125-0.6875l-5.0938-3.2812-0.8125-1.4062-0.0625-1.75 0.0937-1.625 5.3438 2.8125c0.23513 0.11398 0.52481 0.0383 0.65625-0.1875 0.13146-0.22582 0.0589-0.57059-0.15625-0.71875l-5.0625-3.2812-0.8125-1.375-0.0625-1.375 0.125-2.0312 5.3125 2.8125c0.23512 0.11397 0.55607 7e-3 0.6875-0.21875 0.13146-0.22582 0.0589-0.53933-0.15625-0.6875l-5.0625-3.2812-0.8125-1.4062-0.0937-2.125 0.25-6.2812a0.28097 0.28097 0 0 1 0.0625 -0.1875 0.28097 0.28097 0 0 1 0.25 -0.0625 0.28097 0.28097 0 0 1 0.0937 0l6.375 3.25 1.1562 0.75 0.8125 1.375 0.21875 6.0312c0 0.27612 0.25512 0.53125 0.53125 0.53125s0.53125-0.25513 0.53125-0.53125l0.3125-6.0312 1.25 0.65625 1.6875 1.0938 0.78125 1.375 0.25 6.0312c0 0.27612 0.25512 0.53125 0.53125 0.53125 0.27612 0 0.53125-0.25513 0.53125-0.53125l0.3125-6.0625 1.4375 0.78125 1.4688 0.9375 0.8125 1.375 0.21875 6.0312c0 0.27612 0.25513 0.53125 0.53125 0.53125s0.53125-0.25513 0.53125-0.53125l0.3125-6.0312 5.3438 2.8125c0.23755 0.138 0.58071 0.05 0.71875-0.1875 5e-3 -8e-3 -4e-3 -0.0232 0-0.0312l-56.031-32.406z" opacity=".94"/>
    <path id="path7014" d="m472.63 322.82c-0.1165 0.23585-0.0411 0.55459 0.1875 0.6875l5.0938 3.2812-5.125 3.2188c-0.21624 0.14664-0.28609 0.49202-0.15625 0.71875 0.12984 0.22675 0.45158 0.29979 0.6875 0.1875l5.4062-2.75h1.5938l1.5 0.8125 1.4062 0.90625-5.0938 3.2188c-0.21627 0.14664-0.2861 0.46076-0.15625 0.6875 0.12983 0.22675 0.45158 0.33104 0.6875 0.21875l5.375-2.75h1.5938l1.2812 0.65625 1.6562 1.0625-5.125 3.2188c-0.21627 0.14664-0.28609 0.46076-0.15625 0.6875 0.12984 0.22675 0.45159 0.33104 0.6875 0.21875l5.4062-2.75h1.5938l1.3438 0.6875 5.7812 3.6875a0.28097 0.28097 0 0 1 0.0312 0.0312 0.28097 0.28097 0 0 1 0.0625 0.0937 0.28097 0.28097 0 0 1 0 0.0937 0.28097 0.28097 0 0 1 0 0.0625 0.28097 0.28097 0 0 1 -0.0312 0.0937 0.28097 0.28097 0 0 1 -0.0625 0.0625l-6.2812 4.0625-0.84375 0.46875h-1.5938l-5.4062-2.7812c-0.23591-0.11228-0.55766-8e-3 -0.6875 0.21875-0.12984 0.22673-0.06 0.54086 0.15625 0.6875l5.125 3.2188-1.7188 1.125-1.2188 0.625h-1.5938l-5.375-2.75c-0.23592-0.11228-0.55767-8e-3 -0.6875 0.21875-0.12985 0.22673-0.06 0.54086 0.15625 0.6875l5.0938 3.2188-1.375 0.90625-1.5312 0.8125h-1.5938l-5.4062-2.7812c-0.23592-0.11229-0.55766-8e-3 -0.6875 0.21875-0.12984 0.22673-0.06 0.54086 0.15625 0.6875l5.125 3.2188-5.0938 3.3125c-0.23749 0.13809-0.32555 0.48123-0.1875 0.71875 0.13804 0.23752 0.48121 0.3255 0.71875 0.1875l5.3438-2.8125 0.3125 6.0312c0 0.27612 0.25512 0.53125 0.53125 0.53125 0.27612 0 0.53125-0.25513 0.53125-0.53125l0.21875-6.0312 0.8125-1.375 1.4375-0.90625 1.5-0.8125 0.28125 6.0625c0 0.27612 0.25513 0.53125 0.53125 0.53125 0.27613 0 0.53125-0.25513 0.53125-0.53125l0.25-6.0312 0.78125-1.375 1.7188-1.0938 1.2188-0.65625 0.3125 6.0312c0 0.27612 0.25513 0.53125 0.53125 0.53125 0.27613 0 0.53125-0.25513 0.53125-0.53125l0.21875-6.0312 0.8125-1.375 1.8125-1.1562 5.5312-2.9062a0.28097 0.28097 0 0 1 0.0625 0 0.28097 0.28097 0 0 1 0.0937 -0.0312 0.28097 0.28097 0 0 1 0.0625 0.0312 0.28097 0.28097 0 0 1 0.0625 0.0312 0.28097 0.28097 0 0 1 0.0312 0.0312 0.28097 0.28097 0 0 1 0.0312 0.0312 0.28097 0.28097 0 0 1 0.0312 0.15625l0.40625 7.6875-0.0312 0.8125-0.78125 1.375-5.125 3.2188c-0.23913 0.13806-0.32557 0.47961-0.1875 0.71875 0.13806 0.23913 0.47962 0.32557 0.71875 0.1875l5.4062-2.75 0.0312 1.375-0.0937 2.0312-0.78125 1.375-5.125 3.25c-0.23912 0.13806-0.32557 0.47961-0.1875 0.71875 0.13806 0.23912 0.47963 0.32556 0.71875 0.1875l5.4062-2.75 0.0625 1.6562-0.0937 1.7188-0.78125 1.375-5.125 3.2188c-0.23913 0.13806-0.32557 0.47961-0.1875 0.71875 0.13806 0.23912 0.47963 0.32556 0.71875 0.1875l5.4062-2.75 0.21875 6.0312c-7.6e-4 0.27472 0.25654 0.53049 0.53125 0.53125 0.27472 7.6e-4 0.53049-0.22528 0.53125-0.5l0.3125-6.0625 5.3438 2.8125c0.23512 0.11396 0.52481 7e-3 0.65625-0.21875 0.13144-0.22581 0.0902-0.53933-0.125-0.6875l-5.0938-3.2812-0.8125-1.4062-0.0625-1.75 0.0937-1.625 5.3438 2.8125c0.23513 0.11398 0.52481 0.0383 0.65625-0.1875 0.13146-0.22582 0.0589-0.57059-0.15625-0.71875l-5.0625-3.2812-0.8125-1.375-0.0625-1.375 0.125-2.0312 5.3125 2.8125c0.23512 0.11397 0.55607 7e-3 0.6875-0.21875 0.13146-0.22582 0.0589-0.53933-0.15625-0.6875l-5.0625-3.2812-0.8125-1.4062-0.0937-2.125 0.25-6.2812a0.28097 0.28097 0 0 1 0.0625 -0.1875 0.28097 0.28097 0 0 1 0.25 -0.0625 0.28097 0.28097 0 0 1 0.0937 0l6.375 3.25 1.1562 0.75 0.8125 1.375 0.21875 6.0312c0 0.27612 0.25512 0.53125 0.53125 0.53125s0.53125-0.25513 0.53125-0.53125l0.3125-6.0312 1.25 0.65625 1.6875 1.0938 0.78125 1.375 0.25 6.0312c0 0.27612 0.25512 0.53125 0.53125 0.53125 0.27612 0 0.53125-0.25513 0.53125-0.53125l0.3125-6.0625 1.4375 0.78125 1.4688 0.9375 0.8125 1.375 0.21875 6.0312c0 0.27612 0.25513 0.53125 0.53125 0.53125s0.53125-0.25513 0.53125-0.53125l0.3125-6.0312 5.3438 2.8125c0.23755 0.138 0.58071 0.05 0.71875-0.1875 5e-3 -8e-3 -4e-3 -0.0232 0-0.0312l-56.031-32.406z" opacity=".5"/>
    <path id="path7016" d="m499.78 338.54c-1.1466 0.67397-2.3106 1.3235-3.4375 2-3.6113 2.1682-7.1399 4.3415-10.625 6.375-1.7425 1.0168-3.4879 2.0057-5.2188 2.9375-0.89066 0.4795-1.766 0.89359-2.6562 1.3438l0.0625 0.0312-5.0938 3.3125c-0.23749 0.13809-0.32555 0.48123-0.1875 0.71875 0.13804 0.23752 0.48121 0.3255 0.71875 0.1875l5.3438-2.8125 0.3125 6.0312c0 0.27612 0.25512 0.53125 0.53125 0.53125 0.27612 0 0.53125-0.25513 0.53125-0.53125l0.21875-6.0312 0.8125-1.375 1.4375-0.90625 1.4688-0.8125 0.3125 6.0625c0 0.27612 0.25513 0.53125 0.53125 0.53125 0.27613 0 0.53125-0.25513 0.53125-0.53125l0.25-6.0312 0.78125-1.375 1.6875-1.0938 1.25-0.65625 0.3125 6.0312c0 0.27612 0.25513 0.53125 0.53125 0.53125 0.27613 0 0.5-0.25513 0.5-0.53125l0.25-6.0312 0.8125-1.375 1.8125-1.1562 5.5312-2.9062a0.28097 0.28097 0 0 1 0.0625 0 0.28097 0.28097 0 0 1 0.0625 -0.0312 0.28097 0.28097 0 0 1 0.0937 0.0312 0.28097 0.28097 0 0 1 0.0625 0.0312 0.28097 0.28097 0 0 1 0.0312 0.0312 0.28097 0.28097 0 0 1 0.0312 0.0312 0.28097 0.28097 0 0 1 0.0312 0.15625l0.40625 7.6875-0.0312 0.8125-0.78125 1.375-5.125 3.2188c-0.23913 0.13806-0.32557 0.47961-0.1875 0.71875 0.13806 0.23913 0.47962 0.32557 0.71875 0.1875l5.4062-2.75 0.0312 1.375-0.0937 2.0312-0.78125 1.375-5.125 3.25c-0.23912 0.13806-0.32557 0.47961-0.1875 0.71875 0.13806 0.23912 0.47963 0.32556 0.71875 0.1875l5.4062-2.75 0.0625 1.6562-0.0937 1.7188-0.78125 1.375-5.125 3.2188c-0.23913 0.13806-0.32557 0.47961-0.1875 0.71875 0.13806 0.23912 0.47963 0.32556 0.71875 0.1875l5.4062-2.75 0.21875 6.0312c-7.6e-4 0.27472 0.25654 0.53049 0.53125 0.53125 0.27472 7.6e-4 0.53049-0.22528 0.53125-0.5l0.3125-6.0625 5.3438 2.8125c0.23512 0.11396 0.52481 7e-3 0.65625-0.21875 0.13144-0.22581 0.0902-0.53933-0.125-0.6875l-5.0938-3.2812-0.8125-1.4062-0.0625-1.75 0.0937-1.625 5.3438 2.8125c0.23513 0.11398 0.52481 0.0383 0.65625-0.1875 0.13146-0.22582 0.0589-0.57059-0.15625-0.71875l-5.0625-3.2812-0.8125-1.375-0.0625-1.375 0.125-2.0312 5.3125 2.8125c0.23512 0.11397 0.55607 7e-3 0.6875-0.21875 0.13146-0.22582 0.0589-0.53933-0.15625-0.6875l-5.0938-3.2812-0.78125-1.4062-0.0937-2.125 0.25-6.2812a0.28097 0.28097 0 0 1 0 -0.0625 0.28097 0.28097 0 0 1 0.0625 -0.125 0.28097 0.28097 0 0 1 0.25 -0.0625 0.28097 0.28097 0 0 1 0.0937 0l6.375 3.25 1.1562 0.75 0.8125 1.375 0.21875 6.0312c0 0.27612 0.25512 0.53125 0.53125 0.53125s0.53125-0.25513 0.53125-0.53125l0.3125-6.0312 1.2188 0.65625 1.7188 1.0938 0.78125 1.375 0.25 6.0312c0 0.27612 0.25512 0.53125 0.53125 0.53125 0.27612 0 0.53125-0.25513 0.53125-0.53125l0.28125-6.0625 1.4688 0.78125 1.4688 0.9375 0.8125 1.375 0.21875 6.0312c0 0.27612 0.25513 0.53125 0.53125 0.53125s0.53125-0.25513 0.53125-0.53125l0.3125-6.0312 5.3438 2.8125c0.23755 0.138 0.58071 0.05 0.71875-0.1875 5e-3 -8e-3 -4e-3 -0.0232 0-0.0312l-28.875-16.688z" opacity=".5"/>
   </g>
   <path id="path7018" d="m562.62 269.78c-0.25648 0.064-0.36532 0.15389-0.45117 0.30664-0.0892 0.15867-0.14294 0.41415-0.15625 0.72656-0.0266 0.62484 0.12792 1.4087-0.0625 2.123l0.0156-0.11523-0.1875 18.781a0.46355 0.46355 0 0 1 0 0.0156l-0.0625 1.5a0.46355 0.46355 0 0 1 -0.91016 0.10352l-2.875-10.438 0.0195 0.0547c-0.57902-1.386-0.77361-2.8872-1.4043-3.9785-0.0505-0.0307-0.0975-0.0562-0.1543-0.0508-0.0873 8e-3 -0.22144 0.0958-0.28906 0.22265-0.0676 0.12683-0.0799 0.24219 8e-3 0.37696a0.46355 0.46355 0 0 1 0.0605 0.13672l3.5625 13.812a0.46355 0.46355 0 0 1 -0.8418 0.36132l-0.84375-1.3438a0.46355 0.46355 0 0 1 -6e-3 -0.01l-8.0312-13.625c-1.195-1.5645-1.9612-3.4194-3.1934-4.627-0.0603-0.0245-0.12179-0.0497-0.16211-0.0527-0.44346-0.033-0.84267 0.73996-0.37304 1.1621a0.46355 0.46355 0 0 1 0.0937 0.11523l10.219 18.094a0.46355 0.46355 0 0 1 2e-3 6e-3l0.71875 1.3125a0.46355 0.46355 0 0 1 -0.72852 0.55469l-9.8125-9.5312a0.46355 0.46355 0 0 1 -0.0781 -0.0996c-0.11399-0.19729-0.48218-0.53381-0.76758-0.64258-0.1427-0.0544-0.24831-0.0552-0.30078-0.0391-0.0415 0.0127-0.0844 0.0692-0.13281 0.1543-0.0202 0.14273-0.011 0.25579 0.0547 0.38476 0.074 0.14539 0.21243 0.31036 0.39257 0.48438 0.36029 0.34804 0.88167 0.69804 1.1875 1.2695l-0.0781-0.10742 8.8125 8.9062a0.46355 0.46355 0 0 1 -0.55274 0.73242l-1.5938-0.875a0.46355 0.46355 0 0 1 -4e-3 -2e-3l-15.75-8.8438 0.11718 0.0469c-0.78641-0.19061-1.4131-0.76231-2.0039-1.1191-0.29542-0.17841-0.57018-0.30231-0.79883-0.33984-0.12297-0.0202-0.23516 0.0498-0.3457 0.0762l23.615 13.654 1.248 0.71875a0.46355 0.46355 0 0 1 2e-3 2e-3l5.7188 3.3125a0.46355 0.46355 0 0 1 0.0859 0.0625l0.62695 0.37109 0.46094 0.2461a0.46355 0.46355 0 0 1 0.0977 0.0684l23.852 13.783c-0.0341-0.0924-0.0569-0.18231-0.13672-0.28516-0.23733-0.30569-0.6773-0.59163-0.97852-0.68359a0.46355 0.46355 0 0 1 -0.10156 -0.0449l-17.219-10.219a0.46355 0.46355 0 0 1 -6e-3 -2e-3l-1.2812-0.78125a0.46355 0.46355 0 0 1 0.35742 -0.8457l10.5 2.7188-0.0527-0.01c1.4783 0.20378 2.8347 0.79474 4.0879 0.81835 0.0768-0.0521 0.14871-0.11101 0.16016-0.17968 9.7e-4 -0.15802-0.0268-0.22168-0.0996-0.29297-0.0782-0.0766-0.23664-0.16155-0.45313-0.23047-0.43298-0.13783-1.0323-0.17418-1.5508-0.47266l0.10547 0.0449-12.344-3.4375a0.46355 0.46355 0 0 1 0.11719 -0.91016l1.6562-0.0312a0.46355 0.46355 0 0 1 4e-3 0l15.812-0.125-0.0547 4e-3c1.9578-0.24563 3.9449 0.0853 5.6152-0.33985 0.14906-0.1371 0.25013-0.29922 0.23047-0.45898-0.0642-0.25731-0.15613-0.36851-0.31055-0.45703-0.16031-0.0919-0.41627-0.14921-0.72851-0.16602-0.6245-0.0336-1.4069 0.11123-2.1172-0.0781l0.11523 0.0156-18.781-0.1875a0.46355 0.46355 0 0 1 -6e-3 0l-1.4375-0.0312a0.46355 0.46355 0 0 1 -0.11718 -0.9082l12.031-3.4062-0.11524 0.0488c0.55517-0.33856 1.1974-0.36574 1.6875-0.49024 0.24507-0.0622 0.44358-0.14146 0.56641-0.23047 0.11103-0.0804 0.16195-0.1674 0.19922-0.31445-7e-3 -0.0799-0.02-0.13917-0.0488-0.16797-0.0369-0.0368-0.11709-0.082-0.24805-0.10351-0.26192-0.043-0.6851 0.0411-0.89062 0.14648a0.46355 0.46355 0 0 1 -0.0977 0.0371l-13.406 3.4062a0.46355 0.46355 0 0 1 -0.34766 -0.84961l1.5-0.875 13.592-8.0293-0.0508 0.0352c1.5632-1.2374 3.4984-1.9705 4.6914-3.207 0.0602-0.14511 0.0739-0.25865 0.0371-0.35547-0.0418-0.11014-0.14153-0.22322-0.28125-0.30274-0.27946-0.15902-0.63637-0.16671-0.87891 0.10157a0.46355 0.46355 0 0 1 -0.12695 0.0996l-4.1797 2.2148-13.9 7.9961a0.46355 0.46355 0 0 1 -4e-3 2e-3l-1.2812 0.71875a0.46355 0.46355 0 0 1 -0.55859 -0.72657l8.7188-9-0.0742 0.0996c0.31394-0.57522 0.86272-0.91086 1.2285-1.2559 0.1829-0.17249 0.31726-0.33673 0.3789-0.4707 0.0556-0.12089 0.0545-0.21686 0.0137-0.36133-0.0476-0.0676-0.0882-0.1133-0.13086-0.125-0.0541-0.0148-0.1493-0.0124-0.27539 0.0332-0.25217 0.0913-0.57869 0.37093-0.70117 0.56054a0.46355 0.46355 0 0 1 -0.0645 0.0801l-9.7812 9.5625a0.46355 0.46355 0 0 1 -0.72852 -0.55664l0.78125-1.4062a0.46355 0.46355 0 0 1 0 -2e-3l8.8125-15.781-0.0469 0.11718c0.19061-0.78641 0.76231-1.4131 1.1191-2.0039 0.17841-0.29542 0.30231-0.57018 0.33984-0.79883 0.0351-0.214-1e-3 -0.38773-0.13281-0.60156-0.13168-0.12195-0.23539-0.17309-0.33789-0.17383-0.115-8.3e-4 -0.26445 0.0498-0.42774 0.16406-0.32656 0.22848-0.65662 0.71486-0.76171 1.041a0.46355 0.46355 0 0 1 -0.043 0.0937l-10.219 17.25a0.46355 0.46355 0 0 1 -2e-3 6e-3l-0.78125 1.2812a0.46355 0.46355 0 0 1 -0.8457 -0.35742l2.6875-10.5-0.01 0.0566c0.1915-1.4895 0.7887-2.8893 0.79296-4.1426-0.0455-0.10045-0.0903-0.14268-0.20117-0.14844-0.19309-0.01-0.46538 0.15106-0.45117 0.41797a0.46355 0.46355 0 0 1 -0.0156 0.15039l-3.8438 13.781a0.46355 0.46355 0 0 1 -0.91016 -0.11719l-0.0312-1.6562a0.46355 0.46355 0 0 1 0 -4e-3l-0.15625-15.812 4e-3 0.0547c-0.24622-1.9625 0.11371-3.9494-0.3086-5.6152-0.13637-0.1419-0.33065-0.24937-0.49023-0.23047z"/>
  </g>
  <path id="path6705" d="m284.77 218.6c-2.4916 0.5772-1.2042 3.9613-1.6719 5.7347l-0.30401 30.773-0.10125 2.4577-4.6612-17.102c-0.89971-2.1764-1.1795-4.7593-2.3812-6.7588-0.28296-0.26442-0.61847-0.33549-0.91196-0.30721-0.88041 0.0849-1.6059 1.2301-1.0133 2.1505l5.7758 22.632-1.368-2.2017-13.021-22.324c-1.9019-2.4892-3.14-5.678-5.3705-7.834-0.22736-0.12091-0.44798-0.18898-0.65863-0.20481-1.4745-0.11076-2.4223 2.0838-1.1653 3.2258l16.567 29.646 1.1653 2.1505-15.909-15.617c-0.59757-1.0453-2.6253-2.3973-3.3438-0.71684-0.37409 1.8114 1.9972 2.7011 2.7359 4.0962l14.287 14.593-2.5839-1.4337-25.535-14.49c-1.978-0.48452-4.0631-3.4816-6.1811-2.0481-0.22328 0.21666-0.37211 0.43859-0.45598 0.66563h0.10126l39.164 22.888 2.0266 1.1777 9.2716 5.4275 0.0506 0.0511 1.1146 0.66564 0.75997 0.4096 0.0506 0.0511 39.721 23.195c0.98497-1.441-0.84025-3.1201-2.1786-3.533l-27.916-16.743-2.0772-1.2801 17.023 4.4546c2.3135 0.32233 4.6176 1.4109 6.9411 1.3825 0.41681-0.17642 0.7614-0.54724 0.81063-1.024 0.0698-1.9362-2.6194-1.6686-3.7998-2.3554l-20.012-5.6321 2.6852-0.0511 25.636-0.2048c3.0897-0.39176 6.441 0.23242 9.4236-0.61443 0.47658-0.37261 0.80874-0.95601 0.70931-1.5873-0.57111-2.5181-3.9197-1.2682-5.6744-1.7409l-30.45-0.30722-2.3306-0.0511 19.506-5.5811c1.3032-0.80319 3.9862-0.35751 4.3572-2.2529 0.0324-1.6148-2.0413-1.4902-3.0399-0.97284l-21.735 5.5811 2.4319-1.4337 22.039-13.159c2.4389-1.9511 5.7028-3.1471 7.8024-5.4274 0.9301-1.8511-1.7428-3.2933-3.0399-1.8433l-6.7891 3.6354-22.546 13.108-2.0772 1.1776 14.135-14.746c0.73128-1.3541 3.3017-2.2673 2.6852-4.0962-0.77082-1.4148-2.5323-0.28698-3.1412 0.66565l-15.858 15.668 1.2666-2.3041 14.287-25.857c0.47942-1.999 3.4451-4.1062 2.0266-6.2467-1.4759-1.5534-3.341 0.50643-3.7999 1.9457l-16.567 28.264-1.2666 2.0993 4.3572-17.204c0.29762-2.3395 1.3688-4.7271 1.3173-7.066-0.17136-0.55799-0.61655-0.79574-1.064-0.81925-0.7457-0.0392-1.5681 0.57108-1.5199 1.4849l-6.2318 22.58-0.0506-2.7137-0.25333-25.908c-0.38763-3.1225 0.28067-6.5093-0.5573-9.5237-0.36869-0.48164-0.99664-0.8173-1.6213-0.71683z" stroke="#000" stroke-width=".81493"/>
  <path id="path6822" d="m238.86 246.1c-0.19087 0.38641-0.0673 0.90863 0.3072 1.1264l8.3456 5.376-8.3968 5.2736c-0.35429 0.24025-0.46873 0.80612-0.256 1.1776 0.21273 0.37151 0.73987 0.49118 1.1264 0.3072l8.8576-4.5056h2.6112l2.4576 1.3312 2.304 1.4848-8.3456 5.2736c-0.35434 0.24026-0.46875 0.75491-0.256 1.1264 0.21271 0.37151 0.73987 0.54238 1.1264 0.3584l8.8064-4.5056h2.6112l2.0992 1.0752 2.7136 1.7408-8.3968 5.2736c-0.35434 0.24026-0.46873 0.75491-0.256 1.1264 0.21273 0.37151 0.73988 0.54237 1.1264 0.3584l8.8576-4.5056h2.6112l2.2016 1.1264 9.472 6.0416a0.46035 0.46035 0 0 1 0.0511 0.0511 0.46035 0.46035 0 0 1 0.1024 0.15352 0.46035 0.46035 0 0 1 0 0.15352 0.46035 0.46035 0 0 1 0 0.1024 0.46035 0.46035 0 0 1 -0.0511 0.15351 0.46035 0.46035 0 0 1 -0.1024 0.1024l-10.291 6.656-1.3824 0.76799h-2.6112l-8.8576-4.5568c-0.38652-0.18396-0.91367-0.0131-1.1264 0.3584-0.21273 0.37147-0.0983 0.88614 0.256 1.1264l8.3968 5.2736-2.816 1.8432-1.9968 1.024h-2.6112l-8.8064-4.5056c-0.38653-0.18396-0.91369-0.0131-1.1264 0.3584-0.21275 0.37148-0.0983 0.88615 0.256 1.1264l8.3456 5.2736-2.2528 1.4848-2.5088 1.3312h-2.6112l-8.8576-4.5568c-0.38653-0.18397-0.91367-0.0131-1.1264 0.3584-0.21273 0.37147-0.0983 0.88614 0.256 1.1264l8.3968 5.2736-8.3456 5.4272c-0.3891 0.22625-0.53338 0.78845-0.3072 1.1776 0.22617 0.38915 0.78841 0.5333 1.1776 0.3072l8.7552-4.608 0.512 9.8816c0 0.4524 0.41798 0.8704 0.87039 0.8704 0.4524 0 0.8704-0.418 0.8704-0.8704l0.3584-9.8816 1.3312-2.2528 2.3552-1.4848 2.4576-1.3312 0.4608 9.9328c0 0.45239 0.418 0.8704 0.87039 0.8704 0.45241 0 0.8704-0.41801 0.8704-0.8704l0.4096-9.8816 1.28-2.2528 2.816-1.792 1.9968-1.0752 0.51199 9.8816c0 0.45239 0.41801 0.8704 0.8704 0.8704 0.45241 0 0.8704-0.41801 0.8704-0.8704l0.3584-9.8816 1.3312-2.2528 2.9696-1.8944 9.0624-4.7616a0.46035 0.46035 0 0 1 0.1024 0 0.46035 0.46035 0 0 1 0.15351 -0.0511 0.46035 0.46035 0 0 1 0.1024 0.0511 0.46035 0.46035 0 0 1 0.1024 0.0511 0.46035 0.46035 0 0 1 0.0511 0.0511 0.46035 0.46035 0 0 1 0.0511 0.0511 0.46035 0.46035 0 0 1 0.0511 0.256l0.6656 12.595-0.0511 1.3312-1.28 2.2528-8.3968 5.2736c-0.39179 0.22619-0.53341 0.78579-0.3072 1.1776 0.2262 0.39179 0.78581 0.53342 1.1776 0.3072l8.8576-4.5056 0.0511 2.2528-0.15352 3.328-1.28 2.2528-8.3968 5.3248c-0.39177 0.2262-0.53341 0.78579-0.3072 1.1776 0.2262 0.39177 0.78583 0.53339 1.1776 0.3072l8.8576-4.5056 0.1024 2.7136-0.15352 2.816-1.28 2.2528-8.3968 5.2736c-0.39179 0.22619-0.53341 0.78579-0.3072 1.1776 0.2262 0.39178 0.78583 0.5334 1.1776 0.3072l8.8576-4.5056 0.3584 9.8816c-1e-3 0.4501 0.42031 0.86915 0.8704 0.8704 0.4501 1e-3 0.86915-0.3691 0.87039-0.8192l0.512-9.9328 8.7552 4.608c0.38522 0.18671 0.85985 0.0115 1.0752-0.3584 0.21535-0.36996 0.14778-0.88363-0.2048-1.1264l-8.3456-5.376-1.3312-2.304-0.1024-2.8672 0.15352-2.6624 8.7552 4.608c0.38524 0.18674 0.85985 0.0627 1.0752-0.3072 0.21538-0.36998 0.0965-0.93485-0.256-1.1776l-8.2944-5.376-1.3312-2.2528-0.1024-2.2528 0.2048-3.328 8.704 4.608c0.38522 0.18673 0.91106 0.0115 1.1264-0.3584 0.21538-0.36998 0.0965-0.88363-0.256-1.1264l-8.2944-5.376-1.3312-2.304-0.15352-3.4816 0.4096-10.291a0.46035 0.46035 0 0 1 0.1024 -0.3072 0.46035 0.46035 0 0 1 0.4096 -0.1024 0.46035 0.46035 0 0 1 0.15352 0l10.445 5.3248 1.8944 1.2288 1.3312 2.2528 0.35839 9.8816c0 0.4524 0.41799 0.8704 0.8704 0.8704s0.8704-0.418 0.8704-0.8704l0.512-9.8816 2.048 1.0752 2.7648 1.792 1.28 2.2528 0.4096 9.8816c0 0.4524 0.41799 0.8704 0.8704 0.8704 0.45239 0 0.8704-0.418 0.8704-0.8704l0.512-9.9328 2.3552 1.28 2.4064 1.536 1.3312 2.2528 0.3584 9.8816c0 0.45239 0.41801 0.8704 0.8704 0.8704s0.8704-0.41801 0.8704-0.8704l0.512-9.8816 8.7552 4.608c0.38921 0.2261 0.95144 0.0819 1.1776-0.3072 8e-3 -0.0131-7e-3 -0.038 0-0.0511l-91.801-53.094z" stroke="#000"/>
 </g>
 <g id="layer5" transform="translate(-134.65 -73.709)" display="none">
  <g id="g7327" transform="matrix(1.7051 0 0 1.7051 -338.94 -239.17)">
   <g id="g7269" filter="url(#filter7323)">
    <rect id="rect7271" x="366.77" y="270.35" width="1.9839" height="8.0204" ry=".99197"/>
    <rect id="rect7273" transform="matrix(.70711 .70711 -.70711 .70711 0 0)" x="473.17" y="-78.39" width="1.9839" height="8.0204" ry=".99197"/>
    <rect id="rect7275" transform="matrix(.86603 .5 -.5 .86603 0 0)" x="468.9" y="45.898" width="1.9839" height="8.0204" ry=".99197"/>
    <rect id="rect7277" transform="matrix(.96593 .25882 -.25882 .96593 0 0)" x="432.61" y="164.85" width="1.9839" height="8.0204" ry=".99197"/>
    <rect id="rect7279" transform="matrix(.5 .86603 -.86603 .5 0 0)" x="445.13" y="-199.55" width="1.9839" height="8.0204" ry=".99197"/>
    <rect id="rect7281" transform="matrix(.25882 .96593 -.96593 .25882 0 0)" x="386.69" y="-309.32" width="1.9839" height="8.0204" ry=".99197"/>
    <rect id="rect7283" transform="matrix(.96593 -.25882 .25882 .96593 0 0)" x="275.86" y="355.21" width="1.9839" height="8.0204" ry=".99197"/>
    <rect id="rect7285" transform="matrix(.86603 -.5 .5 .86603 0 0)" x="166.09" y="413.66" width="1.9839" height="8.0204" ry=".99197"/>
    <rect id="rect7287" transform="matrix(.70711 -.70711 .70711 .70711 0 0)" x="44.929" y="441.7" width="1.9839" height="8.0204" ry=".99197"/>
    <rect id="rect7289" transform="matrix(.5 -.86603 .86603 .5 0 0)" x="-79.359" y="437.43" width="1.9839" height="8.0204" ry=".99197"/>
    <rect id="rect7291" transform="matrix(.25882 -.96593 .96593 .25882 0 0)" x="-198.31" y="401.13" width="1.9839" height="8.0204" ry=".99197"/>
    <rect id="rect7293" transform="rotate(-90)" x="-303.81" y="335.29" width="1.9839" height="8.0204" ry=".99197"/>
    <rect id="rect7295" transform="matrix(-.25882 -.96593 .96593 -.25882 0 0)" x="-388.67" y="244.38" width="1.9839" height="8.0204" ry=".99197"/>
    <rect id="rect7297" transform="matrix(-.5 -.86603 .86603 -.5 0 0)" x="-447.12" y="134.61" width="1.9839" height="8.0204" ry=".99197"/>
    <rect id="rect7299" transform="matrix(-.70711 -.70711 .70711 -.70711 0 0)" x="-475.16" y="13.452" width="1.9839" height="8.0204" ry=".99197"/>
    <rect id="rect7301" transform="matrix(-.86603 -.5 .5 -.86603 0 0)" x="-470.89" y="-110.84" width="1.9839" height="8.0204" ry=".99197"/>
    <rect id="rect7303" transform="matrix(-.96593 -.25882 .25882 -.96593 0 0)" x="-434.59" y="-229.78" width="1.9839" height="8.0204" ry=".99197"/>
    <rect id="rect7305" transform="scale(-1)" x="-368.75" y="-335.28" width="1.9839" height="8.0204" ry=".99197"/>
    <rect id="rect7307" transform="matrix(-.96593 .25882 -.25882 -.96593 0 0)" x="-277.84" y="-420.15" width="1.9839" height="8.0204" ry=".99197"/>
    <rect id="rect7309" transform="matrix(-.86603 .5 -.5 -.86603 0 0)" x="-168.07" y="-478.59" width="1.9839" height="8.0204" ry=".99197"/>
    <rect id="rect7311" transform="matrix(-.70711 .70711 -.70711 -.70711 0 0)" x="-46.913" y="-506.64" width="1.9839" height="8.0204" ry=".99197"/>
    <rect id="rect7313" transform="matrix(-.5 .86603 -.86603 -.5 0 0)" x="77.375" y="-502.36" width="1.9839" height="8.0204" ry=".99197"/>
    <rect id="rect7315" transform="matrix(-.25882 .96593 -.96593 -.25882 0 0)" x="196.32" y="-466.07" width="1.9839" height="8.0204" ry=".99197"/>
    <rect id="rect7317" transform="rotate(90)" x="301.82" y="-400.23" width="1.9839" height="8.0204" ry=".99197"/>
    <path id="path7319" d="m348.38 288.77 0.53696 0.38396 15.301 13.424 3.6053 0.0948 0.0405-0.0566-1.2556-3.381-17.651-10.138-0.53696-0.38395 0.26238 0.23039-0.30285-0.17378z" stroke="#000" stroke-linecap="round" stroke-linejoin="round" stroke-width=".78708px"/>
    <path id="path7321" d="m367.82 302.49 0.10229 0.10064 1.744 4.1609 8.3056 5.7269 0.28129 0.27676-0.10416-0.1499 0.15157 0.10171-0.28129-0.27676-5.861-8.2116-4.1886-1.6762-0.10229-0.10065 0.0274 0.0744-0.0748-0.0262z" stroke="#000" stroke-linecap="round" stroke-linejoin="round" stroke-width=".78839px"/>
   </g>
   <g id="g7241">
    <rect id="rect7105" x="366.77" y="270.35" width="1.9839" height="8.0204" ry=".99197"/>
    <rect id="rect7111" transform="matrix(.70711 .70711 -.70711 .70711 0 0)" x="473.17" y="-78.39" width="1.9839" height="8.0204" ry=".99197"/>
    <rect id="rect7113" transform="matrix(.86603 .5 -.5 .86603 0 0)" x="468.9" y="45.898" width="1.9839" height="8.0204" ry=".99197"/>
    <rect id="rect7115" transform="matrix(.96593 .25882 -.25882 .96593 0 0)" x="432.61" y="164.85" width="1.9839" height="8.0204" ry=".99197"/>
    <rect id="rect7117" transform="matrix(.5 .86603 -.86603 .5 0 0)" x="445.13" y="-199.55" width="1.9839" height="8.0204" ry=".99197"/>
    <rect id="rect7119" transform="matrix(.25882 .96593 -.96593 .25882 0 0)" x="386.69" y="-309.32" width="1.9839" height="8.0204" ry=".99197"/>
    <rect id="rect7121" transform="matrix(.96593 -.25882 .25882 .96593 0 0)" x="275.86" y="355.21" width="1.9839" height="8.0204" ry=".99197"/>
    <rect id="rect7123" transform="matrix(.86603 -.5 .5 .86603 0 0)" x="166.09" y="413.66" width="1.9839" height="8.0204" ry=".99197"/>
    <rect id="rect7125" transform="matrix(.70711 -.70711 .70711 .70711 0 0)" x="44.929" y="441.7" width="1.9839" height="8.0204" ry=".99197"/>
    <rect id="rect7127" transform="matrix(.5 -.86603 .86603 .5 0 0)" x="-79.359" y="437.43" width="1.9839" height="8.0204" ry=".99197"/>
    <rect id="rect7129" transform="matrix(.25882 -.96593 .96593 .25882 0 0)" x="-198.31" y="401.13" width="1.9839" height="8.0204" ry=".99197"/>
    <rect id="rect7131" transform="rotate(-90)" x="-303.81" y="335.29" width="1.9839" height="8.0204" ry=".99197"/>
    <rect id="rect7133" transform="matrix(-.25882 -.96593 .96593 -.25882 0 0)" x="-388.67" y="244.38" width="1.9839" height="8.0204" ry=".99197"/>
    <rect id="rect7135" transform="matrix(-.5 -.86603 .86603 -.5 0 0)" x="-447.12" y="134.61" width="1.9839" height="8.0204" ry=".99197"/>
    <rect id="rect7137" transform="matrix(-.70711 -.70711 .70711 -.70711 0 0)" x="-475.16" y="13.452" width="1.9839" height="8.0204" ry=".99197"/>
    <rect id="rect7139" transform="matrix(-.86603 -.5 .5 -.86603 0 0)" x="-470.89" y="-110.84" width="1.9839" height="8.0204" ry=".99197"/>
    <rect id="rect7141" transform="matrix(-.96593 -.25882 .25882 -.96593 0 0)" x="-434.59" y="-229.78" width="1.9839" height="8.0204" ry=".99197"/>
    <rect id="rect7143" transform="scale(-1)" x="-368.75" y="-335.28" width="1.9839" height="8.0204" ry=".99197"/>
    <rect id="rect7145" transform="matrix(-.96593 .25882 -.25882 -.96593 0 0)" x="-277.84" y="-420.15" width="1.9839" height="8.0204" ry=".99197"/>
    <rect id="rect7147" transform="matrix(-.86603 .5 -.5 -.86603 0 0)" x="-168.07" y="-478.59" width="1.9839" height="8.0204" ry=".99197"/>
    <rect id="rect7149" transform="matrix(-.70711 .70711 -.70711 -.70711 0 0)" x="-46.913" y="-506.64" width="1.9839" height="8.0204" ry=".99197"/>
    <rect id="rect7151" transform="matrix(-.5 .86603 -.86603 -.5 0 0)" x="77.375" y="-502.36" width="1.9839" height="8.0204" ry=".99197"/>
    <rect id="rect7153" transform="matrix(-.25882 .96593 -.96593 -.25882 0 0)" x="196.32" y="-466.07" width="1.9839" height="8.0204" ry=".99197"/>
    <rect id="rect7155" transform="rotate(90)" x="301.82" y="-400.23" width="1.9839" height="8.0204" ry=".99197"/>
    <path id="path7165" d="m348.38 288.77 0.53696 0.38396 15.301 13.424 3.6053 0.0948 0.0405-0.0566-1.2556-3.381-17.651-10.138-0.53696-0.38395 0.26238 0.23039-0.30285-0.17378z" stroke="#000" stroke-linecap="round" stroke-linejoin="round" stroke-width=".78708px"/>
    <path id="path7167" d="m367.82 302.49 0.10229 0.10064 1.744 4.1609 8.3056 5.7269 0.28129 0.27676-0.10416-0.1499 0.15157 0.10171-0.28129-0.27676-5.861-8.2116-4.1886-1.6762-0.10229-0.10065 0.0274 0.0744-0.0748-0.0262z" stroke="#000" stroke-linecap="round" stroke-linejoin="round" stroke-width=".78839px"/>
   </g>
  </g>
 </g>
</svg>
