<?xml version="1.0" encoding="UTF-8" standalone="no"?>
<!-- Created with Inkscape (http://www.inkscape.org/) -->

<svg
   xmlns:dc="http://purl.org/dc/elements/1.1/"
   xmlns:cc="http://creativecommons.org/ns#"
   xmlns:rdf="http://www.w3.org/1999/02/22-rdf-syntax-ns#"
   xmlns:svg="http://www.w3.org/2000/svg"
   xmlns="http://www.w3.org/2000/svg"
   xmlns:xlink="http://www.w3.org/1999/xlink"
   xmlns:sodipodi="http://sodipodi.sourceforge.net/DTD/sodipodi-0.dtd"
   xmlns:inkscape="http://www.inkscape.org/namespaces/inkscape"
   width="237.81392"
   height="437.59738"
   viewBox="0 0 237.81392 437.59739"
   id="svg3742"
   version="1.1"
   inkscape:version="0.91 r13725"
   sodipodi:docname="100.svg">
  <defs
     id="defs3744">
    <linearGradient
       gradientTransform="translate(-32.14802,316.2286)"
       inkscape:collect="always"
       xlink:href="#linearGradient3865-5"
       id="linearGradient5359"
       x1="599.40039"
       y1="518.03961"
       x2="354.96606"
       y2="79.6334"
       gradientUnits="userSpaceOnUse" />
    <linearGradient
       inkscape:collect="always"
       id="linearGradient3865-5">
      <stop
         style="stop-color:#ffffff;stop-opacity:1;"
         offset="0"
         id="stop3867-0" />
      <stop
         style="stop-color:#ffffff;stop-opacity:0"
         offset="1"
         id="stop3869-8" />
    </linearGradient>
    <filter
       inkscape:collect="always"
       id="filter4648">
      <feGaussianBlur
         inkscape:collect="always"
         stdDeviation="1.096875"
         id="feGaussianBlur4650" />
    </filter>
    <filter
       inkscape:collect="always"
       id="filter4639">
      <feGaussianBlur
         inkscape:collect="always"
         stdDeviation="1.096875"
         id="feGaussianBlur4641" />
    </filter>
    <filter
       inkscape:collect="always"
       id="filter4622">
      <feGaussianBlur
         inkscape:collect="always"
         stdDeviation="1.096875"
         id="feGaussianBlur4624" />
    </filter>
    <filter
       inkscape:collect="always"
       id="filter4600">
      <feGaussianBlur
         inkscape:collect="always"
         stdDeviation="1.096875"
         id="feGaussianBlur4602" />
    </filter>
    <filter
       inkscape:collect="always"
       id="filter4587">
      <feGaussianBlur
         inkscape:collect="always"
         stdDeviation="1.096875"
         id="feGaussianBlur4589" />
    </filter>
    <filter
       inkscape:collect="always"
       id="filter4562">
      <feGaussianBlur
         inkscape:collect="always"
         stdDeviation="1.096875"
         id="feGaussianBlur4564" />
    </filter>
    <filter
       inkscape:collect="always"
       id="filter4536">
      <feGaussianBlur
         inkscape:collect="always"
         stdDeviation="1.096875"
         id="feGaussianBlur4538" />
    </filter>
    <filter
       inkscape:collect="always"
       id="filter4523">
      <feGaussianBlur
         inkscape:collect="always"
         stdDeviation="1.096875"
         id="feGaussianBlur4525" />
    </filter>
    <filter
       inkscape:collect="always"
       id="filter4510">
      <feGaussianBlur
         inkscape:collect="always"
         stdDeviation="1.096875"
         id="feGaussianBlur4512" />
    </filter>
    <filter
       inkscape:collect="always"
       id="filter4464">
      <feGaussianBlur
         inkscape:collect="always"
         stdDeviation="1.096875"
         id="feGaussianBlur4466" />
    </filter>
    <filter
       inkscape:collect="always"
       id="filter4427">
      <feGaussianBlur
         inkscape:collect="always"
         stdDeviation="1.096875"
         id="feGaussianBlur4429" />
    </filter>
    <filter
       inkscape:collect="always"
       id="filter4392">
      <feGaussianBlur
         inkscape:collect="always"
         stdDeviation="1.096875"
         id="feGaussianBlur4394" />
    </filter>
    <filter
       inkscape:collect="always"
       id="filter4029">
      <feGaussianBlur
         inkscape:collect="always"
         stdDeviation="0.88435154"
         id="feGaussianBlur4031" />
    </filter>
    <linearGradient
       gradientTransform="translate(-32.14802,316.2286)"
       inkscape:collect="always"
       xlink:href="#linearGradient4267"
       id="linearGradient4273"
       x1="506.90808"
       y1="387.86218"
       x2="506.90808"
       y2="375.38757"
       gradientUnits="userSpaceOnUse" />
    <linearGradient
       inkscape:collect="always"
       id="linearGradient4267">
      <stop
         style="stop-color:#403e3f;stop-opacity:1;"
         offset="0"
         id="stop4269" />
      <stop
         style="stop-color:#403e3f;stop-opacity:0;"
         offset="1"
         id="stop4271" />
    </linearGradient>
    <filter
       inkscape:collect="always"
       id="filter3986"
       x="-0.064941362"
       width="1.1298827"
       y="-0.788544"
       height="2.5770881">
      <feGaussianBlur
         inkscape:collect="always"
         stdDeviation="1.0582377"
         id="feGaussianBlur3988" />
    </filter>
    <filter
       inkscape:collect="always"
       id="filter3929">
      <feGaussianBlur
         inkscape:collect="always"
         stdDeviation="0.42857144"
         id="feGaussianBlur3931" />
    </filter>
  </defs>
  <sodipodi:namedview
     id="base"
     pagecolor="#ffffff"
     bordercolor="#666666"
     borderopacity="1.0"
     inkscape:pageopacity="0.0"
     inkscape:pageshadow="2"
     inkscape:zoom="0.35"
     inkscape:cx="45.33552"
     inkscape:cy="301.65582"
     inkscape:document-units="px"
     inkscape:current-layer="layer1"
     showgrid="false"
     units="px"
     fit-margin-top="0"
     fit-margin-left="0"
     fit-margin-right="0"
     fit-margin-bottom="0"
     showborder="false"
     inkscape:window-width="1600"
     inkscape:window-height="872"
     inkscape:window-x="0"
     inkscape:window-y="0"
     inkscape:window-maximized="1" />
  <metadata
     id="metadata3747">
    <rdf:RDF>
      <cc:Work
         rdf:about="">
        <dc:format>image/svg+xml</dc:format>
        <dc:type
           rdf:resource="http://purl.org/dc/dcmitype/StillImage" />
        <dc:title></dc:title>
      </cc:Work>
    </rdf:RDF>
  </metadata>
  <g
     inkscape:label="Calque 1"
     inkscape:groupmode="layer"
     id="layer1"
     transform="translate(-329.66448,-396.42062)">
    <rect
       style="display:inline;fill:#9bb528;fill-opacity:1;fill-rule:nonzero;stroke:none"
       id="rect3074"
       width="237.80243"
       height="437.59738"
       x="329.67596"
       y="396.42062"
       ry="36.115578"
       inkscape:export-filename="/media/0D64-9616/domogik/telephone/telephone.png"
       inkscape:export-xdpi="96"
       inkscape:export-ydpi="96" />
    <path
       inkscape:connector-curvature="0"
       style="display:inline;fill:#403e3f;fill-opacity:1;fill-rule:nonzero;stroke:none"
       d="m 530.41448,406.2911 c -57.50458,0.98435 -115.13477,-1.33119 -172.5625,1.21875 -13.45818,4.26685 -20.8522,19.69705 -18.18476,33.09375 0.47586,121.38061 -0.96261,242.80146 0.77851,364.15626 3.82354,14.47 20.40134,22.2042 34.31246,19.2409 55.02466,-0.66 110.19122,1.5343 165.12504,-1.2722 13.58026,-4.632 20.26694,-20.44 17.591,-33.8125 -0.51587,-121.0968 1.04368,-242.25337 -0.841,-363.31246 -3.03717,-11.31742 -14.51153,-19.80594 -26.21875,-19.3125 z"
       id="path3892"
       inkscape:export-filename="/media/0D64-9616/domogik/telephone/telephone.png"
       inkscape:export-xdpi="96"
       inkscape:export-ydpi="96" />
    <circle
       r="21.213203"
       cy="792.4201"
       cx="449.39172"
       style="display:inline;fill:#000000;fill-opacity:1;fill-rule:nonzero;stroke:none"
       id="path3909"
       inkscape:export-filename="/media/0D64-9616/domogik/telephone/telephone.png"
       inkscape:export-xdpi="96"
       inkscape:export-ydpi="96" />
    <rect
       style="display:inline;fill:none;stroke:#ffffff;stroke-width:0.85714287;stroke-opacity:1;filter:url(#filter3929)"
       id="rect3911"
       width="17.142859"
       height="17.142857"
       x="440.82025"
       y="783.84869"
       ry="4.2426405"
       inkscape:export-filename="/media/0D64-9616/domogik/telephone/telephone.png"
       inkscape:export-xdpi="96"
       inkscape:export-ydpi="96" />
    <rect
       style="display:inline;fill:#000000;fill-opacity:1;stroke:none"
       id="rect3942"
       width="46.669048"
       height="10.606602"
       x="425.35004"
       y="430.96719"
       ry="4.2426405"
       inkscape:export-filename="/media/0D64-9616/domogik/telephone/telephone.png"
       inkscape:export-xdpi="96"
       inkscape:export-ydpi="96" />
    <path
       inkscape:connector-curvature="0"
       style="display:inline;fill:#534f45;fill-opacity:1;stroke:none;filter:url(#filter3986)"
       d="m 466.78948,432.7286 c -13.03635,0.90814 -26.14062,-0.61556 -39.15625,0.8125 -2.20197,3.96155 1.93222,7.74264 5.875,6.15625 12.06661,-0.75632 24.30321,0.93676 36.34375,-0.90625 0.90897,-2.40562 0.26147,-6.38132 -3.0625,-6.0625 z"
       id="rect3944"
       inkscape:export-filename="/media/0D64-9616/domogik/telephone/telephone.png"
       inkscape:export-xdpi="96"
       inkscape:export-ydpi="96" />
    <rect
       style="display:inline;fill:#625e53;fill-opacity:1;fill-rule:nonzero;stroke:none"
       id="rect3993"
       width="200.81841"
       height="299.10605"
       x="347.56836"
       y="464.2012"
       ry="4.9030252"
       inkscape:export-filename="/media/0D64-9616/domogik/telephone/telephone.png"
       inkscape:export-xdpi="96"
       inkscape:export-ydpi="96" />
    <path
       inkscape:connector-curvature="0"
       style="display:inline;fill:#534f45;fill-opacity:1;fill-rule:nonzero;stroke:none"
       d="m 352.22698,466.2286 c -5.06499,1.0503 -1.68349,8.46204 -2.65625,12 0.10448,93.70241 -0.20875,187.45216 0.15625,281.12496 2.34033,4.3175 8.97856,0.8524 12.875,1.9688 60.60416,-0.1263 121.29069,0.2517 181.84375,-0.1875 4.27193,-2.2639 0.83165,-9.0104 1.9375,-12.8438 -0.10456,-93.3883 0.20886,-186.83637 -0.15625,-280.18746 -2.57586,-4.38116 -9.70622,-0.69562 -13.875,-1.90625 -60.04101,0.0209 -120.08724,-0.0417 -180.125,0.0312 z"
       id="rect3995"
       inkscape:export-filename="/media/0D64-9616/domogik/telephone/telephone.png"
       inkscape:export-xdpi="96"
       inkscape:export-ydpi="96" />
    <rect
       style="display:inline;fill:#9bb528;fill-opacity:1;fill-rule:nonzero;stroke:none"
       id="rect4003"
       width="196.93016"
       height="13.848383"
       x="349.42181"
       y="747.44"
       ry="3.7206156"
       inkscape:export-filename="/media/0D64-9616/domogik/telephone/telephone.png"
       inkscape:export-xdpi="96"
       inkscape:export-ydpi="96" />
    <rect
       style="display:inline;fill:#bdcb2f;fill-opacity:1;fill-rule:nonzero;stroke:none"
       id="rect4001"
       width="196.93016"
       height="48"
       x="349.42181"
       y="704.09076"
       ry="0"
       inkscape:export-filename="/media/0D64-9616/domogik/telephone/telephone.png"
       inkscape:export-xdpi="96"
       inkscape:export-ydpi="96" />
    <rect
       ry="0"
       y="678.78204"
       x="349.42181"
       height="25.308725"
       width="196.93016"
       id="rect4251"
       style="display:inline;fill:url(#linearGradient4273);fill-opacity:1;fill-rule:nonzero;stroke:none"
       inkscape:export-filename="/media/0D64-9616/domogik/telephone/telephone.png"
       inkscape:export-xdpi="96"
       inkscape:export-ydpi="96" />
    <g
       style="display:inline"
       id="g4033"
       transform="translate(-28.14802,315.57089)"
       inkscape:export-filename="/media/0D64-9616/domogik/telephone/telephone.png"
       inkscape:export-xdpi="96"
       inkscape:export-ydpi="96">
      <rect
         style="fill:#000000;fill-opacity:1;fill-rule:nonzero;stroke:none;filter:url(#filter4029)"
         id="rect4007"
         width="35.181419"
         height="35.566704"
         x="387.48932"
         y="394.987"
         ry="5.3249145" />
      <rect
         ry="5.3249145"
         y="394.987"
         x="387.48932"
         height="35.566704"
         width="35.181419"
         id="rect4005"
         style="fill:#9bb528;fill-opacity:1;fill-rule:nonzero;stroke:none" />
    </g>
    <g
       style="display:inline"
       id="g4037"
       transform="translate(113.81171,315.57089)"
       inkscape:export-filename="/media/0D64-9616/domogik/telephone/telephone.png"
       inkscape:export-xdpi="96"
       inkscape:export-ydpi="96">
      <rect
         ry="5.3249145"
         y="394.987"
         x="387.48932"
         height="35.566704"
         width="35.181419"
         id="rect4039"
         style="fill:#000000;fill-opacity:1;fill-rule:nonzero;stroke:none;filter:url(#filter4029)" />
      <rect
         style="fill:#9bb528;fill-opacity:1;fill-rule:nonzero;stroke:none"
         id="rect4041"
         width="35.181419"
         height="35.566704"
         x="387.48932"
         y="394.987"
         ry="5.3249145" />
    </g>
    <g
       style="display:inline"
       transform="translate(66.49179,315.57089)"
       id="g4043"
       inkscape:export-filename="/media/0D64-9616/domogik/telephone/telephone.png"
       inkscape:export-xdpi="96"
       inkscape:export-ydpi="96">
      <rect
         style="fill:#000000;fill-opacity:1;fill-rule:nonzero;stroke:none;filter:url(#filter4029)"
         id="rect4045"
         width="35.181419"
         height="35.566704"
         x="387.48932"
         y="394.987"
         ry="5.3249145" />
      <rect
         ry="5.3249145"
         y="394.987"
         x="387.48932"
         height="35.566704"
         width="35.181419"
         id="rect4047"
         style="fill:#9bb528;fill-opacity:1;fill-rule:nonzero;stroke:none" />
    </g>
    <g
       style="display:inline"
       id="g4049"
       transform="translate(19.17187,315.57089)"
       inkscape:export-filename="/media/0D64-9616/domogik/telephone/telephone.png"
       inkscape:export-xdpi="96"
       inkscape:export-ydpi="96">
      <rect
         ry="5.3249145"
         y="394.987"
         x="387.48932"
         height="35.566704"
         width="35.181419"
         id="rect4051"
         style="fill:#000000;fill-opacity:1;fill-rule:nonzero;stroke:none;filter:url(#filter4029)" />
      <rect
         style="fill:#9bb528;fill-opacity:1;fill-rule:nonzero;stroke:none"
         id="rect4053"
         width="35.181419"
         height="35.566704"
         x="387.48932"
         y="394.987"
         ry="5.3249145" />
    </g>
    <g
       style="display:inline"
       id="g4656"
       transform="matrix(1,0,0,1.1061017,-32.14802,276.37668)"
       inkscape:export-filename="/media/0D64-9616/domogik/telephone/telephone.png"
       inkscape:export-xdpi="96"
       inkscape:export-ydpi="96">
      <path
         inkscape:connector-curvature="0"
         style="fill:#000000;fill-opacity:1;fill-rule:nonzero;stroke:none;filter:url(#filter4648)"
         d="m 516.6875,324.96875 c -2.06149,0 -3.71875,1.65726 -3.71875,3.71875 l 0,40.5625 c 0,2.06149 1.65726,3.71875 3.71875,3.71875 l 54.25,0 c 2.06149,0 3.71875,-1.65726 3.71875,-3.71875 l 0,-40.5625 c 0,-2.06149 -1.65726,-3.71875 -3.71875,-3.71875 l -54.25,0 z m 25.0625,14 2,0 -1.15625,5.65625 4.15625,0 1.15625,-5.65625 1.96875,0 -1.125,5.65625 2.28125,0 0,1.96875 -2.6875,0 -1,4.78125 3.6875,0 0,1.96875 -4.0625,0 -1.15625,5.625 -1.96875,0 1.125,-5.625 -4.15625,0 -1.125,5.625 -2,0 1.15625,-5.625 -2.21875,0 0,-1.96875 2.625,0 0.96875,-4.78125 -3.59375,0 0,-1.96875 4,0 1.125,-5.65625 z m 0.4375,7.625 -0.96875,4.78125 4.15625,0 0.96875,-4.78125 -4.15625,0 z"
         id="path4646" />
      <path
         inkscape:connector-curvature="0"
         id="rect4239"
         d="m 516.6875,324.96875 c -2.06149,0 -3.71875,1.65726 -3.71875,3.71875 l 0,40.5625 c 0,2.06149 1.65726,3.71875 3.71875,3.71875 l 54.25,0 c 2.06149,0 3.71875,-1.65726 3.71875,-3.71875 l 0,-40.5625 c 0,-2.06149 -1.65726,-3.71875 -3.71875,-3.71875 l -54.25,0 z m 25.0625,14 2,0 -1.15625,5.65625 4.15625,0 1.15625,-5.65625 1.96875,0 -1.125,5.65625 2.28125,0 0,1.96875 -2.6875,0 -1,4.78125 3.6875,0 0,1.96875 -4.0625,0 -1.15625,5.625 -1.96875,0 1.125,-5.625 -4.15625,0 -1.125,5.625 -2,0 1.15625,-5.625 -2.21875,0 0,-1.96875 2.625,0 0.96875,-4.78125 -3.59375,0 0,-1.96875 4,0 1.125,-5.65625 z m 0.4375,7.625 -0.96875,4.78125 4.15625,0 0.96875,-4.78125 -4.15625,0 z"
         style="fill:#9bb528;fill-opacity:1;fill-rule:nonzero;stroke:none" />
      <path
         inkscape:connector-curvature="0"
         style="fill:#000000;fill-opacity:1;fill-rule:nonzero;stroke:none;filter:url(#filter4639)"
         d="m 388.6875,324.96875 c -2.06149,0 -3.71875,1.65726 -3.71875,3.71875 l 0,40.5625 c 0,2.06149 1.65726,3.71875 3.71875,3.71875 l 54.25,0 c 2.06149,0 3.71875,-1.65726 3.71875,-3.71875 l 0,-40.5625 c 0,-2.06149 -1.65726,-3.71875 -3.71875,-3.71875 l -54.25,0 z m 24.78125,14 4.65625,0 c -0.0641,2.11543 -0.32266,4.75378 -0.75,7.9375 2.20084,-1.11107 4.7206,-2.12229 7.5625,-3.0625 l 1.46875,4.53125 c -2.7137,0.89747 -5.36193,1.51339 -7.96875,1.8125 1.3034,1.13251 3.12819,3.15655 5.5,6.0625 l -3.84375,2.71875 c -1.23933,-1.688 -2.68698,-4.00024 -4.375,-6.90625 -1.58121,3.01285 -2.99093,5.32508 -4.1875,6.90625 L 407.75,356.25 c 2.47863,-3.05552 4.27537,-5.07956 5.34375,-6.0625 -2.75642,-0.53415 -5.39637,-1.15007 -7.875,-1.8125 l 1.46875,-4.53125 c 3.39743,1.19662 5.86778,2.21772 7.40625,3.09375 -0.40599,-3.86748 -0.60364,-6.51571 -0.625,-7.96875 z"
         id="path4637" />
      <path
         inkscape:connector-curvature="0"
         id="rect4233"
         d="m 388.6875,324.96875 c -2.06149,0 -3.71875,1.65726 -3.71875,3.71875 l 0,40.5625 c 0,2.06149 1.65726,3.71875 3.71875,3.71875 l 54.25,0 c 2.06149,0 3.71875,-1.65726 3.71875,-3.71875 l 0,-40.5625 c 0,-2.06149 -1.65726,-3.71875 -3.71875,-3.71875 l -54.25,0 z m 24.78125,14 4.65625,0 c -0.0641,2.11543 -0.32266,4.75378 -0.75,7.9375 2.20084,-1.11107 4.7206,-2.12229 7.5625,-3.0625 l 1.46875,4.53125 c -2.7137,0.89747 -5.36193,1.51339 -7.96875,1.8125 1.3034,1.13251 3.12819,3.15655 5.5,6.0625 l -3.84375,2.71875 c -1.23933,-1.688 -2.68698,-4.00024 -4.375,-6.90625 -1.58121,3.01285 -2.99093,5.32508 -4.1875,6.90625 L 407.75,356.25 c 2.47863,-3.05552 4.27537,-5.07956 5.34375,-6.0625 -2.75642,-0.53415 -5.39637,-1.15007 -7.875,-1.8125 l 1.46875,-4.53125 c 3.39743,1.19662 5.86778,2.21772 7.40625,3.09375 -0.40599,-3.86748 -0.60364,-6.51571 -0.625,-7.96875 z"
         style="fill:#9bb528;fill-opacity:1;fill-rule:nonzero;stroke:none" />
      <path
         inkscape:connector-curvature="0"
         style="fill:#000000;fill-opacity:1;fill-rule:nonzero;stroke:none;filter:url(#filter4622)"
         d="m 452.6875,324.96875 c -2.06149,0 -3.71875,1.65726 -3.71875,3.71875 l 0,40.5625 c 0,2.06149 1.65726,3.71875 3.71875,3.71875 l 54.25,0 c 2.06149,0 3.71875,-1.65726 3.71875,-3.71875 l 0,-40.5625 c 0,-2.06149 -1.65726,-3.71875 -3.71875,-3.71875 l -54.25,0 z m 27.125,4 c 2.10196,4e-5 3.94584,0.42625 5.53125,1.28125 1.58537,0.83727 2.9043,2.05308 3.9375,3.65625 1.03315,1.58543 1.84963,3.5146 2.4375,5.8125 0.58781,2.28014 0.87497,5.3667 0.875,9.25 -3e-5,4.59587 -0.46217,8.32393 -1.40625,11.15625 -0.94414,2.81452 -2.3618,4.98149 -4.25,6.53125 -1.87043,1.53195 -4.25706,2.3125 -7.125,2.3125 -3.77645,0 -6.75084,-1.35486 -8.90625,-4.0625 -2.58295,-3.25985 -3.84375,-8.58055 -3.84375,-15.9375 0,-4.63146 0.46214,-8.3417 1.40625,-11.15625 0.96192,-2.8323 2.37959,-5.03051 4.25,-6.5625 1.88821,-1.53191 4.24359,-2.28121 7.09375,-2.28125 z m -0.0312,3.96875 c -2.20887,4e-5 -3.99432,0.94213 -5.3125,2.8125 -1.65665,2.38703 -2.46876,6.78814 -2.46875,13.21875 -10e-6,6.43065 0.75367,10.7374 2.25,12.875 1.51413,2.1198 3.35363,3.15625 5.5625,3.15625 2.20884,0 4.06615,-1.04989 5.5625,-3.1875 1.51412,-2.1376 2.28123,-6.43091 2.28125,-12.84375 -2e-5,-6.44843 -0.76713,-10.72392 -2.28125,-12.84375 -1.49635,-2.11976 -3.34928,-3.18746 -5.59375,-3.1875 z"
         id="path4620" />
      <path
         inkscape:connector-curvature="0"
         id="rect4245"
         d="m 452.6875,324.96875 c -2.06149,0 -3.71875,1.65726 -3.71875,3.71875 l 0,40.5625 c 0,2.06149 1.65726,3.71875 3.71875,3.71875 l 54.25,0 c 2.06149,0 3.71875,-1.65726 3.71875,-3.71875 l 0,-40.5625 c 0,-2.06149 -1.65726,-3.71875 -3.71875,-3.71875 l -54.25,0 z m 27.125,4 c 2.10196,4e-5 3.94584,0.42625 5.53125,1.28125 1.58537,0.83727 2.9043,2.05308 3.9375,3.65625 1.03315,1.58543 1.84963,3.5146 2.4375,5.8125 0.58781,2.28014 0.87497,5.3667 0.875,9.25 -3e-5,4.59587 -0.46217,8.32393 -1.40625,11.15625 -0.94414,2.81452 -2.3618,4.98149 -4.25,6.53125 -1.87043,1.53195 -4.25706,2.3125 -7.125,2.3125 -3.77645,0 -6.75084,-1.35486 -8.90625,-4.0625 -2.58295,-3.25985 -3.84375,-8.58055 -3.84375,-15.9375 0,-4.63146 0.46214,-8.3417 1.40625,-11.15625 0.96192,-2.8323 2.37959,-5.03051 4.25,-6.5625 1.88821,-1.53191 4.24359,-2.28121 7.09375,-2.28125 z m -0.0312,3.96875 c -2.20887,4e-5 -3.99432,0.94213 -5.3125,2.8125 -1.65665,2.38703 -2.46876,6.78814 -2.46875,13.21875 -10e-6,6.43065 0.75367,10.7374 2.25,12.875 1.51413,2.1198 3.35363,3.15625 5.5625,3.15625 2.20884,0 4.06615,-1.04989 5.5625,-3.1875 1.51412,-2.1376 2.28123,-6.43091 2.28125,-12.84375 -2e-5,-6.44843 -0.76713,-10.72392 -2.28125,-12.84375 -1.49635,-2.11976 -3.34928,-3.18746 -5.59375,-3.1875 z"
         style="fill:#9bb528;fill-opacity:1;fill-rule:nonzero;stroke:none" />
      <path
         inkscape:connector-curvature="0"
         style="fill:#000000;fill-opacity:1;fill-rule:nonzero;stroke:none;filter:url(#filter4600)"
         d="m 516.6875,274.96875 c -2.06149,0 -3.71875,1.65726 -3.71875,3.71875 l 0,40.5625 c 0,2.06149 1.65726,3.71875 3.71875,3.71875 l 54.25,0 c 2.06149,0 3.71875,-1.65726 3.71875,-3.71875 l 0,-40.5625 c 0,-2.06149 -1.65726,-3.71875 -3.71875,-3.71875 l -54.25,0 z m 26.5625,4 c 2.5473,4e-5 4.86675,0.69091 6.96875,2.0625 2.11977,1.37167 3.72586,3.32772 4.8125,5.875 1.1044,2.52953 1.65622,6.19041 1.65625,11 -3e-5,5.00558 -0.53841,8.99392 -1.625,11.96875 -1.08664,2.95703 -2.68835,5.23149 -4.84375,6.78125 -2.13763,1.54977 -4.67675,2.3125 -7.5625,2.3125 -3.06392,0 -5.55835,-0.83898 -7.5,-2.53125 -1.94167,-1.71008 -3.10811,-4.10578 -3.5,-7.1875 l 4.625,-0.4375 c 0.39189,2.17324 1.14556,3.73902 2.25,4.71875 1.10442,0.97974 2.52209,1.46875 4.25,1.46875 1.4785,0 2.77055,-0.32309 3.875,-1 1.12223,-0.6769 2.03744,-1.56525 2.75,-2.6875 0.71251,-1.14005 1.30027,-2.70114 1.78125,-4.625 0.48094,-1.92383 0.71873,-3.87988 0.71875,-5.875 -2e-5,-0.21374 -0.0135,-0.50996 -0.0312,-0.9375 -0.96195,1.53197 -2.26306,2.75684 -3.9375,3.71875 -1.65666,0.94412 -3.4646,1.43751 -5.40625,1.4375 -3.24205,10e-6 -5.97427,-1.17987 -8.21875,-3.53125 -2.24449,-2.35135 -3.375,-5.46478 -3.375,-9.3125 0,-3.97236 1.16644,-7.17109 3.5,-9.59375 2.35136,-2.42258 5.28543,-3.62496 8.8125,-3.625 z m 0.59375,3.96875 c -2.13762,4e-5 -4.00837,0.87932 -5.59375,2.625 -1.5854,1.74574 -2.37501,4.00239 -2.375,6.78125 -10e-6,2.4939 0.75367,4.52619 2.25,6.09375 1.51413,1.54978 3.38488,2.34377 5.59375,2.34375 2.22666,2e-5 4.04366,-0.79397 5.46875,-2.34375 1.44286,-1.56756 2.15623,-3.7389 2.15625,-6.5 -2e-5,-2.76105 -0.74026,-4.94145 -2.21875,-6.5625 -1.46072,-1.62099 -3.21491,-2.43746 -5.28125,-2.4375 z"
         id="path4594" />
      <path
         inkscape:connector-curvature="0"
         id="rect4219"
         d="m 516.6875,274.96875 c -2.06149,0 -3.71875,1.65726 -3.71875,3.71875 l 0,40.5625 c 0,2.06149 1.65726,3.71875 3.71875,3.71875 l 54.25,0 c 2.06149,0 3.71875,-1.65726 3.71875,-3.71875 l 0,-40.5625 c 0,-2.06149 -1.65726,-3.71875 -3.71875,-3.71875 l -54.25,0 z m 26.5625,4 c 2.5473,4e-5 4.86675,0.69091 6.96875,2.0625 2.11977,1.37167 3.72586,3.32772 4.8125,5.875 1.1044,2.52953 1.65622,6.19041 1.65625,11 -3e-5,5.00558 -0.53841,8.99392 -1.625,11.96875 -1.08664,2.95703 -2.68835,5.23149 -4.84375,6.78125 -2.13763,1.54977 -4.67675,2.3125 -7.5625,2.3125 -3.06392,0 -5.55835,-0.83898 -7.5,-2.53125 -1.94167,-1.71008 -3.10811,-4.10578 -3.5,-7.1875 l 4.625,-0.4375 c 0.39189,2.17324 1.14556,3.73902 2.25,4.71875 1.10442,0.97974 2.52209,1.46875 4.25,1.46875 1.4785,0 2.77055,-0.32309 3.875,-1 1.12223,-0.6769 2.03744,-1.56525 2.75,-2.6875 0.71251,-1.14005 1.30027,-2.70114 1.78125,-4.625 0.48094,-1.92383 0.71873,-3.87988 0.71875,-5.875 -2e-5,-0.21374 -0.0135,-0.50996 -0.0312,-0.9375 -0.96195,1.53197 -2.26306,2.75684 -3.9375,3.71875 -1.65666,0.94412 -3.4646,1.43751 -5.40625,1.4375 -3.24205,10e-6 -5.97427,-1.17987 -8.21875,-3.53125 -2.24449,-2.35135 -3.375,-5.46478 -3.375,-9.3125 0,-3.97236 1.16644,-7.17109 3.5,-9.59375 2.35136,-2.42258 5.28543,-3.62496 8.8125,-3.625 z m 0.59375,3.96875 c -2.13762,4e-5 -4.00837,0.87932 -5.59375,2.625 -1.5854,1.74574 -2.37501,4.00239 -2.375,6.78125 -10e-6,2.4939 0.75367,4.52619 2.25,6.09375 1.51413,1.54978 3.38488,2.34377 5.59375,2.34375 2.22666,2e-5 4.04366,-0.79397 5.46875,-2.34375 1.44286,-1.56756 2.15623,-3.7389 2.15625,-6.5 -2e-5,-2.76105 -0.74026,-4.94145 -2.21875,-6.5625 -1.46072,-1.62099 -3.21491,-2.43746 -5.28125,-2.4375 z"
         style="fill:#9bb528;fill-opacity:1;fill-rule:nonzero;stroke:none" />
      <path
         inkscape:connector-curvature="0"
         style="fill:#000000;fill-opacity:1;fill-rule:nonzero;stroke:none;filter:url(#filter4587)"
         d="m 452.6875,274.96875 c -2.06149,0 -3.71875,1.65726 -3.71875,3.71875 l 0,40.5625 c 0,2.06149 1.65726,3.71875 3.71875,3.71875 l 54.25,0 c 2.06149,0 3.71875,-1.65726 3.71875,-3.71875 l 0,-40.5625 c 0,-2.06149 -1.65726,-3.71875 -3.71875,-3.71875 l -54.25,0 z m 27.0625,4 c 3.42016,4e-5 6.16581,1.00494 8.25,3 2.08414,1.97732 3.12497,4.36864 3.125,7.21875 -3e-5,1.81699 -0.4756,3.42746 -1.4375,4.78125 -0.94413,1.33603 -2.40211,2.36342 -4.34375,3.09375 2.40479,0.78381 4.22179,2.03556 5.46875,3.78125 1.26472,1.74573 1.90622,3.82739 1.90625,6.25 -3e-5,3.34893 -1.19334,6.15739 -3.5625,8.4375 -2.3692,2.28012 -5.47826,3.4375 -9.34375,3.4375 -3.86552,0 -6.97458,-1.15738 -9.34375,-3.4375 -2.36919,-2.29792 -3.5625,-5.14232 -3.5625,-8.5625 0,-2.5473 0.65493,-4.6649 1.9375,-6.375 1.30037,-1.72788 3.14425,-2.90776 5.53125,-3.53125 -1.99511,-0.73033 -3.47558,-1.77116 -4.4375,-3.125 -0.96193,-1.35379 -1.4375,-2.98675 -1.4375,-4.875 0,-2.85011 1.01395,-5.2458 3.0625,-7.1875 2.04853,-1.94162 4.78513,-2.90621 8.1875,-2.90625 z m 0.0312,3.9375 c -1.83479,4e-5 -3.3512,0.6056 -4.5625,1.78125 -1.21132,1.17572 -1.81251,2.57995 -1.8125,4.21875 -1e-5,1.85262 0.58774,3.35559 1.78125,4.53125 1.19349,1.17571 2.7502,1.78127 4.65625,1.78125 1.85258,2e-5 3.35555,-0.59211 4.53125,-1.75 1.19348,-1.17566 1.81248,-2.58895 1.8125,-4.28125 -2e-5,-1.7635 -0.61465,-3.24397 -1.84375,-4.4375 -1.21133,-1.21128 -2.74555,-1.84371 -4.5625,-1.84375 z m -0.0625,16.21875 c -2.26232,2e-5 -4.15993,0.75369 -5.65625,2.25 -1.47852,1.49634 -2.21876,3.38052 -2.21875,5.625 -1e-5,1.37164 0.32746,2.68619 0.96875,3.96875 0.65909,1.28257 1.62368,2.28747 2.90625,3 1.28255,0.69473 2.67772,1.03125 4.15625,1.03125 2.29791,0 4.19115,-0.74023 5.6875,-2.21875 1.4963,-1.47851 2.24998,-3.34488 2.25,-5.625 -2e-5,-2.31573 -0.79401,-4.23585 -2.34375,-5.75 -1.53197,-1.51412 -3.43427,-2.28123 -5.75,-2.28125 z"
         id="path4577" />
      <path
         inkscape:connector-curvature="0"
         style="fill:#000000;fill-opacity:1;fill-rule:nonzero;stroke:none;filter:url(#filter4562)"
         d="m 388.6875,274.96875 c -2.06149,0 -3.71875,1.65726 -3.71875,3.71875 l 0,40.5625 c 0,2.06149 1.65726,3.71875 3.71875,3.71875 l 54.25,0 c 2.06149,0 3.71875,-1.65726 3.71875,-3.71875 l 0,-40.5625 c 0,-2.06149 -1.65726,-3.71875 -3.71875,-3.71875 l -54.25,0 z m 14,4 26.25,0 0,3.875 c -2.58008,2.74594 -5.14433,6.38558 -7.6875,10.9375 -2.52478,4.55197 -4.4616,9.22131 -5.84375,14.03125 -0.99518,3.39093 -1.66108,7.12032 -1.9375,11.15625 l -5.09375,0 c 0.0553,-3.1882 0.67711,-7.0474 1.875,-11.5625 1.19787,-4.51507 2.92634,-8.84786 5.15625,-13.03125 2.24831,-4.20177 4.63147,-7.75005 7.15625,-10.625 l -19.875,0 0,-4.78125 z"
         id="path4556" />
      <path
         inkscape:connector-curvature="0"
         style="fill:#000000;fill-opacity:1;fill-rule:nonzero;stroke:none;filter:url(#filter4536)"
         d="m 516.6875,224.96875 c -2.06149,0 -3.71875,1.65726 -3.71875,3.71875 l 0,40.5625 c 0,2.06149 1.65726,3.71875 3.71875,3.71875 l 54.25,0 c 2.06149,0 3.71875,-1.65726 3.71875,-3.71875 l 0,-40.5625 c 0,-2.06149 -1.65726,-3.71875 -3.71875,-3.71875 l -54.25,0 z m 28.25,4 c 3.0817,4e-5 5.603,0.86589 7.5625,2.59375 1.97726,1.72794 3.17058,4.11019 3.5625,7.15625 l -4.78125,0.375 c -0.42754,-1.88819 -1.02873,-3.26992 -1.8125,-4.125 -1.3004,-1.3716 -2.90648,-2.06246 -4.8125,-2.0625 -1.53197,4e-5 -2.87339,0.42624 -4.03125,1.28125 -1.51415,1.10446 -2.7209,2.72399 -3.59375,4.84375 -0.87286,2.11982 -1.33938,5.14358 -1.375,9.0625 1.15786,-1.76351 2.57553,-3.08243 4.25,-3.9375 1.67445,-0.85502 3.44645,-1.28122 5.28125,-1.28125 3.20639,3e-5 5.91174,1.19334 8.15625,3.5625 2.26228,2.35139 3.40622,5.41545 3.40625,9.15625 -3e-5,2.45826 -0.52497,4.72396 -1.59375,6.84375 -1.05102,2.10199 -2.52243,3.72151 -4.375,4.84375 -1.85261,1.12224 -3.9299,1.6875 -6.28125,1.6875 -4.00803,0 -7.283,-1.46704 -9.8125,-4.40625 -2.52951,-2.95702 -3.8125,-7.82464 -3.8125,-14.59375 0,-7.57067 1.42204,-13.06198 4.21875,-16.5 2.44043,-2.99261 5.71103,-4.49996 9.84375,-4.5 z m -0.71875,18.15625 c -2.17325,2e-5 -4.01712,0.80744 -5.53125,2.375 -1.51415,1.54978 -2.28126,3.56426 -2.28125,6.09375 -10e-6,1.65666 0.36777,3.26712 1.0625,4.78125 0.71253,1.51415 1.70399,2.66715 2.96875,3.46875 1.26474,0.78379 2.57929,1.15625 3.96875,1.15625 2.03071,0 3.78928,-0.79866 5.25,-2.4375 1.46068,-1.63883 2.18748,-3.87297 2.1875,-6.6875 -2e-5,-2.70762 -0.74464,-4.82522 -2.1875,-6.375 -1.44291,-1.56756 -3.24647,-2.37498 -5.4375,-2.375 z"
         id="path4534" />
      <path
         inkscape:connector-curvature="0"
         id="rect4199"
         d="m 516.6875,224.96875 c -2.06149,0 -3.71875,1.65726 -3.71875,3.71875 l 0,40.5625 c 0,2.06149 1.65726,3.71875 3.71875,3.71875 l 54.25,0 c 2.06149,0 3.71875,-1.65726 3.71875,-3.71875 l 0,-40.5625 c 0,-2.06149 -1.65726,-3.71875 -3.71875,-3.71875 l -54.25,0 z m 28.25,4 c 3.0817,4e-5 5.603,0.86589 7.5625,2.59375 1.97726,1.72794 3.17058,4.11019 3.5625,7.15625 l -4.78125,0.375 c -0.42754,-1.88819 -1.02873,-3.26992 -1.8125,-4.125 -1.3004,-1.3716 -2.90648,-2.06246 -4.8125,-2.0625 -1.53197,4e-5 -2.87339,0.42624 -4.03125,1.28125 -1.51415,1.10446 -2.7209,2.72399 -3.59375,4.84375 -0.87286,2.11982 -1.33938,5.14358 -1.375,9.0625 1.15786,-1.76351 2.57553,-3.08243 4.25,-3.9375 1.67445,-0.85502 3.44645,-1.28122 5.28125,-1.28125 3.20639,3e-5 5.91174,1.19334 8.15625,3.5625 2.26228,2.35139 3.40622,5.41545 3.40625,9.15625 -3e-5,2.45826 -0.52497,4.72396 -1.59375,6.84375 -1.05102,2.10199 -2.52243,3.72151 -4.375,4.84375 -1.85261,1.12224 -3.9299,1.6875 -6.28125,1.6875 -4.00803,0 -7.283,-1.46704 -9.8125,-4.40625 -2.52951,-2.95702 -3.8125,-7.82464 -3.8125,-14.59375 0,-7.57067 1.42204,-13.06198 4.21875,-16.5 2.44043,-2.99261 5.71103,-4.49996 9.84375,-4.5 z m -0.71875,18.15625 c -2.17325,2e-5 -4.01712,0.80744 -5.53125,2.375 -1.51415,1.54978 -2.28126,3.56426 -2.28125,6.09375 -10e-6,1.65666 0.36777,3.26712 1.0625,4.78125 0.71253,1.51415 1.70399,2.66715 2.96875,3.46875 1.26474,0.78379 2.57929,1.15625 3.96875,1.15625 2.03071,0 3.78928,-0.79866 5.25,-2.4375 1.46068,-1.63883 2.18748,-3.87297 2.1875,-6.6875 -2e-5,-2.70762 -0.74464,-4.82522 -2.1875,-6.375 -1.44291,-1.56756 -3.24647,-2.37498 -5.4375,-2.375 z"
         style="fill:#9bb528;fill-opacity:1;fill-rule:nonzero;stroke:none" />
      <path
         inkscape:connector-curvature="0"
         style="fill:#00000f;fill-opacity:0.94117647;fill-rule:nonzero;stroke:none;filter:url(#filter4523)"
         d="m 452.6875,224.96875 c -2.06149,0 -3.71875,1.65726 -3.71875,3.71875 l 0,40.5625 c 0,2.06149 1.65726,3.71875 3.71875,3.71875 l 54.25,0 c 2.06149,0 3.71875,-1.65726 3.71875,-3.71875 l 0,-40.5625 c 0,-2.06149 -1.65726,-3.71875 -3.71875,-3.71875 l -54.25,0 z m 18.65625,4 19.8125,0 0,4.6875 -15.90625,0 -2.15625,10.6875 c 2.39292,-1.66777 4.90264,-2.49997 7.53125,-2.5 3.48061,3e-5 6.41955,1.21397 8.8125,3.625 2.3929,2.41108 3.59372,5.52371 3.59375,9.3125 -3e-5,3.60753 -1.0534,6.71516 -3.15625,9.34375 -2.55611,3.22683 -6.04547,4.84375 -10.46875,4.84375 -3.62566,0 -6.57272,-1.03213 -8.875,-3.0625 -2.28416,-2.03036 -3.61119,-4.70877 -3.9375,-8.0625 l 5.15625,-0.4375 c 0.38069,2.50171 1.24724,4.38728 2.625,5.65625 1.39586,1.25085 3.07339,1.875 5.03125,1.875 2.35666,0 4.36844,-0.87968 6,-2.65625 1.63152,-1.77656 2.43748,-4.12571 2.4375,-7.0625 -2e-5,-2.79174 -0.79786,-5.01157 -2.375,-6.625 -1.55905,-1.61339 -3.58706,-2.40623 -6.125,-2.40625 -1.57717,2e-5 -3.01228,0.36864 -4.28125,1.09375 -1.26899,0.70702 -2.27488,1.60794 -3,2.75 l -4.59375,-0.59375 3.875,-20.46875 z"
         id="path4521" />
      <path
         inkscape:connector-curvature="0"
         style="fill:#000000;fill-opacity:1;fill-rule:nonzero;stroke:none;filter:url(#filter4510)"
         d="m 388.6875,224.96875 c -2.06149,0 -3.71875,1.65726 -3.71875,3.71875 l 0,40.5625 c 0,2.06149 1.65726,3.71875 3.71875,3.71875 l 54.25,0 c 2.06149,0 3.71875,-1.65726 3.71875,-3.71875 l 0,-40.5625 c 0,-2.06149 -1.65726,-3.71875 -3.71875,-3.71875 l -54.25,0 z m 31.5625,4 4,0 0,25.90625 5.40625,0 0,4.5 -5.40625,0 0,9.59375 -4.90625,0 0,-9.59375 -17.34375,0 0,-4.5 18.25,-25.90625 z m -0.90625,7.875 -12.53125,18.03125 12.53125,0 0,-18.03125 z"
         id="path4484" />
      <path
         inkscape:connector-curvature="0"
         style="fill:#000000;fill-opacity:1;fill-rule:nonzero;stroke:none;filter:url(#filter4464)"
         d="m 516.6875,174.96875 c -2.06149,0 -3.71875,1.65726 -3.71875,3.71875 l 0,40.5625 c 0,2.06149 1.65726,3.71875 3.71875,3.71875 l 54.25,0 c 2.06149,0 3.71875,-1.65726 3.71875,-3.71875 l 0,-40.5625 c 0,-2.06149 -1.65726,-3.71875 -3.71875,-3.71875 l -54.25,0 z m 26.5625,4 c 2.13616,4e-5 4.10828,0.44936 5.90625,1.375 1.79793,0.90791 3.1815,2.1657 4.125,3.75 0.96126,1.58437 1.43747,3.25113 1.4375,5.03125 -3e-5,1.69117 -0.46715,3.23651 -1.375,4.625 -0.9079,1.38854 -2.25112,2.49365 -4.03125,3.3125 2.31417,0.53407 4.12452,1.65263 5.40625,3.34375 1.28168,1.67336 1.90622,3.7847 1.90625,6.3125 -3e-5,3.4179 -1.22656,6.3021 -3.71875,8.6875 -2.49223,2.3676 -5.65924,3.5625 -9.46875,3.5625 -3.4357,0 -6.28391,-1.01533 -8.5625,-3.0625 -2.2608,-2.04717 -3.55458,-4.71107 -3.875,-7.96875 l 4.8125,-0.65625 c 0.55184,2.72364 1.49518,4.69575 2.8125,5.90625 1.3351,1.19271 2.93898,1.8125 4.84375,1.8125 2.26078,0 4.17,-0.80846 5.71875,-2.375 1.56651,-1.56653 2.34373,-3.49829 2.34375,-5.8125 -2e-5,-2.20737 -0.71435,-4.01336 -2.15625,-5.4375 -1.44194,-1.4419 -3.27483,-2.15623 -5.5,-2.15625 -0.90789,2e-5 -2.05335,0.17524 -3.40625,0.53125 L 541,195.53125 c 0.32041,0.0356 0.58542,0.0313 0.78125,0.0312 2.04716,2e-5 3.89349,-0.52564 5.53125,-1.59375 1.63772,-1.06807 2.46873,-2.71228 2.46875,-4.9375 -2e-5,-1.76232 -0.58857,-3.21787 -1.78125,-4.375 -1.19272,-1.15706 -2.73806,-1.74996 -4.625,-1.75 -1.86917,4e-5 -3.44141,0.60638 -4.6875,1.78125 -1.24611,1.17493 -2.05023,2.93148 -2.40625,5.28125 l -4.8125,-0.84375 c 0.58745,-3.22204 1.94847,-5.73762 4.03125,-7.5 2.08277,-1.78011 4.65253,-2.65621 7.75,-2.65625 z"
         id="path4438" />
      <path
         inkscape:connector-curvature="0"
         id="rect4168"
         d="m 516.6875,174.96875 c -2.06149,0 -3.71875,1.65726 -3.71875,3.71875 l 0,40.5625 c 0,2.06149 1.65726,3.71875 3.71875,3.71875 l 54.25,0 c 2.06149,0 3.71875,-1.65726 3.71875,-3.71875 l 0,-40.5625 c 0,-2.06149 -1.65726,-3.71875 -3.71875,-3.71875 l -54.25,0 z m 26.5625,4 c 2.13616,4e-5 4.10828,0.44936 5.90625,1.375 1.79793,0.90791 3.1815,2.1657 4.125,3.75 0.96126,1.58437 1.43747,3.25113 1.4375,5.03125 -3e-5,1.69117 -0.46715,3.23651 -1.375,4.625 -0.9079,1.38854 -2.25112,2.49365 -4.03125,3.3125 2.31417,0.53407 4.12452,1.65263 5.40625,3.34375 1.28168,1.67336 1.90622,3.7847 1.90625,6.3125 -3e-5,3.4179 -1.22656,6.3021 -3.71875,8.6875 -2.49223,2.3676 -5.65924,3.5625 -9.46875,3.5625 -3.4357,0 -6.28391,-1.01533 -8.5625,-3.0625 -2.2608,-2.04717 -3.55458,-4.71107 -3.875,-7.96875 l 4.8125,-0.65625 c 0.55184,2.72364 1.49518,4.69575 2.8125,5.90625 1.3351,1.19271 2.93898,1.8125 4.84375,1.8125 2.26078,0 4.17,-0.80846 5.71875,-2.375 1.56651,-1.56653 2.34373,-3.49829 2.34375,-5.8125 -2e-5,-2.20737 -0.71435,-4.01336 -2.15625,-5.4375 -1.44194,-1.4419 -3.27483,-2.15623 -5.5,-2.15625 -0.90789,2e-5 -2.05335,0.17524 -3.40625,0.53125 L 541,195.53125 c 0.32041,0.0356 0.58542,0.0313 0.78125,0.0312 2.04716,2e-5 3.89349,-0.52564 5.53125,-1.59375 1.63772,-1.06807 2.46873,-2.71228 2.46875,-4.9375 -2e-5,-1.76232 -0.58857,-3.21787 -1.78125,-4.375 -1.19272,-1.15706 -2.73806,-1.74996 -4.625,-1.75 -1.86917,4e-5 -3.44141,0.60638 -4.6875,1.78125 -1.24611,1.17493 -2.05023,2.93148 -2.40625,5.28125 l -4.8125,-0.84375 c 0.58745,-3.22204 1.94847,-5.73762 4.03125,-7.5 2.08277,-1.78011 4.65253,-2.65621 7.75,-2.65625 z"
         style="fill:#9bb528;fill-opacity:1;fill-rule:nonzero;stroke:none" />
      <path
         inkscape:connector-curvature="0"
         style="fill:#000000;fill-opacity:1;fill-rule:nonzero;stroke:none;filter:url(#filter4427)"
         d="m 452.6875,174.96875 c -2.06149,0 -3.71875,1.65726 -3.71875,3.71875 l 0,40.5625 c 0,2.06149 1.65726,3.71875 3.71875,3.71875 l 54.25,0 c 2.06149,0 3.71875,-1.65726 3.71875,-3.71875 l 0,-40.5625 c 0,-2.06149 -1.65726,-3.71875 -3.71875,-3.71875 l -54.25,0 z m 27.84375,4 c 3.82244,4e-5 6.86547,1.06797 9.09375,3.1875 2.22823,2.1196 3.34372,4.74097 3.34375,7.875 -3e-5,1.59423 -0.34785,3.14767 -1,4.6875 -0.6522,1.53988 -1.72829,3.17212 -3.25,4.875 -1.50365,1.70292 -4.01678,4.029 -7.53125,7 -2.9348,2.46378 -4.82293,4.14358 -5.65625,5.03125 -0.83334,0.86957 -1.51903,1.73732 -2.0625,2.625 l 19.53125,0 0,4.71875 -26.3125,0 c -0.0362,-1.17754 0.14583,-2.31929 0.5625,-3.40625 0.67029,-1.79347 1.75135,-3.54211 3.21875,-5.28125 1.4855,-1.73912 3.61639,-3.74863 6.40625,-6.03125 4.32969,-3.55071 7.25949,-6.37226 8.78125,-8.4375 1.52172,-2.08331 2.28123,-4.0584 2.28125,-5.90625 -2e-5,-1.93837 -0.69884,-3.5525 -2.09375,-4.875 -1.37683,-1.34054 -3.17801,-2.03121 -5.40625,-2.03125 -2.35509,4e-5 -4.24322,0.71199 -5.65625,2.125 -1.41305,1.41308 -2.13814,3.37503 -2.15625,5.875 l -5.03125,-0.5 c 0.3442,-3.74997 1.65987,-6.60594 3.90625,-8.5625 2.24637,-1.9746 5.24501,-2.96871 9.03125,-2.96875 z"
         id="path4401" />
      <path
         inkscape:connector-curvature="0"
         style="fill:#000000;fill-opacity:1;fill-rule:nonzero;stroke:none;filter:url(#filter4392)"
         d="m 388.6875,174.96875 c -2.06149,0 -3.71875,1.65726 -3.71875,3.71875 l 0,40.5625 c 0,2.06149 1.65726,3.71875 3.71875,3.71875 l 54.25,0 c 2.06149,0 3.71875,-1.65726 3.71875,-3.71875 l 0,-40.5625 c 0,-2.06149 -1.65726,-3.71875 -3.71875,-3.71875 l -54.25,0 z m 28.6875,3.65625 3.15625,0 0,40 -4.90625,0 0,-31.1875 c -1.17755,1.12322 -2.70472,2.25184 -4.625,3.375 -1.90218,1.12322 -3.63452,1.96968 -5.15625,2.53125 l 0,-4.71875 c 2.7355,-1.2862 5.14039,-2.85776 7.1875,-4.6875 2.04709,-1.82967 3.49228,-3.59145 4.34375,-5.3125 z"
         id="path4352" />
      <path
         inkscape:connector-curvature="0"
         id="rect4109"
         d="m 388.6875,174.96875 c -2.06149,0 -3.71875,1.65726 -3.71875,3.71875 l 0,40.5625 c 0,2.06149 1.65726,3.71875 3.71875,3.71875 l 54.25,0 c 2.06149,0 3.71875,-1.65726 3.71875,-3.71875 l 0,-40.5625 c 0,-2.06149 -1.65726,-3.71875 -3.71875,-3.71875 l -54.25,0 z m 28.6875,3.65625 3.15625,0 0,40 -4.90625,0 0,-31.1875 c -1.17755,1.12322 -2.70472,2.25184 -4.625,3.375 -1.90218,1.12322 -3.63452,1.96968 -5.15625,2.53125 l 0,-4.71875 c 2.7355,-1.2862 5.14039,-2.85776 7.1875,-4.6875 2.04709,-1.82967 3.49228,-3.59145 4.34375,-5.3125 z"
         style="fill:#9bb528;fill-opacity:1;fill-rule:nonzero;stroke:none" />
      <path
         inkscape:connector-curvature="0"
         id="rect4174"
         d="m 452.6875,174.96875 c -2.06149,0 -3.71875,1.65726 -3.71875,3.71875 l 0,40.5625 c 0,2.06149 1.65726,3.71875 3.71875,3.71875 l 54.25,0 c 2.06149,0 3.71875,-1.65726 3.71875,-3.71875 l 0,-40.5625 c 0,-2.06149 -1.65726,-3.71875 -3.71875,-3.71875 l -54.25,0 z m 27.84375,4 c 3.82244,4e-5 6.86547,1.06797 9.09375,3.1875 2.22823,2.1196 3.34372,4.74097 3.34375,7.875 -3e-5,1.59423 -0.34785,3.14767 -1,4.6875 -0.6522,1.53988 -1.72829,3.17212 -3.25,4.875 -1.50365,1.70292 -4.01678,4.029 -7.53125,7 -2.9348,2.46378 -4.82293,4.14358 -5.65625,5.03125 -0.83334,0.86957 -1.51903,1.73732 -2.0625,2.625 l 19.53125,0 0,4.71875 -26.3125,0 c -0.0362,-1.17754 0.14583,-2.31929 0.5625,-3.40625 0.67029,-1.79347 1.75135,-3.54211 3.21875,-5.28125 1.4855,-1.73912 3.61639,-3.74863 6.40625,-6.03125 4.32969,-3.55071 7.25949,-6.37226 8.78125,-8.4375 1.52172,-2.08331 2.28123,-4.0584 2.28125,-5.90625 -2e-5,-1.93837 -0.69884,-3.5525 -2.09375,-4.875 -1.37683,-1.34054 -3.17801,-2.03121 -5.40625,-2.03125 -2.35509,4e-5 -4.24322,0.71199 -5.65625,2.125 -1.41305,1.41308 -2.13814,3.37503 -2.15625,5.875 l -5.03125,-0.5 c 0.3442,-3.74997 1.65987,-6.60594 3.90625,-8.5625 2.24637,-1.9746 5.24501,-2.96871 9.03125,-2.96875 z"
         style="fill:#9bb528;fill-opacity:1;fill-rule:nonzero;stroke:none" />
      <path
         inkscape:connector-curvature="0"
         id="rect4193"
         d="m 388.6875,224.96875 c -2.06149,0 -3.71875,1.65726 -3.71875,3.71875 l 0,40.5625 c 0,2.06149 1.65726,3.71875 3.71875,3.71875 l 54.25,0 c 2.06149,0 3.71875,-1.65726 3.71875,-3.71875 l 0,-40.5625 c 0,-2.06149 -1.65726,-3.71875 -3.71875,-3.71875 l -54.25,0 z m 31.5625,4 4,0 0,25.90625 5.40625,0 0,4.5 -5.40625,0 0,9.59375 -4.90625,0 0,-9.59375 -17.34375,0 0,-4.5 18.25,-25.90625 z m -0.90625,7.875 -12.53125,18.03125 12.53125,0 0,-18.03125 z"
         style="fill:#9bb528;fill-opacity:1;fill-rule:nonzero;stroke:none" />
      <path
         inkscape:connector-curvature="0"
         id="rect4205"
         d="m 452.6875,224.96875 c -2.06149,0 -3.71875,1.65726 -3.71875,3.71875 l 0,40.5625 c 0,2.06149 1.65726,3.71875 3.71875,3.71875 l 54.25,0 c 2.06149,0 3.71875,-1.65726 3.71875,-3.71875 l 0,-40.5625 c 0,-2.06149 -1.65726,-3.71875 -3.71875,-3.71875 l -54.25,0 z m 18.65625,4 19.8125,0 0,4.6875 -15.90625,0 -2.15625,10.6875 c 2.39292,-1.66777 4.90264,-2.49997 7.53125,-2.5 3.48061,3e-5 6.41955,1.21397 8.8125,3.625 2.3929,2.41108 3.59372,5.52371 3.59375,9.3125 -3e-5,3.60753 -1.0534,6.71516 -3.15625,9.34375 -2.55611,3.22683 -6.04547,4.84375 -10.46875,4.84375 -3.62566,0 -6.57272,-1.03213 -8.875,-3.0625 -2.28416,-2.03036 -3.61119,-4.70877 -3.9375,-8.0625 l 5.15625,-0.4375 c 0.38069,2.50171 1.24724,4.38728 2.625,5.65625 1.39586,1.25085 3.07339,1.875 5.03125,1.875 2.35666,0 4.36844,-0.87968 6,-2.65625 1.63152,-1.77656 2.43748,-4.12571 2.4375,-7.0625 -2e-5,-2.79174 -0.79786,-5.01157 -2.375,-6.625 -1.55905,-1.61339 -3.58706,-2.40623 -6.125,-2.40625 -1.57717,2e-5 -3.01228,0.36864 -4.28125,1.09375 -1.26899,0.70702 -2.27488,1.60794 -3,2.75 l -4.59375,-0.59375 3.875,-20.46875 z"
         style="fill:#9bb528;fill-opacity:1;fill-rule:nonzero;stroke:none" />
      <path
         inkscape:connector-curvature="0"
         id="rect4213"
         d="m 388.6875,274.96875 c -2.06149,0 -3.71875,1.65726 -3.71875,3.71875 l 0,40.5625 c 0,2.06149 1.65726,3.71875 3.71875,3.71875 l 54.25,0 c 2.06149,0 3.71875,-1.65726 3.71875,-3.71875 l 0,-40.5625 c 0,-2.06149 -1.65726,-3.71875 -3.71875,-3.71875 l -54.25,0 z m 14,4 26.25,0 0,3.875 c -2.58008,2.74594 -5.14433,6.38558 -7.6875,10.9375 -2.52478,4.55197 -4.4616,9.22131 -5.84375,14.03125 -0.99518,3.39093 -1.66108,7.12032 -1.9375,11.15625 l -5.09375,0 c 0.0553,-3.1882 0.67711,-7.0474 1.875,-11.5625 1.19787,-4.51507 2.92634,-8.84786 5.15625,-13.03125 2.24831,-4.20177 4.63147,-7.75005 7.15625,-10.625 l -19.875,0 0,-4.78125 z"
         style="fill:#9bb528;fill-opacity:1;fill-rule:nonzero;stroke:none" />
      <path
         inkscape:connector-curvature="0"
         id="rect4225"
         d="m 452.6875,274.96875 c -2.06149,0 -3.71875,1.65726 -3.71875,3.71875 l 0,40.5625 c 0,2.06149 1.65726,3.71875 3.71875,3.71875 l 54.25,0 c 2.06149,0 3.71875,-1.65726 3.71875,-3.71875 l 0,-40.5625 c 0,-2.06149 -1.65726,-3.71875 -3.71875,-3.71875 l -54.25,0 z m 27.0625,4 c 3.42016,4e-5 6.16581,1.00494 8.25,3 2.08414,1.97732 3.12497,4.36864 3.125,7.21875 -3e-5,1.81699 -0.4756,3.42746 -1.4375,4.78125 -0.94413,1.33603 -2.40211,2.36342 -4.34375,3.09375 2.40479,0.78381 4.22179,2.03556 5.46875,3.78125 1.26472,1.74573 1.90622,3.82739 1.90625,6.25 -3e-5,3.34893 -1.19334,6.15739 -3.5625,8.4375 -2.3692,2.28012 -5.47826,3.4375 -9.34375,3.4375 -3.86552,0 -6.97458,-1.15738 -9.34375,-3.4375 -2.36919,-2.29792 -3.5625,-5.14232 -3.5625,-8.5625 0,-2.5473 0.65493,-4.6649 1.9375,-6.375 1.30037,-1.72788 3.14425,-2.90776 5.53125,-3.53125 -1.99511,-0.73033 -3.47558,-1.77116 -4.4375,-3.125 -0.96193,-1.35379 -1.4375,-2.98675 -1.4375,-4.875 0,-2.85011 1.01395,-5.2458 3.0625,-7.1875 2.04853,-1.94162 4.78513,-2.90621 8.1875,-2.90625 z m 0.0312,3.9375 c -1.83479,4e-5 -3.3512,0.6056 -4.5625,1.78125 -1.21132,1.17572 -1.81251,2.57995 -1.8125,4.21875 -1e-5,1.85262 0.58774,3.35559 1.78125,4.53125 1.19349,1.17571 2.7502,1.78127 4.65625,1.78125 1.85258,2e-5 3.35555,-0.59211 4.53125,-1.75 1.19348,-1.17566 1.81248,-2.58895 1.8125,-4.28125 -2e-5,-1.7635 -0.61465,-3.24397 -1.84375,-4.4375 -1.21133,-1.21128 -2.74555,-1.84371 -4.5625,-1.84375 z m -0.0625,16.21875 c -2.26232,2e-5 -4.15993,0.75369 -5.65625,2.25 -1.47852,1.49634 -2.21876,3.38052 -2.21875,5.625 -1e-5,1.37164 0.32746,2.68619 0.96875,3.96875 0.65909,1.28257 1.62368,2.28747 2.90625,3 1.28255,0.69473 2.67772,1.03125 4.15625,1.03125 2.29791,0 4.19115,-0.74023 5.6875,-2.21875 1.4963,-1.47851 2.24998,-3.34488 2.25,-5.625 -2e-5,-2.31573 -0.79401,-4.23585 -2.34375,-5.75 -1.53197,-1.51412 -3.43427,-2.28123 -5.75,-2.28125 z"
         style="fill:#9bb528;fill-opacity:1;fill-rule:nonzero;stroke:none" />
    </g>
    <path
       inkscape:connector-curvature="0"
       style="display:inline;opacity:0.5;fill:url(#linearGradient5359);fill-opacity:1;fill-rule:nonzero;stroke:none"
       d="m 567.47698,531.88486 c -11.74071,5.70327 -23.31089,11.58496 -34.75,17.625 -16.28206,8.59719 -32.29699,17.49541 -48.03125,26.53125 -15.73426,9.03585 -31.23266,18.19005 -46.53125,27.37495 -30.5972,18.3699 -60.4101,36.74 -89.9375,53.9688 -6.19882,3.6169 -12.38391,7.1812 -18.5625,10.6875 l 0,129.8437 c 0,20.0081 16.11697,36.0938 36.125,36.0938 l 165.5625,0 c 20.00803,0 36.125,-16.0857 36.125,-36.0938 l 0,-266.0312 z"
       id="rect5328"
       inkscape:export-filename="/media/0D64-9616/domogik/telephone/telephone.png"
       inkscape:export-xdpi="96"
       inkscape:export-ydpi="96" />
  </g>
</svg>
