<?xml version="1.0" encoding="UTF-8"?>
<!-- Created with Inkscape (http://www.inkscape.org/) -->
<svg id="svg3693" width="303.9" height="141.31" version="1.1" viewBox="0 0 303.89587 141.31104" xmlns="http://www.w3.org/2000/svg" xmlns:cc="http://creativecommons.org/ns#" xmlns:dc="http://purl.org/dc/elements/1.1/" xmlns:rdf="http://www.w3.org/1999/02/22-rdf-syntax-ns#" xmlns:xlink="http://www.w3.org/1999/xlink">
 <defs id="defs3695">
  <linearGradient id="linearGradient4075" x1="313.06" x2="312.2" y1="428.98" y2="311.64" gradientTransform="matrix(.98887 0 0 1.0463 119.78 182.08)" gradientUnits="userSpaceOnUse" xlink:href="#linearGradient4898-2"/>
  <linearGradient id="linearGradient4898-2">
   <stop id="stop4900-7" stop-color="#fff" offset="0"/>
   <stop id="stop4902-9" stop-color="#fff" stop-opacity="0" offset="1"/>
  </linearGradient>
  <radialGradient id="radialGradient4066" cx="470.32" cy="204.65" r="144.57" gradientTransform="matrix(.96773 0 0 .42228 -746.58 -649.18)" gradientUnits="userSpaceOnUse" xlink:href="#linearGradient4898-2"/>
  <linearGradient id="linearGradient4950-9" x1="325.75" x2="460.68" y1="204.65" y2="204.65" gradientTransform="matrix(.96773 0 0 .91593 -746.58 -750.2)" gradientUnits="userSpaceOnUse" xlink:href="#linearGradient4940-1"/>
  <linearGradient id="linearGradient4940-1">
   <stop id="stop4942-9" stop-color="#ccc" offset="0"/>
   <stop id="stop4944-6" stop-color="#ccc" stop-opacity="0" offset="1"/>
  </linearGradient>
  <linearGradient id="linearGradient4946-2" x1="325.75" x2="465.44" y1="204.65" y2="204.65" gradientTransform="matrix(.96773 0 0 .91593 -163.72 -750.2)" gradientUnits="userSpaceOnUse" xlink:href="#linearGradient4940-1"/>
  <filter id="filter5097-4" x="-.04315" y="-.12731" width="1.0863" height="1.2546" color-interpolation-filters="sRGB">
   <feGaussianBlur id="feGaussianBlur5099-9" stdDeviation="5.0296802"/>
  </filter>
  <filter id="filter6489-5" x="-.03979" y="-.1174" width="1.0796" height="1.2348" color-interpolation-filters="sRGB">
   <feGaussianBlur id="feGaussianBlur6491-4" stdDeviation="4.6381135"/>
  </filter>
 </defs>
 <metadata id="metadata3698">
  <rdf:RDF>
   <cc:Work rdf:about="">
    <dc:format>image/svg+xml</dc:format>
    <dc:type rdf:resource="http://purl.org/dc/dcmitype/StillImage"/>
    <dc:title/>
   </cc:Work>
  </rdf:RDF>
 </metadata>
 <g id="layer1" transform="translate(-139.48 -501.71)">
  <ellipse id="path6432-5" transform="matrix(.96373 0 0 -1.0019 -157.31 782.35)" cx="465.63" cy="197.61" rx="139.88" ry="47.408" enable-background="new" fill="#403e3f" filter="url(#filter6489-5)" stroke="#403e3f" stroke-linecap="round" stroke-linejoin="round" stroke-width="7.1357"/>
  <ellipse id="path4896-7-0" transform="matrix(1 0 0 -1 -174.2 767.76)" cx="465.63" cy="197.61" rx="139.88" ry="47.408" enable-background="new" filter="url(#filter5097-4)" stroke="#000"/>
  <ellipse id="path4005-1" transform="scale(1,-1)" cx="291.43" cy="-570.46" rx="134.55" ry="54.551" enable-background="new" fill="none" stroke="#bdcb2f" stroke-linecap="round" stroke-linejoin="round" stroke-width="7.5074"/>
  <ellipse id="path4003-0" transform="scale(1,-1)" cx="291.43" cy="-562.76" rx="139.91" ry="61.049" enable-background="new" fill="#eee"/>
  <ellipse id="path4938-2" transform="scale(1,-1)" cx="291.43" cy="-562.76" rx="139.91" ry="61.049" enable-background="new" fill="url(#linearGradient4946-2)"/>
  <ellipse id="path4948-9" transform="scale(-1)" cx="-291.43" cy="-562.76" rx="139.91" ry="61.049" enable-background="new" fill="url(#linearGradient4950-9)"/>
  <ellipse id="path3292" transform="scale(-1)" cx="-291.43" cy="-562.76" rx="139.91" ry="61.049" enable-background="new" fill="url(#radialGradient4066)"/>
  <path id="path4072" d="m374.85 510.03c-0.3065 0.11039-0.6211 0.21574-0.927 0.32697-4.1862 1.5219-8.3045 3.1338-12.392 4.8065-8.1747 3.3454-16.162 6.9477-23.98 10.79s-15.477 7.9-22.991 12.098c-7.5138 4.1978-14.896 8.536-22.157 12.948-7.261 4.412-14.386 8.921-21.446 13.406-14.12 8.9696-27.906 17.941-41.532 26.354-6.8131 4.2063-13.597 8.2757-20.364 12.131-5.0138 2.856-10.005 5.4478-15.018 8.0435 25.029 11.794 59.245 19.095 97.033 19.095 76.658 0 138.81-29.934 138.81-66.833 0-21.729-21.662-40.969-55.037-53.165z" enable-background="new" fill="url(#linearGradient4075)" opacity=".75"/>
 </g>
</svg>
