<?xml version="1.0" encoding="UTF-8"?>
<!-- Created with Inkscape (http://www.inkscape.org/) -->
<svg width="263.26" height="297.66" enable-background="new" version="1.1" xmlns="http://www.w3.org/2000/svg" xmlns:cc="http://creativecommons.org/ns#" xmlns:dc="http://purl.org/dc/elements/1.1/" xmlns:rdf="http://www.w3.org/1999/02/22-rdf-syntax-ns#" xmlns:xlink="http://www.w3.org/1999/xlink">
 <defs>
  <filter id="filter4313">
   <feGaussianBlur stdDeviation="3.504491"/>
  </filter>
  <filter id="filter4477">
   <feGaussianBlur stdDeviation="4.6726547"/>
  </filter>
  <filter id="filter4560">
   <feBlend in2="BackgroundImage" mode="lighten"/>
  </filter>
  <linearGradient id="linearGradient3076" x1="900.16" x2="644.16" y1="255.27" y2="511.27" gradientTransform="matrix(.86328 0 0 .90186 -198.66 77.217)" gradientUnits="userSpaceOnUse">
   <stop stop-color="#fff" offset="0"/>
   <stop stop-color="#fff" stop-opacity="0" offset="1"/>
  </linearGradient>
 </defs>
 <metadata>
  <rdf:RDF>
   <cc:Work rdf:about="">
    <dc:format>image/svg+xml</dc:format>
    <dc:type rdf:resource="http://purl.org/dc/dcmitype/StillImage"/>
    <dc:title/>
   </cc:Work>
  </rdf:RDF>
 </metadata>
 <g transform="translate(-340.11 -222.9)" filter="url(#filter4560)" stroke-linejoin="round">
  <g transform="matrix(1 0 0 .99654 -.012532 1.7857)" filter="url(#filter4477)" stroke="#000" stroke-width="4">
   <path d="m362.13 257.34 109.2-9.5537v24.968l-109.2 4.0048zm109.2-9.5537v24.968l110.02-0.0305v-20.308zm-109.2 28.973 109.2-4.0048 110.02-0.0305-113.41 3.4041zm0-19.419 109.2-9.5537 110.02 4.6294-113.41 7.2339zv19.419l105.81-0.63121v-16.478zm105.81 2.3096 113.41-7.2339v20.308l-113.41 3.4041zm-105.89 25.503 109.36-5.4159v27.65l-109.36-0.71716zm109.36-5.4159v27.65l110.02-3.9347v-22.505zm-109.36 5.4159 109.36-5.4159 110.02 1.211-113.55 4.3698zm105.82 0.16485 113.55-4.3698v22.505l-113.55 0.13208zm-105.82-0.16485v21.517l105.82-3.0855v-18.267zm0 21.517 109.36 0.71716 110.02-3.9347-113.55 0.13208zm0.19451 4.2529 109.05 0.85739v28.32l-109.05-7.1648zm109.05 0.85739v28.32l109.94-8.1871v-23.059zm-109.05-0.85739 109.05 0.85739 109.94-2.9259-113.42-0.17474zm105.57-2.2432 113.42 0.17474v23.059l-113.42-4.5368zm-105.57 2.2432v22.012l105.57-5.559v-18.696zm0 22.012 109.05 7.1648 109.94-8.1871-113.42-4.5368zm-0.042 6.2633 109.05 7.2946v28.327l-109.05-13.543zm109.05 7.2946v28.327l110.03-12.166v-23.067zm-109.05-7.2946 109.05 7.2946 110.03-6.9061-113.2-4.9003zm105.87-4.5118 113.2 4.9003v23.067l-113.2-9.2206zm-105.87 4.5118v22.078l105.87-7.8437v-18.746zm0 22.078 109.05 13.543 110.03-12.166-113.2-9.2206zm0.0754 8.7935 108.79 13.143v31.083l-108.79-19.977zm108.79 13.143v31.083l110.13-16.357v-25.322zm-108.79-13.143 108.79 13.143 110.13-10.596-112.96-9.183zm105.96-6.6366 112.96 9.183v25.322l-112.96-13.912zm-105.96 6.6366v24.248l105.96-10.291v-20.593zm0 24.248 108.79 19.977 110.13-16.357-112.96-13.912zm-0.12883 9.2385 108.92 19.068v32.502l-108.92-26.206zm108.92 19.068v32.502l110.26-22.117v-26.477zm-108.92-19.068 108.92 19.068 110.26-16.092-113.06-13.191zm106.12-10.215 113.06 13.191v26.477l-113.06-18.129zm-106.12 10.215v25.363l106.12-14.04v-21.539zm0 25.363 108.92 26.206 110.26-22.117-113.06-18.129zm-0.079 8.76 109 25.84v32.156l-109-32.898zm109 25.84v32.156l110.33-27.755v-26.201zm-109-25.84 109 25.84 110.33-21.8-113.15-17.882zm106.19-13.842 113.15 17.882v26.201l-113.15-22.767zm-106.19 13.842v25.097l106.19-17.623v-21.316zm0 25.097 109 32.898 110.33-27.755-113.15-22.767z" filter="url(#filter4313)" stroke="#000" stroke-linejoin="round" stroke-width="4"/>
  </g>
  <g transform="translate(.66661 756.06)" fill="#403e3f" stroke="#666666" stroke-width="2">
   <g stroke-linecap="round">
    <path d="m361.4-293.21 109 32.898 110.33-27.755-113.15-22.767z" points="470.40512,-260.31152 580.73943,-288.06633 467.5899,-310.83325 361.4037,-293.20992 " fill="#afafde" fill-rule="evenodd"/>
    <path d="m361.4-318.31v25.097l106.19-17.623v-21.316z" points="361.4037,-293.20992 467.5899,-310.83325 467.5899,-332.14902 361.4037,-318.30704 " fill="#534f45"/>
    <path d="m467.59-332.15 113.15 17.882v26.201l-113.15-22.767z" points="580.73943,-314.26709 580.73943,-288.06633 467.5899,-310.83325 467.5899,-332.14902 " fill="#e9e9ff" fill-rule="evenodd"/>
    <path d="m361.4-318.31 109 25.84 110.33-21.8-113.15-17.882z" points="470.40512,-292.46749 580.73943,-314.26709 467.5899,-332.14902 361.4037,-318.30704 " fill="#403e3f"/>
    <path d="m470.41-292.47v32.156l110.33-27.755v-26.201z" points="470.40512,-260.31152 580.73943,-288.06633 580.73943,-314.26709 470.40512,-292.46749 " fill="#444444"/>
    <path d="m361.4-318.31 109 25.84v32.156l-109-32.898z" points="470.40512,-292.46749 470.40512,-260.31152 361.4037,-293.20992 361.4037,-318.30704 " fill="#222222"/>
   </g>
   <g stroke-linecap="round">
    <path d="m361.48-327.07 108.92 26.206 110.26-22.117-113.06-18.129z" points="470.40494,-300.86062 580.66047,-322.9776 467.59777,-341.10697 361.48265,-327.06705 " fill="#afafde" fill-rule="evenodd"/>
    <path d="m361.48-352.43v25.363l106.12-14.04v-21.539z" points="361.48265,-327.06705 467.59777,-341.10697 467.59777,-362.64577 361.48265,-352.43048 " fill="#534f45" stroke-linejoin="round" stroke-width="2"/>
    <path d="m467.6-362.65 113.06 13.191v26.477l-113.06-18.129z" points="580.66047,-349.45505 580.66047,-322.9776 467.59777,-341.10697 467.59777,-362.64577 " fill="#e9e9ff" fill-rule="evenodd"/>
    <path d="m361.48-352.43 108.92 19.068 110.26-16.092-113.06-13.191z" points="470.40494,-333.36298 580.66047,-349.45505 467.59777,-362.64577 361.48265,-352.43048 " fill="#403e3f" stroke-linejoin="round" stroke-width="2"/>
    <path d="m470.4-333.36v32.502l110.26-22.117v-26.477z" points="470.40494,-300.86062 580.66047,-322.9776 580.66047,-349.45505 470.40494,-333.36298 " fill="#444444" stroke-linejoin="round" stroke-width="2"/>
    <path d="m361.48-352.43 108.92 19.068v32.502l-108.92-26.206z" points="470.40494,-333.36298 470.40494,-300.86062 361.48265,-327.06705 361.48265,-352.43048 " fill="#222222" stroke-linejoin="round" stroke-width="2"/>
   </g>
   <g stroke-linecap="round">
    <path d="m361.61-361.67 108.79 19.977 110.13-16.357-112.96-13.912z" points="470.40468,-341.69173 580.53164,-358.0487 467.57075,-371.96037 361.61148,-361.66895 " fill="#afafde" fill-rule="evenodd"/>
    <path d="m361.61-385.92v24.248l105.96-10.291v-20.593z" points="361.61148,-361.66895 467.57075,-371.96037 467.57075,-392.55377 361.61148,-385.91712 " fill="#534f45" stroke-linejoin="round" stroke-width="2"/>
    <path d="m467.57-392.55 112.96 9.183v25.322l-112.96-13.912z" points="580.53164,-383.37081 580.53164,-358.0487 467.57075,-371.96037 467.57075,-392.55377 " fill="#e9e9ff" fill-rule="evenodd"/>
    <path d="m361.61-385.92 108.79 13.143 110.13-10.596-112.96-9.183z" points="470.40468,-372.77447 580.53164,-383.37081 467.57075,-392.55377 361.61148,-385.91712 " fill="#403e3f" stroke-linejoin="round" stroke-width="2"/>
    <path d="m470.4-372.77v31.083l110.13-16.357v-25.322z" points="470.40468,-341.69173 580.53164,-358.0487 580.53164,-383.37081 470.40468,-372.77447 " fill="#444444" stroke-linejoin="round" stroke-width="2"/>
    <path d="m361.61-385.92 108.79 13.143v31.083l-108.79-19.977z" points="470.40468,-372.77447 470.40468,-341.69173 361.61148,-361.66895 361.61148,-385.91712 " fill="#222222" stroke-linejoin="round" stroke-width="2"/>
   </g>
   <g stroke-linecap="round">
    <path d="m361.54-394.71 109.05 13.543 110.03-12.166-113.2-9.2206z" points="470.58126,-381.16761 580.6071,-393.33374 467.41097,-402.55432 361.53603,-394.71066 " fill="#afafde" fill-rule="evenodd"/>
    <path d="m361.54-416.79v22.078l105.87-7.8437v-18.746z" points="361.53603,-394.71066 467.41097,-402.55432 467.41097,-421.30077 361.53603,-416.78901 " fill="#534f45" stroke-linejoin="round" stroke-width="2"/>
    <path d="m467.41-421.3 113.2 4.9003v23.067l-113.2-9.2206z" points="580.6071,-416.40045 580.6071,-393.33374 467.41097,-402.55432 467.41097,-421.30077 " fill="#e9e9ff" fill-rule="evenodd"/>
    <path d="m361.54-416.79 109.05 7.2946 110.03-6.9061-113.2-4.9003z" points="470.58126,-409.49437 580.6071,-416.40045 467.41097,-421.30077 361.53603,-416.78901 " fill="#403e3f" stroke-linejoin="round" stroke-width="2"/>
    <path d="m470.58-409.49v28.327l110.03-12.166v-23.067z" points="470.58126,-381.16761 580.6071,-393.33374 580.6071,-416.40045 470.58126,-409.49437 " fill="#444444" stroke-linejoin="round" stroke-width="2"/>
    <path d="m361.54-416.79 109.05 7.2946v28.327l-109.05-13.543z" points="470.58126,-409.49437 470.58126,-381.16761 361.53603,-394.71066 361.53603,-416.78901 " fill="#222222" stroke-linejoin="round" stroke-width="2"/>
   </g>
   <path d="m361.58-423.05 109.05 7.1648 109.94-8.1871-113.42-4.5368z" points="470.62323,-415.88751 580.5651,-424.07461 467.14804,-428.61138 361.57803,-423.05233 " fill="#afafde" fill-rule="evenodd"/>
   <path d="m361.58-445.06v22.012l105.57-5.559v-18.696z" points="361.57803,-423.05233 467.14804,-428.61138 467.14804,-447.30788 361.57803,-445.06466 " fill="#534f45"/>
   <path d="m467.15-447.31 113.42 0.17474v23.059l-113.42-4.5368z" points="580.5651,-447.13314 580.5651,-424.07461 467.14804,-428.61138 467.14804,-447.30788 " fill="#e9e9ff" fill-rule="evenodd"/>
   <path d="m361.58-445.06 109.05 0.85739 109.94-2.9259-113.42-0.17474z" points="470.62323,-444.20727 580.5651,-447.13314 467.14804,-447.30788 361.57803,-445.06466 " fill="#403e3f"/>
   <path d="m470.62-444.21v28.32l109.94-8.1871v-23.059z" points="470.62323,-415.88751 580.5651,-424.07461 580.5651,-447.13314 470.62323,-444.20727 " fill="#444444"/>
   <path d="m361.58-445.06 109.05 0.85739v28.32l-109.05-7.1648z" points="470.62323,-444.20727 470.62323,-415.88751 361.57803,-423.05233 361.57803,-445.06466 " fill="#222222"/>
   <g stroke-linecap="round">
    <path d="m361.38-451.32 109.36 0.71715 110.02-3.9347-113.55 0.13209z" points="470.73937,-450.60048 580.75961,-454.53517 467.20545,-454.40308 361.38352,-451.31763 " fill="#afafde" fill-rule="evenodd"/>
    <path d="m361.38-472.83v21.517l105.82-3.0854v-18.267z" points="361.38352,-451.31763 467.20545,-454.40308 467.20545,-472.6701 361.38352,-472.83495 " fill="#534f45" stroke-width="2"/>
    <path d="m467.21-472.67 113.55-4.3698v22.505l-113.55 0.13209z" points="580.75961,-477.03988 580.75961,-454.53517 467.20545,-454.40308 467.20545,-472.6701 " fill="#e9e9ff" fill-rule="evenodd"/>
    <path d="m361.38-472.83 109.36-5.4159 110.02 1.211-113.55 4.3698z" points="470.73937,-478.25088 580.75961,-477.03988 467.20545,-472.6701 361.38352,-472.83495 " fill="#403e3f" stroke-width="2"/>
    <path d="m470.74-478.25v27.65l110.02-3.9347v-22.505z" points="470.73937,-450.60048 580.75961,-454.53517 580.75961,-477.03988 470.73937,-478.25088 " fill="#444444" stroke-width="2"/>
    <path d="m361.38-472.83 109.36-5.4159v27.65l-109.36-0.71715z" points="470.73937,-478.25088 470.73937,-450.60048 361.38352,-451.31763 361.38352,-472.83495 " fill="#222222" stroke-width="2"/>
   </g>
   <path d="m467.27-496.34 113.41-7.2339v20.308l-113.41 3.4041z" points="580.68154,-503.57156 580.68154,-483.26342 467.2723,-479.85931 467.2723,-496.33769 " fill="#e9e9ff" fill-rule="evenodd"/>
   <path d="m361.46-498.65v19.419l105.81-0.63121v-16.478z" points="361.46159,-479.2281 467.2723,-479.85931 467.2723,-496.33769 361.46159,-498.64729 " fill="#534f45"/>
   <path d="m361.46-498.65 109.2-9.5537 110.02 4.6294-113.41 7.2339z" points="470.65924,-508.20098 580.68154,-503.57156 467.2723,-496.33769 361.46159,-498.64729 " fill="#403e3f"/>
   <path d="m361.46-479.23 109.2-4.0048 110.02-0.0305-113.41 3.4041z" points="470.65924,-483.23295 580.68154,-483.26342 467.2723,-479.85931 361.46159,-479.2281 " fill="#afafde" fill-rule="evenodd"/>
   <path d="m470.66-508.2v24.968l110.02-0.0305v-20.308z" points="470.65924,-483.23295 580.68154,-483.26342 580.68154,-503.57156 470.65924,-508.20098 " fill="#444444"/>
   <path d="m361.46-498.65 109.2-9.5537v24.968l-109.2 4.0048z" points="470.65924,-508.20098 470.65924,-483.23295 361.46159,-479.2281 361.46159,-498.64729 " fill="#222222"/>
  </g>
 </g>
 <g transform="translate(-340.11 -222.9)">
  <g transform="matrix(1 0 0 .99654 -.012532 1.7857)" opacity=".2" stroke="#fff" stroke-linejoin="round" stroke-width="4">
   <path d="m362.13 257.34 109.2-9.5537v24.968l-109.2 4.0048zm109.2-9.5537v24.968l110.02-0.0305v-20.308zm-109.2 28.973 109.2-4.0048 110.02-0.0305-113.41 3.4041zm0-19.419 109.2-9.5537 110.02 4.6294-113.41 7.2339zv19.419l105.81-0.63121v-16.478zm105.81 2.3096 113.41-7.2339v20.308l-113.41 3.4041zm-105.89 25.503 109.36-5.4159v27.65l-109.36-0.71716zm109.36-5.4159v27.65l110.02-3.9347v-22.505zm-109.36 5.4159 109.36-5.4159 110.02 1.211-113.55 4.3698zm105.82 0.16485 113.55-4.3698v22.505l-113.55 0.13208zm-105.82-0.16485v21.517l105.82-3.0855v-18.267zm0 21.517 109.36 0.71716 110.02-3.9347-113.55 0.13208zm0.19451 4.2529 109.05 0.85739v28.32l-109.05-7.1648zm109.05 0.85739v28.32l109.94-8.1871v-23.059zm-109.05-0.85739 109.05 0.85739 109.94-2.9259-113.42-0.17474zm105.57-2.2432 113.42 0.17474v23.059l-113.42-4.5368zm-105.57 2.2432v22.012l105.57-5.559v-18.696zm0 22.012 109.05 7.1648 109.94-8.1871-113.42-4.5368zm-0.042 6.2633 109.05 7.2946v28.327l-109.05-13.543zm109.05 7.2946v28.327l110.03-12.166v-23.067zm-109.05-7.2946 109.05 7.2946 110.03-6.9061-113.2-4.9003zm105.87-4.5118 113.2 4.9003v23.067l-113.2-9.2206zm-105.87 4.5118v22.078l105.87-7.8437v-18.746zm0 22.078 109.05 13.543 110.03-12.166-113.2-9.2206zm0.0754 8.7935 108.79 13.143v31.083l-108.79-19.977zm108.79 13.143v31.083l110.13-16.357v-25.322zm-108.79-13.143 108.79 13.143 110.13-10.596-112.96-9.183zm105.96-6.6366 112.96 9.183v25.322l-112.96-13.912zm-105.96 6.6366v24.248l105.96-10.291v-20.593zm0 24.248 108.79 19.977 110.13-16.357-112.96-13.912zm-0.12883 9.2385 108.92 19.068v32.502l-108.92-26.206zm108.92 19.068v32.502l110.26-22.117v-26.477zm-108.92-19.068 108.92 19.068 110.26-16.092-113.06-13.191zm106.12-10.215 113.06 13.191v26.477l-113.06-18.129zm-106.12 10.215v25.363l106.12-14.04v-21.539zm0 25.363 108.92 26.206 110.26-22.117-113.06-18.129zm-0.079 8.76 109 25.84v32.156l-109-32.898zm109 25.84v32.156l110.33-27.755v-26.201zm-109-25.84 109 25.84 110.33-21.8-113.15-17.882zm106.19-13.842 113.15 17.882v26.201l-113.15-22.767zm-106.19 13.842v25.097l106.19-17.623v-21.316zm0 25.097 109 32.898 110.33-27.755-113.15-22.767z" filter="url(#filter4313)" stroke="#fff" stroke-linejoin="round" stroke-width="4"/>
  </g>
  <path d="m581.37 327.09c-1.4866 0.28383-3.0066 0.50761-4.4783 0.81731-3.9471 0.83064-7.8374 1.7557-11.681 2.7619-3.8439 1.0063-7.6382 2.1026-11.385 3.2692-3.7464 1.1667-7.4333 2.4084-11.088 3.7202-3.6545 1.3118-7.2768 2.673-10.845 4.1147-7.1366 2.8835-14.109 6.0167-20.935 9.3286-6.8255 3.3118-13.512 6.8094-20.071 10.428s-12.977 7.3576-19.316 11.16-12.586 7.6612-18.749 11.527c-12.327 7.7313-24.362 15.464-36.258 22.716-5.9479 3.6256-11.843 7.1332-17.751 10.456-5.9079 3.3228-11.811 6.4587-17.724 9.3568-5.9131 2.898-11.842 5.568-17.805 7.9194-0.96721 0.38138-1.9444 0.70582-2.9136 1.071l1.6956 27.228 109 32.785 110.34-27.659-0.0372-141z" fill="url(#linearGradient3076)" opacity=".5"/>
 </g>
</svg>
