<?xml version="1.0" encoding="UTF-8"?>
<!-- Created with Inkscape (http://www.inkscape.org/) -->
<svg width="210" height="297" enable-background="new" version="1.1" xmlns="http://www.w3.org/2000/svg" xmlns:cc="http://creativecommons.org/ns#" xmlns:dc="http://purl.org/dc/elements/1.1/" xmlns:rdf="http://www.w3.org/1999/02/22-rdf-syntax-ns#" xmlns:xlink="http://www.w3.org/1999/xlink">
 <defs>
  <filter id="filter4313">
   <feGaussianBlur stdDeviation="3.504491"/>
  </filter>
  <filter id="filter4477">
   <feGaussianBlur stdDeviation="4.6726547"/>
  </filter>
  <filter id="filter4560">
   <feBlend in2="BackgroundImage" mode="lighten"/>
  </filter>
  <linearGradient id="linearGradient3076" x1="900.16" x2="644.16" y1="255.27" y2="511.27" gradientTransform="matrix(.86328 0 0 .90186 -198.66 77.217)" gradientUnits="userSpaceOnUse">
   <stop stop-color="#fff" offset="0"/>
   <stop stop-color="#fff" stop-opacity="0" offset="1"/>
  </linearGradient>
 </defs>
 <metadata>
  <rdf:RDF>
   <cc:Work rdf:about="">
    <dc:format>image/svg+xml</dc:format>
    <dc:type rdf:resource="http://purl.org/dc/dcmitype/StillImage"/>
    <dc:title/>
   </cc:Work>
  </rdf:RDF>
 </metadata>
 <g filter="url(#filter4560)">
  <g transform="matrix(1 0 0 .99654 -.012532 1.7857)" filter="url(#filter4477)" stroke="#000" stroke-linejoin="round" stroke-width="4">
   <path d="m362.13 257.34 109.2-9.5537v24.968l-109.2 4.0048zm109.2-9.5537v24.968l110.02-0.0305v-20.308zm-109.2 28.973 109.2-4.0048 110.02-0.0305-113.41 3.4041zm0-19.419 109.2-9.5537 110.02 4.6294-113.41 7.2339zv19.419l105.81-0.63121v-16.478zm105.81 2.3096 113.41-7.2339v20.308l-113.41 3.4041zm-105.89 25.503 109.36-5.4159v27.65l-109.36-0.71716zm109.36-5.4159v27.65l110.02-3.9347v-22.505zm-109.36 5.4159 109.36-5.4159 110.02 1.211-113.55 4.3698zm105.82 0.16485 113.55-4.3698v22.505l-113.55 0.13208zm-105.82-0.16485v21.517l105.82-3.0855v-18.267zm0 21.517 109.36 0.71716 110.02-3.9347-113.55 0.13208zm0.19451 4.2529 109.05 0.85739v28.32l-109.05-7.1648zm109.05 0.85739v28.32l109.94-8.1871v-23.059zm-109.05-0.85739 109.05 0.85739 109.94-2.9259-113.42-0.17474zm105.57-2.2432 113.42 0.17474v23.059l-113.42-4.5368zm-105.57 2.2432v22.012l105.57-5.559v-18.696zm0 22.012 109.05 7.1648 109.94-8.1871-113.42-4.5368zm-0.042 6.2633 109.05 7.2946v28.327l-109.05-13.543zm109.05 7.2946v28.327l110.03-12.166v-23.067zm-109.05-7.2946 109.05 7.2946 110.03-6.9061-113.2-4.9003zm105.87-4.5118 113.2 4.9003v23.067l-113.2-9.2206zm-105.87 4.5118v22.078l105.87-7.8437v-18.746zm0 22.078 109.05 13.543 110.03-12.166-113.2-9.2206zm0.0754 8.7935 108.79 13.143v31.083l-108.79-19.977zm108.79 13.143v31.083l110.13-16.357v-25.322zm-108.79-13.143 108.79 13.143 110.13-10.596-112.96-9.183zm105.96-6.6366 112.96 9.183v25.322l-112.96-13.912zm-105.96 6.6366v24.248l105.96-10.291v-20.593zm0 24.248 108.79 19.977 110.13-16.357-112.96-13.912zm-0.12883 9.2385 108.92 19.068v32.502l-108.92-26.206zm108.92 19.068v32.502l110.26-22.117v-26.477zm-108.92-19.068 108.92 19.068 110.26-16.092-113.06-13.191zm106.12-10.215 113.06 13.191v26.477l-113.06-18.129zm-106.12 10.215v25.363l106.12-14.04v-21.539zm0 25.363 108.92 26.206 110.26-22.117-113.06-18.129zm-0.079 8.76 109 25.84v32.156l-109-32.898zm109 25.84v32.156l110.33-27.755v-26.201zm-109-25.84 109 25.84 110.33-21.8-113.15-17.882zm106.19-13.842 113.15 17.882v26.201l-113.15-22.767zm-106.19 13.842v25.097l106.19-17.623v-21.316zm0 25.097 109 32.898 110.33-27.755-113.15-22.767z" filter="url(#filter4313)" stroke="#000" stroke-linejoin="round" stroke-width="4"/>
  </g>
  <rect x="67.303" y="9.1114" width="49.875" height="49.875" ry=".6934" fill="#403e3f" stroke="#eeeeea" stroke-width=".089549"/>
  <rect x="8.3353" y="68.466" width="49.875" height="49.875" ry=".63037" fill="#534f45" stroke="#eeeeea" stroke-width=".077603"/>
  <rect x="67.303" y="68.466" width="49.875" height="49.875" ry=".57784" fill="#625e53" stroke="#eeeeea" stroke-width=".071265"/>
  <rect x="8.3353" y="248.38" width="49.875" height="49.875" ry=".6934" fill="#bdcb2f" stroke="#eeeeea" stroke-width=".076551"/>
  <rect x="67.303" y="248.38" width="49.875" height="49.875" ry=".66038" fill="#9bb528" stroke="#eeeeea" stroke-width=".073309"/>
  <rect x="8.3353" y="126.82" width="49.875" height="49.875" ry=".57784" fill="#b9c248" stroke="#eeeeea" stroke-width=".069881"/>
  <rect x="8.3353" y="188.49" width="49.875" height="49.875" ry=".63037" fill="#908d6f" fill-opacity=".94118" stroke="#eeeeea" stroke-width=".077603"/>
  <rect x="67.303" y="188.49" width="49.875" height="49.875" ry=".57784" fill="#d2cdbc" stroke="#eeeeea" stroke-width=".072734"/>
  <rect x="8.2723" y="9.5779" width="50.001" height="48.942" ry=".71624" stroke="#eeeeea" stroke-width=".079442"/>
  <rect x="8.3353" y="304.19" width="49.875" height="49.875" ry=".66038" fill="#979387" stroke="#eeeeea" stroke-width=".077756"/>
  <rect x="8.3353" y="363.32" width="49.875" height="49.875" ry=".55472" fill="#ccc" stroke="#eeeeea" stroke-width=".068469"/>
  <rect x="8.3353" y="422.44" width="49.875" height="49.875" ry=".66038" fill="#eee" stroke="#eeeeea" stroke-width=".068417"/>
  <g stroke="#b9c248" stroke-linecap="round" stroke-linejoin="round" stroke-width="2">
   <path d="m362.07 462.7 109 32.898 110.33-27.755-113.15-22.767z" fill="#afafde" fill-rule="evenodd"/>
   <path d="m362.07 437.6v25.097l106.19-17.623v-21.316z" fill="#534f45"/>
   <path d="m468.26 423.76 113.15 17.882v26.201l-113.15-22.767z" fill="#e9e9ff" fill-rule="evenodd"/>
   <path d="m362.07 437.6 109 25.84 110.33-21.8-113.15-17.882z" fill="#403e3f"/>
   <path d="m471.07 463.44v32.156l110.33-27.755v-26.201z" fill="#bdcb2f"/>
   <path d="m362.07 437.6 109 25.84v32.156l-109-32.898z" fill="#9bb528"/>
  </g>
  <g stroke="#b9c248" stroke-linecap="round" stroke-linejoin="round" stroke-width="2">
   <path d="m362.15 428.84 108.92 26.206 110.26-22.117-113.06-18.129z" fill="#afafde" fill-rule="evenodd"/>
   <path d="m362.15 403.48v25.363l106.12-14.04v-21.539z" fill="#534f45" stroke-linejoin="round" stroke-width="2"/>
   <path d="m468.26 393.26 113.06 13.191v26.477l-113.06-18.129z" fill="#e9e9ff" fill-rule="evenodd"/>
   <path d="m362.15 403.48 108.92 19.068 110.26-16.092-113.06-13.191z" fill="#403e3f" stroke-linejoin="round" stroke-width="2"/>
   <path d="m471.07 422.54v32.502l110.26-22.117v-26.477z" fill="#bdcb2f" stroke-linejoin="round" stroke-width="2"/>
   <path d="m362.15 403.48 108.92 19.068v32.502l-108.92-26.206z" fill="#9bb528" stroke-linejoin="round" stroke-width="2"/>
  </g>
  <g stroke="#b9c248" stroke-linecap="round" stroke-linejoin="round" stroke-width="2">
   <path d="m362.28 394.24 108.79 19.977 110.13-16.357-112.96-13.912z" fill="#afafde" fill-rule="evenodd"/>
   <path d="m362.28 369.99v24.248l105.96-10.291v-20.593z" fill="#534f45" stroke-linejoin="round" stroke-width="2"/>
   <path d="m468.24 363.35 112.96 9.183v25.322l-112.96-13.912z" fill="#e9e9ff" fill-rule="evenodd"/>
   <path d="m362.28 369.99 108.79 13.143 110.13-10.596-112.96-9.183z" fill="#403e3f" stroke-linejoin="round" stroke-width="2"/>
   <path d="m471.07 383.13v31.083l110.13-16.357v-25.322z" fill="#bdcb2f" stroke-linejoin="round" stroke-width="2"/>
   <path d="m362.28 369.99 108.79 13.143v31.083l-108.79-19.977z" fill="#9bb528" stroke-linejoin="round" stroke-width="2"/>
  </g>
  <g stroke="#b9c248" stroke-linecap="round" stroke-linejoin="round" stroke-width="2">
   <path d="m362.2 361.19 109.05 13.543 110.03-12.166-113.2-9.2206z" fill="#afafde" fill-rule="evenodd"/>
   <path d="m362.2 339.12v22.078l105.87-7.8437v-18.746z" fill="#534f45" stroke-linejoin="round" stroke-width="2"/>
   <path d="m468.08 334.6 113.2 4.9003v23.067l-113.2-9.2206z" fill="#e9e9ff" fill-rule="evenodd"/>
   <path d="m362.2 339.12 109.05 7.2946 110.03-6.9061-113.2-4.9003z" fill="#403e3f" stroke-linejoin="round" stroke-width="2"/>
   <path d="m471.25 346.41v28.327l110.03-12.166v-23.067z" fill="#bdcb2f" stroke-linejoin="round" stroke-width="2"/>
   <path d="m362.2 339.12 109.05 7.2946v28.327l-109.05-13.543z" fill="#9bb528" stroke-linejoin="round" stroke-width="2"/>
  </g>
  <g stroke="#b9c248" stroke-linejoin="round" stroke-width="2">
   <path d="m362.24 332.85 109.05 7.1648 109.94-8.1871-113.42-4.5368z" fill="#afafde" fill-rule="evenodd"/>
   <path d="m362.24 310.84v22.012l105.57-5.559v-18.696z" fill="#534f45"/>
   <path d="m467.81 308.6 113.42 0.17474v23.059l-113.42-4.5368z" fill="#e9e9ff" fill-rule="evenodd"/>
   <path d="m362.24 310.84 109.05 0.85739 109.94-2.9259-113.42-0.17474z" fill="#403e3f"/>
   <path d="m471.29 311.7v28.32l109.94-8.1871v-23.059z" fill="#bdcb2f"/>
   <path d="m362.24 310.84 109.05 0.85739v28.32l-109.05-7.1648z" fill="#9bb528"/>
  </g>
  <g stroke="#b9c248" stroke-linecap="round" stroke-linejoin="round" stroke-width="2">
   <path d="m362.05 304.59 109.36 0.71715 110.02-3.9347-113.55 0.13208z" fill="#afafde" fill-rule="evenodd"/>
   <path d="m362.05 283.07v21.517l105.82-3.0855v-18.267z" fill="#534f45" stroke-width="2"/>
   <path d="m467.87 283.24 113.55-4.3698v22.505l-113.55 0.13208z" fill="#e9e9ff" fill-rule="evenodd"/>
   <path d="m362.05 283.07 109.36-5.4159 110.02 1.211-113.55 4.3698z" fill="#403e3f" stroke-width="2"/>
   <path d="m471.41 277.65v27.65l110.02-3.9347v-22.505z" fill="#bdcb2f" stroke-width="2"/>
   <path d="m362.05 283.07 109.36-5.4159v27.65l-109.36-0.71715z" fill="#9bb528" stroke-width="2"/>
  </g>
  <g stroke="#b9c248" stroke-linejoin="round" stroke-width="2">
   <path d="m467.94 259.57 113.41-7.2339v20.308l-113.41 3.4041z" fill="#e9e9ff" fill-rule="evenodd"/>
   <path d="m362.13 257.26v19.419l105.81-0.63121v-16.478z" fill="#534f45"/>
   <path d="m362.13 257.26 109.2-9.5537 110.02 4.6294-113.41 7.2339z" fill="#403e3f"/>
   <path d="m362.13 276.68 109.2-4.0048 110.02-0.0305-113.41 3.4041z" fill="#afafde" fill-rule="evenodd"/>
   <path d="m471.33 247.7v24.968l110.02-0.0305v-20.308z" fill="#bdcb2f"/>
   <path d="m362.13 257.26 109.2-9.5537v24.968l-109.2 4.0048z" fill="#9bb528"/>
  </g>
 </g>
 <g>
  <g transform="matrix(1 0 0 .99654 -.012532 1.7857)" opacity=".2" stroke="#fff" stroke-linejoin="round" stroke-width="4">
   <path d="m362.13 257.34 109.2-9.5537v24.968l-109.2 4.0048zm109.2-9.5537v24.968l110.02-0.0305v-20.308zm-109.2 28.973 109.2-4.0048 110.02-0.0305-113.41 3.4041zm0-19.419 109.2-9.5537 110.02 4.6294-113.41 7.2339zv19.419l105.81-0.63121v-16.478zm105.81 2.3096 113.41-7.2339v20.308l-113.41 3.4041zm-105.89 25.503 109.36-5.4159v27.65l-109.36-0.71716zm109.36-5.4159v27.65l110.02-3.9347v-22.505zm-109.36 5.4159 109.36-5.4159 110.02 1.211-113.55 4.3698zm105.82 0.16485 113.55-4.3698v22.505l-113.55 0.13208zm-105.82-0.16485v21.517l105.82-3.0855v-18.267zm0 21.517 109.36 0.71716 110.02-3.9347-113.55 0.13208zm0.19451 4.2529 109.05 0.85739v28.32l-109.05-7.1648zm109.05 0.85739v28.32l109.94-8.1871v-23.059zm-109.05-0.85739 109.05 0.85739 109.94-2.9259-113.42-0.17474zm105.57-2.2432 113.42 0.17474v23.059l-113.42-4.5368zm-105.57 2.2432v22.012l105.57-5.559v-18.696zm0 22.012 109.05 7.1648 109.94-8.1871-113.42-4.5368zm-0.042 6.2633 109.05 7.2946v28.327l-109.05-13.543zm109.05 7.2946v28.327l110.03-12.166v-23.067zm-109.05-7.2946 109.05 7.2946 110.03-6.9061-113.2-4.9003zm105.87-4.5118 113.2 4.9003v23.067l-113.2-9.2206zm-105.87 4.5118v22.078l105.87-7.8437v-18.746zm0 22.078 109.05 13.543 110.03-12.166-113.2-9.2206zm0.0754 8.7935 108.79 13.143v31.083l-108.79-19.977zm108.79 13.143v31.083l110.13-16.357v-25.322zm-108.79-13.143 108.79 13.143 110.13-10.596-112.96-9.183zm105.96-6.6366 112.96 9.183v25.322l-112.96-13.912zm-105.96 6.6366v24.248l105.96-10.291v-20.593zm0 24.248 108.79 19.977 110.13-16.357-112.96-13.912zm-0.12883 9.2385 108.92 19.068v32.502l-108.92-26.206zm108.92 19.068v32.502l110.26-22.117v-26.477zm-108.92-19.068 108.92 19.068 110.26-16.092-113.06-13.191zm106.12-10.215 113.06 13.191v26.477l-113.06-18.129zm-106.12 10.215v25.363l106.12-14.04v-21.539zm0 25.363 108.92 26.206 110.26-22.117-113.06-18.129zm-0.079 8.76 109 25.84v32.156l-109-32.898zm109 25.84v32.156l110.33-27.755v-26.201zm-109-25.84 109 25.84 110.33-21.8-113.15-17.882zm106.19-13.842 113.15 17.882v26.201l-113.15-22.767zm-106.19 13.842v25.097l106.19-17.623v-21.316zm0 25.097 109 32.898 110.33-27.755-113.15-22.767z" filter="url(#filter4313)" stroke="#fff" stroke-linejoin="round" stroke-width="4"/>
  </g>
  <path d="m581.37 327.09c-1.4866 0.28383-3.0066 0.50761-4.4783 0.81731-3.9471 0.83064-7.8374 1.7557-11.681 2.7619-3.8439 1.0063-7.6382 2.1026-11.385 3.2692-3.7464 1.1667-7.4333 2.4084-11.088 3.7202-3.6545 1.3118-7.2768 2.673-10.845 4.1147-7.1366 2.8835-14.109 6.0167-20.935 9.3286-6.8255 3.3118-13.512 6.8094-20.071 10.428s-12.977 7.3576-19.316 11.16-12.586 7.6612-18.749 11.527c-12.327 7.7313-24.362 15.464-36.258 22.716-5.9479 3.6256-11.843 7.1332-17.751 10.456-5.9079 3.3228-11.811 6.4587-17.724 9.3568-5.9131 2.898-11.842 5.568-17.805 7.9194-0.96721 0.38138-1.9444 0.70582-2.9136 1.071l1.6956 27.228 109 32.785 110.34-27.659-0.0372-141z" fill="url(#linearGradient3076)" opacity=".5"/>
 </g>
</svg>
