<?xml version="1.0" encoding="UTF-8"?>
<!-- Created with Inkscape (http://www.inkscape.org/) -->
<svg width="210" height="297" version="1.1" xmlns="http://www.w3.org/2000/svg" xmlns:cc="http://creativecommons.org/ns#" xmlns:dc="http://purl.org/dc/elements/1.1/" xmlns:rdf="http://www.w3.org/1999/02/22-rdf-syntax-ns#" xmlns:xlink="http://www.w3.org/1999/xlink">
 <defs>
  <linearGradient id="linearGradient6799">
   <stop stop-opacity=".5" offset="0"/>
   <stop stop-opacity="0" offset="1"/>
  </linearGradient>
  <linearGradient id="linearGradient5177">
   <stop stop-color="#fff" offset="0"/>
   <stop stop-color="#bdcb2f" offset="1"/>
  </linearGradient>
  <linearGradient id="linearGradient3865">
   <stop stop-color="#fff" offset="0"/>
   <stop stop-color="#fff" stop-opacity="0" offset="1"/>
  </linearGradient>
  <filter id="filter6689">
   <feGaussianBlur stdDeviation="4.303466"/>
  </filter>
  <filter id="filter6773" x="-.042216" y="-.10367" width="1.0844" height="1.2073">
   <feGaussianBlur stdDeviation="1.8763885"/>
  </filter>
  <filter id="filter6793">
   <feGaussianBlur stdDeviation="2.0192004"/>
  </filter>
  <filter id="filter6812">
   <feGaussianBlur stdDeviation="8.6217115"/>
  </filter>
  <filter id="filter6872">
   <feGaussianBlur stdDeviation="0.55325172"/>
  </filter>
  <filter id="filter6876">
   <feGaussianBlur stdDeviation="0.55325172"/>
  </filter>
  <filter id="filter6880">
   <feGaussianBlur stdDeviation="0.55325172"/>
  </filter>
  <filter id="filter6884">
   <feGaussianBlur stdDeviation="0.55325172"/>
  </filter>
  <filter id="filter6888">
   <feGaussianBlur stdDeviation="0.55325172"/>
  </filter>
  <filter id="filter6892">
   <feGaussianBlur stdDeviation="0.55325172"/>
  </filter>
  <filter id="filter7003">
   <feGaussianBlur stdDeviation="2.7662586"/>
  </filter>
  <filter id="filter7354">
   <feGaussianBlur stdDeviation="5.3860746"/>
  </filter>
  <filter id="filter7365">
   <feGaussianBlur stdDeviation="3.6412312"/>
  </filter>
  <linearGradient id="linearGradient7374" x1="623.51" x2="514.28" y1="345.49" y2="319.34" gradientTransform="matrix(.37483 0 0 .37483 67.436 502.92)" gradientUnits="userSpaceOnUse" xlink:href="#linearGradient3865"/>
  <linearGradient id="linearGradient7377" x1="514.28" x2="624.01" y1="319.34" y2="345.49" gradientTransform="matrix(.37483 0 0 .37483 67.436 502.92)" gradientUnits="userSpaceOnUse">
   <stop stop-color="#9bb528" offset="0"/>
   <stop stop-color="#9bb528" stop-opacity="0" offset="1"/>
  </linearGradient>
  <linearGradient id="linearGradient7381" x1="440.12" x2="546.79" y1="263.65" y2="263.65" gradientTransform="matrix(.37483 0 0 .37483 67.436 502.92)" gradientUnits="userSpaceOnUse">
   <stop stop-color="#9bb528" offset="0"/>
   <stop stop-color="#9bb528" stop-opacity="0" offset="1"/>
  </linearGradient>
  <linearGradient id="linearGradient7384" x1="546.79" x2="440.12" y1="263.65" y2="241.93" gradientTransform="matrix(.37483 0 0 .37483 67.436 502.92)" gradientUnits="userSpaceOnUse" xlink:href="#linearGradient3865"/>
  <linearGradient id="linearGradient7393" x1="390.89" x2="579.29" y1="413.02" y2="176.06" gradientTransform="matrix(.37483 0 0 .37483 67.436 502.92)" gradientUnits="userSpaceOnUse">
   <stop stop-color="#fff" offset="0"/>
   <stop stop-color="#fff" stop-opacity="0" offset="1"/>
  </linearGradient>
  <linearGradient id="linearGradient7406" x1="384.29" x2="240.57" y1="481.84" y2="371.14" gradientTransform="matrix(.37483 0 0 .37483 67.436 502.92)" gradientUnits="userSpaceOnUse">
   <stop stop-color="#fff" offset="0"/>
   <stop stop-color="#fff" stop-opacity=".01" offset="1"/>
  </linearGradient>
  <linearGradient id="linearGradient7411" x1="326.62" x2="235.34" y1="439.36" y2="381.15" gradientTransform="matrix(.37483 0 0 .37483 67.436 502.92)" gradientUnits="userSpaceOnUse" xlink:href="#linearGradient5177"/>
  <linearGradient id="linearGradient7415" x1="425.98" x2="382.62" y1="209.18" y2="230.28" gradientTransform="matrix(.37483 0 0 .37483 67.436 502.92)" gradientUnits="userSpaceOnUse" xlink:href="#linearGradient6799"/>
  <linearGradient id="linearGradient7418" x1="420.12" x2="383.8" y1="239.07" y2="230.86" gradientTransform="matrix(.37483 0 0 .37483 67.436 502.92)" gradientUnits="userSpaceOnUse">
   <stop offset="0"/>
   <stop stop-opacity="0" offset="1"/>
  </linearGradient>
  <linearGradient id="linearGradient7421" x1="374.66" x2="373.31" y1="386.73" y2="262.85" gradientTransform="matrix(.37483 0 0 .37483 67.436 502.92)" gradientUnits="userSpaceOnUse" xlink:href="#linearGradient6799"/>
  <linearGradient id="linearGradient7424" x1="413.33" x2="332.2" y1="387.23" y2="173.38" gradientTransform="matrix(.37483 0 0 .37483 67.436 502.92)" gradientUnits="userSpaceOnUse" xlink:href="#linearGradient5177"/>
  <linearGradient id="linearGradient7428" x1="563.68" x2="435.36" y1="201.57" y2="403.72" gradientTransform="matrix(.37483 0 0 .37483 67.436 502.92)" gradientUnits="userSpaceOnUse" xlink:href="#linearGradient5177"/>
  <linearGradient id="linearGradient7374-7" x1="623.51" x2="514.28" y1="345.49" y2="319.34" gradientTransform="matrix(.37483 0 0 .37483 354.2 310.83)" gradientUnits="userSpaceOnUse" xlink:href="#linearGradient3865"/>
  <linearGradient id="linearGradient7377-7" x1="514.28" x2="624.01" y1="319.34" y2="345.49" gradientTransform="matrix(.37483 0 0 .37483 354.2 310.83)" gradientUnits="userSpaceOnUse">
   <stop stop-color="#9bb528" offset="0"/>
   <stop stop-color="#9bb528" stop-opacity="0" offset="1"/>
  </linearGradient>
  <filter id="filter6793-8" color-interpolation-filters="sRGB">
   <feGaussianBlur stdDeviation="2.0192004"/>
  </filter>
  <linearGradient id="linearGradient7381-3" x1="440.12" x2="546.79" y1="263.65" y2="263.65" gradientTransform="matrix(.37483 0 0 .37483 354.2 310.83)" gradientUnits="userSpaceOnUse">
   <stop stop-color="#9bb528" offset="0"/>
   <stop stop-color="#9bb528" stop-opacity="0" offset="1"/>
  </linearGradient>
  <linearGradient id="linearGradient7384-5" x1="546.79" x2="440.12" y1="263.65" y2="241.93" gradientTransform="matrix(.37483 0 0 .37483 354.2 310.83)" gradientUnits="userSpaceOnUse" xlink:href="#linearGradient3865"/>
  <filter id="filter6773-4" x="-.042216" y="-.10367" width="1.0844" height="1.2073" color-interpolation-filters="sRGB">
   <feGaussianBlur stdDeviation="1.8763885"/>
  </filter>
  <linearGradient id="linearGradient7393-5" x1="390.89" x2="579.29" y1="413.02" y2="176.06" gradientTransform="matrix(.37483 0 0 .37483 354.2 310.83)" gradientUnits="userSpaceOnUse">
   <stop stop-color="#fff" offset="0"/>
   <stop stop-color="#fff" stop-opacity="0" offset="1"/>
  </linearGradient>
  <filter id="filter7003-8" color-interpolation-filters="sRGB">
   <feGaussianBlur stdDeviation="2.7662586"/>
  </filter>
  <filter id="filter6872-8" color-interpolation-filters="sRGB">
   <feGaussianBlur stdDeviation="0.55325172"/>
  </filter>
  <filter id="filter6876-2" color-interpolation-filters="sRGB">
   <feGaussianBlur stdDeviation="0.55325172"/>
  </filter>
  <filter id="filter6880-2" color-interpolation-filters="sRGB">
   <feGaussianBlur stdDeviation="0.55325172"/>
  </filter>
  <filter id="filter6884-0" color-interpolation-filters="sRGB">
   <feGaussianBlur stdDeviation="0.55325172"/>
  </filter>
  <filter id="filter6888-4" color-interpolation-filters="sRGB">
   <feGaussianBlur stdDeviation="0.55325172"/>
  </filter>
  <filter id="filter6892-3" color-interpolation-filters="sRGB">
   <feGaussianBlur stdDeviation="0.55325172"/>
  </filter>
  <linearGradient id="linearGradient7406-3" x1="384.29" x2="240.57" y1="481.84" y2="371.14" gradientTransform="matrix(.37483 0 0 .37483 354.2 310.83)" gradientUnits="userSpaceOnUse">
   <stop stop-color="#fff" offset="0"/>
   <stop stop-color="#fff" stop-opacity=".01" offset="1"/>
  </linearGradient>
  <linearGradient id="linearGradient7411-3" x1="326.62" x2="235.34" y1="439.36" y2="381.15" gradientTransform="matrix(.37483 0 0 .37483 354.2 310.83)" gradientUnits="userSpaceOnUse" xlink:href="#linearGradient5177"/>
  <linearGradient id="linearGradient7415-5" x1="425.98" x2="382.62" y1="209.18" y2="230.28" gradientTransform="matrix(.37483 0 0 .37483 354.2 310.83)" gradientUnits="userSpaceOnUse" xlink:href="#linearGradient6799"/>
  <linearGradient id="linearGradient7418-2" x1="420.12" x2="383.8" y1="239.07" y2="230.86" gradientTransform="matrix(.37483 0 0 .37483 354.2 310.83)" gradientUnits="userSpaceOnUse">
   <stop offset="0"/>
   <stop stop-opacity="0" offset="1"/>
  </linearGradient>
  <linearGradient id="linearGradient7421-5" x1="374.66" x2="373.31" y1="386.73" y2="262.85" gradientTransform="matrix(.37483 0 0 .37483 354.2 310.83)" gradientUnits="userSpaceOnUse" xlink:href="#linearGradient6799"/>
  <linearGradient id="linearGradient7424-7" x1="413.33" x2="332.2" y1="387.23" y2="173.38" gradientTransform="matrix(.37483 0 0 .37483 354.2 310.83)" gradientUnits="userSpaceOnUse" xlink:href="#linearGradient5177"/>
  <filter id="filter6689-1" color-interpolation-filters="sRGB">
   <feGaussianBlur stdDeviation="4.303466"/>
  </filter>
  <linearGradient id="linearGradient7428-3" x1="563.68" x2="435.36" y1="201.57" y2="403.72" gradientTransform="matrix(.37483 0 0 .37483 354.2 310.83)" gradientUnits="userSpaceOnUse" xlink:href="#linearGradient5177"/>
  <filter id="filter7365-3" color-interpolation-filters="sRGB">
   <feGaussianBlur stdDeviation="3.6412312"/>
  </filter>
 </defs>
 <metadata>
  <rdf:RDF>
   <cc:Work rdf:about="">
    <dc:format>image/svg+xml</dc:format>
    <dc:type rdf:resource="http://purl.org/dc/dcmitype/StillImage"/>
    <dc:title/>
   </cc:Work>
  </rdf:RDF>
 </metadata>
 <g stroke="#eeeeea">
  <rect x="67.303" y="9.1114" width="49.875" height="49.875" ry=".6934" fill="#403e3f" stroke-width=".089549"/>
  <rect x="8.3353" y="68.466" width="49.875" height="49.875" ry=".63037" fill="#534f45" stroke-width=".077603"/>
  <rect x="67.303" y="68.466" width="49.875" height="49.875" ry=".57784" fill="#625e53" stroke-width=".071265"/>
  <rect x="8.3353" y="248.38" width="49.875" height="49.875" ry=".6934" fill="#bdcb2f" stroke-width=".076551"/>
  <rect x="67.303" y="248.38" width="49.875" height="49.875" ry=".66038" fill="#9bb528" stroke-width=".073309"/>
  <rect x="8.3353" y="126.82" width="49.875" height="49.875" ry=".57784" fill="#b9c248" stroke-width=".069881"/>
  <rect x="8.3353" y="188.49" width="49.875" height="49.875" ry=".63037" fill="#908d6f" fill-opacity=".94118" stroke-width=".077603"/>
  <rect x="67.303" y="188.49" width="49.875" height="49.875" ry=".57784" fill="#d2cdbc" stroke-width=".072734"/>
  <rect x="8.2723" y="9.5779" width="50.001" height="48.942" ry=".71624" stroke-width=".079442"/>
  <rect x="8.3353" y="304.19" width="49.875" height="49.875" ry=".66038" fill="#979387" stroke-width=".077756"/>
  <rect x="8.3353" y="363.32" width="49.875" height="49.875" ry=".55472" fill="#ccc" stroke-width=".068469"/>
  <rect x="8.3353" y="422.44" width="49.875" height="49.875" ry=".66038" fill="#eee" stroke-width=".068417"/>
 </g>
 <g fill="none" stroke-linejoin="round">
  <path d="m146.78 688.98s-8.6154 12.223-11.803 18.947c-6.4657 13.639-12.311 27.944-14.598 42.863-1.9618 12.796-8.4318 29.886 0.9318 38.825 10.037 9.5824 27.746-0.69614 41.621-0.93181 26.813-0.45542 55.411 8.6811 80.446-0.9318 12.875-4.9437 20.297-18.71 31.06-27.333 12.493-10.009 33.982-13.007 38.825-28.265 3.9026-12.295-4.2741-26.652-12.424-36.651-12.812-15.719-32.993-25.182-52.492-30.75-15.138-4.322-31.554 0.39269-47.211-1.2424-14.239-1.487-29.567-1.1084-42.242-7.765-10.111-5.3102-20.469-13.442-24.227-24.227-3.5662-10.236 0.67483-21.902 3.7272-32.303 1.7212-5.8646 7.8309-10.355 8.0756-16.462 0.16938-4.2263-2.025-8.4934-4.659-11.803-3.7556-4.7187-14.909-10.25-14.909-10.25" filter="url(#filter7354)" stroke="#000" stroke-width="14.993"/>
  <path d="m146.78 688.98s-8.6154 12.223-11.803 18.947c-6.4657 13.639-12.311 27.944-14.598 42.863-1.9618 12.796-8.4318 29.886 0.9318 38.825 10.037 9.5824 27.746-0.69614 41.621-0.93181 26.813-0.45542 55.411 8.6811 80.446-0.9318 12.875-4.9437 20.297-18.71 31.06-27.333 12.493-10.009 33.982-13.007 38.825-28.265 3.9026-12.295-4.2741-26.652-12.424-36.651-12.812-15.719-32.993-25.182-52.492-30.75-15.138-4.322-31.554 0.39269-47.211-1.2424-14.239-1.487-29.567-1.1084-42.242-7.765-10.111-5.3102-20.469-13.442-24.227-24.227-3.5662-10.236 0.67483-21.902 3.7272-32.303 1.7212-5.8646 7.8309-10.355 8.0756-16.462 0.16938-4.2263-2.025-8.4934-4.659-11.803-3.7556-4.7187-14.909-10.25-14.909-10.25" stroke="#bdcb2f" stroke-width="14.993"/>
  <path transform="matrix(.37483 0 0 .37483 67.436 502.92)" d="m219.68 494.39c-10.496 16.849-22.985 32.61-31.489 50.548-17.25 36.386-32.844 74.551-38.947 114.35-5.234 34.138-22.495 79.733 2.486 103.58 26.779 25.565 74.023-1.8572 111.04-2.486 71.535-1.215 147.83 23.16 214.62-2.486 34.349-13.189 54.151-49.916 82.866-72.922 33.33-26.703 90.661-34.701 103.58-75.408 10.412-32.803-11.403-71.104-33.146-97.781-34.18-41.936-88.021-67.184-140.04-82.037-40.386-11.531-84.183 1.0476-125.96-3.3146-37.989-3.9671-78.882-2.957-112.7-20.716-26.975-14.167-54.61-35.862-64.635-64.635-9.5142-27.307 1.8004-58.433 9.9439-86.18 4.592-15.646 20.892-27.626 21.545-43.919 0.45188-11.275-5.4026-22.66-12.43-31.489-10.02-12.589-26.517-18.23-39.775-27.346" filter="url(#filter6812)" opacity=".5" stroke="#fff" stroke-width="20"/>
 </g>
 <g>
  <path d="m250.14 568.09c-0.66528-4e-3 -1.3442 0.01-2.0312 0.0312-4.9964 0.1572-10.575 0.97331-16.844 2.4375l-5.0312 5.9375-2.875 0.875-5.9375 0.21875h-2.8438l-4.2812 4.8438-11.781-6.2188-4.375 2.5s-10.335 13.351-11.781 15.969c0.41256 1.3902 6.8125 8.25 6.8125 8.25l-0.90625 3.0938-21.438 25.469-11.188 14.312s-20.369 20.889-18.781 31.812c0.28228 6.7 5.2812 9.9375 5.2812 9.9375 6.8332 4.2967 17.694 9.9977 23.906 6.2188l5.75-6.6875 10.125-11.312 15.875-16.312 13.688-13.219 19.125 8 5-7.3125 0.0625 0.0625-5.0625 7.25c14.349 6.6621 27.156 2.5711 32.5-2.1875l7.6875-11.438 2.2188 1.7812 3.375-4.6562 16.156 4.2188c7.3942 2.1963 13.048-9.2377 3.75-12.312l-16.062-3.75 1.7812-2.8438c2.1231-12.226 5.7655-22.256-3.3125-39.094l-8.1875-1.1875 3.1562-5.4062c-0.0485-0.0499-0.10636-0.10608-0.15625-0.15625l0.15625-0.28125c-5.9926-5.8982-13.552-8.7907-23.531-8.8438zm-45.031 36.438-0.375 2.25-0.0312 0.0312 0.3125-2.1562 0.0937-0.125zm-3.9375 6.5625-0.71875 2.8438 0.65625-2.7812 0.0625-0.0625zm-0.8125 3.1875 3.4688 3.0312-3.5-2.875 0.0312-0.15625zm-7.9688 14.844c0.2383 0.66491 0.50183 1.4142 0.90625 2.3125 0.13131 0.29166 0.27942 0.6021 0.4375 0.90625-0.15966-0.29697-0.29587-0.60648-0.4375-0.90625-0.36039-0.76279-0.69382-1.5135-0.9375-2.2812l0.0312-0.0312zm2.625 5.25c0.19491 0.25971 0.37023 0.52577 0.59375 0.78125 0.7205 0.82351 1.6115 1.6091 2.6875 2.3125 0.5029 0.67053 1.091 1.3217 1.75 1.9375-1.7696-1.2318-3.2237-2.6988-4.4375-4.25-0.20524-0.26229-0.40439-0.51313-0.59375-0.78125z" filter="url(#filter7365)"/>
 </g>
 <g>
  <path d="m278.72 583.96-48.099 70.281-19.142-7.9926c-4.6122-2.0499-10.323-4.9782-13.178-8.7852l41.984-58.994 38.435 5.4907z" fill="url(#linearGradient7428)"/>
  <path transform="matrix(.37483 0 0 .37483 67.436 502.92)" d="m437.12 180.47-13.477 15.821-7.6173 2.3438-15.821 0.58594h-7.6173l-11.404 12.884-29.003 43.919 21.133 6.8222-6.023 8.242-1.01 5.9758-9.4446 11.511-2.1736 8.4743 9.1969 8.0729-31.156 29.835c1.9941 5.1952 4.9478 16.493 16.43 24l64.547 27.769 125.98-169.92 10.547-19.336c-24.805-24.414-59.571-29.493-113.09-16.992z" filter="url(#filter6689)"/>
  <path d="m231.28 570.56-5.0515 5.93-2.8552 0.87851-5.93 0.21963h-2.8552l-4.2744 4.8291-10.871 16.462 7.9212 2.5572-2.2576 3.0893-0.37857 2.2399-3.5401 4.3144-0.81473 3.1764 3.4473 3.0259-11.678 11.183c0.74744 1.9473 1.8546 6.182 6.1585 8.9957l24.194 10.409 47.22-63.692 3.9533-7.2478c-9.2976-9.1512-22.329-11.055-42.388-6.3692z" fill="url(#linearGradient7424)"/>
  <path d="m209.76 636.23-17.394-7.105 3.1185 7.5443 27.014 11.201c-2.8552-12.958-5.0515-28.552-7.9066-41.51l-9.5546-1.7342-3.9019 6.5226-0.79592 3.2613 3.4846 2.8731 2.422 1.8157c0.51247 6.3692 1.0249 11.421 3.5141 17.131z" fill="url(#linearGradient7421)"/>
  <path d="m211.29 589.45h9.8833l3.7337 3.0748-9.8833-0.21963-3.7337-2.8552z" fill="url(#linearGradient7418)" opacity=".5"/>
  <path d="m210.85 589.23h10.103l6.1496-7.9066-10.103 0.21962-6.1496 7.687z" fill="url(#linearGradient7415)" opacity=".5"/>
  <path d="m166.05 693.77c-6.212 3.779-17.083-1.9154-23.916-6.212 0 0-4.998-3.2393-5.2802-9.9392-1.588-10.923 18.791-31.837 18.791-31.837l11.182-14.288 21.432-25.469 0.93181-3.106s-6.4207-6.8407-6.8332-8.231c1.4459-2.6173 11.803-15.996 11.803-15.996l4.3484-2.4848 11.803 6.212 0.3106 0.4659-11.182 15.996 7.9212 2.5572-2.3304 3.189-0.3106 2.1742-3.5913 4.3484-0.79592 3.2613 3.4846 2.8731-11.458 11.842c1.2105 3.8136 3.8604 7.6839 7.9543 10.444 3.876 2.6919 7.7521 5.0732 11.162 6.6779l-13.686 13.201-15.86 16.307-10.114 11.337-5.7656 6.6779z"/>
  <path d="m166.05 693.77c-6.212 3.779-17.083-1.9154-23.916-6.212 0 0-4.998-3.2393-5.2802-9.9392-1.588-10.923 18.791-31.837 18.791-31.837l11.182-14.288 21.432-25.469 0.93181-3.106s-6.4207-6.8407-6.8332-8.231c1.4459-2.6173 11.803-15.996 11.803-15.996l4.3484-2.4848 11.803 6.212 0.3106 0.4659-11.182 15.996 7.9212 2.5572-2.3304 3.189-0.3106 2.1742-3.5913 4.3484-0.79592 3.2613 3.4846 2.8731-11.458 11.842c1.2105 3.8136 3.8604 7.6839 7.9543 10.444 3.876 2.6919 7.7521 5.0732 11.162 6.6779l-13.686 13.201-15.86 16.307-10.114 11.337-5.7656 6.6779z" fill="url(#linearGradient7411)"/>
  <path d="m192.47 629.46c1.2563 3.7054 3.8702 7.4326 7.8456 10.113 3.876 2.6919 7.7521 5.0732 11.162 6.6779l-13.686 13.201-15.86 16.307-10.114 11.337-5.7656 6.6779c-5.3932 3.2809-14.298-0.57881-21.024-4.465" fill="none"/>
  <path d="m145.03 689.31c-1.0211-0.59002-1.992-1.1806-2.8927-1.747 0 0-4.998-3.2393-5.2802-9.9392-1.588-10.923 18.791-31.837 18.791-31.837l11.182-14.288 21.432-25.469 0.93181-3.106s-6.4207-6.8407-6.8332-8.231c1.4459-2.6173 11.803-15.996 11.803-15.996l4.3484-2.4848 11.803 6.212 0.3106 0.4659-11.182 15.996 7.9212 2.5572-2.3304 3.189-0.3106 2.1742-3.5913 4.3484-0.79592 3.2613 2.4625 2.0304" fill="none"/>
  <path d="m192.18 628.99-48.875 59.302c6.8526 3.5073 18.529 7.1028 22.742 5.4851 15.297-17.704 28.731-31.526 45.426-47.522-7.2074-3.8913-15.812-5.1424-19.293-17.265z" fill="url(#linearGradient7406)"/>
  <g transform="matrix(.37483 0 0 .37483 67.436 502.92)" fill="#403e3f" filter="url(#filter7003)" opacity=".7">
   <path d="m212.43 446.67c8.7663 13.89 19.622 21.779 36.168 29.781l-3.9006 5.0222c-16.238-7.5192-26.325-14.452-36.411-29.589l4.1433-5.2146z" filter="url(#filter6872)"/>
   <path d="m225.27 430.16c10.838 13.476 20.45 20.121 36.168 29.781l-3.9006 5.0222c-16.238-7.5192-26.325-14.452-36.411-29.589l4.1433-5.2146z" filter="url(#filter6876)"/>
   <path d="m239.29 413.52c12.081 12.647 20.036 20.95 36.168 29.781l-3.9006 5.0222c-16.238-7.5192-26.325-14.452-36.411-29.589l4.1433-5.2146z" filter="url(#filter6880)"/>
   <path d="m252.13 397.36c11.667 11.818 22.108 19.293 36.168 29.781l-3.9006 5.0222c-16.238-7.5192-26.325-14.452-36.411-29.589l4.1433-5.2146z" filter="url(#filter6884)"/>
   <path d="m265.81 379.96c12.081 12.647 22.108 20.536 36.168 29.781l-3.9006 5.0222c-16.238-7.5192-26.325-14.452-36.411-29.589l4.1433-5.2146z" filter="url(#filter6888)"/>
   <path d="m281.14 364.63c12.91 10.161 20.45 16.807 31.61 27.71l-5.1436 6.6795c-15.41-10.005-22.596-15.281-32.267-28.346l5.8006-6.0433z" filter="url(#filter6892)"/>
  </g>
  <path d="m202.52 616.22 1.2991 1.0711-11.458 11.842c1.2105 3.8136 3.8604 7.6839 7.9543 10.444 3.876 2.6919 7.7521 5.0732 11.162 6.6779l-13.686 13.201-15.86 16.307-10.114 11.337-5.7656 6.6779c-5.867 3.5691-15.89-1.3121-22.742-5.4851" fill="none"/>
  <path d="m143.31 688.29c-0.40292-0.24538-0.79488-0.48832-1.1744-0.72695 0 0-4.998-3.2393-5.2802-9.9392-1.588-10.923 18.791-31.837 18.791-31.837l11.182-14.288 21.432-25.469 0.93181-3.106s-6.4207-6.8407-6.8332-8.231c1.4459-2.6173 11.803-15.996 11.803-15.996l4.3484-2.4848 11.803 6.212 0.3106 0.4659-11.182 15.996 7.9212 2.5572-2.3304 3.189-0.3106 2.1742-3.5913 4.3484-0.79592 3.2613 2.1855 1.802" fill="none"/>
  <path d="m214.59 606.36 10.323-13.837-3.9533-3.2944 6.1496-7.9066 3.9533 3.2944 10.762-13.178c13.69-6.3692 26.721 0.65888 31.846 5.93l-3.9533 6.8085 4.1729 4.3926 4.8318-4.6122c9.078 16.838 5.4175 26.868 3.2944 39.094l-6.9183 10.981 2.361 2.1963-4.4475 6.1496-2.1963-1.757-7.687 11.421c-5.3443 4.7586-18.156 8.8584-32.505 2.1963l5.0515-7.2477-6.5889-5.7104-6.5889 6.5889c-4.3926-3.4408-10.542-21.816-7.9066-41.51z" fill="#908d6f" stroke="#908d6f" stroke-width=".37483px"/>
  <path d="m214.59 606.36 10.323-13.837-3.9533-3.2944 6.1496-7.9066 3.9533 3.2944 10.762-13.178c13.69-6.3692 26.721 0.65888 31.846 5.93l-3.9533 6.8085 4.1729 4.3926 4.8318-4.6122c9.078 16.838 5.4175 26.868 3.2944 39.094l-6.9183 10.981 2.361 2.1963-4.4475 6.1496-2.1963-1.757-7.687 11.421c-5.3443 4.7586-18.156 8.8584-32.505 2.1963l5.0515-7.2477-6.5889-5.7104-6.5889 6.5889c-4.3926-3.4408-10.542-21.816-7.9066-41.51z" fill="url(#linearGradient7393)" opacity=".5"/>
  <path transform="matrix(.3794 0 0 .35119 65.033 508.94)" d="m477.55 259.28a24.024 32.52 0 1 1 -48.048 0 24.024 32.52 0 1 1 48.048 0z" fill="#403e3f"/>
  <path transform="matrix(.39775 .13745 -.13989 .34742 100.93 438.42)" d="m548.45 336.33a19.336 28.125 0 1 1 -38.673 0 19.336 28.125 0 1 1 38.673 0z" fill="#403e3f"/>
  <path d="m246.43 600.87 13.617-18.888 2.8552-1.9767 3.2944 1.9767-0.43926 2.8552-1.757 0.65889-2.4159-0.43926-12.738 18.449-2.4159-2.6355z"/>
  <path transform="matrix(.31022 .21038 -.21038 .31022 150.69 405.42)" d="m550.2 245.51a13.477 15.235 0 1 1 -26.954 0 13.477 15.235 0 1 1 26.954 0z"/>
  <path d="m259.17 614.49 2.6356 2.1963 2.4159-0.21963 11.86-16.253 0.87851-3.0748-0.87851-2.4159-1.5374-1.5374-0.21963-0.43925-1.3178 2.8552 0.43926 2.8552-14.276 16.033z"/>
  <path transform="matrix(.37483 0 0 .37483 67.436 502.92)" d="m455.28 242 79.103 7.0314c21.094 3.3204 11.719 37.11-1.7578 36.329l-79.103-8.2033c-16.992-1.7578-19.336-36.915 1.7578-35.157z" filter="url(#filter6773)"/>
  <path d="m238.09 593.63 29.65 2.6356c7.9066 1.2446 4.3926 13.91-0.65889 13.617l-29.65-3.0748c-6.3692-0.65888-7.2477-13.837 0.65889-13.178z" fill="url(#linearGradient7384)"/>
  <path d="m238.09 593.63 29.65 2.6356c7.9066 1.2446 4.3926 13.91-0.65889 13.617l-29.65-3.0748c-6.3692-0.65888-7.2477-13.837 0.65889-13.178z" fill="url(#linearGradient7381)"/>
  <path transform="matrix(.37483 0 0 .37483 67.436 502.92)" d="m530.28 319.34 80.275 18.75c24.805 8.2033 9.7658 38.673-9.9611 32.813l-78.517-20.508c-11.914-6.8361-10.938-27.149 8.2033-31.055z" filter="url(#filter6793)"/>
  <path d="m266.2 622.62 30.089 7.0281c9.2976 3.0748 3.6605 14.495-3.7337 12.299l-29.43-7.687c-4.4658-2.5623-4.0997-10.176 3.0748-11.64z" fill="url(#linearGradient7377)"/>
  <path d="m266.2 622.62 30.089 7.0281c9.2976 3.0748 3.6605 14.495-3.7337 12.299l-29.43-7.687c-4.4658-2.5623-4.0997-10.176 3.0748-11.64z" fill="url(#linearGradient7374)"/>
  <path d="m395.23 729.35c-1.0211-0.59002-1.992-1.1806-2.8927-1.747 0 0-4.998-3.2393-5.2802-9.9392-1.588-10.923 18.791-31.837 18.791-31.837l11.182-14.288 21.432-25.469 0.93181-3.106s-6.4207-6.8407-6.8332-8.231c1.4459-2.6173 11.803-15.996 11.803-15.996l4.3484-2.4848 11.803 6.212 0.3106 0.4659-11.182 15.996 7.9212 2.5572-2.3304 3.189-0.3106 2.1742-3.5913 4.3484-0.79592 3.2613 2.4625 2.0304" fill="none"/>
  <path d="m393.51 728.33c-0.40292-0.24538-0.79488-0.48832-1.1744-0.72695 0 0-4.998-3.2393-5.2802-9.9392-1.588-10.923 18.791-31.837 18.791-31.837l11.182-14.288 21.432-25.469 0.93181-3.106s-6.4207-6.8407-6.8332-8.231c1.4459-2.6173 11.803-15.996 11.803-15.996l4.3484-2.4848 11.803 6.212 0.3106 0.4659-11.182 15.996 7.9212 2.5572-2.3304 3.189-0.3106 2.1742-3.5913 4.3484-0.79592 3.2613 2.1855 1.802" fill="none"/>
 </g>
 <path d="m536.9 376c-0.66528-4e-3 -1.3442 0.01-2.0312 0.0312-4.9964 0.1572-10.575 0.97331-16.844 2.4375l-5.0312 5.9375-2.875 0.875-5.9375 0.21875h-2.8438l-4.2812 4.8438-11.781-6.2188-4.375 2.5s-10.335 13.351-11.781 15.969c0.41256 1.3902 6.8125 8.25 6.8125 8.25l-0.90625 3.0938-21.438 25.469-11.188 14.312s-20.369 20.889-18.781 31.812c0.28228 6.7 5.2812 9.9375 5.2812 9.9375 6.8332 4.2967 17.694 9.9977 23.906 6.2188l5.75-6.6875 10.125-11.312 15.875-16.312 13.688-13.219 19.125 8 5-7.3125 0.0625 0.0625-5.0625 7.25c14.349 6.6621 27.156 2.5711 32.5-2.1875l7.6875-11.438 2.2188 1.7812 3.375-4.6562 16.156 4.2188c7.3942 2.1963 13.048-9.2377 3.75-12.312l-16.062-3.75 1.7812-2.8438c2.1231-12.226 5.7655-22.256-3.3125-39.094l-8.1875-1.1875 3.1562-5.4062c-0.0485-0.0499-0.10636-0.10608-0.15625-0.15625l0.15625-0.28125c-5.9926-5.8982-13.552-8.7907-23.531-8.8438zm-45.031 36.438-0.375 2.25-0.0312 0.0312 0.3125-2.1562 0.0937-0.125zm-3.9375 6.5625-0.71875 2.8438 0.65625-2.7812 0.0625-0.0625zm-0.8125 3.1875 3.4688 3.0312-3.5-2.875 0.0312-0.15625zm-7.9688 14.844c0.2383 0.66491 0.50183 1.4142 0.90625 2.3125 0.13131 0.29166 0.27942 0.6021 0.4375 0.90625-0.15966-0.29697-0.29587-0.60648-0.4375-0.90625-0.36039-0.76279-0.69382-1.5135-0.9375-2.2812l0.0312-0.0312zm2.625 5.25c0.19491 0.25971 0.37023 0.52577 0.59375 0.78125 0.7205 0.82351 1.6115 1.6091 2.6875 2.3125 0.5029 0.67053 1.091 1.3217 1.75 1.9375-1.7696-1.2318-3.2237-2.6988-4.4375-4.25-0.20524-0.26229-0.40439-0.51313-0.59375-0.78125z" filter="url(#filter7365-3)"/>
 <path d="m565.48 391.87-48.099 70.281-19.142-7.9926c-4.6122-2.0499-10.323-4.9782-13.178-8.7852l41.984-58.994 38.435 5.4907z" fill="url(#linearGradient7428-3)"/>
 <path transform="matrix(.37483 0 0 .37483 354.2 310.83)" d="m437.12 180.47-13.477 15.821-7.6173 2.3438-15.821 0.58594h-7.6173l-11.404 12.884-29.003 43.919 21.133 6.8222-6.023 8.242-1.01 5.9758-9.4446 11.511-2.1736 8.4743 9.1969 8.0729-31.156 29.835c1.9941 5.1952 4.9478 16.493 16.43 24l64.547 27.769 125.98-169.92 10.547-19.336c-24.805-24.414-59.571-29.493-113.09-16.992z" filter="url(#filter6689-1)"/>
 <path d="m518.04 378.47-5.0515 5.93-2.8552 0.87851-5.93 0.21963h-2.8552l-4.2744 4.8291-10.871 16.462 7.9212 2.5572-2.2576 3.0893-0.37857 2.2399-3.5401 4.3144-0.81473 3.1764 3.4473 3.0259-11.678 11.183c0.74744 1.9473 1.8546 6.182 6.1585 8.9957l24.194 10.409 47.22-63.692 3.9533-7.2478c-9.2976-9.1512-22.329-11.055-42.388-6.3692z" fill="url(#linearGradient7424-7)"/>
 <path d="m496.52 444.14-17.394-7.105 3.1185 7.5443 27.014 11.201c-2.8552-12.958-5.0515-28.552-7.9066-41.51l-9.5546-1.7342-3.9019 6.5226-0.79592 3.2613 3.4846 2.8731 2.422 1.8157c0.51247 6.3692 1.0249 11.421 3.5141 17.131z" fill="url(#linearGradient7421-5)"/>
 <path d="m498.06 397.36h9.8833l3.7337 3.0748-9.8833-0.21963-3.7337-2.8552z" fill="url(#linearGradient7418-2)" opacity=".5"/>
 <path d="m497.62 397.14h10.103l6.1496-7.9066-10.103 0.21962-6.1496 7.687z" fill="url(#linearGradient7415-5)" opacity=".5"/>
 <path d="m452.82 501.68c-6.212 3.779-17.083-1.9154-23.916-6.212 0 0-4.998-3.2393-5.2802-9.9392-1.588-10.923 18.791-31.837 18.791-31.837l11.182-14.288 21.432-25.469 0.93181-3.106s-6.4207-6.8407-6.8332-8.231c1.4459-2.6173 11.803-15.996 11.803-15.996l4.3484-2.4848 11.803 6.212 0.3106 0.4659-11.182 15.996 7.9212 2.5572-2.3304 3.189-0.3106 2.1742-3.5913 4.3484-0.79592 3.2613 3.4846 2.8731-11.458 11.842c1.2105 3.8136 3.8604 7.6839 7.9543 10.444 3.876 2.6919 7.7521 5.0732 11.162 6.6779l-13.686 13.201-15.86 16.307-10.114 11.337-5.7656 6.6779z"/>
 <path d="m452.82 501.68c-6.212 3.779-17.083-1.9154-23.916-6.212 0 0-4.998-3.2393-5.2802-9.9392-1.588-10.923 18.791-31.837 18.791-31.837l11.182-14.288 21.432-25.469 0.93181-3.106s-6.4207-6.8407-6.8332-8.231c1.4459-2.6173 11.803-15.996 11.803-15.996l4.3484-2.4848 11.803 6.212 0.3106 0.4659-11.182 15.996 7.9212 2.5572-2.3304 3.189-0.3106 2.1742-3.5913 4.3484-0.79592 3.2613 3.4846 2.8731-11.458 11.842c1.2105 3.8136 3.8604 7.6839 7.9543 10.444 3.876 2.6919 7.7521 5.0732 11.162 6.6779l-13.686 13.201-15.86 16.307-10.114 11.337-5.7656 6.6779z" fill="url(#linearGradient7411-3)"/>
 <path d="m479.23 437.37c1.2563 3.7054 3.8702 7.4326 7.8456 10.113 3.876 2.6919 7.7521 5.0732 11.162 6.6779l-13.686 13.201-15.86 16.307-10.114 11.337-5.7656 6.6779c-5.3932 3.2809-14.298-0.57881-21.024-4.465" fill="none"/>
 <path d="m431.79 497.22c-1.0211-0.59002-1.992-1.1806-2.8927-1.747 0 0-4.998-3.2393-5.2802-9.9392-1.588-10.923 18.791-31.837 18.791-31.837l11.182-14.288 21.432-25.469 0.93181-3.106s-6.4207-6.8407-6.8332-8.231c1.4459-2.6173 11.803-15.996 11.803-15.996l4.3484-2.4848 11.803 6.212 0.3106 0.4659-11.182 15.996 7.9212 2.5572-2.3304 3.189-0.3106 2.1742-3.5913 4.3484-0.79592 3.2613 2.4625 2.0304" fill="none"/>
 <path d="m478.95 436.89-48.875 59.302c6.8526 3.5073 18.529 7.1028 22.742 5.4851 15.297-17.704 28.731-31.526 45.426-47.522-7.2074-3.8913-15.812-5.1424-19.293-17.265z" fill="url(#linearGradient7406-3)"/>
 <g transform="matrix(.37483 0 0 .37483 354.2 310.83)" fill="#403e3f" filter="url(#filter7003-8)" opacity=".7">
  <path d="m212.43 446.67c8.7663 13.89 19.622 21.779 36.168 29.781l-3.9006 5.0222c-16.238-7.5192-26.325-14.452-36.411-29.589l4.1433-5.2146z" filter="url(#filter6872-8)"/>
  <path d="m225.27 430.16c10.838 13.476 20.45 20.121 36.168 29.781l-3.9006 5.0222c-16.238-7.5192-26.325-14.452-36.411-29.589l4.1433-5.2146z" filter="url(#filter6876-2)"/>
  <path d="m239.29 413.52c12.081 12.647 20.036 20.95 36.168 29.781l-3.9006 5.0222c-16.238-7.5192-26.325-14.452-36.411-29.589l4.1433-5.2146z" filter="url(#filter6880-2)"/>
  <path d="m252.13 397.36c11.667 11.818 22.108 19.293 36.168 29.781l-3.9006 5.0222c-16.238-7.5192-26.325-14.452-36.411-29.589l4.1433-5.2146z" filter="url(#filter6884-0)"/>
  <path d="m265.81 379.96c12.081 12.647 22.108 20.536 36.168 29.781l-3.9006 5.0222c-16.238-7.5192-26.325-14.452-36.411-29.589l4.1433-5.2146z" filter="url(#filter6888-4)"/>
  <path d="m281.14 364.63c12.91 10.161 20.45 16.807 31.61 27.71l-5.1436 6.6795c-15.41-10.005-22.596-15.281-32.267-28.346l5.8006-6.0433z" filter="url(#filter6892-3)"/>
 </g>
 <path d="m489.28 424.12 1.2991 1.0711-11.458 11.842c1.2105 3.8136 3.8604 7.6839 7.9543 10.444 3.876 2.6919 7.7521 5.0732 11.162 6.6779l-13.686 13.201-15.86 16.307-10.114 11.337-5.7656 6.6779c-5.867 3.5691-15.89-1.3121-22.742-5.4851" fill="none"/>
 <path d="m430.07 496.2c-0.40292-0.24538-0.79488-0.48832-1.1744-0.72695 0 0-4.998-3.2393-5.2802-9.9392-1.588-10.923 18.791-31.837 18.791-31.837l11.182-14.288 21.432-25.469 0.93181-3.106s-6.4207-6.8407-6.8332-8.231c1.4459-2.6173 11.803-15.996 11.803-15.996l4.3484-2.4848 11.803 6.212 0.3106 0.4659-11.182 15.996 7.9212 2.5572-2.3304 3.189-0.3106 2.1742-3.5913 4.3484-0.79592 3.2613 2.1855 1.802" fill="none"/>
 <path d="m501.35 414.27 10.323-13.837-3.9533-3.2944 6.1496-7.9066 3.9533 3.2944 10.762-13.178c13.69-6.3692 26.721 0.65888 31.846 5.93l-3.9533 6.8085 4.1729 4.3926 4.8318-4.6122c9.078 16.838 5.4175 26.868 3.2944 39.094l-6.9183 10.981 2.361 2.1963-4.4475 6.1496-2.1963-1.757-7.687 11.421c-5.3443 4.7586-18.156 8.8584-32.505 2.1963l5.0515-7.2477-6.5889-5.7104-6.5889 6.5889c-4.3926-3.4408-10.542-21.816-7.9066-41.51z" fill="#908d6f" stroke="#908d6f" stroke-width=".37483px"/>
 <path d="m501.35 414.27 10.323-13.837-3.9533-3.2944 6.1496-7.9066 3.9533 3.2944 10.762-13.178c13.69-6.3692 26.721 0.65888 31.846 5.93l-3.9533 6.8085 4.1729 4.3926 4.8318-4.6122c9.078 16.838 5.4175 26.868 3.2944 39.094l-6.9183 10.981 2.361 2.1963-4.4475 6.1496-2.1963-1.757-7.687 11.421c-5.3443 4.7586-18.156 8.8584-32.505 2.1963l5.0515-7.2477-6.5889-5.7104-6.5889 6.5889c-4.3926-3.4408-10.542-21.816-7.9066-41.51z" fill="url(#linearGradient7393-5)" opacity=".5"/>
 <path transform="matrix(.3794 0 0 .35119 351.8 316.85)" d="m477.55 259.28a24.024 32.52 0 1 1 -48.048 0 24.024 32.52 0 1 1 48.048 0z" fill="#403e3f"/>
 <path transform="matrix(.39775 .13745 -.13989 .34742 387.7 246.33)" d="m548.45 336.33a19.336 28.125 0 1 1 -38.673 0 19.336 28.125 0 1 1 38.673 0z" fill="#403e3f"/>
 <path d="m533.2 408.78 13.617-18.888 2.8552-1.9767 3.2944 1.9767-0.43926 2.8552-1.757 0.65889-2.4159-0.43926-12.738 18.449-2.4159-2.6355z"/>
 <path transform="matrix(.31022 .21038 -.21038 .31022 437.45 213.33)" d="m550.2 245.51a13.477 15.235 0 1 1 -26.954 0 13.477 15.235 0 1 1 26.954 0z"/>
 <path d="m545.94 422.4 2.6356 2.1963 2.4159-0.21963 11.86-16.253 0.87851-3.0748-0.87851-2.4159-1.5374-1.5374-0.21963-0.43925-1.3178 2.8552 0.43926 2.8552-14.276 16.033z"/>
 <path transform="matrix(.37483 0 0 .37483 354.2 310.83)" d="m455.28 242 79.103 7.0314c21.094 3.3204 11.719 37.11-1.7578 36.329l-79.103-8.2033c-16.992-1.7578-19.336-36.915 1.7578-35.157z" filter="url(#filter6773-4)"/>
 <path d="m524.85 401.53 29.65 2.6356c7.9066 1.2446 4.3926 13.91-0.65889 13.617l-29.65-3.0748c-6.3692-0.65888-7.2477-13.837 0.65889-13.178z" fill="url(#linearGradient7384-5)"/>
 <path d="m524.85 401.53 29.65 2.6356c7.9066 1.2446 4.3926 13.91-0.65889 13.617l-29.65-3.0748c-6.3692-0.65888-7.2477-13.837 0.65889-13.178z" fill="url(#linearGradient7381-3)"/>
 <path transform="matrix(.37483 0 0 .37483 354.2 310.83)" d="m530.28 319.34 80.275 18.75c24.805 8.2033 9.7658 38.673-9.9611 32.813l-78.517-20.508c-11.914-6.8361-10.938-27.149 8.2033-31.055z" filter="url(#filter6793-8)"/>
 <path d="m552.96 430.52 30.089 7.0281c9.2976 3.0748 3.6605 14.495-3.7337 12.299l-29.43-7.687c-4.4658-2.5623-4.0997-10.176 3.0748-11.64z" fill="url(#linearGradient7377-7)"/>
 <path d="m552.96 430.52 30.089 7.0281c9.2976 3.0748 3.6605 14.495-3.7337 12.299l-29.43-7.687c-4.4658-2.5623-4.0997-10.176 3.0748-11.64z" fill="url(#linearGradient7374-7)"/>
</svg>
