<?xml version="1.0" encoding="UTF-8"?>
<!-- Created with Inkscape (http://www.inkscape.org/) -->
<svg width="237.81" height="437.6" version="1.1" viewBox="0 0 237.81392 437.59739" xmlns="http://www.w3.org/2000/svg" xmlns:cc="http://creativecommons.org/ns#" xmlns:dc="http://purl.org/dc/elements/1.1/" xmlns:rdf="http://www.w3.org/1999/02/22-rdf-syntax-ns#" xmlns:xlink="http://www.w3.org/1999/xlink">
 <defs>
  <linearGradient id="linearGradient5359" x1="599.4" x2="354.97" y1="518.04" y2="79.633" gradientTransform="translate(-32.148 316.23)" gradientUnits="userSpaceOnUse">
   <stop stop-color="#fff" offset="0"/>
   <stop stop-color="#fff" stop-opacity="0" offset="1"/>
  </linearGradient>
  <filter id="filter4648">
   <feGaussianBlur stdDeviation="1.096875"/>
  </filter>
  <filter id="filter4639">
   <feGaussianBlur stdDeviation="1.096875"/>
  </filter>
  <filter id="filter4622">
   <feGaussianBlur stdDeviation="1.096875"/>
  </filter>
  <filter id="filter4600">
   <feGaussianBlur stdDeviation="1.096875"/>
  </filter>
  <filter id="filter4587">
   <feGaussianBlur stdDeviation="1.096875"/>
  </filter>
  <filter id="filter4562">
   <feGaussianBlur stdDeviation="1.096875"/>
  </filter>
  <filter id="filter4536">
   <feGaussianBlur stdDeviation="1.096875"/>
  </filter>
  <filter id="filter4523">
   <feGaussianBlur stdDeviation="1.096875"/>
  </filter>
  <filter id="filter4510">
   <feGaussianBlur stdDeviation="1.096875"/>
  </filter>
  <filter id="filter4464">
   <feGaussianBlur stdDeviation="1.096875"/>
  </filter>
  <filter id="filter4427">
   <feGaussianBlur stdDeviation="1.096875"/>
  </filter>
  <filter id="filter4392">
   <feGaussianBlur stdDeviation="1.096875"/>
  </filter>
  <filter id="filter4029">
   <feGaussianBlur stdDeviation="0.88435154"/>
  </filter>
  <linearGradient id="linearGradient4273" x1="506.91" x2="506.91" y1="387.86" y2="375.39" gradientTransform="translate(-32.148 316.23)" gradientUnits="userSpaceOnUse">
   <stop stop-color="#403e3f" offset="0"/>
   <stop stop-color="#403e3f" stop-opacity="0" offset="1"/>
  </linearGradient>
  <filter id="filter3986" x="-.064941" y="-.78854" width="1.1299" height="2.5771">
   <feGaussianBlur stdDeviation="1.0582377"/>
  </filter>
  <filter id="filter3929">
   <feGaussianBlur stdDeviation="0.42857144"/>
  </filter>
 </defs>
 <metadata>
  <rdf:RDF>
   <cc:Work rdf:about="">
    <dc:format>image/svg+xml</dc:format>
    <dc:type rdf:resource="http://purl.org/dc/dcmitype/StillImage"/>
    <dc:title/>
   </cc:Work>
  </rdf:RDF>
 </metadata>
 <g transform="translate(-329.66 -396.42)">
  <rect x="329.68" y="396.42" width="237.8" height="437.6" ry="36.116" fill="#222222"/>
  <path d="m530.41 406.29c-57.505 0.98435-115.13-1.3312-172.56 1.2188-13.458 4.2668-20.852 19.697-18.185 33.094 0.47586 121.38-0.96261 242.8 0.77851 364.16 3.8235 14.47 20.401 22.204 34.312 19.241 55.025-0.66 110.19 1.5343 165.13-1.2722 13.58-4.632 20.267-20.44 17.591-33.812-0.51587-121.1 1.0437-242.25-0.841-363.31-3.0372-11.317-14.512-19.806-26.219-19.312z" fill="#403e3f"/>
  <circle cx="449.39" cy="792.42" r="21.213"/>
  <rect x="440.82" y="783.85" width="17.143" height="17.143" ry="4.2426" fill="none" filter="url(#filter3929)" stroke="#fff" stroke-width=".85714"/>
  <rect x="425.35" y="430.97" width="46.669" height="10.607" ry="4.2426"/>
  <path d="m466.79 432.73c-13.036 0.90814-26.141-0.61556-39.156 0.8125-2.202 3.9616 1.9322 7.7426 5.875 6.1562 12.067-0.75632 24.303 0.93676 36.344-0.90625 0.90897-2.4056 0.26147-6.3813-3.0625-6.0625z" fill="#534f45" filter="url(#filter3986)"/>
  <rect x="347.57" y="464.2" width="200.82" height="299.11" ry="4.903" fill="#625e53"/>
  <path d="m352.23 466.23c-5.065 1.0503-1.6835 8.462-2.6562 12 0.10448 93.702-0.20875 187.45 0.15625 281.12 2.3403 4.3175 8.9786 0.8524 12.875 1.9688 60.604-0.1263 121.29 0.2517 181.84-0.1875 4.2719-2.2639 0.83165-9.0104 1.9375-12.844-0.10456-93.388 0.20886-186.84-0.15625-280.19-2.5759-4.3812-9.7062-0.69562-13.875-1.9062-60.041 0.0209-120.09-0.0417-180.12 0.0312z" fill="#534f45"/>
  <rect x="349.42" y="747.44" width="196.93" height="13.848" ry="3.7206" fill="#222222"/>
  <rect x="349.42" y="704.09" width="196.93" height="48" ry="0" fill="#444444"/>
  <rect x="349.42" y="678.78" width="196.93" height="25.309" ry="0" fill="url(#linearGradient4273)"/>
  <g transform="translate(-28.148 315.57)">
   <rect x="387.49" y="394.99" width="35.181" height="35.567" ry="5.3249" filter="url(#filter4029)"/>
   <rect x="387.49" y="394.99" width="35.181" height="35.567" ry="5.3249" fill="#222222"/>
  </g>
  <g transform="translate(113.81 315.57)">
   <rect x="387.49" y="394.99" width="35.181" height="35.567" ry="5.3249" filter="url(#filter4029)"/>
   <rect x="387.49" y="394.99" width="35.181" height="35.567" ry="5.3249" fill="#222222"/>
  </g>
  <g transform="translate(66.492 315.57)">
   <rect x="387.49" y="394.99" width="35.181" height="35.567" ry="5.3249" filter="url(#filter4029)"/>
   <rect x="387.49" y="394.99" width="35.181" height="35.567" ry="5.3249" fill="#222222"/>
  </g>
  <g transform="translate(19.172 315.57)">
   <rect x="387.49" y="394.99" width="35.181" height="35.567" ry="5.3249" filter="url(#filter4029)"/>
   <rect x="387.49" y="394.99" width="35.181" height="35.567" ry="5.3249" fill="#222222"/>
  </g>
  <g transform="matrix(1 0 0 1.1061 -32.148 276.38)">
   <path d="m516.69 324.97c-2.0615 0-3.7188 1.6573-3.7188 3.7188v40.562c0 2.0615 1.6573 3.7188 3.7188 3.7188h54.25c2.0615 0 3.7188-1.6573 3.7188-3.7188v-40.562c0-2.0615-1.6573-3.7188-3.7188-3.7188h-54.25zm25.062 14h2l-1.1562 5.6562h4.1562l1.1562-5.6562h1.9688l-1.125 5.6562h2.2812v1.9688h-2.6875l-1 4.7812h3.6875v1.9688h-4.0625l-1.1562 5.625h-1.9688l1.125-5.625h-4.1562l-1.125 5.625h-2l1.1562-5.625h-2.2188v-1.9688h2.625l0.96875-4.7812h-3.5938v-1.9688h4l1.125-5.6562zm0.4375 7.625-0.96875 4.7812h4.1562l0.96875-4.7812h-4.1562z" filter="url(#filter4648)"/>
   <path d="m516.69 324.97c-2.0615 0-3.7188 1.6573-3.7188 3.7188v40.562c0 2.0615 1.6573 3.7188 3.7188 3.7188h54.25c2.0615 0 3.7188-1.6573 3.7188-3.7188v-40.562c0-2.0615-1.6573-3.7188-3.7188-3.7188h-54.25zm25.062 14h2l-1.1562 5.6562h4.1562l1.1562-5.6562h1.9688l-1.125 5.6562h2.2812v1.9688h-2.6875l-1 4.7812h3.6875v1.9688h-4.0625l-1.1562 5.625h-1.9688l1.125-5.625h-4.1562l-1.125 5.625h-2l1.1562-5.625h-2.2188v-1.9688h2.625l0.96875-4.7812h-3.5938v-1.9688h4l1.125-5.6562zm0.4375 7.625-0.96875 4.7812h4.1562l0.96875-4.7812h-4.1562z" fill="#222222"/>
   <path d="m388.69 324.97c-2.0615 0-3.7188 1.6573-3.7188 3.7188v40.562c0 2.0615 1.6573 3.7188 3.7188 3.7188h54.25c2.0615 0 3.7188-1.6573 3.7188-3.7188v-40.562c0-2.0615-1.6573-3.7188-3.7188-3.7188h-54.25zm24.781 14h4.6562c-0.0641 2.1154-0.32266 4.7538-0.75 7.9375 2.2008-1.1111 4.7206-2.1223 7.5625-3.0625l1.4688 4.5312c-2.7137 0.89747-5.3619 1.5134-7.9688 1.8125 1.3034 1.1325 3.1282 3.1566 5.5 6.0625l-3.8438 2.7188c-1.2393-1.688-2.687-4.0002-4.375-6.9062-1.5812 3.0128-2.9909 5.3251-4.1875 6.9062l-3.7812-2.7188c2.4786-3.0555 4.2754-5.0796 5.3438-6.0625-2.7564-0.53415-5.3964-1.1501-7.875-1.8125l1.4688-4.5312c3.3974 1.1966 5.8678 2.2177 7.4062 3.0938-0.40599-3.8675-0.60364-6.5157-0.625-7.9688z" filter="url(#filter4639)"/>
   <path d="m388.69 324.97c-2.0615 0-3.7188 1.6573-3.7188 3.7188v40.562c0 2.0615 1.6573 3.7188 3.7188 3.7188h54.25c2.0615 0 3.7188-1.6573 3.7188-3.7188v-40.562c0-2.0615-1.6573-3.7188-3.7188-3.7188h-54.25zm24.781 14h4.6562c-0.0641 2.1154-0.32266 4.7538-0.75 7.9375 2.2008-1.1111 4.7206-2.1223 7.5625-3.0625l1.4688 4.5312c-2.7137 0.89747-5.3619 1.5134-7.9688 1.8125 1.3034 1.1325 3.1282 3.1566 5.5 6.0625l-3.8438 2.7188c-1.2393-1.688-2.687-4.0002-4.375-6.9062-1.5812 3.0128-2.9909 5.3251-4.1875 6.9062l-3.7812-2.7188c2.4786-3.0555 4.2754-5.0796 5.3438-6.0625-2.7564-0.53415-5.3964-1.1501-7.875-1.8125l1.4688-4.5312c3.3974 1.1966 5.8678 2.2177 7.4062 3.0938-0.40599-3.8675-0.60364-6.5157-0.625-7.9688z" fill="#222222"/>
   <path d="m452.69 324.97c-2.0615 0-3.7188 1.6573-3.7188 3.7188v40.562c0 2.0615 1.6573 3.7188 3.7188 3.7188h54.25c2.0615 0 3.7188-1.6573 3.7188-3.7188v-40.562c0-2.0615-1.6573-3.7188-3.7188-3.7188h-54.25zm27.125 4c2.102 4e-5 3.9458 0.42625 5.5312 1.2812 1.5854 0.83727 2.9043 2.0531 3.9375 3.6562 1.0332 1.5854 1.8496 3.5146 2.4375 5.8125 0.58781 2.2801 0.87497 5.3667 0.875 9.25-3e-5 4.5959-0.46217 8.3239-1.4062 11.156-0.94414 2.8145-2.3618 4.9815-4.25 6.5312-1.8704 1.532-4.2571 2.3125-7.125 2.3125-3.7764 0-6.7508-1.3549-8.9062-4.0625-2.583-3.2598-3.8438-8.5806-3.8438-15.938 0-4.6315 0.46214-8.3417 1.4062-11.156 0.96192-2.8323 2.3796-5.0305 4.25-6.5625 1.8882-1.5319 4.2436-2.2812 7.0938-2.2812zm-0.0312 3.9688c-2.2089 4e-5 -3.9943 0.94213-5.3125 2.8125-1.6566 2.387-2.4688 6.7881-2.4688 13.219-1e-5 6.4306 0.75367 10.737 2.25 12.875 1.5141 2.1198 3.3536 3.1562 5.5625 3.1562 2.2088 0 4.0662-1.0499 5.5625-3.1875 1.5141-2.1376 2.2812-6.4309 2.2812-12.844-2e-5 -6.4484-0.76713-10.724-2.2812-12.844-1.4964-2.1198-3.3493-3.1875-5.5938-3.1875z" filter="url(#filter4622)"/>
   <path d="m452.69 324.97c-2.0615 0-3.7188 1.6573-3.7188 3.7188v40.562c0 2.0615 1.6573 3.7188 3.7188 3.7188h54.25c2.0615 0 3.7188-1.6573 3.7188-3.7188v-40.562c0-2.0615-1.6573-3.7188-3.7188-3.7188h-54.25zm27.125 4c2.102 4e-5 3.9458 0.42625 5.5312 1.2812 1.5854 0.83727 2.9043 2.0531 3.9375 3.6562 1.0332 1.5854 1.8496 3.5146 2.4375 5.8125 0.58781 2.2801 0.87497 5.3667 0.875 9.25-3e-5 4.5959-0.46217 8.3239-1.4062 11.156-0.94414 2.8145-2.3618 4.9815-4.25 6.5312-1.8704 1.532-4.2571 2.3125-7.125 2.3125-3.7764 0-6.7508-1.3549-8.9062-4.0625-2.583-3.2598-3.8438-8.5806-3.8438-15.938 0-4.6315 0.46214-8.3417 1.4062-11.156 0.96192-2.8323 2.3796-5.0305 4.25-6.5625 1.8882-1.5319 4.2436-2.2812 7.0938-2.2812zm-0.0312 3.9688c-2.2089 4e-5 -3.9943 0.94213-5.3125 2.8125-1.6566 2.387-2.4688 6.7881-2.4688 13.219-1e-5 6.4306 0.75367 10.737 2.25 12.875 1.5141 2.1198 3.3536 3.1562 5.5625 3.1562 2.2088 0 4.0662-1.0499 5.5625-3.1875 1.5141-2.1376 2.2812-6.4309 2.2812-12.844-2e-5 -6.4484-0.76713-10.724-2.2812-12.844-1.4964-2.1198-3.3493-3.1875-5.5938-3.1875z" fill="#222222"/>
   <path d="m516.69 274.97c-2.0615 0-3.7188 1.6573-3.7188 3.7188v40.562c0 2.0615 1.6573 3.7188 3.7188 3.7188h54.25c2.0615 0 3.7188-1.6573 3.7188-3.7188v-40.562c0-2.0615-1.6573-3.7188-3.7188-3.7188h-54.25zm26.562 4c2.5473 4e-5 4.8668 0.69091 6.9688 2.0625 2.1198 1.3717 3.7259 3.3277 4.8125 5.875 1.1044 2.5295 1.6562 6.1904 1.6562 11-3e-5 5.0056-0.53841 8.9939-1.625 11.969-1.0866 2.957-2.6884 5.2315-4.8438 6.7812-2.1376 1.5498-4.6768 2.3125-7.5625 2.3125-3.0639 0-5.5584-0.83898-7.5-2.5312-1.9417-1.7101-3.1081-4.1058-3.5-7.1875l4.625-0.4375c0.39189 2.1732 1.1456 3.739 2.25 4.7188 1.1044 0.97974 2.5221 1.4688 4.25 1.4688 1.4785 0 2.7706-0.32309 3.875-1 1.1222-0.6769 2.0374-1.5652 2.75-2.6875 0.71251-1.14 1.3003-2.7011 1.7812-4.625 0.48094-1.9238 0.71873-3.8799 0.71875-5.875-2e-5 -0.21374-0.0135-0.50996-0.0312-0.9375-0.96195 1.532-2.2631 2.7568-3.9375 3.7188-1.6567 0.94412-3.4646 1.4375-5.4062 1.4375-3.242 1e-5 -5.9743-1.1799-8.2188-3.5312-2.2445-2.3514-3.375-5.4648-3.375-9.3125 0-3.9724 1.1664-7.1711 3.5-9.5938 2.3514-2.4226 5.2854-3.625 8.8125-3.625zm0.59375 3.9688c-2.1376 4e-5 -4.0084 0.87932-5.5938 2.625-1.5854 1.7457-2.375 4.0024-2.375 6.7812-1e-5 2.4939 0.75367 4.5262 2.25 6.0938 1.5141 1.5498 3.3849 2.3438 5.5938 2.3438 2.2267 2e-5 4.0437-0.79397 5.4688-2.3438 1.4429-1.5676 2.1562-3.7389 2.1562-6.5-2e-5 -2.761-0.74026-4.9414-2.2188-6.5625-1.4607-1.621-3.2149-2.4375-5.2812-2.4375z" filter="url(#filter4600)"/>
   <path d="m516.69 274.97c-2.0615 0-3.7188 1.6573-3.7188 3.7188v40.562c0 2.0615 1.6573 3.7188 3.7188 3.7188h54.25c2.0615 0 3.7188-1.6573 3.7188-3.7188v-40.562c0-2.0615-1.6573-3.7188-3.7188-3.7188h-54.25zm26.562 4c2.5473 4e-5 4.8668 0.69091 6.9688 2.0625 2.1198 1.3717 3.7259 3.3277 4.8125 5.875 1.1044 2.5295 1.6562 6.1904 1.6562 11-3e-5 5.0056-0.53841 8.9939-1.625 11.969-1.0866 2.957-2.6884 5.2315-4.8438 6.7812-2.1376 1.5498-4.6768 2.3125-7.5625 2.3125-3.0639 0-5.5584-0.83898-7.5-2.5312-1.9417-1.7101-3.1081-4.1058-3.5-7.1875l4.625-0.4375c0.39189 2.1732 1.1456 3.739 2.25 4.7188 1.1044 0.97974 2.5221 1.4688 4.25 1.4688 1.4785 0 2.7706-0.32309 3.875-1 1.1222-0.6769 2.0374-1.5652 2.75-2.6875 0.71251-1.14 1.3003-2.7011 1.7812-4.625 0.48094-1.9238 0.71873-3.8799 0.71875-5.875-2e-5 -0.21374-0.0135-0.50996-0.0312-0.9375-0.96195 1.532-2.2631 2.7568-3.9375 3.7188-1.6567 0.94412-3.4646 1.4375-5.4062 1.4375-3.242 1e-5 -5.9743-1.1799-8.2188-3.5312-2.2445-2.3514-3.375-5.4648-3.375-9.3125 0-3.9724 1.1664-7.1711 3.5-9.5938 2.3514-2.4226 5.2854-3.625 8.8125-3.625zm0.59375 3.9688c-2.1376 4e-5 -4.0084 0.87932-5.5938 2.625-1.5854 1.7457-2.375 4.0024-2.375 6.7812-1e-5 2.4939 0.75367 4.5262 2.25 6.0938 1.5141 1.5498 3.3849 2.3438 5.5938 2.3438 2.2267 2e-5 4.0437-0.79397 5.4688-2.3438 1.4429-1.5676 2.1562-3.7389 2.1562-6.5-2e-5 -2.761-0.74026-4.9414-2.2188-6.5625-1.4607-1.621-3.2149-2.4375-5.2812-2.4375z" fill="#222222"/>
   <path d="m452.69 274.97c-2.0615 0-3.7188 1.6573-3.7188 3.7188v40.562c0 2.0615 1.6573 3.7188 3.7188 3.7188h54.25c2.0615 0 3.7188-1.6573 3.7188-3.7188v-40.562c0-2.0615-1.6573-3.7188-3.7188-3.7188h-54.25zm27.062 4c3.4202 4e-5 6.1658 1.0049 8.25 3 2.0841 1.9773 3.125 4.3686 3.125 7.2188-3e-5 1.817-0.4756 3.4275-1.4375 4.7812-0.94413 1.336-2.4021 2.3634-4.3438 3.0938 2.4048 0.78381 4.2218 2.0356 5.4688 3.7812 1.2647 1.7457 1.9062 3.8274 1.9062 6.25-3e-5 3.3489-1.1933 6.1574-3.5625 8.4375-2.3692 2.2801-5.4783 3.4375-9.3438 3.4375-3.8655 0-6.9746-1.1574-9.3438-3.4375-2.3692-2.2979-3.5625-5.1423-3.5625-8.5625 0-2.5473 0.65493-4.6649 1.9375-6.375 1.3004-1.7279 3.1442-2.9078 5.5312-3.5312-1.9951-0.73033-3.4756-1.7712-4.4375-3.125-0.96193-1.3538-1.4375-2.9868-1.4375-4.875 0-2.8501 1.014-5.2458 3.0625-7.1875 2.0485-1.9416 4.7851-2.9062 8.1875-2.9062zm0.0312 3.9375c-1.8348 4e-5 -3.3512 0.6056-4.5625 1.7812-1.2113 1.1757-1.8125 2.58-1.8125 4.2188-1e-5 1.8526 0.58774 3.3556 1.7812 4.5312 1.1935 1.1757 2.7502 1.7813 4.6562 1.7812 1.8526 2e-5 3.3556-0.59211 4.5312-1.75 1.1935-1.1757 1.8125-2.589 1.8125-4.2812-2e-5 -1.7635-0.61465-3.244-1.8438-4.4375-1.2113-1.2113-2.7456-1.8437-4.5625-1.8438zm-0.0625 16.219c-2.2623 2e-5 -4.1599 0.75369-5.6562 2.25-1.4785 1.4963-2.2188 3.3805-2.2188 5.625-1e-5 1.3716 0.32746 2.6862 0.96875 3.9688 0.65909 1.2826 1.6237 2.2875 2.9062 3 1.2826 0.69473 2.6777 1.0312 4.1562 1.0312 2.2979 0 4.1912-0.74023 5.6875-2.2188 1.4963-1.4785 2.25-3.3449 2.25-5.625-2e-5 -2.3157-0.79401-4.2358-2.3438-5.75-1.532-1.5141-3.4343-2.2812-5.75-2.2812z" filter="url(#filter4587)"/>
   <path d="m388.69 274.97c-2.0615 0-3.7188 1.6573-3.7188 3.7188v40.562c0 2.0615 1.6573 3.7188 3.7188 3.7188h54.25c2.0615 0 3.7188-1.6573 3.7188-3.7188v-40.562c0-2.0615-1.6573-3.7188-3.7188-3.7188h-54.25zm14 4h26.25v3.875c-2.5801 2.7459-5.1443 6.3856-7.6875 10.938-2.5248 4.552-4.4616 9.2213-5.8438 14.031-0.99518 3.3909-1.6611 7.1203-1.9375 11.156h-5.0938c0.0553-3.1882 0.67711-7.0474 1.875-11.562 1.1979-4.5151 2.9263-8.8479 5.1562-13.031 2.2483-4.2018 4.6315-7.75 7.1562-10.625h-19.875v-4.7812z" filter="url(#filter4562)"/>
   <path d="m516.69 224.97c-2.0615 0-3.7188 1.6573-3.7188 3.7188v40.562c0 2.0615 1.6573 3.7188 3.7188 3.7188h54.25c2.0615 0 3.7188-1.6573 3.7188-3.7188v-40.562c0-2.0615-1.6573-3.7188-3.7188-3.7188h-54.25zm28.25 4c3.0817 4e-5 5.603 0.86589 7.5625 2.5938 1.9773 1.7279 3.1706 4.1102 3.5625 7.1562l-4.7812 0.375c-0.42754-1.8882-1.0287-3.2699-1.8125-4.125-1.3004-1.3716-2.9065-2.0625-4.8125-2.0625-1.532 4e-5 -2.8734 0.42624-4.0312 1.2812-1.5142 1.1045-2.7209 2.724-3.5938 4.8438-0.87286 2.1198-1.3394 5.1436-1.375 9.0625 1.1579-1.7635 2.5755-3.0824 4.25-3.9375 1.6744-0.85502 3.4464-1.2812 5.2812-1.2812 3.2064 3e-5 5.9117 1.1933 8.1562 3.5625 2.2623 2.3514 3.4062 5.4154 3.4062 9.1562-3e-5 2.4583-0.52497 4.724-1.5938 6.8438-1.051 2.102-2.5224 3.7215-4.375 4.8438-1.8526 1.1222-3.9299 1.6875-6.2812 1.6875-4.008 0-7.283-1.467-9.8125-4.4062-2.5295-2.957-3.8125-7.8246-3.8125-14.594 0-7.5707 1.422-13.062 4.2188-16.5 2.4404-2.9926 5.711-4.5 9.8438-4.5zm-0.71875 18.156c-2.1732 2e-5 -4.0171 0.80744-5.5312 2.375-1.5142 1.5498-2.2813 3.5643-2.2812 6.0938-1e-5 1.6567 0.36777 3.2671 1.0625 4.7812 0.71253 1.5142 1.704 2.6672 2.9688 3.4688 1.2647 0.78379 2.5793 1.1562 3.9688 1.1562 2.0307 0 3.7893-0.79866 5.25-2.4375 1.4607-1.6388 2.1875-3.873 2.1875-6.6875-2e-5 -2.7076-0.74464-4.8252-2.1875-6.375-1.4429-1.5676-3.2465-2.375-5.4375-2.375z" filter="url(#filter4536)"/>
   <path d="m516.69 224.97c-2.0615 0-3.7188 1.6573-3.7188 3.7188v40.562c0 2.0615 1.6573 3.7188 3.7188 3.7188h54.25c2.0615 0 3.7188-1.6573 3.7188-3.7188v-40.562c0-2.0615-1.6573-3.7188-3.7188-3.7188h-54.25zm28.25 4c3.0817 4e-5 5.603 0.86589 7.5625 2.5938 1.9773 1.7279 3.1706 4.1102 3.5625 7.1562l-4.7812 0.375c-0.42754-1.8882-1.0287-3.2699-1.8125-4.125-1.3004-1.3716-2.9065-2.0625-4.8125-2.0625-1.532 4e-5 -2.8734 0.42624-4.0312 1.2812-1.5142 1.1045-2.7209 2.724-3.5938 4.8438-0.87286 2.1198-1.3394 5.1436-1.375 9.0625 1.1579-1.7635 2.5755-3.0824 4.25-3.9375 1.6744-0.85502 3.4464-1.2812 5.2812-1.2812 3.2064 3e-5 5.9117 1.1933 8.1562 3.5625 2.2623 2.3514 3.4062 5.4154 3.4062 9.1562-3e-5 2.4583-0.52497 4.724-1.5938 6.8438-1.051 2.102-2.5224 3.7215-4.375 4.8438-1.8526 1.1222-3.9299 1.6875-6.2812 1.6875-4.008 0-7.283-1.467-9.8125-4.4062-2.5295-2.957-3.8125-7.8246-3.8125-14.594 0-7.5707 1.422-13.062 4.2188-16.5 2.4404-2.9926 5.711-4.5 9.8438-4.5zm-0.71875 18.156c-2.1732 2e-5 -4.0171 0.80744-5.5312 2.375-1.5142 1.5498-2.2813 3.5643-2.2812 6.0938-1e-5 1.6567 0.36777 3.2671 1.0625 4.7812 0.71253 1.5142 1.704 2.6672 2.9688 3.4688 1.2647 0.78379 2.5793 1.1562 3.9688 1.1562 2.0307 0 3.7893-0.79866 5.25-2.4375 1.4607-1.6388 2.1875-3.873 2.1875-6.6875-2e-5 -2.7076-0.74464-4.8252-2.1875-6.375-1.4429-1.5676-3.2465-2.375-5.4375-2.375z" fill="#222222"/>
   <path d="m452.69 224.97c-2.0615 0-3.7188 1.6573-3.7188 3.7188v40.562c0 2.0615 1.6573 3.7188 3.7188 3.7188h54.25c2.0615 0 3.7188-1.6573 3.7188-3.7188v-40.562c0-2.0615-1.6573-3.7188-3.7188-3.7188h-54.25zm18.656 4h19.812v4.6875h-15.906l-2.1562 10.688c2.3929-1.6678 4.9026-2.5 7.5312-2.5 3.4806 3e-5 6.4196 1.214 8.8125 3.625 2.3929 2.4111 3.5937 5.5237 3.5938 9.3125-3e-5 3.6075-1.0534 6.7152-3.1562 9.3438-2.5561 3.2268-6.0455 4.8438-10.469 4.8438-3.6257 0-6.5727-1.0321-8.875-3.0625-2.2842-2.0304-3.6112-4.7088-3.9375-8.0625l5.1562-0.4375c0.38069 2.5017 1.2472 4.3873 2.625 5.6562 1.3959 1.2508 3.0734 1.875 5.0312 1.875 2.3567 0 4.3684-0.87968 6-2.6562 1.6315-1.7766 2.4375-4.1257 2.4375-7.0625-2e-5 -2.7917-0.79786-5.0116-2.375-6.625-1.559-1.6134-3.5871-2.4062-6.125-2.4062-1.5772 2e-5 -3.0123 0.36864-4.2812 1.0938-1.269 0.70702-2.2749 1.6079-3 2.75l-4.5938-0.59375 3.875-20.469z" fill="#00000f" fill-opacity=".94118" filter="url(#filter4523)"/>
   <path d="m388.69 224.97c-2.0615 0-3.7188 1.6573-3.7188 3.7188v40.562c0 2.0615 1.6573 3.7188 3.7188 3.7188h54.25c2.0615 0 3.7188-1.6573 3.7188-3.7188v-40.562c0-2.0615-1.6573-3.7188-3.7188-3.7188h-54.25zm31.562 4h4v25.906h5.4062v4.5h-5.4062v9.5938h-4.9062v-9.5938h-17.344v-4.5l18.25-25.906zm-0.90625 7.875-12.531 18.031h12.531v-18.031z" filter="url(#filter4510)"/>
   <path d="m516.69 174.97c-2.0615 0-3.7188 1.6573-3.7188 3.7188v40.562c0 2.0615 1.6573 3.7188 3.7188 3.7188h54.25c2.0615 0 3.7188-1.6573 3.7188-3.7188v-40.562c0-2.0615-1.6573-3.7188-3.7188-3.7188h-54.25zm26.562 4c2.1362 4e-5 4.1083 0.44936 5.9062 1.375 1.7979 0.90791 3.1815 2.1657 4.125 3.75 0.96126 1.5844 1.4375 3.2511 1.4375 5.0312-3e-5 1.6912-0.46715 3.2365-1.375 4.625-0.9079 1.3885-2.2511 2.4936-4.0312 3.3125 2.3142 0.53407 4.1245 1.6526 5.4062 3.3438 1.2817 1.6734 1.9062 3.7847 1.9062 6.3125-3e-5 3.4179-1.2266 6.3021-3.7188 8.6875-2.4922 2.3676-5.6592 3.5625-9.4688 3.5625-3.4357 0-6.2839-1.0153-8.5625-3.0625-2.2608-2.0472-3.5546-4.7111-3.875-7.9688l4.8125-0.65625c0.55184 2.7236 1.4952 4.6958 2.8125 5.9062 1.3351 1.1927 2.939 1.8125 4.8438 1.8125 2.2608 0 4.17-0.80846 5.7188-2.375 1.5665-1.5665 2.3437-3.4983 2.3438-5.8125-2e-5 -2.2074-0.71435-4.0134-2.1562-5.4375-1.4419-1.4419-3.2748-2.1562-5.5-2.1562-0.90789 2e-5 -2.0534 0.17524-3.4062 0.53125l0.53125-4.2188c0.32041 0.0356 0.58542 0.0313 0.78125 0.0312 2.0472 2e-5 3.8935-0.52564 5.5312-1.5938 1.6377-1.0681 2.4687-2.7123 2.4688-4.9375-2e-5 -1.7623-0.58857-3.2179-1.7812-4.375-1.1927-1.1571-2.7381-1.75-4.625-1.75-1.8692 4e-5 -3.4414 0.60638-4.6875 1.7812-1.2461 1.1749-2.0502 2.9315-2.4062 5.2812l-4.8125-0.84375c0.58745-3.222 1.9485-5.7376 4.0312-7.5 2.0828-1.7801 4.6525-2.6562 7.75-2.6562z" filter="url(#filter4464)"/>
   <path d="m516.69 174.97c-2.0615 0-3.7188 1.6573-3.7188 3.7188v40.562c0 2.0615 1.6573 3.7188 3.7188 3.7188h54.25c2.0615 0 3.7188-1.6573 3.7188-3.7188v-40.562c0-2.0615-1.6573-3.7188-3.7188-3.7188h-54.25zm26.562 4c2.1362 4e-5 4.1083 0.44936 5.9062 1.375 1.7979 0.90791 3.1815 2.1657 4.125 3.75 0.96126 1.5844 1.4375 3.2511 1.4375 5.0312-3e-5 1.6912-0.46715 3.2365-1.375 4.625-0.9079 1.3885-2.2511 2.4936-4.0312 3.3125 2.3142 0.53407 4.1245 1.6526 5.4062 3.3438 1.2817 1.6734 1.9062 3.7847 1.9062 6.3125-3e-5 3.4179-1.2266 6.3021-3.7188 8.6875-2.4922 2.3676-5.6592 3.5625-9.4688 3.5625-3.4357 0-6.2839-1.0153-8.5625-3.0625-2.2608-2.0472-3.5546-4.7111-3.875-7.9688l4.8125-0.65625c0.55184 2.7236 1.4952 4.6958 2.8125 5.9062 1.3351 1.1927 2.939 1.8125 4.8438 1.8125 2.2608 0 4.17-0.80846 5.7188-2.375 1.5665-1.5665 2.3437-3.4983 2.3438-5.8125-2e-5 -2.2074-0.71435-4.0134-2.1562-5.4375-1.4419-1.4419-3.2748-2.1562-5.5-2.1562-0.90789 2e-5 -2.0534 0.17524-3.4062 0.53125l0.53125-4.2188c0.32041 0.0356 0.58542 0.0313 0.78125 0.0312 2.0472 2e-5 3.8935-0.52564 5.5312-1.5938 1.6377-1.0681 2.4687-2.7123 2.4688-4.9375-2e-5 -1.7623-0.58857-3.2179-1.7812-4.375-1.1927-1.1571-2.7381-1.75-4.625-1.75-1.8692 4e-5 -3.4414 0.60638-4.6875 1.7812-1.2461 1.1749-2.0502 2.9315-2.4062 5.2812l-4.8125-0.84375c0.58745-3.222 1.9485-5.7376 4.0312-7.5 2.0828-1.7801 4.6525-2.6562 7.75-2.6562z" fill="#222222"/>
   <path d="m452.69 174.97c-2.0615 0-3.7188 1.6573-3.7188 3.7188v40.562c0 2.0615 1.6573 3.7188 3.7188 3.7188h54.25c2.0615 0 3.7188-1.6573 3.7188-3.7188v-40.562c0-2.0615-1.6573-3.7188-3.7188-3.7188h-54.25zm27.844 4c3.8224 4e-5 6.8655 1.068 9.0938 3.1875 2.2282 2.1196 3.3437 4.741 3.3438 7.875-3e-5 1.5942-0.34785 3.1477-1 4.6875-0.6522 1.5399-1.7283 3.1721-3.25 4.875-1.5036 1.7029-4.0168 4.029-7.5312 7-2.9348 2.4638-4.8229 4.1436-5.6562 5.0312-0.83334 0.86957-1.519 1.7373-2.0625 2.625h19.531v4.7188h-26.312c-0.0362-1.1775 0.14583-2.3193 0.5625-3.4062 0.67029-1.7935 1.7514-3.5421 3.2188-5.2812 1.4855-1.7391 3.6164-3.7486 6.4062-6.0312 4.3297-3.5507 7.2595-6.3723 8.7812-8.4375 1.5217-2.0833 2.2812-4.0584 2.2812-5.9062-2e-5 -1.9384-0.69884-3.5525-2.0938-4.875-1.3768-1.3405-3.178-2.0312-5.4062-2.0312-2.3551 4e-5 -4.2432 0.71199-5.6562 2.125-1.413 1.4131-2.1381 3.375-2.1562 5.875l-5.0312-0.5c0.3442-3.75 1.6599-6.6059 3.9062-8.5625 2.2464-1.9746 5.245-2.9687 9.0312-2.9688z" filter="url(#filter4427)"/>
   <path d="m388.69 174.97c-2.0615 0-3.7188 1.6573-3.7188 3.7188v40.562c0 2.0615 1.6573 3.7188 3.7188 3.7188h54.25c2.0615 0 3.7188-1.6573 3.7188-3.7188v-40.562c0-2.0615-1.6573-3.7188-3.7188-3.7188h-54.25zm28.688 3.6562h3.1562v40h-4.9062v-31.188c-1.1776 1.1232-2.7047 2.2518-4.625 3.375-1.9022 1.1232-3.6345 1.9697-5.1562 2.5312v-4.7188c2.7355-1.2862 5.1404-2.8578 7.1875-4.6875 2.0471-1.8297 3.4923-3.5914 4.3438-5.3125z" filter="url(#filter4392)"/>
   <path d="m388.69 174.97c-2.0615 0-3.7188 1.6573-3.7188 3.7188v40.562c0 2.0615 1.6573 3.7188 3.7188 3.7188h54.25c2.0615 0 3.7188-1.6573 3.7188-3.7188v-40.562c0-2.0615-1.6573-3.7188-3.7188-3.7188h-54.25zm28.688 3.6562h3.1562v40h-4.9062v-31.188c-1.1776 1.1232-2.7047 2.2518-4.625 3.375-1.9022 1.1232-3.6345 1.9697-5.1562 2.5312v-4.7188c2.7355-1.2862 5.1404-2.8578 7.1875-4.6875 2.0471-1.8297 3.4923-3.5914 4.3438-5.3125z" fill="#222222"/>
   <path d="m452.69 174.97c-2.0615 0-3.7188 1.6573-3.7188 3.7188v40.562c0 2.0615 1.6573 3.7188 3.7188 3.7188h54.25c2.0615 0 3.7188-1.6573 3.7188-3.7188v-40.562c0-2.0615-1.6573-3.7188-3.7188-3.7188h-54.25zm27.844 4c3.8224 4e-5 6.8655 1.068 9.0938 3.1875 2.2282 2.1196 3.3437 4.741 3.3438 7.875-3e-5 1.5942-0.34785 3.1477-1 4.6875-0.6522 1.5399-1.7283 3.1721-3.25 4.875-1.5036 1.7029-4.0168 4.029-7.5312 7-2.9348 2.4638-4.8229 4.1436-5.6562 5.0312-0.83334 0.86957-1.519 1.7373-2.0625 2.625h19.531v4.7188h-26.312c-0.0362-1.1775 0.14583-2.3193 0.5625-3.4062 0.67029-1.7935 1.7514-3.5421 3.2188-5.2812 1.4855-1.7391 3.6164-3.7486 6.4062-6.0312 4.3297-3.5507 7.2595-6.3723 8.7812-8.4375 1.5217-2.0833 2.2812-4.0584 2.2812-5.9062-2e-5 -1.9384-0.69884-3.5525-2.0938-4.875-1.3768-1.3405-3.178-2.0312-5.4062-2.0312-2.3551 4e-5 -4.2432 0.71199-5.6562 2.125-1.413 1.4131-2.1381 3.375-2.1562 5.875l-5.0312-0.5c0.3442-3.75 1.6599-6.6059 3.9062-8.5625 2.2464-1.9746 5.245-2.9687 9.0312-2.9688z" fill="#222222"/>
   <path d="m388.69 224.97c-2.0615 0-3.7188 1.6573-3.7188 3.7188v40.562c0 2.0615 1.6573 3.7188 3.7188 3.7188h54.25c2.0615 0 3.7188-1.6573 3.7188-3.7188v-40.562c0-2.0615-1.6573-3.7188-3.7188-3.7188h-54.25zm31.562 4h4v25.906h5.4062v4.5h-5.4062v9.5938h-4.9062v-9.5938h-17.344v-4.5l18.25-25.906zm-0.90625 7.875-12.531 18.031h12.531v-18.031z" fill="#222222"/>
   <path d="m452.69 224.97c-2.0615 0-3.7188 1.6573-3.7188 3.7188v40.562c0 2.0615 1.6573 3.7188 3.7188 3.7188h54.25c2.0615 0 3.7188-1.6573 3.7188-3.7188v-40.562c0-2.0615-1.6573-3.7188-3.7188-3.7188h-54.25zm18.656 4h19.812v4.6875h-15.906l-2.1562 10.688c2.3929-1.6678 4.9026-2.5 7.5312-2.5 3.4806 3e-5 6.4196 1.214 8.8125 3.625 2.3929 2.4111 3.5937 5.5237 3.5938 9.3125-3e-5 3.6075-1.0534 6.7152-3.1562 9.3438-2.5561 3.2268-6.0455 4.8438-10.469 4.8438-3.6257 0-6.5727-1.0321-8.875-3.0625-2.2842-2.0304-3.6112-4.7088-3.9375-8.0625l5.1562-0.4375c0.38069 2.5017 1.2472 4.3873 2.625 5.6562 1.3959 1.2508 3.0734 1.875 5.0312 1.875 2.3567 0 4.3684-0.87968 6-2.6562 1.6315-1.7766 2.4375-4.1257 2.4375-7.0625-2e-5 -2.7917-0.79786-5.0116-2.375-6.625-1.559-1.6134-3.5871-2.4062-6.125-2.4062-1.5772 2e-5 -3.0123 0.36864-4.2812 1.0938-1.269 0.70702-2.2749 1.6079-3 2.75l-4.5938-0.59375 3.875-20.469z" fill="#222222"/>
   <path d="m388.69 274.97c-2.0615 0-3.7188 1.6573-3.7188 3.7188v40.562c0 2.0615 1.6573 3.7188 3.7188 3.7188h54.25c2.0615 0 3.7188-1.6573 3.7188-3.7188v-40.562c0-2.0615-1.6573-3.7188-3.7188-3.7188h-54.25zm14 4h26.25v3.875c-2.5801 2.7459-5.1443 6.3856-7.6875 10.938-2.5248 4.552-4.4616 9.2213-5.8438 14.031-0.99518 3.3909-1.6611 7.1203-1.9375 11.156h-5.0938c0.0553-3.1882 0.67711-7.0474 1.875-11.562 1.1979-4.5151 2.9263-8.8479 5.1562-13.031 2.2483-4.2018 4.6315-7.75 7.1562-10.625h-19.875v-4.7812z" fill="#222222"/>
   <path d="m452.69 274.97c-2.0615 0-3.7188 1.6573-3.7188 3.7188v40.562c0 2.0615 1.6573 3.7188 3.7188 3.7188h54.25c2.0615 0 3.7188-1.6573 3.7188-3.7188v-40.562c0-2.0615-1.6573-3.7188-3.7188-3.7188h-54.25zm27.062 4c3.4202 4e-5 6.1658 1.0049 8.25 3 2.0841 1.9773 3.125 4.3686 3.125 7.2188-3e-5 1.817-0.4756 3.4275-1.4375 4.7812-0.94413 1.336-2.4021 2.3634-4.3438 3.0938 2.4048 0.78381 4.2218 2.0356 5.4688 3.7812 1.2647 1.7457 1.9062 3.8274 1.9062 6.25-3e-5 3.3489-1.1933 6.1574-3.5625 8.4375-2.3692 2.2801-5.4783 3.4375-9.3438 3.4375-3.8655 0-6.9746-1.1574-9.3438-3.4375-2.3692-2.2979-3.5625-5.1423-3.5625-8.5625 0-2.5473 0.65493-4.6649 1.9375-6.375 1.3004-1.7279 3.1442-2.9078 5.5312-3.5312-1.9951-0.73033-3.4756-1.7712-4.4375-3.125-0.96193-1.3538-1.4375-2.9868-1.4375-4.875 0-2.8501 1.014-5.2458 3.0625-7.1875 2.0485-1.9416 4.7851-2.9062 8.1875-2.9062zm0.0312 3.9375c-1.8348 4e-5 -3.3512 0.6056-4.5625 1.7812-1.2113 1.1757-1.8125 2.58-1.8125 4.2188-1e-5 1.8526 0.58774 3.3556 1.7812 4.5312 1.1935 1.1757 2.7502 1.7813 4.6562 1.7812 1.8526 2e-5 3.3556-0.59211 4.5312-1.75 1.1935-1.1757 1.8125-2.589 1.8125-4.2812-2e-5 -1.7635-0.61465-3.244-1.8438-4.4375-1.2113-1.2113-2.7456-1.8437-4.5625-1.8438zm-0.0625 16.219c-2.2623 2e-5 -4.1599 0.75369-5.6562 2.25-1.4785 1.4963-2.2188 3.3805-2.2188 5.625-1e-5 1.3716 0.32746 2.6862 0.96875 3.9688 0.65909 1.2826 1.6237 2.2875 2.9062 3 1.2826 0.69473 2.6777 1.0312 4.1562 1.0312 2.2979 0 4.1912-0.74023 5.6875-2.2188 1.4963-1.4785 2.25-3.3449 2.25-5.625-2e-5 -2.3157-0.79401-4.2358-2.3438-5.75-1.532-1.5141-3.4343-2.2812-5.75-2.2812z" fill="#222222"/>
  </g>
  <path d="m567.48 531.88c-11.741 5.7033-23.311 11.585-34.75 17.625-16.282 8.5972-32.297 17.495-48.031 26.531-15.734 9.0358-31.233 18.19-46.531 27.375-30.597 18.37-60.41 36.74-89.938 53.969-6.1988 3.6169-12.384 7.1812-18.562 10.688v129.84c0 20.008 16.117 36.094 36.125 36.094h165.56c20.008 0 36.125-16.086 36.125-36.094v-266.03z" fill="url(#linearGradient5359)" opacity=".5"/>
 </g>
</svg>
