<?xml version="1.0" encoding="UTF-8"?>
<!-- Created with Inkscape (http://www.inkscape.org/) -->
<svg width="270.83" height="262.33" version="1.1" xmlns="http://www.w3.org/2000/svg" xmlns:cc="http://creativecommons.org/ns#" xmlns:dc="http://purl.org/dc/elements/1.1/" xmlns:rdf="http://www.w3.org/1999/02/22-rdf-syntax-ns#" xmlns:xlink="http://www.w3.org/1999/xlink">
 <defs>
  <linearGradient id="linearGradient3798">
   <stop stop-color="#fff" offset="0"/>
   <stop stop-color="#fff" stop-opacity="0" offset="1"/>
  </linearGradient>
  <filter id="filter3840">
   <feGaussianBlur stdDeviation="1.3533804"/>
  </filter>
  <linearGradient id="linearGradient3964" x1="240.72" x2="464.79" y1="386.53" y2="562.1" gradientTransform="matrix(.91154 0 0 .91154 93.974 33.487)" gradientUnits="userSpaceOnUse">
   <stop stop-color="#fff" offset="0"/>
   <stop stop-color="#fff" stop-opacity="0" offset="1"/>
  </linearGradient>
  <radialGradient id="radialGradient3969" cx="336.99" cy="442.06" r="117.96" gradientTransform="matrix(.91154 0 0 .90459 93.974 36.56)" gradientUnits="userSpaceOnUse" xlink:href="#linearGradient3798"/>
  <filter id="filter3985">
   <feGaussianBlur stdDeviation="0.8203269"/>
  </filter>
  <radialGradient id="radialGradient3989" cx="341.61" cy="449.42" r="16.407" gradientUnits="userSpaceOnUse" xlink:href="#linearGradient3798"/>
  <radialGradient id="radialGradient4152" cx="336.29" cy="417.1" r="112.85" gradientTransform="matrix(1 0 0 .96852 66.505 30.397)" gradientUnits="userSpaceOnUse" xlink:href="#linearGradient3798"/>
 </defs>
 <metadata>
  <rdf:RDF>
   <cc:Work rdf:about="">
    <dc:format>image/svg+xml</dc:format>
    <dc:type rdf:resource="http://purl.org/dc/dcmitype/StillImage"/>
    <dc:title/>
   </cc:Work>
  </rdf:RDF>
 </metadata>
 <g transform="translate(-267.88 -303.56)">
  <g transform="matrix(4.1036 0 0 4.1036 -1175.3 -1515.1)" filter="url(#filter3840)" stroke="#000" stroke-width=".88852">
   <path d="m385.05 477c-6.9745-0.31074-26.068 3.0039-27.864-5.697 0.0691 0.0691-0.48338-3.5908 5.5934-8.0794 7.4234-3.9016 19.819 12.706 22.27 13.776z"/>
   <path d="m385.05 477c-2.4508 6.5371-5.1986 25.72-14.028 24.739 0.0871-0.0444-3.5645-0.64991-5.9555-7.8163-1.4167-8.2657 18.208-14.922 19.984-16.923z"/>
   <path d="m385.05 477c5.4599 4.3509 22.855 12.892 19.193 20.987-0.0153-0.0966-1.7196 3.1892-9.2741 3.2486-8.2989-1.2069-8.5652-21.929-9.9193-24.235z"/>
   <path d="m385.13 477.1c8.1954-5.6607 19.325-17.754 25.891-11.769-0.0966-0.0153 2.5017 2.6209 0.22378 9.8241-3.7123 7.5198-23.502 1.3697-26.114 1.9447z"/>
   <path d="m385.05 477c-1.8597-6.7292-10.912-23.864-3.1921-28.26-0.0444 0.0872 3.2657-1.5694 9.4124 2.823 6.0046 5.8544-5.9599 22.775-6.2203 25.437z"/>
  </g>
  <g transform="matrix(4.1036 0 0 4.1036 -1175.3 -1515.1)" fill="#b9c248" stroke="#9bb528" stroke-width=".88852">
   <path d="m385.05 477c-6.9745-0.31074-26.068 3.0039-27.864-5.697 0.0691 0.0691-0.48338-3.5908 5.5934-8.0794 7.4234-3.9016 19.819 12.706 22.27 13.776z"/>
   <path d="m385.05 477c-2.4508 6.5371-5.1986 25.72-14.028 24.739 0.0871-0.0444-3.5645-0.64991-5.9555-7.8163-1.4167-8.2657 18.208-14.922 19.984-16.923z"/>
   <path d="m385.05 477c5.4599 4.3509 22.855 12.892 19.193 20.987-0.0153-0.0966-1.7196 3.1892-9.2741 3.2486-8.2989-1.2069-8.5652-21.929-9.9193-24.235z"/>
   <path d="m385.13 477.1c8.1954-5.6607 19.325-17.754 25.891-11.769-0.0966-0.0153 2.5017 2.6209 0.22378 9.8241-3.7123 7.5198-23.502 1.3697-26.114 1.9447z"/>
   <path d="m385.05 477c-1.8597-6.7292-10.912-23.864-3.1921-28.26-0.0444 0.0872 3.2657-1.5694 9.4124 2.823 6.0046 5.8544-5.9599 22.775-6.2203 25.437z"/>
  </g>
  <path d="m398.66 325.08c-5.012-0.0951-7.5485 1.0941-7.4688 0.9375-31.681 18.041 5.4622 88.355 13.094 115.97 1.0687-10.925 50.172-80.351 25.531-104.38-14.188-10.139-24.712-12.409-31.156-12.531zm5.625 116.91c5.5568 9.4665 6.663 94.516 40.719 99.469 31.001-0.24401 37.968-13.74 38.031-13.344 14.923-32.989-55.338-67.785-78.25-85.75 11.283-2.111 91.832 22.755 107-7.9688 9.3478-29.559-1.3027-40.375-0.90625-40.312-26.918-24.537-72.534 24.994-106.16 48.25-0.14028-0.11018-0.30083-0.23484-0.4375-0.34375zc-7.286 8.2102-87.814 35.549-82 69.469 9.8119 29.408 24.795 31.88 24.438 32.062 36.234 4.0264 47.505-74.705 57.562-101.53zc-10.06-4.3923-60.912-72.542-91.375-56.531-24.937 18.419-22.685 33.44-22.969 33.156 7.3678 35.705 85.723 22.1 114.34 23.375z" fill="url(#radialGradient4152)" opacity=".5"/>
  <circle transform="matrix(.91154 0 0 .91154 93.974 33.487)" cx="341.61" cy="449.42" r="16.407" filter="url(#filter3985)" stroke="#000" stroke-width="4"/>
  <path d="m387.15 329.74c-21.293 20.298 5.1744 76.064 15.297 105.34 1.1102 1.6374 2.1395 3.1885 3.048 4.6432 0.40517-1.1043 0.96093-2.4177 1.6522-3.9026 3.5209-21.672 23.945-86.563-2.7916-101.55-6.6434-2.4904-12.338-3.8571-17.205-4.5292zm107.31 58.054c-25.631-0.23136-59.13 33.171-85.941 52.556-0.43529 0.52446-0.87761 1.057-1.3104 1.5667-0.15649-0.067-0.33125-0.13271-0.48425-0.1994 0.22926 0.22598 0.45675 0.53359 0.71214 0.88306 0.4884 8e-3 1.0135 0.0151 1.5952 0.057-0.5986-0.24116-1.2097-0.47459-1.7661-0.71215 10.239-4.977 94.619-1.749 101.32-35.379 0.25066-5.6306 0.0249-10.484-0.51274-14.67-4.1872-2.7745-8.7659-4.0582-13.616-4.102zm-87.736 53.923c-0.13412 0.26797-0.34057 0.5604-0.56972 0.88306 0.15094-0.01 0.31871 5e-3 0.48426 0 0.0249-0.28895 0.0583-0.60367 0.0854-0.88306zc-0.036-5e-3 -0.0768-0.022-0.11395-0.0284-0.0324 0.0229-0.0531 0.0627-0.0854 0.0854 0.0643-0.0144 0.13562-0.0429 0.1994-0.057zc-5e-3 -0.0252 4e-3 -0.0596 0-0.0854-0.0108 7e-3 -0.0177 0.0209-0.0284 0.0284 0.0102 0.0173 0.0183 0.0397 0.0284 0.057zm-86.711-36.918c-6.3026 0.16667-11.863 1.9403-16.208 5.9535-4.7913 6.0129-8.017 11.38-10.169 16.066 16.573 25.501 83.642 14.583 110.41 15.525 0.16729-0.0424 0.31944-0.073 0.48426-0.11394-1.0464-0.52784-2.4852-1.6622-4.2444-3.2474-0.0201-0.0107-0.0368-0.0178-0.057-0.0284-16.393-8.7276-54.433-34.836-80.216-34.154zm84.346 36.148c0.12417 0.41976 0.25814 0.85116 0.37032 1.2534 0.0295-7e-3 0.056-0.0212 0.0854-0.0284 0.0402-0.2882 0.1026-0.61033 0.1994-0.96852-0.21009-0.0782-0.42602-0.16159-0.65513-0.25642zm1.4243 2.1649c-0.13428 0.17154-0.27175 0.35704-0.42729 0.54123 0.3393 0.93211 0.67383 2.1498 0.997 3.6177 0.0563-1.2565 0.11603-2.428 0.1994-3.5607-0.26067-0.19715-0.51878-0.40481-0.76911-0.5982zm-2.0795 2.3358c-14.475 14.851-71.262 56.263-58.225 84.574 3.6568 5.5352 7.224 9.8172 10.568 13.132 28.179-8.1338 38.725-71.049 47.657-97.706zm5.6402 0.31334c9.6569 18.381 31.497 85.118 62.441 81.469 5.3398-1.4759 9.8141-3.1577 13.588-4.928 4.2704-29.315-51.636-59.114-76.028-76.541z" fill="url(#radialGradient3969)"/>
  <circle transform="matrix(.91154 0 0 .91154 93.974 33.487)" cx="341.61" cy="449.42" r="16.407" fill="#b9c248" stroke="#9bb528" stroke-width="4"/>
  <circle transform="matrix(.91154 0 0 .91154 93.974 33.487)" cx="341.61" cy="449.42" r="16.407" fill="url(#radialGradient3989)"/>
  <path d="m414.47 431.69c-2.3925 1.34-4.8415 2.6296-7.2069 3.988-5.711 3.2797-11.318 6.6091-16.892 9.9415 0.26424 1.5147 0.69211 2.9734 1.3673 4.3014-24.444 12.372-73.88 35.044-69.277 61.899 9.8119 29.408 24.798 31.893 24.441 32.075 30.919 3.4358 43.66-53.3 52.983-86.711 1.6104 0.59294 3.3397 0.94003 5.1559 0.94003 0.96307 0 1.9077-0.11093 2.8201-0.28486 4.2145 27.379 10.682 80.103 37.316 83.976 31.001-0.24402 37.994-13.728 38.057-13.331 12.778-28.246-36.84-57.774-65.774-76.968 1.4351-2.1243 2.3253-4.6388 2.5067-7.3493 27.168 4.4018 80.007 14.911 92.009-9.4003 9.3478-29.559-1.308-40.37-0.91154-40.307-0.79577-0.72539-1.6506-1.2245-2.4783-1.8231-0.8094 0.19503-1.6446 0.33946-2.4498 0.54123-4.0588 1.0171-8.0652 2.1252-12.021 3.3044-3.9558 1.1792-7.8488 2.4342-11.708 3.7601-3.8588 1.3259-7.6835 2.7302-11.451 4.1874-7.5355 2.9145-14.898 6.0814-22.105 9.4288-6.2101 2.8844-12.26 5.9662-18.259 9.087-4.6369 3.7088-9.3802 7.4935-13.816 10.939-0.66267-0.83498-1.4829-1.519-2.3073-2.1934z" fill="url(#linearGradient3964)" opacity=".5"/>
 </g>
</svg>
