<?xml version="1.0" encoding="UTF-8"?>
<!-- Created with Inkscape (http://www.inkscape.org/) -->
<svg width="210" height="297" enable-background="new" version="1.1" xmlns="http://www.w3.org/2000/svg" xmlns:cc="http://creativecommons.org/ns#" xmlns:dc="http://purl.org/dc/elements/1.1/" xmlns:rdf="http://www.w3.org/1999/02/22-rdf-syntax-ns#" xmlns:xlink="http://www.w3.org/1999/xlink">
 <defs>
  <linearGradient id="linearGradient4940">
   <stop stop-color="#ccc" offset="0"/>
   <stop stop-color="#ccc" stop-opacity="0" offset="1"/>
  </linearGradient>
  <linearGradient id="linearGradient4208-6">
   <stop stop-color="#b9c248" stop-opacity="0" offset="0"/>
   <stop offset="1"/>
  </linearGradient>
  <filter id="filter4839" color-interpolation-filters="sRGB">
   <feGaussianBlur in="SourceGraphic" stdDeviation="0.01 5"/>
  </filter>
  <linearGradient id="linearGradient4866" x1="315.82" x2="613.49" y1="255.7" y2="143.27" gradientUnits="userSpaceOnUse" xlink:href="#linearGradient4208-6"/>
  <filter id="filter4872">
   <feGaussianBlur stdDeviation="2.7804954"/>
  </filter>
  <radialGradient id="radialGradient4904" cx="465.63" cy="197.61" r="139.88" gradientTransform="matrix(1 0 0 .33893 0 130.64)" gradientUnits="userSpaceOnUse">
   <stop stop-color="#fff" offset="0"/>
   <stop stop-color="#fff" stop-opacity="0" offset="1"/>
  </radialGradient>
  <filter id="filter4910">
   <feGaussianBlur stdDeviation="1.8728463"/>
  </filter>
  <linearGradient id="linearGradient4924" x1="172.79" x2="171.7" y1="396.64" y2="304.65" gradientTransform="translate(342.53 -246.94)" gradientUnits="userSpaceOnUse" xlink:href="#linearGradient4208-6"/>
  <filter id="filter4934">
   <feGaussianBlur stdDeviation="1.8321958"/>
  </filter>
  <linearGradient id="linearGradient4946" x1="325.75" x2="366.66" y1="204.65" y2="204.65" gradientUnits="userSpaceOnUse" xlink:href="#linearGradient4940"/>
  <filter id="filter5097" x="-.04315" y="-.12731" width="1.0863" height="1.2546">
   <feGaussianBlur stdDeviation="5.0296802"/>
  </filter>
  <filter id="filter5105">
   <feGaussianBlur stdDeviation="5.3361701"/>
  </filter>
  <filter id="filter6489" x="-.03979" y="-.1174" width="1.0796" height="1.2348">
   <feGaussianBlur stdDeviation="4.6381135"/>
  </filter>
  <linearGradient id="linearGradient6541" x1="313.06" x2="312.2" y1="428.98" y2="311.64" gradientTransform="translate(342.53 -246.94)" gradientUnits="userSpaceOnUse">
   <stop stop-color="#fff" offset="0"/>
   <stop stop-color="#fff" stop-opacity="0" offset="1"/>
  </linearGradient>
 </defs>
 <metadata>
  <rdf:RDF>
   <cc:Work rdf:about="">
    <dc:format>image/svg+xml</dc:format>
    <dc:type rdf:resource="http://purl.org/dc/dcmitype/StillImage"/>
    <dc:title/>
   </cc:Work>
  </rdf:RDF>
 </metadata>
 <g>
  <rect x="85.016" y="21.479" width="49.875" height="49.875" ry=".6934" fill="#403e3f" stroke="#eeeeea" stroke-width=".089549"/>
  <rect x="148.09" y="21.479" width="49.875" height="49.875" ry=".63037" fill="#534f45" stroke="#eeeeea" stroke-width=".077603"/>
  <rect x="208.69" y="21.479" width="49.875" height="49.875" ry=".57784" fill="#625e53" stroke="#eeeeea" stroke-width=".071265"/>
  <rect x="148.09" y="137.13" width="49.875" height="49.875" ry=".6934" fill="#bdcb2f" stroke="#eeeeea" stroke-width=".076551"/>
  <rect x="24.016" y="137.13" width="49.875" height="49.875" ry=".66038" fill="#9bb528" stroke="#eeeeea" stroke-width=".073309"/>
  <rect x="86.054" y="137.13" width="49.875" height="49.875" ry=".57784" fill="#b9c248" stroke="#eeeeea" stroke-width=".069881"/>
  <rect x="208.49" y="77.135" width="49.875" height="49.875" ry=".63037" fill="#908d6f" fill-opacity=".94118" stroke="#eeeeea" stroke-width=".077603"/>
  <rect x="24.016" y="76.793" width="49.875" height="49.875" ry=".57784" fill="#d2cdbc" stroke="#eeeeea" stroke-width=".072734"/>
  <rect x="24.016" y="21.479" width="50.001" height="48.942" ry=".71624" stroke="#eeeeea" stroke-width=".079442"/>
  <rect x="208.28" y="138.46" width="49.875" height="49.875" ry=".66038" fill="#979387" stroke="#eeeeea" stroke-width=".077756"/>
  <rect x="86.054" y="76.793" width="49.875" height="49.875" ry=".55472" fill="#ccc" stroke="#eeeeea" stroke-width=".068469"/>
  <rect x="148.09" y="76.793" width="49.875" height="49.875" ry=".66038" fill="#eee" stroke="#eeeeea" stroke-width=".068417"/>
  <text x="32.530369" y="48.202286" fill="#fffffe" font-family="Bitstream Vera Sans" font-size="6.0411px" xml:space="preserve"><tspan x="32.530369" y="48.202286">#000000ff</tspan></text>
  <text x="94.393616" y="48.668861" fill="#fffffe" font-family="Bitstream Vera Sans" font-size="6.0411px" xml:space="preserve"><tspan x="94.393616" y="48.668861">#403e3fff</tspan></text>
  <text x="157.40475" y="48.668869" fill="#fffffe" font-family="Bitstream Vera Sans" font-size="6.0411px" xml:space="preserve"><tspan x="157.40475" y="48.668869">#534f45ff</tspan></text>
  <text x="217.2108" y="48.668877" fill="#fffffe" font-family="Bitstream Vera Sans" font-size="6.0411px" xml:space="preserve"><tspan x="217.2108" y="48.668877">#625e53ff</tspan></text>
  <text x="217.20674" y="104.3242" fill="#fffffe" font-family="Bitstream Vera Sans" font-size="6.0411px" xml:space="preserve"><tspan x="217.20674" y="104.3242">#908d6ff0</tspan></text>
  <text x="216.73364" y="165.64813" fill="#fffffe" font-family="Bitstream Vera Sans" font-size="6.0411px" xml:space="preserve"><tspan x="216.73364" y="165.64813">#979387ff</tspan></text>
  <text x="157.68204" y="164.31813" fill="#fffffe" font-family="Bitstream Vera Sans" font-size="6.0411px" xml:space="preserve"><tspan x="157.68204" y="164.31813" fill="#000000">#bdcb2fff</tspan></text>
  <text x="94.770889" y="164.31815" fill="#fffffe" font-family="Bitstream Vera Sans" font-size="6.0411px" xml:space="preserve"><tspan x="94.770889" y="164.31815" fill="#000000">#b9c248ff</tspan></text>
  <text x="32.479179" y="164.31813" fill="#fffffe" font-family="Bitstream Vera Sans" font-size="6.0411px" xml:space="preserve"><tspan x="32.479179" y="164.31813" fill="#000000">#9bb528ff</tspan></text>
  <text x="33.004208" y="103.98284" fill="#fffffe" font-family="Bitstream Vera Sans" font-size="6.0411px" xml:space="preserve"><tspan x="33.004208" y="103.98284" fill="#000000">#d2cdbcff</tspan></text>
  <text x="96.062851" y="103.98284" fill="#fffffe" font-family="Bitstream Vera Sans" font-size="6.0411px" xml:space="preserve"><tspan x="96.062851" y="103.98284" fill="#000000">#ccccccff</tspan></text>
  <text x="156.93279" y="103.98283" fill="#fffffe" font-family="Bitstream Vera Sans" font-size="6.0411px" xml:space="preserve"><tspan x="156.93279" y="103.98283" fill="#000000">#eeeeeeff</tspan></text>
 </g>
 <g>
  <path transform="matrix(-.96773 0 0 .91593 971.22 -63.547)" d="m614.89 204.65a144.57 66.653 0 1 1 -289.14 0 144.57 66.653 0 1 1 289.14 0z" enable-background="new" fill="#403e3f" filter="url(#filter5105)" stroke="#fff"/>
  <path transform="translate(50.446 -87.816)" d="m605.51 197.61a139.88 47.408 0 1 1 -279.75 0 139.88 47.408 0 1 1 279.75 0z" enable-background="new" filter="url(#filter5097)" stroke="#000"/>
  <path transform="matrix(.96373 0 0 1.0019 66.99 -90.413)" d="m605.51 197.61a139.88 47.408 0 1 1 -279.75 0 139.88 47.408 0 1 1 279.75 0z" enable-background="new" fill="#403e3f" filter="url(#filter6489)" stroke="#403e3f" stroke-linecap="round" stroke-linejoin="round" stroke-width="7.1357"/>
 </g>
 <g>
  <path transform="matrix(.96773 0 0 .91593 61.05 -68.264)" d="m614.89 204.65a144.57 66.653 0 1 1 -289.14 0 144.57 66.653 0 1 1 289.14 0z" enable-background="new" fill="#eee"/>
  <path transform="matrix(.96773 0 0 .91593 61.05 -68.264)" d="m614.89 204.65a144.57 66.653 0 1 1 -289.14 0 144.57 66.653 0 1 1 289.14 0z" enable-background="new" fill="url(#linearGradient4946)"/>
  <path transform="matrix(-.96773 0 0 .91593 971.35 -68.264)" d="m614.89 204.65a144.57 66.653 0 1 1 -289.14 0 144.57 66.653 0 1 1 289.14 0z" enable-background="new" fill="url(#linearGradient4946)"/>
 </g>
 <g>
  <path d="m509.04 60.241c-36.696 1.046-74.331 4.9586-107.94 20.594-9.824 5.2439-22.456 12.649-22.781 25.156 1.304 13.222 14.995 20.347 25.602 25.655 36.872 16.001 77.937 19.334 117.87 19.296 37.258-0.98659 75.542-4.7564 109.53-20.67 9.98-5.2636 23.035-13.028 22.719-25.844-1.9836-13.171-15.763-20.122-26.594-25.406-37.162-15.717-78.422-19.035-118.41-18.781z" enable-background="new" fill="#eee" stroke="#eee"/>
  <path transform="translate(50.569 -93.918)" d="m605.51 197.61a139.88 47.408 0 1 1 -279.75 0 139.88 47.408 0 1 1 279.75 0z" enable-background="new" fill="url(#radialGradient4904)" filter="url(#filter4910)"/>
  <path d="m509.04 60.241c-36.696 1.046-74.331 4.9586-107.94 20.594-9.8236 5.2418-22.462 12.652-22.781 25.156 1.3042 13.226 14.997 20.349 25.602 25.655 36.872 16.001 77.937 19.334 117.87 19.296 37.258-0.98659 75.542-4.7564 109.53-20.67 9.9794-5.2602 23.042-13.033 22.719-25.844-1.9743-13.168-15.769-20.126-26.594-25.406-37.162-15.717-78.422-19.035-118.41-18.781z" enable-background="new" fill="none" filter="url(#filter4934)" stroke="url(#linearGradient4924)" stroke-linecap="round" stroke-linejoin="round" stroke-width="2"/>
 </g>
 <g>
  <path transform="matrix(.96373 0 0 1.0019 66.99 -90.413)" d="m605.51 197.61a139.88 47.408 0 1 1 -279.75 0 139.88 47.408 0 1 1 279.75 0z" enable-background="new" fill="none" stroke="#bdcb2f" stroke-linecap="round" stroke-linejoin="round" stroke-width="7.1357"/>
 </g>
 <g>
  <path transform="matrix(.96373 0 0 1.0019 66.99 -90.413)" d="m605.51 197.61a139.88 47.408 0 1 1 -279.75 0 139.88 47.408 0 1 1 279.75 0z" enable-background="new" fill="none" stroke="#c9d73a" stroke-linecap="round" stroke-linejoin="round" stroke-width="7.1357"/>
 </g>
 <g opacity=".2">
  <path transform="matrix(.96041 0 0 1.002 68.064 -94.437)" d="m605.51 197.61a139.88 47.408 0 1 1 -279.75 0 139.88 47.408 0 1 1 279.75 0z" enable-background="new" fill="none" filter="url(#filter4872)" stroke="url(#linearGradient4866)" stroke-linecap="round" stroke-linejoin="round" stroke-width="5.0969"/>
 </g>
 <g opacity=".5">
  <path transform="matrix(.96041 0 0 1.002 68.064 -102.44)" d="m605.51 197.61a139.88 47.408 0 1 1 -279.75 0 139.88 47.408 0 1 1 279.75 0z" enable-background="new" fill="none" filter="url(#filter4839)" opacity=".98" stroke="#bdcb2f" stroke-linecap="round" stroke-linejoin="round" stroke-width="10"/>
 </g>
 <g opacity=".75">
  <path d="m600.46 66.5c-0.30996 0.1055-0.62809 0.20619-0.9375 0.3125-4.2332 1.4546-8.3979 2.9951-12.531 4.5938-8.2667 3.1973-16.344 6.6402-24.25 10.312s-15.652 7.5504-23.25 11.562-15.064 8.1582-22.406 12.375-14.548 8.5262-21.688 12.812c-14.279 8.5727-28.22 17.147-42 25.188-6.8898 4.0201-13.75 7.9094-20.594 11.594-5.0702 2.7296-10.118 5.2067-15.188 7.6875 25.311 11.272 59.912 18.25 98.125 18.25 77.521 0 140.38-28.609 140.38-63.875 0-20.767-21.906-39.156-55.656-50.812z" enable-background="new" fill="url(#linearGradient6541)"/>
 </g>
</svg>
