<?xml version="1.0" encoding="UTF-8"?>
<!-- Created with Inkscape (http://www.inkscape.org/) -->
<svg width="272.03" height="268.92" version="1.1" viewBox="0 0 272.02503 268.91901" xmlns="http://www.w3.org/2000/svg" xmlns:cc="http://creativecommons.org/ns#" xmlns:dc="http://purl.org/dc/elements/1.1/" xmlns:rdf="http://www.w3.org/1999/02/22-rdf-syntax-ns#" xmlns:xlink="http://www.w3.org/1999/xlink">
 <defs>
  <filter id="filter5742">
   <feGaussianBlur stdDeviation="0.076190479"/>
  </filter>
  <filter id="filter5758" x="-.012966" y="-.16114" width="1.0259" height="1.3223">
   <feGaussianBlur stdDeviation="0.57295229"/>
  </filter>
  <filter id="filter5649" x="-.24" y="-.24" width="1.48" height="1.48">
   <feGaussianBlur stdDeviation="1.1547915"/>
  </filter>
  <filter id="filter5875" x="-.02964" y="-.12613" width="1.0593" height="1.2523">
   <feGaussianBlur stdDeviation="3.1615625"/>
  </filter>
  <linearGradient id="linearGradient4803" x1="75.375" x2="117.28" y1="191.09" y2="166.83" gradientUnits="userSpaceOnUse" xlink:href="#linearGradient4816"/>
  <linearGradient id="linearGradient4816">
   <stop stop-color="#fff" offset="0"/>
   <stop stop-color="#fff" stop-opacity="0" offset="1"/>
  </linearGradient>
  <filter id="filter5804">
   <feGaussianBlur stdDeviation="3.0726563"/>
  </filter>
  <linearGradient id="linearGradient5773" x1="82.674" x2="117.95" y1="191.04" y2="173" gradientTransform="matrix(9.1025 0 0 11.365 -504.7 -1513.5)" gradientUnits="userSpaceOnUse" xlink:href="#linearGradient4816"/>
 </defs>
 <metadata>
  <rdf:RDF>
   <cc:Work rdf:about="">
    <dc:format>image/svg+xml</dc:format>
    <dc:type rdf:resource="http://purl.org/dc/dcmitype/StillImage"/>
    <dc:title/>
   </cc:Work>
  </rdf:RDF>
 </metadata>
 <g transform="translate(-238.99 -397.9)">
  <path d="m488.34 494.14c-10.521 3.9368-21.866 7.6146-34.156 10.969-24.255 6.6194-52.384 12.138-84.188 15.969-20.248 2.4391-39.898 5.3249-59.188 9.5938-16.799 3.7176-33.28 8.3482-49.156 13.562v11.312c0 9.2175 7.4075 16.625 16.625 16.625h70.719v12.469h-62.375v14.438h-37.062c-1.4165 0-2.5625 1.1592-2.5625 2.5938v51.125c0 1.4345 1.146 2.5938 2.5625 2.5938h5.75v2.7812h12.469v-2.7812h214.16v2.7812h12.469v-2.7812h6.0312c1.4164 0 2.5625-1.1592 2.5625-2.5938v-51.125c0-1.4346-1.1461-2.5938-2.5625-2.5938h-37.031v-14.438h-62.406v-12.469h70.719c9.2175 0 16.625-7.4075 16.625-16.625v-61.406z" fill="url(#linearGradient5773)" opacity=".25"/>
  <path d="m278.28 416.2c-9.2175 0-16.625 7.4075-16.625 16.625v122.72c0 9.2175 7.4075 16.625 16.625 16.625h70.719v12.469h-62.375v14.562h176.78v-14.562h-62.406v-12.469h70.719c9.2175 0 16.625-7.4075 16.625-16.625v-122.72c0-9.2175-7.4075-16.625-16.625-16.625h-193.44z" filter="url(#filter5804)"/>
  <rect x="349.01" y="536.82" width="51.994" height="60.313" fill="#534f45"/>
  <rect x="261.66" y="416.19" width="226.69" height="155.98" ry="16.638" fill="#222222"/>
  <rect x="286.61" y="584.65" width="176.78" height="14.558" fill="#625e53"/>
  <path transform="matrix(2.548 0 0 2.5096 1.8008 6.2744)" d="m109.09 166.88c-2.2538 0-4.0312 1.7774-4.0312 4.0312v47.312c0 2.2538 1.7633 4 4.0312 4h74.594c2.268 0 4-1.732 4-4v-47.312c0-2.268-1.7462-4.0312-4-4.0312h-74.594z" fill="#444444"/>
  <path transform="matrix(2.548 0 0 2.5096 1.8008 5.5628)" d="m109.09 168.88c-1.1997 0-2.0254 0.82573-2.0254 2.0254v47.312c0 1.208 0.78664 1.9941 2.0254 1.9941h74.594c1.2471 0 1.9941-0.74707 1.9941-1.9941v-47.312c0-1.2388-0.78611-2.0254-1.9941-2.0254h-74.594z" fill="#fff" opacity=".5"/>
  <path transform="matrix(4.7938 0 0 7.1126 -86.77 -801.41)" d="m117.29 173.04c-0.0644 0.0427-0.0884 0.0783-0.15625 0.1211-1.3409 0.84512-2.9561 1.6861-4.9121 2.4414-1.9492 0.75262-4.222 1.4355-6.8848 2.0176-2.6647 0.58246-5.7306 1.0594-9.2246 1.3965-2.2244 0.21463-4.3867 0.48765-6.5059 0.86329-2.1245 0.37658-4.1962 0.83809-6.1797 1.3828-1.9826 0.54449-3.9016 1.182-5.6934 1.8984-0.79852 0.31931-1.5637 0.72938-2.3574 1.1328v4.6699c0 1.1907 0.9382 2.1289 2.1289 2.1289h37.656c1.1907 0 2.1289-0.9382 2.1289-2.1289v-15.924z" fill="url(#linearGradient4803)" opacity=".5"/>
  <path d="m249.56 599.08c-1.4165 0-2.5625 1.1592-2.5625 2.5938v51.125c0 1.4345 1.146 2.5938 2.5625 2.5938h5.75v3.8438h12.469v-3.8438h214.16v3.8438h12.469v-3.8438h6.0312c1.4164 0 2.5625-1.1592 2.5625-2.5938v-51.125c0-1.4346-1.1461-2.5938-2.5625-2.5938h-250.88z" filter="url(#filter5875)"/>
  <path d="m249.56 599.08c-1.4165 0-2.5531 1.1511-2.5531 2.5857v51.145c0 1.4345 1.1366 2.5857 2.5531 2.5857h250.89c1.4164 0 2.5531-1.1512 2.5531-2.5857v-51.145c0-1.4346-1.1367-2.5857-2.5531-2.5857h-250.89z" fill="#403e3f"/>
  <g transform="translate(15.749 324)">
   <circle transform="matrix(.66423 0 0 .66423 11.327 97.343)" cx="342.59" cy="279.13" r="5.774" fill="#fff" filter="url(#filter5649)" opacity=".5"/>
   <circle transform="matrix(.66423 0 0 .66423 11.327 97.343)" cx="342.59" cy="279.13" r="5.774" fill="#444444"/>
  </g>
  <rect x="255.31" y="655.4" width="12.465" height="3.8353" ry="0" fill="#2e3436"/>
  <rect x="481.95" y="655.4" width="12.465" height="3.8353" ry="0" fill="#2e3436"/>
  <g transform="translate(27.749 324)">
   <circle transform="matrix(.66423 0 0 .66423 11.327 97.343)" cx="342.59" cy="279.13" r="5.774" fill="#fff" filter="url(#filter5649)" opacity=".5"/>
   <circle transform="matrix(.66423 0 0 .66423 11.327 97.343)" cx="342.59" cy="279.13" r="5.774" fill="#444444"/>
  </g>
  <g transform="translate(39.749 324)">
   <circle transform="matrix(.66423 0 0 .66423 11.327 97.343)" cx="342.59" cy="279.13" r="5.774" fill="#fff" filter="url(#filter5649)" opacity=".5"/>
   <circle transform="matrix(.66423 0 0 .66423 11.327 97.343)" cx="342.59" cy="279.13" r="5.774" fill="#444444"/>
  </g>
  <rect x="390.7" y="606.95" width="106.06" height="8.5333" ry="4.2666" fill="none" filter="url(#filter5758)" stroke="#444444" stroke-linecap="round" stroke-linejoin="round"/>
  <rect x="261.83" y="616.8" width="10.362" height="4.8762" ry="2.4381" fill="none" filter="url(#filter5742)" stroke="#444444" stroke-linecap="round" stroke-linejoin="round"/>
  <rect x="261.83" y="626.8" width="10.362" height="4.8762" ry="2.4381" fill="none" filter="url(#filter5742)" stroke="#444444" stroke-linecap="round" stroke-linejoin="round"/>
  <rect x="261.83" y="636.8" width="10.362" height="4.8762" ry="2.4381" fill="none" filter="url(#filter5742)" stroke="#444444" stroke-linecap="round" stroke-linejoin="round"/>
 </g>
</svg>
