<?xml version="1.0" encoding="UTF-8"?>
<!-- Created with Inkscape (http://www.inkscape.org/) -->
<svg width="210" height="297" version="1.1" xmlns="http://www.w3.org/2000/svg" xmlns:cc="http://creativecommons.org/ns#" xmlns:dc="http://purl.org/dc/elements/1.1/" xmlns:rdf="http://www.w3.org/1999/02/22-rdf-syntax-ns#" xmlns:xlink="http://www.w3.org/1999/xlink">
 <defs>
  <linearGradient id="linearGradient4803" x1="75.375" x2="117.28" y1="191.09" y2="166.83" gradientUnits="userSpaceOnUse">
   <stop stop-color="#fff" offset="0"/>
   <stop stop-color="#fff" stop-opacity="0" offset="1"/>
  </linearGradient>
  <filter id="filter5804">
   <feGaussianBlur stdDeviation="3.0726563"/>
  </filter>
 </defs>
 <metadata>
  <rdf:RDF>
   <cc:Work rdf:about="">
    <dc:format>image/svg+xml</dc:format>
    <dc:type rdf:resource="http://purl.org/dc/dcmitype/StillImage"/>
    <dc:title/>
   </cc:Work>
  </rdf:RDF>
 </metadata>
 <g>
  <path d="m262.09 91.688c-9.2175 0-16.625 7.4075-16.625 16.625v122.72c0 9.2175 7.4075 16.625 16.625 16.625h70.719v12.469h-62.375v14.562h176.78v-14.562h-62.406v-12.469h70.719c9.2175 0 16.625-7.4075 16.625-16.625v-122.72c0-9.2175-7.4075-16.625-16.625-16.625h-193.44z" filter="url(#filter5804)"/>
  <rect x="332.82" y="212.3" width="51.994" height="60.313" fill="#534f45"/>
  <rect x="245.47" y="91.675" width="226.69" height="155.98" ry="16.638" fill="#9bb528"/>
  <rect x="270.42" y="260.14" width="176.78" height="14.558" fill="#625e53"/>
  <rect x="96.745" y="22.768" width="49.875" height="49.875" ry=".6934" fill="#403e3f" stroke="#eeeeea" stroke-width=".089549"/>
  <rect x="37.777" y="82.123" width="49.875" height="49.875" ry=".63037" fill="#534f45" stroke="#eeeeea" stroke-width=".077603"/>
  <rect x="96.745" y="82.123" width="49.875" height="49.875" ry=".57784" fill="#625e53" stroke="#eeeeea" stroke-width=".071265"/>
  <rect x="37.777" y="262.03" width="49.875" height="49.875" ry=".6934" fill="#bdcb2f" stroke="#eeeeea" stroke-width=".076551"/>
  <rect x="96.745" y="262.03" width="49.875" height="49.875" ry=".66038" fill="#9bb528" stroke="#eeeeea" stroke-width=".073309"/>
  <rect x="37.777" y="140.48" width="49.875" height="49.875" ry=".57784" fill="#b9c248" stroke="#eeeeea" stroke-width=".069881"/>
  <rect x="37.777" y="202.15" width="49.875" height="49.875" ry=".63037" fill="#908d6f" fill-opacity=".94118" stroke="#eeeeea" stroke-width=".077603"/>
  <rect x="96.745" y="202.15" width="49.875" height="49.875" ry=".57784" fill="#d2cdbc" stroke="#eeeeea" stroke-width=".072734"/>
  <rect x="37.714" y="23.235" width="50.001" height="48.942" ry=".71624" stroke="#eeeeea" stroke-width=".079442"/>
  <rect x="37.777" y="317.85" width="49.875" height="49.875" ry=".66038" fill="#979387" stroke="#eeeeea" stroke-width=".077756"/>
  <rect x="37.777" y="376.97" width="49.875" height="49.875" ry=".55472" fill="#ccc" stroke="#eeeeea" stroke-width=".068469"/>
  <rect x="37.777" y="436.1" width="49.875" height="49.875" ry=".66038" fill="#eee" stroke="#eeeeea" stroke-width=".068417"/>
  <path transform="matrix(2.548 0 0 2.5096 -14.387 -318.24)" d="m109.09 166.88c-2.2538 0-4.0312 1.7774-4.0312 4.0312v47.312c0 2.2538 1.7633 4 4.0312 4h74.594c2.268 0 4-1.732 4-4v-47.312c0-2.268-1.7462-4.0312-4-4.0312h-74.594z" fill="#bdcb2f"/>
  <path transform="matrix(2.548 0 0 2.5096 -14.387 -318.95)" d="m109.09 168.88c-1.1997 0-2.0312 0.83159-2.0312 2.0312v47.312c0 1.208 0.7925 2 2.0312 2h74.594c1.2471 0 2-0.75293 2-2v-47.312c0-1.2388-0.79197-2.0312-2-2.0312h-74.594z" fill="#fff" opacity=".5"/>
  <path transform="matrix(4.7938 0 0 7.1126 -102.96 -1125.9)" d="m117.28 173.03c-0.065 0.0431-0.0876 0.0818-0.15625 0.125-1.3409 0.84513-2.9502 1.6822-4.9062 2.4375-1.9492 0.75262-4.2122 1.4492-6.875 2.0312-2.6647 0.58246-5.756 1.0691-9.25 1.4062-2.2244 0.21462-4.3809 0.46812-6.5 0.84375-2.1245 0.37658-4.204 0.86153-6.1875 1.4062-1.9826 0.54449-3.8958 1.1585-5.6875 1.875-0.79565 0.31816-1.5532 0.72314-2.3438 1.125v4.6875c0 1.1907 0.93429 2.125 2.125 2.125h37.656c1.1907 0 2.125-0.93429 2.125-2.125v-15.938z" fill="url(#linearGradient4803)" opacity=".5"/>
 </g>
</svg>
