<?xml version="1.0" encoding="UTF-8"?>
<!-- Created with Inkscape (http://www.inkscape.org/) -->
<svg id="svg3646" width="420" height="420" version="1.1" viewBox="0 0 420.00003 420.00004" xmlns="http://www.w3.org/2000/svg" xmlns:cc="http://creativecommons.org/ns#" xmlns:dc="http://purl.org/dc/elements/1.1/" xmlns:rdf="http://www.w3.org/1999/02/22-rdf-syntax-ns#" xmlns:xlink="http://www.w3.org/1999/xlink">
 <defs id="defs3648">
  <linearGradient id="linearGradient3963" x1="528.84" x2="296.94" y1="376.38" y2="188.44" gradientTransform="translate(-106.57 248.99)" gradientUnits="userSpaceOnUse">
   <stop id="stop3959" stop-color="#fff" offset="0"/>
   <stop id="stop3961" stop-color="#fff" stop-opacity="0" offset="1"/>
  </linearGradient>
  <filter id="filter3946">
   <feGaussianBlur id="feGaussianBlur3948" stdDeviation="4.1451563"/>
  </filter>
  <filter id="filter3919">
   <feGaussianBlur id="feGaussianBlur3921" stdDeviation="1.2861742"/>
  </filter>
  <radialGradient id="radialGradient4019" cx="-259.71" cy="296.82" r="39.676" gradientTransform="matrix(1.5858 -3.9753e-8 4.6078e-8 1.8381 768.22 -228.13)" gradientUnits="userSpaceOnUse">
   <stop id="stop3955" stop-color="#d2cdbc" offset="0"/>
   <stop id="stop3957" stop-color="#d2cdbc" stop-opacity="0" offset="1"/>
  </radialGradient>
  <filter id="filter3892">
   <feGaussianBlur id="feGaussianBlur3894" stdDeviation="3.5"/>
  </filter>
 </defs>
 <metadata id="metadata3651">
  <rdf:RDF>
   <cc:Work rdf:about="">
    <dc:format>image/svg+xml</dc:format>
    <dc:type rdf:resource="http://purl.org/dc/dcmitype/StillImage"/>
    <dc:title/>
   </cc:Work>
  </rdf:RDF>
 </metadata>
 <g id="layer1" transform="translate(-121.43 -273.79)">
  <rect id="rect3878" x="156.43" y="308.79" width="350" height="350" ry="17.5" fill="none" filter="url(#filter3892)" stroke="#000" stroke-dasharray="20.8, 20.8" stroke-linecap="round" stroke-linejoin="round" stroke-width="5.2"/>
  <rect id="rect3091" x="156.43" y="308.79" width="350" height="350" ry="17.5" fill="none" stroke="#bdcb2f" stroke-dasharray="20.8, 20.8" stroke-linecap="round" stroke-linejoin="round" stroke-width="5.2"/>
  <g id="g3093" transform="translate(-106.57 248.99)">
   <path id="rect3923" transform="matrix(1.009 0 0 1.009 618.41 18.027)" d="m-62.344 76.625-22.156 1.0312l-0.125 0.25c-0.10392 0.02297-0.2001 0.0751-0.28125 0.15625l-197.06 197.06c-0.11318 0.11318-0.15625 0.25854-0.15625 0.40625h-0.25l-34.562 77.531 77.844-34.25v-0.25c0.14771 0 0.29307-0.0431 0.40625-0.15625l197.06-197.06c0.08115-0.0811 0.13328-0.17733 0.15625-0.28125l0.25-0.125 0.53125-22.688-10.812-10.812-10.844-10.812z" filter="url(#filter3946)" stroke="#000"/>
   <path id="rect3125" d="m533.58 96.778 42.851 42.851c0.22839 0.22839 0.22839 0.59612 1e-5 0.82451l-198.84 198.84c-0.11419 0.11419-0.26322 0.17129-0.41225 0.17129-0.14904 0-0.41896-0.01-0.41226-0.17129l0.93221-22.465-21.838-21.838-21.945 1.4522c-0.11419-0.1142-0.17131-0.26321-0.17129-0.41226 0-0.14903 0.0571-0.29806 0.1713-0.41225l198.84-198.84c0.22839-0.22839 0.59612-0.22838 0.82451 4e-6z" fill="#bdcb2f"/>
   <path id="path3127" d="m333.51 296.03-34.86 78.23 78.535-34.555 0.51995-22.878-10.919-10.919-10.919-10.919-22.358 1.0399z" fill="#908d6f" fill-opacity=".94118" stroke="#908d6f" stroke-opacity=".94118" stroke-width="1.009px"/>
   <path id="path3133" d="m533.17 96.366-34.86 78.23 78.535-34.555 0.51995-22.878-10.919-10.919-10.919-10.919-22.358 1.0399z" fill="#bdcb2f"/>
   <path id="path3129" d="m555.52 95.326-107.5 107.5-92.161 92.161" fill="none" stroke="#9bb528" stroke-width="1.009px"/>
   <path id="path3131" d="m577.36 117.16-107.5 107.5-92.161 92.161" fill="none" stroke="#9bb528" stroke-width="1.009px"/>
   <text id="text3911" transform="matrix(.71345 -.71345 .71345 .71345 618.41 18.027)" x="-266.68835" y="32.867157" fill="#000000" filter="url(#filter3919)" font-family="Arial" font-size="26.58px" style="line-height:125%" xml:space="preserve"><tspan id="tspan3913" x="-266.68835" y="32.867157" fill="#000000" font-family="Aerial">Domogik</tspan></text>
   <text id="text3907" transform="matrix(.70711 -.70711 .70711 .70711 0 0)" x="155.45866" y="483.19434" fill="#9bb528" font-family="Arial" font-size="26.818px" style="line-height:125%" xml:space="preserve"><tspan id="tspan3909" x="155.45866" y="483.19434" fill="#9bb528" font-family="Aerial">Domogik</tspan></text>
   <path id="path3951" d="m333.51 296.03-34.86 78.23 78.535-34.555 0.51995-22.878-10.919-10.919-10.919-10.919-22.358 1.0399z" fill="url(#radialGradient4019)" stroke="#908d6f" stroke-opacity=".94118" stroke-width="1.009px"/>
  </g>
  <path id="path3955" d="m422.27 437.43c-0.2995 0.074-0.6075 0.1439-0.9063 0.2188-3.6055 0.9034-7.1422 1.8587-10.656 2.9062-7.0281 2.095-13.9 4.4735-20.594 7.0625s-13.223 5.4014-19.625 8.375-12.66 6.1263-18.812 9.375-12.21 6.5855-18.156 10c-5.9458 3.4145-11.782 6.9042-17.562 10.375-11.562 6.9416-22.842 13.864-34 20.375-5.579 3.2553-11.146 6.4229-16.688 9.4063-5.5415 2.9833-11.047 5.8042-16.594 8.4062-0.1454 0.068-0.2921 0.1196-0.4375 0.1875l-22.625 22.625c-0.1142 0.1142-0.1562 0.2572-0.1562 0.4063h-0.25l-34.844 78.219 78.531-34.562v-0.2187c0.149 0 0.292-0.073 0.4062-0.1875l152.97-152.97z" fill="url(#linearGradient3963)" opacity=".5"/>
 </g>
</svg>
