<?xml version="1.0" encoding="UTF-8" standalone="no"?>
<!-- Created with Inkscape (http://www.inkscape.org/) -->

<svg
   xmlns:dc="http://purl.org/dc/elements/1.1/"
   xmlns:cc="http://creativecommons.org/ns#"
   xmlns:rdf="http://www.w3.org/1999/02/22-rdf-syntax-ns#"
   xmlns:svg="http://www.w3.org/2000/svg"
   xmlns="http://www.w3.org/2000/svg"
   xmlns:xlink="http://www.w3.org/1999/xlink"
   xmlns:sodipodi="http://sodipodi.sourceforge.net/DTD/sodipodi-0.dtd"
   xmlns:inkscape="http://www.inkscape.org/namespaces/inkscape"
   width="239.73744"
   height="239.73753"
   viewBox="0 0 239.73744 239.73754"
   id="svg3638"
   version="1.1"
   inkscape:version="0.91 r13725"
   sodipodi:docname="100.svg">
  <defs
     id="defs3640">
    <linearGradient
       gradientTransform="translate(-122.66667,151.59687)"
       inkscape:collect="always"
       xlink:href="#linearGradient4188"
       id="linearGradient4194"
       x1="580.27789"
       y1="383.37708"
       x2="385.56482"
       y2="241.40207"
       gradientUnits="userSpaceOnUse" />
    <linearGradient
       inkscape:collect="always"
       id="linearGradient4188">
      <stop
         style="stop-color:#ffffff;stop-opacity:1;"
         offset="0"
         id="stop4190" />
      <stop
         style="stop-color:#ffffff;stop-opacity:0;"
         offset="1"
         id="stop4192" />
    </linearGradient>
    <linearGradient
       inkscape:collect="always"
       xlink:href="#linearGradient3813"
       id="linearGradient4162"
       gradientUnits="userSpaceOnUse"
       gradientTransform="matrix(1.6027774,0,0,1.6027774,-37.417906,-69.065637)"
       x1="214.73439"
       y1="327.12173"
       x2="306.60944"
       y2="327.12173" />
    <linearGradient
       id="linearGradient3813">
      <stop
         id="stop3821"
         offset="0"
         style="stop-color:#b9c248;stop-opacity:0.49803922;" />
      <stop
         style="stop-color:#b9c248;stop-opacity:0;"
         offset="1"
         id="stop3817" />
    </linearGradient>
    <filter
       inkscape:collect="always"
       id="filter4026">
      <feGaussianBlur
         inkscape:collect="always"
         stdDeviation="2.3864853"
         id="feGaussianBlur4028" />
    </filter>
    <linearGradient
       inkscape:collect="always"
       xlink:href="#linearGradient5177"
       id="linearGradient4150"
       gradientUnits="userSpaceOnUse"
       gradientTransform="translate(72.53333,61.866667)"
       x1="395.0993"
       y1="270.7594"
       x2="426.74313"
       y2="203.407" />
    <linearGradient
       id="linearGradient5177">
      <stop
         style="stop-color:#ffffff;stop-opacity:1;"
         offset="0"
         id="stop5179" />
      <stop
         style="stop-color:#bdcb2f;stop-opacity:1;"
         offset="1"
         id="stop5181" />
    </linearGradient>
    <filter
       inkscape:collect="always"
       id="filter3961">
      <feGaussianBlur
         inkscape:collect="always"
         stdDeviation="0.77076133"
         id="feGaussianBlur3963" />
    </filter>
    <linearGradient
       inkscape:collect="always"
       xlink:href="#linearGradient5177"
       id="linearGradient4146"
       gradientUnits="userSpaceOnUse"
       x1="395.0993"
       y1="270.7594"
       x2="426.74313"
       y2="203.407" />
    <filter
       inkscape:collect="always"
       id="filter3965">
      <feGaussianBlur
         inkscape:collect="always"
         stdDeviation="0.77076133"
         id="feGaussianBlur3967" />
    </filter>
    <linearGradient
       gradientTransform="translate(-122.66667,151.59687)"
       inkscape:collect="always"
       xlink:href="#linearGradient5177"
       id="linearGradient4144"
       gradientUnits="userSpaceOnUse"
       x1="395.0993"
       y1="270.7594"
       x2="426.74313"
       y2="203.407" />
    <filter
       inkscape:collect="always"
       id="filter3858">
      <feGaussianBlur
         inkscape:collect="always"
         stdDeviation="4.9945312"
         id="feGaussianBlur3860" />
    </filter>
    <linearGradient
       inkscape:collect="always"
       xlink:href="#linearGradient5177"
       id="linearGradient3756"
       gradientUnits="userSpaceOnUse"
       gradientTransform="translate(72.53333,61.866667)"
       x1="395.0993"
       y1="270.7594"
       x2="426.74313"
       y2="203.407" />
  </defs>
  <sodipodi:namedview
     id="base"
     pagecolor="#ffffff"
     bordercolor="#666666"
     borderopacity="1.0"
     inkscape:pageopacity="0.0"
     inkscape:pageshadow="2"
     inkscape:zoom="0.35"
     inkscape:cx="140.58301"
     inkscape:cy="19.868794"
     inkscape:document-units="px"
     inkscape:current-layer="layer1"
     showgrid="false"
     units="px"
     fit-margin-top="0"
     fit-margin-left="0"
     fit-margin-right="0"
     fit-margin-bottom="0"
     showborder="false"
     inkscape:window-width="1600"
     inkscape:window-height="872"
     inkscape:window-x="0"
     inkscape:window-y="0"
     inkscape:window-maximized="1" />
  <metadata
     id="metadata3643">
    <rdf:RDF>
      <cc:Work
         rdf:about="">
        <dc:format>image/svg+xml</dc:format>
        <dc:type
           rdf:resource="http://purl.org/dc/dcmitype/StillImage" />
        <dc:title></dc:title>
      </cc:Work>
    </rdf:RDF>
  </metadata>
  <g
     inkscape:label="Calque 1"
     inkscape:groupmode="layer"
     id="layer1"
     transform="translate(-234.41699,-312.49344)">
    <path
       inkscape:connector-curvature="0"
       id="path3832"
       d="m 354.30131,332.47157 c -55.1729,0 -99.9062,44.73327 -99.9062,99.90625 0,55.17302 44.7333,99.87502 99.9062,99.87502 55.173,0 99.875,-44.702 99.875,-99.87502 0,-55.17298 -44.702,-99.90625 -99.875,-99.90625 z m 0,84.96875 c 8.2481,0 14.9063,6.68945 14.9063,14.9375 0,8.24805 -6.6582,14.90625 -14.9063,14.90625 -8.248,0 -14.9375,-6.6582 -14.9375,-14.90625 0,-8.24805 6.6895,-14.9375 14.9375,-14.9375 z"
       style="display:inline;fill:#000000;fill-opacity:1;stroke:#bdcb2f;stroke-width:0.20099172;stroke-linecap:round;stroke-linejoin:round;stroke-miterlimit:4;stroke-dasharray:none;stroke-dashoffset:0;stroke-opacity:1;filter:url(#filter3858)" />
    <path
       inkscape:connector-curvature="0"
       style="display:inline;fill:#9bb528;fill-opacity:1;stroke:#bdcb2f;stroke-width:0.20099172;stroke-linecap:round;stroke-linejoin:round;stroke-miterlimit:4;stroke-dasharray:none;stroke-dashoffset:0;stroke-opacity:1;filter:url(#filter4184)"
       d="m 354.30131,332.47157 c -55.1729,0 -99.9062,44.73327 -99.9062,99.90625 0,55.17302 44.7333,99.87502 99.9062,99.87502 55.173,0 99.875,-44.702 99.875,-99.87502 0,-55.17298 -44.702,-99.90625 -99.875,-99.90625 z m 0,84.96875 c 8.2481,0 14.9063,6.68945 14.9063,14.9375 0,8.24805 -6.6582,14.90625 -14.9063,14.90625 -8.248,0 -14.9375,-6.6582 -14.9375,-14.90625 0,-8.24805 6.6895,-14.9375 14.9375,-14.9375 z"
       id="path3827" />
    <path
       inkscape:connector-curvature="0"
       style="display:inline;fill:#bdcb2f;fill-opacity:1;stroke:#bdcb2f;stroke-width:0.20099172;stroke-linecap:round;stroke-linejoin:round;stroke-miterlimit:4;stroke-dasharray:none;stroke-dashoffset:0;stroke-opacity:1;filter:url(#filter4184)"
       d="m 351.81611,336.54976 c -43.7941,0.22718 -84.4097,34.84773 -91.875,78.0625 -7.4668,38.48194 10.9596,80.30588 44.9436,100.08948 34.0956,20.8252 81.1683,17.3987 111.4001,-9.0582 28.678,-23.9128 41.3287,-65.80052 29.6875,-101.65628 -11.5105,-37.91964 -48.4559,-66.77685 -88.3113,-67.42257 -1.9468,-0.0725 -3.8976,-0.0623 -5.8449,-0.0149 z m 1.4687,76.9375 c 15.1465,-1.72746 25.9198,18.35573 16.375,30.03125 -8.1011,12.67303 -30.4316,8.87645 -33.625,-6 -3.498,-11.10439 5.6033,-23.82851 17.25,-24.03125 z"
       id="path3862" />
    <path
       inkscape:connector-curvature="0"
       style="display:inline;fill:#b9c248;fill-opacity:1;stroke:#bdcb2f;stroke-width:0.20099172;stroke-linecap:round;stroke-linejoin:round;stroke-miterlimit:4;stroke-dasharray:none;stroke-dashoffset:0;stroke-opacity:1;filter:url(#filter4184)"
       d="m 353.62521,340.48346 c -47.8636,-0.81703 -91.5422,41.96135 -91.25,90 -1.1197,40.82928 27.8129,80.83308 67.8352,90.65428 37.4179,10.277 80.8047,-5.2255 101.2966,-38.6847 21.0532,-32.22772 19.7918,-77.96494 -5.5139,-107.55695 -17.2675,-21.32819 -44.578,-35.23369 -72.3679,-34.41263 z m 0.6563,68.875 c 18.8184,-1.18983 30.7552,25.28843 17.2187,38.53125 -11.6536,14.21782 -38.8488,6.21777 -39.9687,-12.53125 -1.8374,-13.09718 9.4157,-26.2001 22.75,-26 z"
       id="path3868" />
    <path
       inkscape:connector-curvature="0"
       style="display:inline;fill:url(#linearGradient4144);fill-opacity:1;stroke:none;filter:url(#filter3965)"
       d="m 303.14581,358.87812 c -10.9523,9.24642 -20.6121,20.03709 -28.2187,32.25 19.3401,9.27352 39.04,19.68397 58.1562,28.25 1.0051,-3.01508 5.7044,-4.99048 5.5201,-7.49636 -11.5483,-17.88663 -23.0967,-35.77326 -34.6451,-53.65989 l -0.7779,0.62834 -0.035,0.0279 z"
       id="path3886" />
    <path
       inkscape:connector-curvature="0"
       id="path3969"
       d="m 425.8125,207.28125 c -10.95234,9.24642 -20.61212,20.03709 -28.21875,32.25 19.34013,9.27352 39.04,19.68397 58.15625,28.25 1.00511,-3.01508 5.70436,-4.99048 5.52009,-7.49636 C 449.72173,242.39826 438.17336,224.51163 426.625,206.625 l -0.77794,0.62834 -0.0346,0.0279 z"
       style="display:inline;fill:url(#linearGradient4146);fill-opacity:1;stroke:none;filter:url(#filter3965)"
       inkscape:transform-center-x="-47.597284"
       inkscape:transform-center-y="-44.598504"
       transform="matrix(-0.09533922,0.99544484,-0.99544484,-0.09533922,680.38191,-15.088627)" />
    <path
       inkscape:connector-curvature="0"
       transform="matrix(0.99544484,0.09533922,0.09533922,-0.99544484,-226.03558,720.86524)"
       style="display:inline;fill:url(#linearGradient3756);fill-opacity:1;stroke:none;filter:url(#filter3961)"
       d="m 498.34583,269.14792 c -10.95234,9.24642 -20.61212,20.03709 -28.21875,32.25 19.34013,9.27352 39.04,19.68397 58.15625,28.25 1.00511,-3.01508 5.70436,-4.99048 5.52009,-7.49636 -11.54836,-17.88663 -23.09673,-35.77326 -34.64509,-53.65989 l -0.77794,0.62834 -0.0346,0.0279 z"
       id="path3971"
       inkscape:transform-center-x="51.218094"
       inkscape:transform-center-y="38.975898" />
    <path
       inkscape:connector-curvature="0"
       id="path3929"
       d="m 498.34583,269.14792 c -10.95234,9.24642 -20.61212,20.03709 -28.21875,32.25 19.34013,9.27352 39.04,19.68397 58.15625,28.25 1.00511,-3.01508 5.70436,-4.99048 5.52009,-7.49636 -11.54836,-17.88663 -23.09673,-35.77326 -34.64509,-53.65989 l -0.77794,0.62834 -0.0346,0.0279 z"
       style="display:inline;fill:url(#linearGradient4150);fill-opacity:1;stroke:none;filter:url(#filter3961)"
       transform="matrix(0,-1,-1,0,696.35201,983.72024)" />
    <g
       transform="matrix(1.6027774,0,0,1.6027774,-405.78152,-74.406107)"
       id="g3994"
       style="display:inline;fill:#000000;fill-opacity:1;filter:url(#filter4026)">
      <ellipse
         ry="15.54449"
         rx="17.487551"
         cy="481.10217"
         cx="312.83286"
         style="fill:#000000;fill-opacity:1;fill-rule:nonzero;stroke:none"
         id="path3996"
         transform="translate(151.1347,-116.32792)" />
      <rect
         style="fill:#000000;fill-opacity:1;fill-rule:nonzero;stroke:none"
         id="rect3998"
         width="9.6176624"
         height="81.063156"
         x="471.72345"
         y="288.44501"
         ry="4.8088312" />
      <ellipse
         ry="15.54449"
         rx="17.487551"
         cy="481.10217"
         cx="312.83286"
         transform="translate(208.03583,-122.85082)"
         id="path4000"
         style="fill:#000000;fill-opacity:1;fill-rule:nonzero;stroke:none" />
      <rect
         ry="4.8088312"
         y="281.92212"
         x="528.62457"
         height="81.063156"
         width="9.6176624"
         id="rect4002"
         style="fill:#000000;fill-opacity:1;fill-rule:nonzero;stroke:none" />
      <rect
         style="fill:#000000;fill-opacity:1;fill-rule:nonzero;stroke:none"
         id="rect4004"
         width="65.949684"
         height="10.991614"
         x="432.4411"
         y="345.32303"
         ry="4.8088312"
         transform="matrix(0.99224971,-0.12425983,0.12425983,0.99224971,0,0)" />
    </g>
    <g
       style="display:inline;filter:url(#filter4184)"
       id="g3987"
       transform="matrix(1.6027774,0,0,1.6027774,-405.78152,-74.406107)">
      <ellipse
         ry="15.54449"
         rx="17.487551"
         cy="481.10217"
         cx="312.83286"
         transform="translate(151.1347,-116.32792)"
         id="path3977"
         style="fill:#534f45;fill-opacity:1;fill-rule:nonzero;stroke:none" />
      <rect
         ry="4.8088312"
         y="288.44501"
         x="471.72345"
         height="81.063156"
         width="9.6176624"
         id="rect3979"
         style="fill:#534f45;fill-opacity:1;fill-rule:nonzero;stroke:none" />
      <ellipse
         ry="15.54449"
         rx="17.487551"
         cy="481.10217"
         cx="312.83286"
         style="fill:#534f45;fill-opacity:1;fill-rule:nonzero;stroke:none"
         id="path3981"
         transform="translate(208.03583,-122.85082)" />
      <rect
         style="fill:#534f45;fill-opacity:1;fill-rule:nonzero;stroke:none"
         id="rect3983"
         width="9.6176624"
         height="81.063156"
         x="528.62457"
         y="281.92212"
         ry="4.8088312" />
      <rect
         transform="matrix(0.99224971,-0.12425983,0.12425983,0.99224971,0,0)"
         ry="4.8088312"
         y="345.32303"
         x="432.4411"
         height="10.991614"
         width="65.949684"
         id="rect3985"
         style="fill:#534f45;fill-opacity:1;fill-rule:nonzero;stroke:none" />
    </g>
    <path
       inkscape:connector-curvature="0"
       style="display:inline;fill:url(#linearGradient4162);fill-opacity:1;fill-rule:nonzero;stroke:none;filter:url(#filter4184)"
       d="m 444.89291,375.9305 -89.6053,11.21944 c -0.5296,0.0664 -1.0166,0.18662 -1.5026,0.35061 -3.7134,0.55823 -6.5614,3.68923 -6.5614,7.56311 l 0,92.36008 c -3.7454,-1.6498 -7.9582,-2.6046 -12.4215,-2.6046 -15.4798,0 -28.0486,11.1334 -28.0486,24.8932 0,13.7598 12.5688,24.8931 28.0486,24.8931 15.4798,0 27.9985,-11.1333 27.9985,-24.8931 0,-0.86 -0.054,-1.7169 -0.1502,-2.5544 l 0,-103.17883 75.7814,-9.46641 0,82.44284 c -3.7559,-1.6613 -7.9416,-2.6045 -12.4216,-2.6045 -15.4798,0 -28.0486,11.1333 -28.0486,24.8931 0,13.7599 12.5688,24.9433 28.0486,24.9433 15.4798,0 27.9986,-11.1834 27.9986,-24.9433 0,-0.8599 -0.055,-1.7168 -0.1502,-2.5544 l 0,-112.04413 c 0,-0.70183 -0.1765,-1.3582 -0.3506,-2.00348 -0.021,-0.16989 -0.068,-0.33515 -0.1002,-0.50086 -0.057,-0.16544 -0.083,-0.3408 -0.1502,-0.50087 -0.9628,-3.69304 -4.4711,-6.19746 -8.3645,-5.7099 z"
       id="path4032" />
    <path
       inkscape:connector-curvature="0"
       style="display:inline;opacity:0.4;fill:url(#linearGradient4194);fill-opacity:1;fill-rule:nonzero;stroke:none;filter:url(#filter4184)"
       d="m 456.92711,390.15937 c -0.8008,0.39316 -1.5573,0.8009 -2.375,1.1875 -5.5865,2.64116 -11.5552,5.13172 -17.8438,7.53125 -6.2886,2.39953 -12.8836,4.69836 -19.7187,6.96875 -13.6704,4.54078 -28.2649,8.95714 -43.1875,13.65625 -7.4614,2.34955 -15.0216,4.75464 -22.5625,7.3125 -1.3509,0.45819 -2.6809,1.00175 -4.0313,1.46875 l 0,17.21875 c -4.6698,-2.51663 -7.8437,-7.44446 -7.8437,-13.125 0,-0.46546 0.1458,-0.88925 0.1875,-1.34375 -3.6192,1.30422 -7.2515,2.52099 -10.8438,3.90625 -7.4649,2.87865 -14.8605,5.96933 -22.0937,9.28125 -3.6166,1.65596 -7.1893,3.37088 -10.7188,5.15625 -3.5295,1.78537 -7.0145,3.63366 -10.4375,5.5625 -3.4229,1.92884 -6.7968,3.91363 -10.0937,6 -3.297,2.08632 -6.5361,4.27332 -9.6875,6.53122 -1.2446,0.8918 -2.4052,1.8613 -3.625,2.7813 9.2664,22.5158 26.3441,40.9941 48.0625,51.7187 4.7411,7.793 14.0178,13.0938 24.6875,13.0938 0.4837,0 0.9598,-0.01 1.4375,-0.031 0.549,0.028 1.0992,0.031 1.6562,0.031 4.7255,0 9.1608,-1.042 13.0625,-2.875 1.1057,0.036 2.2293,0.062 3.3438,0.062 19.1113,0 36.9491,-5.383 52.125,-14.6875 5.056,4.3858 11.9809,7.0937 19.5937,7.0937 0.4838,0 0.9598,-0.01 1.4375,-0.031 0.54,0.028 1.0773,0.031 1.625,0.031 15.4798,0 28,-11.2089 28,-24.9687 0,-0.86 -0.061,-1.6937 -0.1562,-2.5313 l 0,-106.99997 z m -91.1875,32.65625 c 2.158,2.59195 3.4687,5.92232 3.4687,9.5625 0,3.64071 -1.3101,6.97719 -3.4687,9.5625 l 0,-19.125 z"
       id="path4174" />
  </g>
</svg>
