<?xml version="1.0" encoding="UTF-8"?>
<!-- Created with Inkscape (http://www.inkscape.org/) -->
<svg width="239.74" height="239.74" version="1.1" viewBox="0 0 239.73744 239.73754" xmlns="http://www.w3.org/2000/svg" xmlns:cc="http://creativecommons.org/ns#" xmlns:dc="http://purl.org/dc/elements/1.1/" xmlns:rdf="http://www.w3.org/1999/02/22-rdf-syntax-ns#" xmlns:xlink="http://www.w3.org/1999/xlink">
 <defs>
  <linearGradient id="linearGradient4194" x1="580.28" x2="385.56" y1="383.38" y2="241.4" gradientTransform="translate(-122.67 151.6)" gradientUnits="userSpaceOnUse">
   <stop stop-color="#fff" offset="0"/>
   <stop stop-color="#fff" stop-opacity="0" offset="1"/>
  </linearGradient>
  <linearGradient id="linearGradient4162" x1="214.73" x2="306.61" y1="327.12" y2="327.12" gradientTransform="matrix(1.6028 0 0 1.6028 -37.418 -69.066)" gradientUnits="userSpaceOnUse">
   <stop stop-color="#b9c248" stop-opacity=".49804" offset="0"/>
   <stop stop-color="#b9c248" stop-opacity="0" offset="1"/>
  </linearGradient>
  <filter id="filter4026">
   <feGaussianBlur stdDeviation="2.3864853"/>
  </filter>
  <linearGradient id="linearGradient4150" x1="395.1" x2="426.74" y1="270.76" y2="203.41" gradientTransform="translate(72.533 61.867)" gradientUnits="userSpaceOnUse" xlink:href="#linearGradient5177"/>
  <linearGradient id="linearGradient5177">
   <stop stop-color="#fff" offset="0"/>
   <stop stop-color="#bdcb2f" offset="1"/>
  </linearGradient>
  <filter id="filter3961">
   <feGaussianBlur stdDeviation="0.77076133"/>
  </filter>
  <linearGradient id="linearGradient4146" x1="395.1" x2="426.74" y1="270.76" y2="203.41" gradientUnits="userSpaceOnUse" xlink:href="#linearGradient5177"/>
  <filter id="filter3965">
   <feGaussianBlur stdDeviation="0.77076133"/>
  </filter>
  <linearGradient id="linearGradient4144" x1="395.1" x2="426.74" y1="270.76" y2="203.41" gradientTransform="translate(-122.67 151.6)" gradientUnits="userSpaceOnUse" xlink:href="#linearGradient5177"/>
  <filter id="filter3858">
   <feGaussianBlur stdDeviation="4.9945312"/>
  </filter>
 </defs>
 <metadata>
  <rdf:RDF>
   <cc:Work rdf:about="">
    <dc:format>image/svg+xml</dc:format>
    <dc:type rdf:resource="http://purl.org/dc/dcmitype/StillImage"/>
    <dc:title/>
   </cc:Work>
  </rdf:RDF>
 </metadata>
 <g transform="translate(-234.42 -312.49)">
  <path d="m354.3 332.47c-55.173 0-99.906 44.733-99.906 99.906 0 55.173 44.733 99.875 99.906 99.875 55.173 0 99.875-44.702 99.875-99.875 0-55.173-44.702-99.906-99.875-99.906zm0 84.969c8.2481 0 14.906 6.6894 14.906 14.938s-6.6582 14.906-14.906 14.906c-8.248 0-14.938-6.6582-14.938-14.906s6.6895-14.938 14.938-14.938z" filter="url(#filter3858)" stroke="#bdcb2f" stroke-linecap="round" stroke-linejoin="round" stroke-width=".20099"/>
  <path d="m354.3 332.47c-55.173 0-99.906 44.733-99.906 99.906 0 55.173 44.733 99.875 99.906 99.875 55.173 0 99.875-44.702 99.875-99.875 0-55.173-44.702-99.906-99.875-99.906zm0 84.969c8.2481 0 14.906 6.6894 14.906 14.938s-6.6582 14.906-14.906 14.906c-8.248 0-14.938-6.6582-14.938-14.906s6.6895-14.938 14.938-14.938z" fill="#9bb528" filter="url(#filter4184)" stroke="#bdcb2f" stroke-linecap="round" stroke-linejoin="round" stroke-width=".20099"/>
  <path d="m351.82 336.55c-43.794 0.22718-84.41 34.848-91.875 78.062-7.4668 38.482 10.96 80.306 44.944 100.09 34.096 20.825 81.168 17.399 111.4-9.0582 28.678-23.913 41.329-65.801 29.688-101.66-11.51-37.92-48.456-66.777-88.311-67.423-1.9468-0.0725-3.8976-0.0623-5.8449-0.0149zm1.4687 76.938c15.146-1.7275 25.92 18.356 16.375 30.031-8.1011 12.673-30.432 8.8764-33.625-6-3.498-11.104 5.6033-23.829 17.25-24.031z" fill="#bdcb2f" filter="url(#filter4184)" stroke="#bdcb2f" stroke-linecap="round" stroke-linejoin="round" stroke-width=".20099"/>
  <path d="m353.63 340.48c-47.864-0.81703-91.542 41.961-91.25 90-1.1197 40.829 27.813 80.833 67.835 90.654 37.418 10.277 80.805-5.2255 101.3-38.685 21.053-32.228 19.792-77.965-5.5139-107.56-17.268-21.328-44.578-35.234-72.368-34.413zm0.6563 68.875c18.818-1.1898 30.755 25.288 17.219 38.531-11.654 14.218-38.849 6.2178-39.969-12.531-1.8374-13.097 9.4157-26.2 22.75-26z" fill="#b9c248" filter="url(#filter4184)" stroke="#bdcb2f" stroke-linecap="round" stroke-linejoin="round" stroke-width=".20099"/>
  <path d="m303.15 358.88c-10.952 9.2464-20.612 20.037-28.219 32.25 19.34 9.2735 39.04 19.684 58.156 28.25 1.0051-3.0151 5.7044-4.9905 5.5201-7.4964-11.548-17.887-23.097-35.773-34.645-53.66l-0.7779 0.62834-0.035 0.0279z" fill="url(#linearGradient4144)" filter="url(#filter3965)"/>
  <path transform="matrix(-.095339 .99544 -.99544 -.095339 680.38 -15.089)" d="m425.81 207.28c-10.952 9.2464-20.612 20.037-28.219 32.25 19.34 9.2735 39.04 19.684 58.156 28.25 1.0051-3.0151 5.7044-4.9905 5.5201-7.4964-11.548-17.887-23.097-35.773-34.645-53.66l-0.77794 0.62834-0.0346 0.0279z" fill="url(#linearGradient4146)" filter="url(#filter3965)"/>
  <path transform="matrix(.99544 .095339 .095339 -.99544 -226.04 720.87)" d="m498.35 269.15c-10.952 9.2464-20.612 20.037-28.219 32.25 19.34 9.2735 39.04 19.684 58.156 28.25 1.0051-3.0151 5.7044-4.9905 5.5201-7.4964-11.548-17.887-23.097-35.773-34.645-53.66l-0.77794 0.62834-0.0346 0.0279z" fill="url(#linearGradient4150)" filter="url(#filter3961)"/>
  <path transform="matrix(0 -1 -1 0 696.35 983.72)" d="m498.35 269.15c-10.952 9.2464-20.612 20.037-28.219 32.25 19.34 9.2735 39.04 19.684 58.156 28.25 1.0051-3.0151 5.7044-4.9905 5.5201-7.4964-11.548-17.887-23.097-35.773-34.645-53.66l-0.77794 0.62834-0.0346 0.0279z" fill="url(#linearGradient4150)" filter="url(#filter3961)"/>
  <g transform="matrix(1.6028 0 0 1.6028 -405.78 -74.406)" filter="url(#filter4026)">
   <ellipse transform="translate(151.13 -116.33)" cx="312.83" cy="481.1" rx="17.488" ry="15.544"/>
   <rect x="471.72" y="288.45" width="9.6177" height="81.063" ry="4.8088"/>
   <ellipse transform="translate(208.04 -122.85)" cx="312.83" cy="481.1" rx="17.488" ry="15.544"/>
   <rect x="528.62" y="281.92" width="9.6177" height="81.063" ry="4.8088"/>
   <rect transform="matrix(.99225 -.12426 .12426 .99225 0 0)" x="432.44" y="345.32" width="65.95" height="10.992" ry="4.8088"/>
  </g>
  <g transform="matrix(1.6028 0 0 1.6028 -405.78 -74.406)" fill="#534f45" filter="url(#filter4184)">
   <ellipse transform="translate(151.13 -116.33)" cx="312.83" cy="481.1" rx="17.488" ry="15.544"/>
   <rect x="471.72" y="288.45" width="9.6177" height="81.063" ry="4.8088"/>
   <ellipse transform="translate(208.04 -122.85)" cx="312.83" cy="481.1" rx="17.488" ry="15.544"/>
   <rect x="528.62" y="281.92" width="9.6177" height="81.063" ry="4.8088"/>
   <rect transform="matrix(.99225 -.12426 .12426 .99225 0 0)" x="432.44" y="345.32" width="65.95" height="10.992" ry="4.8088"/>
  </g>
  <path d="m444.89 375.93-89.605 11.219c-0.5296 0.0664-1.0166 0.18662-1.5026 0.35061-3.7134 0.55823-6.5614 3.6892-6.5614 7.5631v92.36c-3.7454-1.6498-7.9582-2.6046-12.422-2.6046-15.48 0-28.049 11.133-28.049 24.893s12.569 24.893 28.049 24.893 27.998-11.133 27.998-24.893c0-0.86-0.054-1.7169-0.1502-2.5544v-103.18l75.781-9.4664v82.443c-3.7559-1.6613-7.9416-2.6045-12.422-2.6045-15.48 0-28.049 11.133-28.049 24.893 0 13.76 12.569 24.943 28.049 24.943s27.999-11.183 27.999-24.943c0-0.8599-0.055-1.7168-0.1502-2.5544v-112.04c0-0.70183-0.1765-1.3582-0.3506-2.0035-0.021-0.16989-0.068-0.33515-0.1002-0.50086-0.057-0.16544-0.083-0.3408-0.1502-0.50087-0.9628-3.693-4.4711-6.1975-8.3645-5.7099z" fill="url(#linearGradient4162)" filter="url(#filter4184)"/>
  <path d="m456.93 390.16c-0.8008 0.39316-1.5573 0.8009-2.375 1.1875-5.5865 2.6412-11.555 5.1317-17.844 7.5312s-12.884 4.6984-19.719 6.9688c-13.67 4.5408-28.265 8.9571-43.188 13.656-7.4614 2.3496-15.022 4.7546-22.562 7.3125-1.3509 0.45819-2.6809 1.0018-4.0313 1.4688v17.219c-4.6698-2.5166-7.8437-7.4445-7.8437-13.125 0-0.46546 0.1458-0.88925 0.1875-1.3438-3.6192 1.3042-7.2515 2.521-10.844 3.9062-7.4649 2.8786-14.86 5.9693-22.094 9.2812-3.6166 1.656-7.1893 3.3709-10.719 5.1562s-7.0145 3.6337-10.438 5.5625c-3.4229 1.9288-6.7968 3.9136-10.094 6-3.297 2.0863-6.5361 4.2733-9.6875 6.5312-1.2446 0.8918-2.4052 1.8613-3.625 2.7813 9.2664 22.516 26.344 40.994 48.062 51.719 4.7411 7.793 14.018 13.094 24.688 13.094 0.4837 0 0.9598-0.01 1.4375-0.031 0.549 0.028 1.0992 0.031 1.6562 0.031 4.7255 0 9.1608-1.042 13.062-2.875 1.1057 0.036 2.2293 0.062 3.3438 0.062 19.111 0 36.949-5.383 52.125-14.688 5.056 4.3858 11.981 7.0937 19.594 7.0937 0.4838 0 0.9598-0.01 1.4375-0.031 0.54 0.028 1.0773 0.031 1.625 0.031 15.48 0 28-11.209 28-24.969 0-0.86-0.061-1.6937-0.1562-2.5313v-107zm-91.188 32.656c2.158 2.592 3.4687 5.9223 3.4687 9.5625 0 3.6407-1.3101 6.9772-3.4687 9.5625v-19.125z" fill="url(#linearGradient4194)" filter="url(#filter4184)" opacity=".4"/>
 </g>
</svg>
