<?xml version="1.0" encoding="UTF-8"?>
<!-- Created with Inkscape (http://www.inkscape.org/) -->
<svg width="210" height="297" enable-background="new" version="1.1" xmlns="http://www.w3.org/2000/svg" xmlns:cc="http://creativecommons.org/ns#" xmlns:dc="http://purl.org/dc/elements/1.1/" xmlns:rdf="http://www.w3.org/1999/02/22-rdf-syntax-ns#" xmlns:xlink="http://www.w3.org/1999/xlink">
 <defs>
  <linearGradient id="linearGradient5177">
   <stop stop-color="#fff" offset="0"/>
   <stop stop-color="#bdcb2f" offset="1"/>
  </linearGradient>
  <filter id="filter3858">
   <feGaussianBlur stdDeviation="4.9945312"/>
  </filter>
  <filter id="filter3961">
   <feGaussianBlur stdDeviation="0.77076133"/>
  </filter>
  <filter id="filter3965">
   <feGaussianBlur stdDeviation="0.77076133"/>
  </filter>
  <filter id="filter4026">
   <feGaussianBlur stdDeviation="2.3864853"/>
  </filter>
  <linearGradient id="linearGradient4144" x1="395.1" x2="426.74" y1="270.76" y2="203.41" gradientUnits="userSpaceOnUse" xlink:href="#linearGradient5177"/>
  <linearGradient id="linearGradient4148" x1="395.1" x2="426.74" y1="270.76" y2="203.41" gradientTransform="translate(72.533 61.867)" gradientUnits="userSpaceOnUse" xlink:href="#linearGradient5177"/>
  <linearGradient id="linearGradient4162" x1="214.73" x2="306.61" y1="327.12" y2="327.12" gradientTransform="matrix(1.6028 0 0 1.6028 85.249 -220.66)" gradientUnits="userSpaceOnUse">
   <stop stop-color="#b9c248" stop-opacity=".49804" offset="0"/>
   <stop stop-color="#b9c248" stop-opacity="0" offset="1"/>
  </linearGradient>
  <filter id="filter4184">
   <feBlend in2="BackgroundImage" mode="lighten"/>
  </filter>
  <linearGradient id="linearGradient4194" x1="580.28" x2="385.56" y1="383.38" y2="241.4" gradientUnits="userSpaceOnUse">
   <stop stop-color="#fff" offset="0"/>
   <stop stop-color="#fff" stop-opacity="0" offset="1"/>
  </linearGradient>
 </defs>
 <metadata>
  <rdf:RDF>
   <cc:Work rdf:about="">
    <dc:format>image/svg+xml</dc:format>
    <dc:type rdf:resource="http://purl.org/dc/dcmitype/StillImage"/>
    <dc:title/>
   </cc:Work>
  </rdf:RDF>
 </metadata>
 <g filter="url(#filter4184)">
  <rect x="96.745" y="22.768" width="49.875" height="49.875" ry=".6934" fill="#403e3f" stroke="#eeeeea" stroke-width=".089549"/>
  <rect x="37.777" y="82.123" width="49.875" height="49.875" ry=".63037" fill="#534f45" stroke="#eeeeea" stroke-width=".077603"/>
  <rect x="96.745" y="82.123" width="49.875" height="49.875" ry=".57784" fill="#625e53" stroke="#eeeeea" stroke-width=".071265"/>
  <rect x="37.777" y="262.03" width="49.875" height="49.875" ry=".6934" fill="#bdcb2f" stroke="#eeeeea" stroke-width=".076551"/>
  <rect x="96.745" y="262.03" width="49.875" height="49.875" ry=".66038" fill="#9bb528" stroke="#eeeeea" stroke-width=".073309"/>
  <rect x="37.777" y="140.48" width="49.875" height="49.875" ry=".57784" fill="#b9c248" stroke="#eeeeea" stroke-width=".069881"/>
  <rect x="37.777" y="202.15" width="49.875" height="49.875" ry=".63037" fill="#908d6f" fill-opacity=".94118" stroke="#eeeeea" stroke-width=".077603"/>
  <rect x="96.745" y="202.15" width="49.875" height="49.875" ry=".57784" fill="#d2cdbc" stroke="#eeeeea" stroke-width=".072734"/>
  <rect x="37.714" y="23.235" width="50.001" height="48.942" ry=".71624" stroke="#eeeeea" stroke-width=".079442"/>
  <rect x="37.777" y="317.85" width="49.875" height="49.875" ry=".66038" fill="#979387" stroke="#eeeeea" stroke-width=".077756"/>
  <rect x="37.777" y="376.97" width="49.875" height="49.875" ry=".55472" fill="#ccc" stroke="#eeeeea" stroke-width=".068469"/>
  <rect x="37.777" y="436.1" width="49.875" height="49.875" ry=".66038" fill="#eee" stroke="#eeeeea" stroke-width=".068417"/>
  <path d="m476.97 180.87c-55.173 0-99.906 44.733-99.906 99.906s44.733 99.875 99.906 99.875 99.875-44.702 99.875-99.875-44.702-99.906-99.875-99.906zm0 84.969c8.248 0 14.906 6.6894 14.906 14.938s-6.6582 14.906-14.906 14.906-14.938-6.6582-14.938-14.906 6.6895-14.938 14.938-14.938z" filter="url(#filter3858)" stroke="#bdcb2f" stroke-linecap="round" stroke-linejoin="round" stroke-width=".20099"/>
  <path d="m476.97 180.87c-55.173 0-99.906 44.733-99.906 99.906s44.733 99.875 99.906 99.875c55.173 0 99.875-44.702 99.875-99.875s-44.702-99.906-99.875-99.906zm0 84.969c8.248 0 14.906 6.6894 14.906 14.938s-6.6582 14.906-14.906 14.906-14.938-6.6582-14.938-14.906 6.6895-14.938 14.938-14.938z" fill="#9bb528" stroke="#bdcb2f" stroke-linecap="round" stroke-linejoin="round" stroke-width=".20099"/>
  <path d="m474.48 184.95c-43.794 0.22718-84.41 34.848-91.875 78.062-7.4668 38.482 10.96 80.306 44.944 100.09 34.096 20.825 81.168 17.399 111.4-9.0582 28.678-23.913 41.329-65.8 29.688-101.66-11.511-37.92-48.456-66.777-88.311-67.423-1.9468-0.0725-3.8976-0.0623-5.8449-0.0149zm1.4688 76.938c15.146-1.7275 25.92 18.356 16.375 30.031-8.1011 12.673-30.432 8.8764-33.625-6-3.498-11.104 5.6033-23.829 17.25-24.031z" fill="#bdcb2f" stroke="#bdcb2f" stroke-linecap="round" stroke-linejoin="round" stroke-width=".20099"/>
  <path d="m476.29 188.89c-47.864-0.81703-91.542 41.961-91.25 90-1.1197 40.829 27.813 80.833 67.835 90.654 37.418 10.277 80.805-5.2256 101.3-38.685 21.053-32.228 19.792-77.965-5.5139-107.56-17.267-21.328-44.578-35.234-72.368-34.413zm0.65625 68.875c18.818-1.1898 30.755 25.288 17.219 38.531-11.654 14.218-38.849 6.2178-39.969-12.531-1.8374-13.097 9.4157-26.2 22.75-26z" fill="#b9c248" stroke="#bdcb2f" stroke-linecap="round" stroke-linejoin="round" stroke-width=".20099"/>
  <path d="m425.81 207.28c-10.952 9.2464-20.612 20.037-28.219 32.25 19.34 9.2735 39.04 19.684 58.156 28.25 1.0051-3.0151 5.7044-4.9905 5.5201-7.4964-11.548-17.887-23.097-35.773-34.645-53.66l-0.77794 0.62834-0.0346 0.0279z" fill="url(#linearGradient4144)" filter="url(#filter3965)"/>
  <path transform="matrix(-.095339 .99544 -.99544 -.095339 803.05 -166.69)" d="m425.81 207.28c-10.952 9.2464-20.612 20.037-28.219 32.25 19.34 9.2735 39.04 19.684 58.156 28.25 1.0051-3.0151 5.7044-4.9905 5.5201-7.4964-11.548-17.887-23.097-35.773-34.645-53.66l-0.77794 0.62834-0.0346 0.0279z" fill="url(#linearGradient4144)" filter="url(#filter3965)"/>
  <path transform="matrix(.99544 .095339 .095339 -.99544 -103.37 569.27)" d="m498.35 269.15c-10.952 9.2464-20.612 20.037-28.219 32.25 19.34 9.2735 39.04 19.684 58.156 28.25 1.0051-3.0151 5.7044-4.9905 5.5201-7.4964-11.548-17.887-23.097-35.773-34.645-53.66l-0.77794 0.62834-0.0346 0.0279z" fill="url(#linearGradient4148)" filter="url(#filter3961)"/>
  <path transform="matrix(0 -1 -1 0 819.02 832.12)" d="m498.35 269.15c-10.952 9.2464-20.612 20.037-28.219 32.25 19.34 9.2735 39.04 19.684 58.156 28.25 1.0051-3.0151 5.7044-4.9905 5.5201-7.4964-11.548-17.887-23.097-35.773-34.645-53.66l-0.77794 0.62834-0.0346 0.0279z" fill="url(#linearGradient4148)" filter="url(#filter3961)"/>
  <g transform="matrix(1.6028 0 0 1.6028 -283.11 -226)" filter="url(#filter4026)">
   <path transform="translate(151.13 -116.33)" d="m330.32 481.1c0 8.585-7.8294 15.544-17.488 15.544-9.6581 0-17.488-6.9595-17.488-15.544 0-8.585 7.8294-15.544 17.488-15.544 9.6581 0 17.488 6.9595 17.488 15.544z"/>
   <rect x="471.72" y="288.45" width="9.6177" height="81.063" ry="4.8088"/>
   <path transform="translate(208.04 -122.85)" d="m330.32 481.1c0 8.585-7.8294 15.544-17.488 15.544-9.6581 0-17.488-6.9595-17.488-15.544 0-8.585 7.8294-15.544 17.488-15.544 9.6581 0 17.488 6.9595 17.488 15.544z"/>
   <rect x="528.62" y="281.92" width="9.6177" height="81.063" ry="4.8088"/>
   <rect transform="matrix(.99225 -.12426 .12426 .99225 0 0)" x="432.44" y="345.32" width="65.95" height="10.992" ry="4.8088"/>
  </g>
  <g transform="matrix(1.6028 0 0 1.6028 -283.11 -226)" fill="#534f45">
   <path transform="translate(151.13 -116.33)" d="m330.32 481.1c0 8.585-7.8294 15.544-17.488 15.544-9.6581 0-17.488-6.9595-17.488-15.544 0-8.585 7.8294-15.544 17.488-15.544 9.6581 0 17.488 6.9595 17.488 15.544z"/>
   <rect x="471.72" y="288.45" width="9.6177" height="81.063" ry="4.8088"/>
   <path transform="translate(208.04 -122.85)" d="m330.32 481.1c0 8.585-7.8294 15.544-17.488 15.544-9.6581 0-17.488-6.9595-17.488-15.544 0-8.585 7.8294-15.544 17.488-15.544 9.6581 0 17.488 6.9595 17.488 15.544z"/>
   <rect x="528.62" y="281.92" width="9.6177" height="81.063" ry="4.8088"/>
   <rect transform="matrix(.99225 -.12426 .12426 .99225 0 0)" x="432.44" y="345.32" width="65.95" height="10.992" ry="4.8088"/>
  </g>
  <path d="m567.56 224.33-89.605 11.219c-0.52961 0.0664-1.0166 0.18662-1.5026 0.35061-3.7134 0.55823-6.5614 3.6892-6.5614 7.5631v92.36c-3.7454-1.6497-7.9582-2.6045-12.422-2.6045-15.48 0-28.049 11.133-28.049 24.893s12.569 24.893 28.049 24.893 27.999-11.133 27.999-24.893c0-0.85999-0.0545-1.7169-0.15018-2.5544v-103.18l75.781-9.4664v82.443c-3.7559-1.6613-7.9415-2.6045-12.422-2.6045-15.48 0-28.049 11.133-28.049 24.893s12.569 24.943 28.049 24.943 27.999-11.183 27.999-24.943c0-0.85999-0.0547-1.7169-0.15018-2.5544v-112.04c0-0.70183-0.17644-1.3582-0.35061-2.0035-0.0213-0.16989-0.0684-0.33515-0.10017-0.50086-0.0567-0.16544-0.0827-0.3408-0.15018-0.50087-0.96278-3.693-4.4711-6.1975-8.3645-5.7099z" fill="url(#linearGradient4162)"/>
  <path d="m579.59 238.56c-0.80077 0.39316-1.5573 0.8009-2.375 1.1875-5.5864 2.6412-11.555 5.1317-17.844 7.5312s-12.884 4.6984-19.719 6.9688c-13.67 4.5408-28.265 8.9571-43.188 13.656-7.4613 2.3496-15.022 4.7546-22.562 7.3125-1.3508 0.45819-2.6808 1.0018-4.0312 1.4688v17.219c-4.6698-2.5166-7.8438-7.4445-7.8438-13.125 0-0.46546 0.14588-0.88925 0.1875-1.3438-3.6192 1.3042-7.2515 2.521-10.844 3.9062-7.4649 2.8786-14.861 5.9693-22.094 9.2812-3.6166 1.656-7.1892 3.3709-10.719 5.1562s-7.0146 3.6337-10.438 5.5625-6.7968 3.9136-10.094 6-6.536 4.2733-9.6875 6.5312c-1.2446 0.89173-2.4052 1.8612-3.625 2.7812 9.2664 22.516 26.344 40.994 48.062 51.719 4.7412 7.793 14.018 13.094 24.688 13.094 0.48374 0 0.95983-0.00976 1.4375-0.03125 0.54906 0.02844 1.0992 0.03125 1.6562 0.03125 4.7254 0 9.1608-1.042 13.062-2.875 1.1056 0.03619 2.2293 0.0625 3.3438 0.0625 19.111 0 36.949-5.383 52.125-14.688 5.056 4.3859 11.981 7.0938 19.594 7.0938 0.48374 0 0.95983-0.00967 1.4375-0.03125 0.54002 0.02762 1.0773 0.03125 1.625 0.03125 15.48 0 28-11.209 28-24.969 0-0.85999-0.06077-1.6937-0.15625-2.5312v-107zm-91.188 32.656c2.1581 2.592 3.4688 5.9223 3.4688 9.5625 0 3.6407-1.3101 6.9772-3.4688 9.5625v-19.125z" fill="url(#linearGradient4194)" opacity=".4"/>
 </g>
</svg>
