<?xml version="1.0" encoding="UTF-8" standalone="no"?>
<!-- Created with Inkscape (http://www.inkscape.org/) -->

<svg
   xmlns:dc="http://purl.org/dc/elements/1.1/"
   xmlns:cc="http://creativecommons.org/ns#"
   xmlns:rdf="http://www.w3.org/1999/02/22-rdf-syntax-ns#"
   xmlns:svg="http://www.w3.org/2000/svg"
   xmlns="http://www.w3.org/2000/svg"
   xmlns:sodipodi="http://sodipodi.sourceforge.net/DTD/sodipodi-0.dtd"
   xmlns:inkscape="http://www.inkscape.org/namespaces/inkscape"
   width="64px"
   height="64px"
   id="svg2985"
   version="1.1"
   inkscape:version="0.48.3.1 r9886"
   sodipodi:docname="cron.svg"
   inkscape:export-filename="/home/sebastien/Images/cron/cron_64.png"
   inkscape:export-xdpi="90"
   inkscape:export-ydpi="90">
  <defs
     id="defs2987">
    <linearGradient
       id="linearGradient3940">
      <stop
         style="stop-color:#ffffff;stop-opacity:1;"
         offset="0"
         id="stop3942" />
      <stop
         style="stop-color:#000000;stop-opacity:0;"
         offset="1"
         id="stop3944" />
    </linearGradient>
  </defs>
  <sodipodi:namedview
     id="base"
     pagecolor="#ffffff"
     bordercolor="#666666"
     borderopacity="1.0"
     inkscape:pageopacity="0.0"
     inkscape:pageshadow="2"
     inkscape:zoom="5"
     inkscape:cx="2.570519"
     inkscape:cy="32"
     inkscape:current-layer="g3012"
     showgrid="true"
     inkscape:document-units="px"
     inkscape:grid-bbox="true"
     inkscape:window-width="871"
     inkscape:window-height="604"
     inkscape:window-x="93"
     inkscape:window-y="59"
     inkscape:window-maximized="0" />
  <metadata
     id="metadata2990">
    <rdf:RDF>
      <cc:Work
         rdf:about="">
        <dc:format>image/svg+xml</dc:format>
        <dc:type
           rdf:resource="http://purl.org/dc/dcmitype/StillImage" />
        <dc:title></dc:title>
      </cc:Work>
    </rdf:RDF>
  </metadata>
  <g
     id="layer1"
     inkscape:label="0"
     inkscape:groupmode="layer"
     style="opacity:0.7;display:none">
    <path
       sodipodi:type="arc"
       style="fill:#999999;fill-rule:evenodd;stroke:#000000;stroke-width:1.84026492;stroke-linecap:butt;stroke-linejoin:miter;stroke-miterlimit:4;stroke-opacity:1;stroke-dasharray:none"
       id="path2993"
       sodipodi:cx="32.272728"
       sodipodi:cy="32.272728"
       sodipodi:rx="23.90909"
       sodipodi:ry="23.90909"
       d="m 56.181818,32.272728 a 23.90909,23.90909 0 1 1 -47.8181801,0 23.90909,23.90909 0 1 1 47.8181801,0 z"
       transform="matrix(1.0945733,0,0,1.079082,-3.2171478,-2.7340109)" />
    <path
       sodipodi:type="arc"
       style="fill:#cccccc;fill-opacity:1;stroke:#000000;stroke-width:1px;stroke-linecap:butt;stroke-linejoin:miter;stroke-opacity:1;display:inline"
       id="path2993-8"
       sodipodi:cx="32.272728"
       sodipodi:cy="32.272728"
       sodipodi:rx="23.90909"
       sodipodi:ry="23.90909"
       d="m 56.181818,32.272728 a 23.90909,23.90909 0 1 1 -47.8181801,0 23.90909,23.90909 0 1 1 47.8181801,0 z"
       transform="matrix(0.90913279,0,0,0.89626599,2.8006962,3.2786923)" />
    <rect
       style="fill:#000000;stroke:#000000;stroke-width:1.02730536;stroke-opacity:1"
       id="rect3866"
       width="0.97269469"
       height="1.9726946"
       x="31.934202"
       y="-53.064678"
       transform="matrix(0,1,-1,0,0,0)" />
    <rect
       style="fill:#000000;stroke:#000000;stroke-width:1.02730536;stroke-opacity:1;display:inline"
       id="rect3866-5"
       width="0.97269464"
       height="1.9726946"
       x="31.699984"
       y="51.14323" />
    <rect
       style="fill:#000000;stroke:#000000;stroke-width:1.02730536;stroke-opacity:1;display:inline"
       id="rect3866-4"
       width="0.97269469"
       height="1.9726946"
       x="32.08638"
       y="11.281835" />
    <rect
       style="fill:#000000;stroke:#000000;stroke-width:1.02730536;stroke-opacity:1;display:inline"
       id="rect3866-8"
       width="0.97269469"
       height="1.9726946"
       x="31.668198"
       y="-13.059074"
       transform="matrix(0,1,-1,0,0,0)" />
    <g
       id="g3997">
      <path
         transform="matrix(0.4142345,-0.47329311,0,0.7725814,23.417308,49.09571)"
         d="m 41.200001,-6.6999998 a 10.1,0.69999999 0 1 1 -20.200001,0 10.1,0.69999999 0 1 1 20.200001,0 z"
         sodipodi:ry="0.69999999"
         sodipodi:rx="10.1"
         sodipodi:cy="-6.6999998"
         sodipodi:cx="31.1"
         id="path3948"
         style="fill:#000000;fill-opacity:0;stroke:#000000;stroke-width:3.53536892;stroke-miterlimit:4;stroke-opacity:1;stroke-dasharray:none"
         sodipodi:type="arc" />
      <path
         transform="matrix(-0.45473673,-0.72320455,0.81647106,0.04036529,46.812668,48.862109)"
         d="m 41.200001,-6.6999998 a 10.1,0.69999999 0 1 1 -20.200001,0 10.1,0.69999999 0 1 1 20.200001,0 z"
         sodipodi:ry="0.69999999"
         sodipodi:rx="10.1"
         sodipodi:cy="-6.6999998"
         sodipodi:cx="31.1"
         id="path3948-0"
         style="fill:#000000;fill-opacity:0;stroke:#000000;stroke-width:2.64415216;stroke-miterlimit:4;stroke-opacity:1;stroke-dasharray:none;display:inline"
         sodipodi:type="arc" />
      <path
         transform="translate(28.2,28)"
         d="m 5.1999999,5.3000002 a 1.1,1.1 0 1 1 -2.2,0 1.1,1.1 0 1 1 2.2,0 z"
         sodipodi:ry="1.1"
         sodipodi:rx="1.1"
         sodipodi:cy="5.3000002"
         sodipodi:cx="4.0999999"
         id="path3968"
         style="fill:#000000;fill-opacity:0;stroke:#000000;stroke-width:2;stroke-miterlimit:4;stroke-opacity:1;stroke-dasharray:none"
         sodipodi:type="arc" />
    </g>
  </g>
  <g
     style="opacity:1;display:inline"
     inkscape:groupmode="layer"
     inkscape:label="technologie"
     id="g3012">
    <path
       transform="matrix(1.0945733,0,0,1.079082,-3.2171478,-2.7340109)"
       d="m 56.181818,32.272728 a 23.90909,23.90909 0 1 1 -47.8181801,0 23.90909,23.90909 0 1 1 47.8181801,0 z"
       sodipodi:ry="23.90909"
       sodipodi:rx="23.90909"
       sodipodi:cy="32.272728"
       sodipodi:cx="32.272728"
       id="path3014"
       style="fill:#999999;fill-rule:evenodd;stroke:#000000;stroke-width:1.84026492000000008;stroke-linecap:butt;stroke-linejoin:miter;stroke-miterlimit:4;stroke-opacity:1;stroke-dasharray:none"
       sodipodi:type="arc" />
    <path
       transform="matrix(0.90913279,0,0,0.89626599,2.8006962,3.2786923)"
       d="m 56.181818,32.272728 a 23.90909,23.90909 0 1 1 -47.8181801,0 23.90909,23.90909 0 1 1 47.8181801,0 z"
       sodipodi:ry="23.90909"
       sodipodi:rx="23.90909"
       sodipodi:cy="32.272728"
       sodipodi:cx="32.272728"
       id="path3016"
       style="fill:#f2f2f2;fill-opacity:1;stroke:#000000;stroke-width:1px;stroke-linecap:butt;stroke-linejoin:miter;stroke-opacity:1;display:inline"
       sodipodi:type="arc" />
    <rect
       transform="matrix(0,1,-1,0,0,0)"
       y="-53.064678"
       x="31.934202"
       height="1.9726946"
       width="0.97269469"
       id="rect3018"
       style="fill:#000000;stroke:#000000;stroke-width:1.02730535999999995;stroke-opacity:1" />
    <rect
       y="51.14323"
       x="31.699984"
       height="1.9726946"
       width="0.97269464"
       id="rect3020"
       style="fill:#000000;stroke:#000000;stroke-width:1.02730535999999995;stroke-opacity:1;display:inline" />
    <rect
       y="11.281835"
       x="32.08638"
       height="1.9726946"
       width="0.97269469"
       id="rect3022"
       style="fill:#000000;stroke:#000000;stroke-width:1.02730535999999995;stroke-opacity:1;display:inline" />
    <rect
       transform="matrix(0,1,-1,0,0,0)"
       y="-13.059074"
       x="31.668198"
       height="1.9726946"
       width="0.97269469"
       id="rect3024"
       style="fill:#000000;stroke:#000000;stroke-width:1.02730535999999995;stroke-opacity:1;display:inline" />
    <g
       id="g3026">
      <path
         sodipodi:type="arc"
         style="fill:#000000;fill-opacity:0;stroke:#000000;stroke-width:3.53536891999999980;stroke-miterlimit:4;stroke-opacity:1;stroke-dasharray:none"
         id="path3028"
         sodipodi:cx="31.1"
         sodipodi:cy="-6.6999998"
         sodipodi:rx="10.1"
         sodipodi:ry="0.69999999"
         d="m 41.200001,-6.6999998 a 10.1,0.69999999 0 1 1 -20.200001,0 10.1,0.69999999 0 1 1 20.200001,0 z"
         transform="matrix(0.4142345,-0.47329311,0,0.7725814,23.417308,49.09571)" />
      <path
         sodipodi:type="arc"
         style="fill:#000000;fill-opacity:0;stroke:#000000;stroke-width:2.64415215999999997;stroke-miterlimit:4;stroke-opacity:1;stroke-dasharray:none;display:inline"
         id="path3030"
         sodipodi:cx="31.1"
         sodipodi:cy="-6.6999998"
         sodipodi:rx="10.1"
         sodipodi:ry="0.69999999"
         d="m 41.200001,-6.6999998 a 10.1,0.69999999 0 1 1 -20.200001,0 10.1,0.69999999 0 1 1 20.200001,0 z"
         transform="matrix(-0.45473673,-0.72320455,0.81647106,0.04036529,46.812668,48.862109)" />
      <path
         sodipodi:type="arc"
         style="fill:#000000;fill-opacity:0;stroke:#000000;stroke-width:2;stroke-miterlimit:4;stroke-opacity:1;stroke-dasharray:none"
         id="path3032"
         sodipodi:cx="4.0999999"
         sodipodi:cy="5.3000002"
         sodipodi:rx="1.1"
         sodipodi:ry="1.1"
         d="m 5.1999999,5.3000002 a 1.1,1.1 0 1 1 -2.2,0 1.1,1.1 0 1 1 2.2,0 z"
         transform="translate(28.2,28)" />
    </g>
  </g>
  <g
     style="opacity:0.7;display:none"
     inkscape:groupmode="layer"
     inkscape:label="100"
     id="g4024">
    <path
       transform="matrix(1.0945733,0,0,1.079082,-3.2171478,-2.7340109)"
       d="m 56.181818,32.272728 a 23.90909,23.90909 0 1 1 -47.8181801,0 23.90909,23.90909 0 1 1 47.8181801,0 z"
       sodipodi:ry="23.90909"
       sodipodi:rx="23.90909"
       sodipodi:cy="32.272728"
       sodipodi:cx="32.272728"
       id="path4026"
       style="fill:#999925;fill-opacity:1;fill-rule:evenodd;stroke:#000000;stroke-width:1.84026492;stroke-linecap:butt;stroke-linejoin:miter;stroke-miterlimit:4;stroke-opacity:1;stroke-dasharray:none"
       sodipodi:type="arc" />
    <path
       transform="matrix(0.90913279,0,0,0.89626599,2.8006962,3.2786923)"
       d="m 56.181818,32.272728 a 23.90909,23.90909 0 1 1 -47.8181801,0 23.90909,23.90909 0 1 1 47.8181801,0 z"
       sodipodi:ry="23.90909"
       sodipodi:rx="23.90909"
       sodipodi:cy="32.272728"
       sodipodi:cx="32.272728"
       id="path4028"
       style="fill:#b6cc5d;fill-opacity:1;stroke:#000000;stroke-width:1px;stroke-linecap:butt;stroke-linejoin:miter;stroke-opacity:1;display:inline"
       sodipodi:type="arc" />
    <rect
       transform="matrix(0,1,-1,0,0,0)"
       y="-53.064678"
       x="31.934202"
       height="1.9726946"
       width="0.97269469"
       id="rect4030"
       style="fill:#000000;stroke:#000000;stroke-width:1.02730536;stroke-opacity:1" />
    <rect
       y="51.14323"
       x="31.699984"
       height="1.9726946"
       width="0.97269464"
       id="rect4032"
       style="fill:#000000;stroke:#000000;stroke-width:1.02730536;stroke-opacity:1;display:inline" />
    <rect
       y="11.281835"
       x="32.08638"
       height="1.9726946"
       width="0.97269469"
       id="rect4034"
       style="fill:#000000;stroke:#000000;stroke-width:1.02730536;stroke-opacity:1;display:inline" />
    <rect
       transform="matrix(0,1,-1,0,0,0)"
       y="-13.059074"
       x="31.668198"
       height="1.9726946"
       width="0.97269469"
       id="rect4036"
       style="fill:#000000;stroke:#000000;stroke-width:1.02730536;stroke-opacity:1;display:inline" />
    <g
       id="g4038">
      <path
         sodipodi:type="arc"
         style="fill:#000000;fill-opacity:0;stroke:#000000;stroke-width:3.53536892;stroke-miterlimit:4;stroke-opacity:1;stroke-dasharray:none"
         id="path4040"
         sodipodi:cx="31.1"
         sodipodi:cy="-6.6999998"
         sodipodi:rx="10.1"
         sodipodi:ry="0.69999999"
         d="m 41.200001,-6.6999998 a 10.1,0.69999999 0 1 1 -20.200001,0 10.1,0.69999999 0 1 1 20.200001,0 z"
         transform="matrix(0.4142345,-0.47329311,0,0.7725814,23.417308,49.09571)" />
      <path
         sodipodi:type="arc"
         style="fill:#000000;fill-opacity:0;stroke:#000000;stroke-width:2.64415216;stroke-miterlimit:4;stroke-opacity:1;stroke-dasharray:none;display:inline"
         id="path4042"
         sodipodi:cx="31.1"
         sodipodi:cy="-6.6999998"
         sodipodi:rx="10.1"
         sodipodi:ry="0.69999999"
         d="m 41.200001,-6.6999998 a 10.1,0.69999999 0 1 1 -20.200001,0 10.1,0.69999999 0 1 1 20.200001,0 z"
         transform="matrix(-0.45473673,-0.72320455,0.81647106,0.04036529,46.812668,48.862109)" />
      <path
         sodipodi:type="arc"
         style="fill:#000000;fill-opacity:0;stroke:#000000;stroke-width:2;stroke-miterlimit:4;stroke-opacity:1;stroke-dasharray:none"
         id="path4044"
         sodipodi:cx="4.0999999"
         sodipodi:cy="5.3000002"
         sodipodi:rx="1.1"
         sodipodi:ry="1.1"
         d="m 5.1999999,5.3000002 a 1.1,1.1 0 1 1 -2.2,0 1.1,1.1 0 1 1 2.2,0 z"
         transform="translate(28.2,28)" />
    </g>
  </g>
  <g
     style="opacity:0.7;display:none"
     inkscape:groupmode="layer"
     inkscape:label="unknown"
     id="g4002" />
  <g
     inkscape:groupmode="layer"
     id="layer2"
     inkscape:label="aide"
     style="display:none"
     sodipodi:insensitive="true">
    <path
       style="fill:#b3b3b3;stroke:#f60000;stroke-width:1px;stroke-linecap:butt;stroke-linejoin:miter;stroke-opacity:1;display:inline"
       d="M 0.3068832,0 64.488701,64"
       id="path2997"
       inkscape:connector-curvature="0" />
    <path
       style="fill:#b3b3b3;stroke:#f60000;stroke-width:1px;stroke-linecap:butt;stroke-linejoin:miter;stroke-opacity:1;display:inline"
       d="M 64.306883,0.090909 0.4887012,63.909091"
       id="path2999"
       inkscape:connector-curvature="0" />
    <path
       style="fill:none;stroke:#fb0000;stroke-width:1.42533696px;stroke-linecap:butt;stroke-linejoin:miter;stroke-opacity:1"
       d="M 32.727273,0.63137226 32,65.272727"
       id="path3808"
       inkscape:connector-curvature="0" />
    <path
       style="fill:none;stroke:#fb0000;stroke-width:1.39739585px;stroke-linecap:butt;stroke-linejoin:miter;stroke-opacity:1"
       d="M 0.62982053,31.818182 64.181818,32.363636"
       id="path3810"
       inkscape:connector-curvature="0" />
  </g>
</svg>
