<?xml version="1.0" encoding="UTF-8"?>
<!-- Created with Inkscape (http://www.inkscape.org/) -->
<svg width="266.42" height="307.2" version="1.1" xmlns="http://www.w3.org/2000/svg" xmlns:cc="http://creativecommons.org/ns#" xmlns:dc="http://purl.org/dc/elements/1.1/" xmlns:rdf="http://www.w3.org/1999/02/22-rdf-syntax-ns#" xmlns:xlink="http://www.w3.org/1999/xlink">
 <defs>
  <filter id="filter4162">
   <feGaussianBlur stdDeviation="5.9751801"/>
  </filter>
  <linearGradient id="linearGradient4183" x1="521.69" x2="521.69" y1="285.97" y2="157.97" gradientTransform="translate(-183.62 300.26)" gradientUnits="userSpaceOnUse" spreadMethod="repeat">
   <stop stop-color="#9bb528" offset="0"/>
   <stop stop-color="#cdda93" stop-opacity=".49804" offset=".5"/>
   <stop stop-color="#fff" stop-opacity="0" offset="1"/>
  </linearGradient>
  <linearGradient id="linearGradient4235" x1="390.02" x2="614.04" y1="109.84" y2="286.97" gradientTransform="translate(-163.98 300.26)" gradientUnits="userSpaceOnUse">
   <stop stop-color="#fff" offset="0"/>
   <stop stop-color="#fff" stop-opacity="0" offset="1"/>
  </linearGradient>
 </defs>
 <metadata>
  <rdf:RDF>
   <cc:Work rdf:about="">
    <dc:format>image/svg+xml</dc:format>
    <dc:type rdf:resource="http://purl.org/dc/dcmitype/StillImage"/>
    <dc:title/>
   </cc:Work>
  </rdf:RDF>
 </metadata>
 <g transform="translate(-204.86 -304.63)"></g>
 <g transform="translate(-204.86 -304.63)">
  <path d="m338.28 330.23c-1.0862-3e-3 -2.0908 0.97629-2.0938 2.0625l-1.25 23.906-21.094-11.125c-0.92963-0.45057-2.1991-0.0491-2.7188 0.84375-0.51972 0.89284-0.2259 2.1642 0.625 2.75l20.125 13 3.1562 5.5 0.25 6.6875-0.34375 6.6562-21.094-11.125c-0.92967-0.45066-2.1678-0.0491-2.6875 0.84375-0.51977 0.89286-0.25714 2.1642 0.59375 2.75l20.125 13 3.1562 5.5 0.21875 5.6875-0.40625 7.7188-21.125-11.094c-0.92966-0.45066-2.1678-0.0804-2.6875 0.8125-0.51977 0.89286-0.22589 2.1642 0.625 2.75l20.094 13 3.1875 5.5 0.125 3.3125-1.1875 29.875a1.1109 1.1109 0 0 1 -0.25 0.78125 1.1109 1.1109 0 0 1 -0.90625 0.25 1.1109 1.1109 0 0 1 -0.40625 0l-23.656-12.125-5.75-3.7188-3.1562-5.4062-0.96875-23.875c0-1.0918-0.97071-2.0938-2.0625-2.0938-1.0918 0-2.0938 1.002-2.0938 2.0938l-1.2188 23.906-4.875-2.5625-6.6875-4.3438-3.1562-5.4062-0.9375-23.875c0-1.0918-1.002-2.0938-2.0938-2.0938-1.0918 0-2.0938 1.002-2.0938 2.0938l-1.2188 23.906-5.9062-3.125-5.6562-3.6562-3.1562-5.375-0.9375-23.906c0-1.0918-1.002-2.0938-2.0938-2.0938-1.0918 0-2.0938 1.002-2.0938 2.0938l-1.2188 23.938-21.125-11.156c-0.93923-0.54563-2.2979-0.18912-2.8438 0.75-0.54581 0.93912-0.18902 2.2978 0.75 2.8438l20.094 13.031-20.188 12.719c-0.85501 0.5798-1.1384 1.8535-0.625 2.75 0.51337 0.89656 1.7547 1.2877 2.6875 0.84375l21.312-10.906h6.3438l6 3.1562 5.5312 3.5938-20.188 12.719c-0.85512 0.57978-1.1384 1.8535-0.625 2.75 0.51335 0.89656 1.7547 1.2877 2.6875 0.84375l21.312-10.906h6.3438l4.9688 2.625 6.5625 4.25-20.188 12.719c-0.85511 0.57978-1.1384 1.8535-0.625 2.75 0.51335 0.89656 1.7547 1.2877 2.6875 0.84375l21.312-10.906h6.3438l5.2812 2.7812 22.906 14.469a1.1109 1.1109 0 0 1 0.125 0.125 1.1109 1.1109 0 0 1 0.25 0.40625 1.1109 1.1109 0 0 1 0 0.65625 1.1109 1.1109 0 0 1 -0.125 0.375 1.1109 1.1109 0 0 1 -0.25 0.28125l-24.781 16.062-3.4062 1.7812h-6.3438l-21.312-10.938c-0.93278-0.44398-2.1742-0.0528-2.6875 0.84375-0.5134 0.89648-0.23011 2.1702 0.625 2.75l20.188 12.719-6.8125 4.4062-4.7188 2.5h-6.3438l-21.312-10.938c-0.93278-0.44398-2.1742-0.0528-2.6875 0.84375-0.5134 0.89648-0.23012 2.1702 0.625 2.75l20.188 12.75-5.4375 3.5312-6.0938 3.2188h-6.3438l-21.312-10.938c-0.93278-0.44399-2.1741-0.0528-2.6875 0.84375-0.51337 0.89648-0.23001 2.1702 0.625 2.75l20.188 12.719-20.094 13.031c-0.93902 0.546-1.2958 1.9046-0.75 2.8438 0.54582 0.93911 1.9045 1.2956 2.8438 0.75l21.125-11.125 1.2188 23.906c0 1.0918 1.002 2.0938 2.0938 2.0938 1.0918 0 2.0938-1.002 2.0938-2.0938l0.9375-23.875 3.1562-5.4062 5.6562-3.6562 5.9062-3.125 1.2188 23.906c0 1.0918 1.002 2.0938 2.0938 2.0938 1.0918 0 2.0938-1.002 2.0938-2.0938l0.9375-23.875 3.1562-5.4062 6.6875-4.3438 4.875-2.5625 1.2188 23.906c0 1.0918 1.002 2.0938 2.0938 2.0938 1.0918 0 2.0625-1.002 2.0625-2.0938l0.96875-23.875 3.1562-5.4062 7.1875-4.6562 21.844-11.5a1.1109 1.1109 0 0 1 0.25 0 1.1109 1.1109 0 0 1 0.65625 0 1.1109 1.1109 0 0 1 0.375 0.28125 1.1109 1.1109 0 0 1 0.28125 0.78125l1.5312 30.344-0.15625 3.2188-3.0938 5.4375-20.219 12.781c-0.94548 0.54588-1.2959 1.8982-0.75 2.8438 0.54587 0.94549 1.8983 1.2959 2.8438 0.75l21.344-10.906 0.21875 5.375-0.4375 8.0938-3.0938 5.4375-20.219 12.781c-0.94549 0.54588-1.2959 1.8982-0.75 2.8438 0.54588 0.94549 1.8983 1.2959 2.8438 0.75l21.312-10.875 0.25 6.5938-0.34375 6.7812-3.0938 5.4375-20.219 12.781c-0.9455 0.54588-1.2959 1.8982-0.75 2.8438 0.54588 0.94549 1.8983 1.2959 2.8438 0.75l21.312-10.875 0.9375 23.844c-3e-3 1.0862 0.97629 2.0908 2.0625 2.0938s2.0908-0.97629 2.0938-2.0625l1.25-23.938 21.094 11.125c0.92963 0.45057 2.1678 0.0803 2.6875-0.8125 0.51972-0.89285 0.25715-2.1642-0.59375-2.75l-20.125-13-3.1562-5.5-0.28125-6.9375 0.34375-6.4375 21.125 11.125c0.92967 0.45066 2.1678 0.0804 2.6875-0.8125 0.51977-0.89286 0.22589-2.1642-0.625-2.75l-20.094-13-3.1875-5.5-0.21875-5.3438 0.4375-8.0938 21.094 11.125c0.92966 0.45065 2.1991 0.0491 2.7188-0.84375 0.51977-0.89285 0.22589-2.1642-0.625-2.75l-20.125-12.969-3.1562-5.5-0.3125-8.4688 0.96875-24.781a1.1109 1.1109 0 0 1 0.25 -0.78125 1.1109 1.1109 0 0 1 0.9375 -0.25 1.1109 1.1109 0 0 1 0.375 0l25.219 12.875 4.5938 3 3.1562 5.4062 0.9375 23.875c0 1.0918 1.002 2.0938 2.0938 2.0938 1.0918 0 2.0938-1.002 2.0938-2.0938l1.2188-23.906 4.875 2.5625 6.6875 4.3438 3.1562 5.4062 0.9375 23.875c0 1.0918 1.002 2.0938 2.0938 2.0938 1.0918 0 2.0938-1.002 2.0938-2.0938l1.2188-23.906 5.7812 3.0625 5.75 3.7188 3.1875 5.4062 0.9375 23.875c0 1.0918 1.002 2.0938 2.0938 2.0938 1.0918 0 2.0625-1.002 2.0625-2.0938l1.25-23.906 21.125 11.125c0.93923 0.54564 2.2667 0.18911 2.8125-0.75 0.54581-0.93913 0.18902-2.2978-0.75-2.8438l-20.062-13.031 20.156-12.719c0.85501-0.5798 1.1696-1.8535 0.65625-2.75-0.51337-0.89656-1.7547-1.2877-2.6875-0.84375l-21.312 10.938h-6.3438l-6.0625-3.1875-5.4688-3.5625 20.188-12.75c0.85512-0.57978 1.1384-1.8535 0.625-2.75-0.51335-0.89656-1.7547-1.2877-2.6875-0.84375l-21.312 10.938h-6.3438l-4.7188-2.5-6.8125-4.4062 20.188-12.719c0.85511-0.57978 1.1384-1.8535 0.625-2.75-0.51335-0.89656-1.7547-1.2877-2.6875-0.84375l-21.312 10.938h-6.3438l-7.4375-3.9375-21.25-13.375a1.1109 1.1109 0 0 1 -0.15625 -0.15625 1.1109 1.1109 0 0 1 -0.25 -0.375 1.1109 1.1109 0 0 1 0 -0.65625 1.1109 1.1109 0 0 1 0.125 -0.40625 1.1109 1.1109 0 0 1 0.28125 -0.25l22.031-14.25 6.6562-3.5312h6.3438l21.312 10.906c0.93278 0.44398 2.1742 0.0528 2.6875-0.84375 0.5134-0.89648 0.23011-2.1702-0.625-2.75l-20.188-12.719 6.5625-4.25 4.9688-2.625h6.3438l21.312 10.906c0.93278 0.44398 2.1742 0.0528 2.6875-0.84375 0.5134-0.89648 0.23012-2.1702-0.625-2.75l-20.188-12.719 5.5625-3.5938 5.9688-3.1562h6.3438l21.312 10.906c0.93278 0.44399 2.1741 0.0528 2.6875-0.84375 0.51337-0.89648 0.19876-2.1702-0.65625-2.75l-20.156-12.719 20.062-13.031c0.93902-0.546 1.2958-1.9046 0.75-2.8438-0.54582-0.93912-1.8733-1.2956-2.8125-0.75l-21.125 11.156-1.25-23.938c0-1.0918-0.97073-2.0938-2.0625-2.0938-1.0918 0-2.0938 1.002-2.0938 2.0938l-0.9375 23.906-3.1875 5.375-5.75 3.7188-5.7812 3.0625-1.2188-23.906c0-1.0918-1.002-2.0938-2.0938-2.0938-1.0918 0-2.0938 1.002-2.0938 2.0938l-0.9375 23.875-3.1562 5.4062-6.6875 4.3438-4.875 2.5625-1.2188-23.906c0-1.0918-1.002-2.0938-2.0938-2.0938-1.0918 0-2.0938 1.002-2.0938 2.0938l-0.9375 23.875-3.1562 5.4062-4.9375 3.2188-24.469 12.875a1.1109 1.1109 0 0 1 -0.25 0 1.1109 1.1109 0 0 1 -0.65625 0 1.1109 1.1109 0 0 1 -0.40625 -0.25 1.1109 1.1109 0 0 1 -0.25 -0.78125l-1.375-27.031 0.34375-6.5 3.0938-5.4375 20.219-12.75c0.94548-0.54588 1.3272-1.8982 0.78125-2.8438-0.54587-0.94549-1.9295-1.3271-2.875-0.78125l-21.312 10.906-0.21875-5.2812 0.4375-8.1875 3.0938-5.4375 20.219-12.75c0.94549-0.54588 1.2959-1.8982 0.75-2.8438-0.54588-0.94549-1.8983-1.3271-2.8438-0.78125l-21.312 10.906-0.25-6.7188 0.34375-6.6875 3.0938-5.4375 20.188-12.75c0.9455-0.54588 1.3271-1.8983 0.78125-2.8438-0.54588-0.9455-1.8983-1.3271-2.8438-0.78125l-21.344 10.906-0.90625-23.875c3e-3 -1.0862-0.97629-2.0594-2.0625-2.0625z" filter="url(#filter4162)"/>
 </g>
 <g transform="translate(-204.86 -304.63)">
  <path d="m337.81 328.26c-6.0765 1.3928-3.0106 9.6442-4.1514 13.924 0.27534 7.316 0.0593 13.767-7.6438 7.0324-5.0611-1.2513-9.838-8.1745-15.361-5.6436-3.986 2.7684-0.43949 8.1185 3.3614 8.9494 6.287 5.3727 16.855 7.5221 19.081 16.237 1.057 6.2426 0.077 10.777-6.1971 5.2356-5.2328-1.4548-9.8128-7.7249-15.527-6.4537-4.3244 1.7758-2.2839 7.9618 1.8023 8.7511 6.5284 5.3549 16.227 7.7013 19.885 15.78 0.38964 5.0619 1.2461 12.89-5.3755 6.7747-5.4687-1.6701-10.152-7.5884-16.093-7.056-4.663 1.4636-2.7875 8.0836 1.488 8.8789 6.5225 5.3401 16.129 7.7308 19.887 15.715 0.0842 10.418-0.76659 20.833-1.0312 31.25-9.2508-5.3531-19.976-8.8675-28.098-15.739-4.3831-6.878-1.6563-15.832-2.9248-23.62 1.4256-3.9233-2.4834-9.606-6.5714-6.6099-3.9295 4.1084-1.0353 11.062-2.3835 16.17 1.2002 7.9232-2.0406 8.5431-7.511 3.3863-6.821-5.9241-3.0539-16.243-4.531-24.23 1.0837-3.6064-1.0574-9.9404-5.762-8.1081-5.2116 3.0564-1.7468 10.829-3.2074 15.672 0.85562 7.2043-1.0976 10.474-6.93 4.9331-7.5732-5.2178-3.6704-15.827-5.1234-23.623 0.69879-3.5717-0.12388-10.475-5.333-9.326-5.6387 2.356-2.2862 10.281-3.6242 14.861 0.93351 8.4666-1.1959 11.545-8.4592 5.5927-4.8239-1.1692-9.9388-8.3814-15.104-4.9221-3.7485 3.5993 1.314 8.104 4.7872 9.2231 2.7756 3.4004 16.038 6.8757 10.736 10.218-5.0684 4.1536-12.461 6.1226-16.492 11.277-1.9192 4.3554 4.2024 7.5233 7.3115 4.3073 8.191-3.0728 15.332-10.502 24.439-9.7761 4.6791 2.1859 11.918 5.1622 3.2695 7.9207-4.1686 3.8522-11.565 5.0248-14.145 10.267-1.2282 4.8574 5.4981 6.6372 8.3891 3.2891 7.8838-2.9642 14.754-10.134 23.548-9.3203 5.7306 2.3665 11.274 5.7588 2.4191 8.603-3.8663 3.7718-11.499 4.6572-13.357 10.084-0.79703 4.723 5.6763 6.0677 8.4516 2.9141 7.8838-2.9642 14.754-10.134 23.548-9.3203 9.1806 4.7473 17.599 10.817 26.438 16.156-9.253 5.2944-17.643 12.876-27.438 16.781-8.5106 0.25924-15.279-6.6892-23.025-9.5923-4.1593-4.7858-11.525 2.1543-6.225 5.936 5.8438 3.6771 11.688 7.3542 17.531 11.031-5.373 4.5166-13.018 7.2502-19.025 2.1656-6.1061-2.1865-11.442-7.5645-17.913-8.3218-4.6466 0.524-4.3332 7.4823 0.0352 8.4736 5.28 3.3317 10.56 6.6635 15.84 9.9952-5.4347 4.3967-13.039 7.0738-19.025 2.0093-6.1061-2.1865-11.442-7.5645-17.913-8.3218-4.6461 0.52312-4.3346 7.4844 0.0365 8.4714 5.2795 3.322 10.559 6.6441 15.838 9.9661-6.0069 4.6384-13.735 7.5917-18.938 13.031-2.3346 4.436 4.2141 7.947 7.3635 4.4434 5.5247-2.9082 11.049-5.8164 16.574-8.7246 1.113 7.5494-0.48769 15.851 1.875 23.062 2.8625 4.0316 8.9078 0.0158 7.4527-4.4047 1.3651-8.5423-1.7063-18.377 3.4536-25.814 4.2114-2.9797 10.415-7.9291 8.5881 0.99215 1.3344 5.6441-1.3337 12.817 2.1619 17.695 3.7583 3.3914 8.4602-1.9236 6.8978-6.029 1.3188-8.2215-1.693-17.717 3.446-24.815 4.2876-3.0759 10.356-8.1982 8.5568 0.86715 1.3344 5.6441-1.3337 12.817 2.1619 17.695 3.2677 3.1054 8.0648-1.0978 6.8304-5.0296 1.3842-8.5419-1.7012-18.402 3.5134-25.814 8.507-5.9974 18.106-10.136 27.188-15.156-0.0341 10.752 2.256 21.902 0.84572 32.43-4.012 7.5082-13.493 9.7769-19.903 14.989-4.5689 0.83255-5.4561 8.0582-0.50542 8.738 6.3849-0.69987 11.675-5.9922 17.696-8.1512 5.6742-4.8006 3.5147 6.57 2.1257 9.6384-4.2971 6.792-13.203 9.1823-19.41 14.15-4.5689 0.83255-5.4561 8.0582-0.50542 8.738 6.3849-0.69976 11.686-5.9702 17.711-8.1211 5.4647-4.6987 3.6651 6.614 2.199 9.5741-4.3222 6.763-13.2 9.1623-19.405 14.121-4.5689 0.83255-5.4561 8.0582-0.50542 8.738 6.3849-0.69984 11.678-5.985 17.701-8.1413 6.5616-4.5238 2.4504 9.183 3.9798 13.255-1.0041 3.7521 0.50027 11.558 5.9756 9.3865 4.9814-3.2611 1.5644-10.798 3.0398-15.671-1.528-9.5016 2.704-8.8578 9.3058-4.0399 4.4238 1.2284 10.246 8.4955 14.654 3.7107 3.1669-5.6556-5.4305-8.0599-8.6257-10.628-6.3344-4.4736-16.584-7.9217-15.043-17.524-1.7731-8.2659 6.0248-0.71095 9.8711 0.58864 3.9805 1.4421 10.633 8.3454 14.141 2.6261 2.0208-5.9622-6.6976-7.4802-9.835-10.555-6.0939-4.2016-15.714-7.6964-14.196-16.82-1.3956-9.374 8.22 0.79026 12.665 1.78 2.9469 2.3211 9.9978 6.1246 11.741 0.43872 0.74696-5.9685-7.7168-6.9201-10.938-10.327-6.0689-3.8738-14.88-7.6586-13.336-16.42-0.1721-8.7518 0.61379-17.502 0.80488-26.253 9.3362 5.4189 20.198 8.9203 28.474 15.738 4.4255 6.8756 1.6621 15.853 2.9243 23.654-1.4654 4.0373 2.7107 9.7346 6.7887 6.4837 3.6661-4.25 0.85908-11.037 2.199-16.139-1.2312-7.9511 2.0997-8.3665 7.508-3.2927 6.8215 5.9241 3.052 16.244 4.528 24.23-1.1169 3.664 1.2256 10.14 5.9524 8.0142 4.8323-2.9465 1.6062-10.126 2.9713-14.673-0.24225-6.0166-0.082-12.361 6.0166-6.4479 8.6991 4.7986 4.6616 16.2 6.0845 24.295-0.93209 3.6784 0.55515 10.978 5.8027 9.076 5.0404-2.8203 1.7621-10.204 3.1441-14.766-0.96269-8.4938 1.2788-11.348 8.4761-5.4794 4.8269 1.1636 9.942 8.3599 15.099 4.9015 3.6765-3.6219-1.3209-8.1595-4.8162-9.2265-2.7618-3.3999-16.023-6.8749-10.708-10.217 5.0753-4.1486 12.47-6.1611 16.493-11.306 1.9248-4.3241-4.236-7.5366-7.3104-4.274-8.1914 3.0826-15.328 10.53-24.44 9.8052-4.68-2.1815-11.946-5.1601-3.2736-7.9271 4.2079-3.8761 11.573-5.0472 14.18-10.354 1.1451-4.7885-5.5631-6.6218-8.4187-3.2234-7.8844 2.9737-14.75 10.161-23.55 9.3484-5.6718-2.3884-11.212-5.7942-2.4191-8.6343 3.9187-3.766 11.406-4.6636 13.388-10.084 0.75344-4.6833-5.7119-6.1394-8.4812-2.9109-7.8844 2.9737-14.75 10.161-23.55 9.3484-9.405-4.6801-17.977-10.801-26.938-16.25 9.3474-5.416 17.86-12.965 27.938-16.688 8.5103-0.25864 15.287 6.6738 23.036 9.5702 3.136 3.5563 9.7997 0.39242 7.6824-4.2264-5.1259-5.4654-13.001-8.1704-19-12.75 5.3907-4.4745 13.024-7.206 19.028-2.1407 6.0907 2.2326 11.459 7.4632 17.909 8.2969 4.6467-0.48621 4.3894-7.53-0.0365-8.4714-5.2795-3.322-10.559-6.6441-15.838-9.9661 5.4407-4.3934 13.031-7.0821 19.028-2.0157 6.0907 2.2326 11.459 7.4632 17.909 8.2969 4.6774-0.49544 4.3336-7.5381-0.0669-8.4728-5.2694-3.3216-10.539-6.6432-15.808-9.9647 5.948-4.7083 13.817-7.5283 18.938-13.031 2.2683-4.4669-4.199-7.94-7.3623-4.441-5.5251 2.9178-11.05 5.8357-16.575 8.7535-0.99323-7.549 0.22261-15.615-1.75-22.938-2.7567-4.2315-8.9851-0.34213-7.5774 4.1548-1.1438 7.8905 1.1027 16.782-2.3592 23.988-1.4998 2.4879-10.29 9.8945-9.53 3.9237-1.0931-6.5402 0.62882-13.867-1.7209-20.066-2.8602-4.0414-8.8158-0.056-7.4524 4.311-1.3713 8.5743 1.7257 18.462-3.4851 25.908-4.2876 3.0759-10.356 8.1982-8.5582-0.86708-1.251-5.6508 1.1381-12.477-1.9418-17.57-3.2504-3.2658-8.2615 0.75716-7.0774 4.811-1.3664 8.5865 1.7168 18.474-3.4851 25.939-8.7222 5.8127-18.426 9.9554-27.562 15.062 0.0419-10.744-2.4246-21.844-0.50197-32.367 4.0117-7.5087 13.502-9.7629 19.915-14.969 4.7261-0.88041 5.4227-8.4433 0.18023-8.8206-7.3574 1.7582-13.731 7.108-20.781 9.9688-0.76531-6.9228 0.59621-14.925 8.0423-17.516 5.0292-4.0505 12.053-6.083 16.239-10.984 2.2176-4.4248-4.2197-7.9424-7.406-4.465-5.5834 2.8529-11.167 5.7058-16.75 8.5587-0.93508-6.8951 0.48644-14.852 7.915-17.425 5.0009-4.123 12.216-6.0426 16.273-11.106 2.0616-4.411-4.3024-7.7648-7.4378-4.3412-5.5936 2.8533-11.187 5.7066-16.781 8.56-0.94533-7.535 0.57487-15.663-1.4688-22.938-0.89915-1.1623-2.3204-1.9925-3.8438-1.75z" fill="#9bb528"/>
 </g>
 <g transform="translate(-204.86 -304.63)">
  <path d="m338.28 330.23c-1.0862-3e-3 -2.0908 0.97629-2.0938 2.0625l-1.25 23.906-21.094-11.125c-0.92963-0.45057-2.1991-0.0491-2.7188 0.84375-0.51972 0.89284-0.2259 2.1642 0.625 2.75l20.125 13 3.1562 5.5 0.25 6.6875-0.34375 6.6562-21.094-11.125c-0.92967-0.45066-2.1678-0.0491-2.6875 0.84375-0.51977 0.89286-0.25714 2.1642 0.59375 2.75l20.125 13 3.1562 5.5 0.21875 5.6875-0.40625 7.7188-21.125-11.094c-0.92966-0.45066-2.1678-0.0804-2.6875 0.8125-0.51977 0.89286-0.22589 2.1642 0.625 2.75l20.094 13 3.1875 5.5 0.125 3.3125-1.1875 29.875a1.1109 1.1109 0 0 1 -0.25 0.78125 1.1109 1.1109 0 0 1 -0.90625 0.25 1.1109 1.1109 0 0 1 -0.40625 0l-23.656-12.125-5.75-3.7188-3.1562-5.4062-0.96875-23.875c0-1.0918-0.97071-2.0938-2.0625-2.0938-1.0918 0-2.0938 1.002-2.0938 2.0938l-1.2188 23.906-4.875-2.5625-6.6875-4.3438-3.1562-5.4062-0.9375-23.875c0-1.0918-1.002-2.0938-2.0938-2.0938-1.0918 0-2.0938 1.002-2.0938 2.0938l-1.2188 23.906-5.9062-3.125-5.6562-3.6562-3.1562-5.375-0.9375-23.906c0-1.0918-1.002-2.0938-2.0938-2.0938-1.0918 0-2.0938 1.002-2.0938 2.0938l-1.2188 23.938-21.125-11.156c-0.93923-0.54563-2.2979-0.18912-2.8438 0.75-0.54581 0.93912-0.18902 2.2978 0.75 2.8438l20.094 13.031-20.188 12.719c-0.85501 0.5798-1.1384 1.8535-0.625 2.75 0.51337 0.89656 1.7547 1.2877 2.6875 0.84375l21.312-10.906h6.3438l6 3.1562 5.5312 3.5938-20.188 12.719c-0.85512 0.57978-1.1384 1.8535-0.625 2.75 0.51335 0.89656 1.7547 1.2877 2.6875 0.84375l21.312-10.906h6.3438l4.9688 2.625 6.5625 4.25-20.188 12.719c-0.85511 0.57978-1.1384 1.8535-0.625 2.75 0.51335 0.89656 1.7547 1.2877 2.6875 0.84375l21.312-10.906h6.3438l5.2812 2.7812 22.906 14.469a1.1109 1.1109 0 0 1 0.125 0.125 1.1109 1.1109 0 0 1 0.25 0.40625 1.1109 1.1109 0 0 1 0 0.65625 1.1109 1.1109 0 0 1 -0.125 0.375 1.1109 1.1109 0 0 1 -0.25 0.28125l-24.781 16.062-3.4062 1.7812h-6.3438l-21.312-10.938c-0.93278-0.44398-2.1742-0.0528-2.6875 0.84375-0.5134 0.89648-0.23011 2.1702 0.625 2.75l20.188 12.719-6.8125 4.4062-4.7188 2.5h-6.3438l-21.312-10.938c-0.93278-0.44398-2.1742-0.0528-2.6875 0.84375-0.5134 0.89648-0.23012 2.1702 0.625 2.75l20.188 12.75-5.4375 3.5312-6.0938 3.2188h-6.3438l-21.312-10.938c-0.93278-0.44399-2.1741-0.0528-2.6875 0.84375-0.51337 0.89648-0.23001 2.1702 0.625 2.75l20.188 12.719-20.094 13.031c-0.93902 0.546-1.2958 1.9046-0.75 2.8438 0.54582 0.93911 1.9045 1.2956 2.8438 0.75l21.125-11.125 1.2188 23.906c0 1.0918 1.002 2.0938 2.0938 2.0938 1.0918 0 2.0938-1.002 2.0938-2.0938l0.9375-23.875 3.1562-5.4062 5.6562-3.6562 5.9062-3.125 1.2188 23.906c0 1.0918 1.002 2.0938 2.0938 2.0938 1.0918 0 2.0938-1.002 2.0938-2.0938l0.9375-23.875 3.1562-5.4062 6.6875-4.3438 4.875-2.5625 1.2188 23.906c0 1.0918 1.002 2.0938 2.0938 2.0938 1.0918 0 2.0625-1.002 2.0625-2.0938l0.96875-23.875 3.1562-5.4062 7.1875-4.6562 21.844-11.5a1.1109 1.1109 0 0 1 0.25 0 1.1109 1.1109 0 0 1 0.65625 0 1.1109 1.1109 0 0 1 0.375 0.28125 1.1109 1.1109 0 0 1 0.28125 0.78125l1.5312 30.344-0.15625 3.2188-3.0938 5.4375-20.219 12.781c-0.94548 0.54588-1.2959 1.8982-0.75 2.8438 0.54587 0.94549 1.8983 1.2959 2.8438 0.75l21.344-10.906 0.21875 5.375-0.4375 8.0938-3.0938 5.4375-20.219 12.781c-0.94549 0.54588-1.2959 1.8982-0.75 2.8438 0.54588 0.94549 1.8983 1.2959 2.8438 0.75l21.312-10.875 0.25 6.5938-0.34375 6.7812-3.0938 5.4375-20.219 12.781c-0.9455 0.54588-1.2959 1.8982-0.75 2.8438 0.54588 0.94549 1.8983 1.2959 2.8438 0.75l21.312-10.875 0.9375 23.844c-3e-3 1.0862 0.97629 2.0908 2.0625 2.0938s2.0908-0.97629 2.0938-2.0625l1.25-23.938 21.094 11.125c0.92963 0.45057 2.1678 0.0803 2.6875-0.8125 0.51972-0.89285 0.25715-2.1642-0.59375-2.75l-20.125-13-3.1562-5.5-0.28125-6.9375 0.34375-6.4375 21.125 11.125c0.92967 0.45066 2.1678 0.0804 2.6875-0.8125 0.51977-0.89286 0.22589-2.1642-0.625-2.75l-20.094-13-3.1875-5.5-0.21875-5.3438 0.4375-8.0938 21.094 11.125c0.92966 0.45065 2.1991 0.0491 2.7188-0.84375 0.51977-0.89285 0.22589-2.1642-0.625-2.75l-20.125-12.969-3.1562-5.5-0.3125-8.4688 0.96875-24.781a1.1109 1.1109 0 0 1 0.25 -0.78125 1.1109 1.1109 0 0 1 0.9375 -0.25 1.1109 1.1109 0 0 1 0.375 0l25.219 12.875 4.5938 3 3.1562 5.4062 0.9375 23.875c0 1.0918 1.002 2.0938 2.0938 2.0938 1.0918 0 2.0938-1.002 2.0938-2.0938l1.2188-23.906 4.875 2.5625 6.6875 4.3438 3.1562 5.4062 0.9375 23.875c0 1.0918 1.002 2.0938 2.0938 2.0938 1.0918 0 2.0938-1.002 2.0938-2.0938l1.2188-23.906 5.7812 3.0625 5.75 3.7188 3.1875 5.4062 0.9375 23.875c0 1.0918 1.002 2.0938 2.0938 2.0938 1.0918 0 2.0625-1.002 2.0625-2.0938l1.25-23.906 21.125 11.125c0.93923 0.54564 2.2667 0.18911 2.8125-0.75 0.54581-0.93913 0.18902-2.2978-0.75-2.8438l-20.062-13.031 20.156-12.719c0.85501-0.5798 1.1696-1.8535 0.65625-2.75-0.51337-0.89656-1.7547-1.2877-2.6875-0.84375l-21.312 10.938h-6.3438l-6.0625-3.1875-5.4688-3.5625 20.188-12.75c0.85512-0.57978 1.1384-1.8535 0.625-2.75-0.51335-0.89656-1.7547-1.2877-2.6875-0.84375l-21.312 10.938h-6.3438l-4.7188-2.5-6.8125-4.4062 20.188-12.719c0.85511-0.57978 1.1384-1.8535 0.625-2.75-0.51335-0.89656-1.7547-1.2877-2.6875-0.84375l-21.312 10.938h-6.3438l-7.4375-3.9375-21.25-13.375a1.1109 1.1109 0 0 1 -0.15625 -0.15625 1.1109 1.1109 0 0 1 -0.25 -0.375 1.1109 1.1109 0 0 1 0 -0.65625 1.1109 1.1109 0 0 1 0.125 -0.40625 1.1109 1.1109 0 0 1 0.28125 -0.25l22.031-14.25 6.6562-3.5312h6.3438l21.312 10.906c0.93278 0.44398 2.1742 0.0528 2.6875-0.84375 0.5134-0.89648 0.23011-2.1702-0.625-2.75l-20.188-12.719 6.5625-4.25 4.9688-2.625h6.3438l21.312 10.906c0.93278 0.44398 2.1742 0.0528 2.6875-0.84375 0.5134-0.89648 0.23012-2.1702-0.625-2.75l-20.188-12.719 5.5625-3.5938 5.9688-3.1562h6.3438l21.312 10.906c0.93278 0.44399 2.1741 0.0528 2.6875-0.84375 0.51337-0.89648 0.19876-2.1702-0.65625-2.75l-20.156-12.719 20.062-13.031c0.93902-0.546 1.2958-1.9046 0.75-2.8438-0.54582-0.93912-1.8733-1.2956-2.8125-0.75l-21.125 11.156-1.25-23.938c0-1.0918-0.97073-2.0938-2.0625-2.0938-1.0918 0-2.0938 1.002-2.0938 2.0938l-0.9375 23.906-3.1875 5.375-5.75 3.7188-5.7812 3.0625-1.2188-23.906c0-1.0918-1.002-2.0938-2.0938-2.0938-1.0918 0-2.0938 1.002-2.0938 2.0938l-0.9375 23.875-3.1562 5.4062-6.6875 4.3438-4.875 2.5625-1.2188-23.906c0-1.0918-1.002-2.0938-2.0938-2.0938-1.0918 0-2.0938 1.002-2.0938 2.0938l-0.9375 23.875-3.1562 5.4062-4.9375 3.2188-24.469 12.875a1.1109 1.1109 0 0 1 -0.25 0 1.1109 1.1109 0 0 1 -0.65625 0 1.1109 1.1109 0 0 1 -0.40625 -0.25 1.1109 1.1109 0 0 1 -0.25 -0.78125l-1.375-27.031 0.34375-6.5 3.0938-5.4375 20.219-12.75c0.94548-0.54588 1.3272-1.8982 0.78125-2.8438-0.54587-0.94549-1.9295-1.3271-2.875-0.78125l-21.312 10.906-0.21875-5.2812 0.4375-8.1875 3.0938-5.4375 20.219-12.75c0.94549-0.54588 1.2959-1.8982 0.75-2.8438-0.54588-0.94549-1.8983-1.3271-2.8438-0.78125l-21.312 10.906-0.25-6.7188 0.34375-6.6875 3.0938-5.4375 20.188-12.75c0.9455-0.54588 1.3271-1.8983 0.78125-2.8438-0.54588-0.9455-1.8983-1.3271-2.8438-0.78125l-21.344 10.906-0.90625-23.875c3e-3 -1.0862-0.97629-2.0594-2.0625-2.0625z" fill="#bdcb2f" opacity=".94"/>
 </g>
 <g transform="translate(-204.86 -304.63)">
  <path d="m338.28 330.23c-1.0862-3e-3 -2.0908 0.97629-2.0938 2.0625l-1.25 23.906-21.094-11.125c-0.92963-0.45057-2.1991-0.0491-2.7188 0.84375-0.51972 0.89284-0.2259 2.1642 0.625 2.75l20.125 13 3.1562 5.5 0.25 6.6875-0.34375 6.6562-21.094-11.125c-0.92967-0.45066-2.1678-0.0491-2.6875 0.84375-0.51977 0.89286-0.25714 2.1642 0.59375 2.75l20.125 13 3.1562 5.5 0.21875 5.6875-0.40625 7.7188-21.125-11.094c-0.92966-0.45066-2.1678-0.0804-2.6875 0.8125-0.51977 0.89286-0.22589 2.1642 0.625 2.75l20.094 13 3.1875 5.5 0.125 3.3125-1.1875 29.875a1.1109 1.1109 0 0 1 -0.25 0.78125 1.1109 1.1109 0 0 1 -0.90625 0.25 1.1109 1.1109 0 0 1 -0.40625 0l-23.656-12.125-5.75-3.7188-3.1562-5.4062-0.96875-23.875c0-1.0918-0.97071-2.0938-2.0625-2.0938-1.0918 0-2.0938 1.002-2.0938 2.0938l-1.2188 23.906-4.875-2.5625-6.6875-4.3438-3.1562-5.4062-0.9375-23.875c0-1.0918-1.002-2.0938-2.0938-2.0938-1.0918 0-2.0938 1.002-2.0938 2.0938l-1.2188 23.906-5.9062-3.125-5.6562-3.6562-3.1562-5.375-0.9375-23.906c0-1.0918-1.002-2.0938-2.0938-2.0938-1.0918 0-2.0938 1.002-2.0938 2.0938l-1.2188 23.938-21.125-11.156c-0.93923-0.54563-2.2979-0.18912-2.8438 0.75-0.54581 0.93912-0.18902 2.2978 0.75 2.8438l20.094 13.031-20.188 12.719c-0.85501 0.5798-1.1384 1.8535-0.625 2.75 0.51337 0.89656 1.7547 1.2877 2.6875 0.84375l21.312-10.906h6.3438l6 3.1562 5.5312 3.5938-20.188 12.719c-0.85512 0.57978-1.1384 1.8535-0.625 2.75 0.51335 0.89656 1.7547 1.2877 2.6875 0.84375l21.312-10.906h6.3438l4.9688 2.625 6.5625 4.25-20.188 12.719c-0.85511 0.57978-1.1384 1.8535-0.625 2.75 0.51335 0.89656 1.7547 1.2877 2.6875 0.84375l21.312-10.906h6.3438l5.2812 2.7812 22.906 14.469a1.1109 1.1109 0 0 1 0.125 0.125 1.1109 1.1109 0 0 1 0.25 0.40625 1.1109 1.1109 0 0 1 0 0.65625 1.1109 1.1109 0 0 1 -0.125 0.375 1.1109 1.1109 0 0 1 -0.25 0.28125l-24.781 16.062-3.4062 1.7812h-6.3438l-21.312-10.938c-0.93278-0.44398-2.1742-0.0528-2.6875 0.84375-0.5134 0.89648-0.23011 2.1702 0.625 2.75l20.188 12.719-6.8125 4.4062-4.7188 2.5h-6.3438l-21.312-10.938c-0.93278-0.44398-2.1742-0.0528-2.6875 0.84375-0.5134 0.89648-0.23012 2.1702 0.625 2.75l20.188 12.75-5.4375 3.5312-6.0938 3.2188h-6.3438l-21.312-10.938c-0.93278-0.44399-2.1741-0.0528-2.6875 0.84375-0.51337 0.89648-0.23001 2.1702 0.625 2.75l20.188 12.719-20.094 13.031c-0.93902 0.546-1.2958 1.9046-0.75 2.8438 0.54582 0.93911 1.9045 1.2956 2.8438 0.75l21.125-11.125 1.2188 23.906c0 1.0918 1.002 2.0938 2.0938 2.0938 1.0918 0 2.0938-1.002 2.0938-2.0938l0.9375-23.875 3.1562-5.4062 5.6562-3.6562 5.9062-3.125 1.2188 23.906c0 1.0918 1.002 2.0938 2.0938 2.0938 1.0918 0 2.0938-1.002 2.0938-2.0938l0.9375-23.875 3.1562-5.4062 6.6875-4.3438 4.875-2.5625 1.2188 23.906c0 1.0918 1.002 2.0938 2.0938 2.0938 1.0918 0 2.0625-1.002 2.0625-2.0938l0.96875-23.875 3.1562-5.4062 7.1875-4.6562 21.844-11.5a1.1109 1.1109 0 0 1 0.25 0 1.1109 1.1109 0 0 1 0.65625 0 1.1109 1.1109 0 0 1 0.375 0.28125 1.1109 1.1109 0 0 1 0.28125 0.78125l1.5312 30.344-0.15625 3.2188-3.0938 5.4375-20.219 12.781c-0.94548 0.54588-1.2959 1.8982-0.75 2.8438 0.54587 0.94549 1.8983 1.2959 2.8438 0.75l21.344-10.906 0.21875 5.375-0.4375 8.0938-3.0938 5.4375-20.219 12.781c-0.94549 0.54588-1.2959 1.8982-0.75 2.8438 0.54588 0.94549 1.8983 1.2959 2.8438 0.75l21.312-10.875 0.25 6.5938-0.34375 6.7812-3.0938 5.4375-20.219 12.781c-0.9455 0.54588-1.2959 1.8982-0.75 2.8438 0.54588 0.94549 1.8983 1.2959 2.8438 0.75l21.312-10.875 0.9375 23.844c-3e-3 1.0862 0.97629 2.0908 2.0625 2.0938s2.0908-0.97629 2.0938-2.0625l1.25-23.938 21.094 11.125c0.92963 0.45057 2.1678 0.0803 2.6875-0.8125 0.51972-0.89285 0.25715-2.1642-0.59375-2.75l-20.125-13-3.1562-5.5-0.28125-6.9375 0.34375-6.4375 21.125 11.125c0.92967 0.45066 2.1678 0.0804 2.6875-0.8125 0.51977-0.89286 0.22589-2.1642-0.625-2.75l-20.094-13-3.1875-5.5-0.21875-5.3438 0.4375-8.0938 21.094 11.125c0.92966 0.45065 2.1991 0.0491 2.7188-0.84375 0.51977-0.89285 0.22589-2.1642-0.625-2.75l-20.125-12.969-3.1562-5.5-0.3125-8.4688 0.96875-24.781a1.1109 1.1109 0 0 1 0.25 -0.78125 1.1109 1.1109 0 0 1 0.9375 -0.25 1.1109 1.1109 0 0 1 0.375 0l25.219 12.875 4.5938 3 3.1562 5.4062 0.9375 23.875c0 1.0918 1.002 2.0938 2.0938 2.0938 1.0918 0 2.0938-1.002 2.0938-2.0938l1.2188-23.906 4.875 2.5625 6.6875 4.3438 3.1562 5.4062 0.9375 23.875c0 1.0918 1.002 2.0938 2.0938 2.0938 1.0918 0 2.0938-1.002 2.0938-2.0938l1.2188-23.906 5.7812 3.0625 5.75 3.7188 3.1875 5.4062 0.9375 23.875c0 1.0918 1.002 2.0938 2.0938 2.0938 1.0918 0 2.0625-1.002 2.0625-2.0938l1.25-23.906 21.125 11.125c0.93923 0.54564 2.2667 0.18911 2.8125-0.75 0.54581-0.93913 0.18902-2.2978-0.75-2.8438l-20.062-13.031 20.156-12.719c0.85501-0.5798 1.1696-1.8535 0.65625-2.75-0.51337-0.89656-1.7547-1.2877-2.6875-0.84375l-21.312 10.938h-6.3438l-6.0625-3.1875-5.4688-3.5625 20.188-12.75c0.85512-0.57978 1.1384-1.8535 0.625-2.75-0.51335-0.89656-1.7547-1.2877-2.6875-0.84375l-21.312 10.938h-6.3438l-4.7188-2.5-6.8125-4.4062 20.188-12.719c0.85511-0.57978 1.1384-1.8535 0.625-2.75-0.51335-0.89656-1.7547-1.2877-2.6875-0.84375l-21.312 10.938h-6.3438l-7.4375-3.9375-21.25-13.375a1.1109 1.1109 0 0 1 -0.15625 -0.15625 1.1109 1.1109 0 0 1 -0.25 -0.375 1.1109 1.1109 0 0 1 0 -0.65625 1.1109 1.1109 0 0 1 0.125 -0.40625 1.1109 1.1109 0 0 1 0.28125 -0.25l22.031-14.25 6.6562-3.5312h6.3438l21.312 10.906c0.93278 0.44398 2.1742 0.0528 2.6875-0.84375 0.5134-0.89648 0.23011-2.1702-0.625-2.75l-20.188-12.719 6.5625-4.25 4.9688-2.625h6.3438l21.312 10.906c0.93278 0.44398 2.1742 0.0528 2.6875-0.84375 0.5134-0.89648 0.23012-2.1702-0.625-2.75l-20.188-12.719 5.5625-3.5938 5.9688-3.1562h6.3438l21.312 10.906c0.93278 0.44399 2.1741 0.0528 2.6875-0.84375 0.51337-0.89648 0.19876-2.1702-0.65625-2.75l-20.156-12.719 20.062-13.031c0.93902-0.546 1.2958-1.9046 0.75-2.8438-0.54582-0.93912-1.8733-1.2956-2.8125-0.75l-21.125 11.156-1.25-23.938c0-1.0918-0.97073-2.0938-2.0625-2.0938-1.0918 0-2.0938 1.002-2.0938 2.0938l-0.9375 23.906-3.1875 5.375-5.75 3.7188-5.7812 3.0625-1.2188-23.906c0-1.0918-1.002-2.0938-2.0938-2.0938-1.0918 0-2.0938 1.002-2.0938 2.0938l-0.9375 23.875-3.1562 5.4062-6.6875 4.3438-4.875 2.5625-1.2188-23.906c0-1.0918-1.002-2.0938-2.0938-2.0938-1.0918 0-2.0938 1.002-2.0938 2.0938l-0.9375 23.875-3.1562 5.4062-4.9375 3.2188-24.469 12.875a1.1109 1.1109 0 0 1 -0.25 0 1.1109 1.1109 0 0 1 -0.65625 0 1.1109 1.1109 0 0 1 -0.40625 -0.25 1.1109 1.1109 0 0 1 -0.25 -0.78125l-1.375-27.031 0.34375-6.5 3.0938-5.4375 20.219-12.75c0.94548-0.54588 1.3272-1.8982 0.78125-2.8438-0.54587-0.94549-1.9295-1.3271-2.875-0.78125l-21.312 10.906-0.21875-5.2812 0.4375-8.1875 3.0938-5.4375 20.219-12.75c0.94549-0.54588 1.2959-1.8982 0.75-2.8438-0.54588-0.94549-1.8983-1.3271-2.8438-0.78125l-21.312 10.906-0.25-6.7188 0.34375-6.6875 3.0938-5.4375 20.188-12.75c0.9455-0.54588 1.3271-1.8983 0.78125-2.8438-0.54588-0.9455-1.8983-1.3271-2.8438-0.78125l-21.344 10.906-0.90625-23.875c3e-3 -1.0862-0.97629-2.0594-2.0625-2.0625z" fill="url(#linearGradient4183)"/>
 </g>
 <g transform="translate(-204.86 -304.63)">
  <path d="m364.43 439.48c-7.3362 3.8871-14.558 7.8925-21.656 11.969-7.3427 4.2168-14.579 8.5262-21.719 12.812-14.279 8.5727-28.189 17.147-41.969 25.188-6.8898 4.0201-13.75 7.9094-20.594 11.594-3.5216 1.8959-7.0427 3.5639-10.562 5.3438l0.21875 0.125-20.094 13.031c-0.93902 0.546-1.2958 1.9046-0.75 2.8438 0.54582 0.93911 1.9045 1.2956 2.8438 0.75l21.125-11.125 1.2188 23.906c0 1.0918 1.002 2.0938 2.0938 2.0938 1.0918 0 2.0938-1.002 2.0938-2.0938l0.9375-23.875 3.1562-5.4062 5.6562-3.6562 5.9062-3.125 1.2188 23.906c0 1.0918 1.002 2.0938 2.0938 2.0938 1.0918 0 2.0938-1.002 2.0938-2.0938l0.9375-23.875 3.1562-5.4062 6.6875-4.3438 4.875-2.5625 1.2188 23.906c0 1.0918 1.002 2.0938 2.0938 2.0938 1.0918 0 2.0625-1.002 2.0625-2.0938l0.96875-23.875 3.1562-5.4062 7.1875-4.6562 21.844-11.5a1.1109 1.1109 0 0 1 0.25 0 1.1109 1.1109 0 0 1 0.65625 0 1.1109 1.1109 0 0 1 0.375 0.28125 1.1109 1.1109 0 0 1 0.28125 0.78125l1.5312 30.344-0.15625 3.2188-3.0938 5.4375-20.219 12.781c-0.94548 0.54588-1.2959 1.8982-0.75 2.8438 0.54587 0.94549 1.8983 1.2959 2.8438 0.75l21.344-10.906 0.21875 5.375-0.4375 8.0938-3.0938 5.4375-20.219 12.781c-0.94549 0.54588-1.2959 1.8982-0.75 2.8438 0.54588 0.94549 1.8983 1.2959 2.8438 0.75l21.312-10.875 0.25 6.5938-0.34375 6.7812-3.0938 5.4375-20.219 12.781c-0.9455 0.54588-1.2959 1.8982-0.75 2.8438 0.54588 0.94549 1.8983 1.2959 2.8438 0.75l21.312-10.875 0.9375 23.844c-3e-3 1.0862 0.97629 2.0908 2.0625 2.0938s2.0908-0.97629 2.0938-2.0625l1.25-23.938 21.094 11.125c0.92963 0.45057 2.1678 0.0803 2.6875-0.8125 0.51972-0.89285 0.25715-2.1642-0.59375-2.75l-20.125-13-3.1562-5.5-0.28125-6.9375 0.34375-6.4375 21.125 11.125c0.92967 0.45066 2.1678 0.0804 2.6875-0.8125 0.51977-0.89286 0.22589-2.1642-0.625-2.75l-20.094-13-3.1875-5.5-0.21875-5.3438 0.4375-8.0938 21.094 11.125c0.92966 0.45065 2.1991 0.0491 2.7188-0.84375 0.51977-0.89285 0.22589-2.1642-0.625-2.75l-20.125-12.969-3.1562-5.5-0.3125-8.4688 0.96875-24.781a1.1109 1.1109 0 0 1 0.25 -0.78125 1.1109 1.1109 0 0 1 0.9375 -0.25 1.1109 1.1109 0 0 1 0.375 0l25.219 12.875 4.5938 3 3.1562 5.4062 0.9375 23.875c0 1.0918 1.002 2.0938 2.0938 2.0938 1.0918 0 2.0938-1.002 2.0938-2.0938l1.2188-23.906 4.875 2.5625 6.6875 4.3438 3.1562 5.4062 0.9375 23.875c0 1.0918 1.002 2.0938 2.0938 2.0938 1.0918 0 2.0938-1.002 2.0938-2.0938l1.2188-23.906 5.7812 3.0625 5.75 3.7188 3.1875 5.4062 0.9375 23.875c0 1.0918 1.002 2.0938 2.0938 2.0938 1.0918 0 2.0625-1.002 2.0625-2.0938l1.25-23.906 21.125 11.125c0.93923 0.54564 2.2667 0.18911 2.8125-0.75 0.54581-0.93913 0.18902-2.2978-0.75-2.8438l-20.062-13.031 20.156-12.719c0.85501-0.5798 1.1696-1.8535 0.65625-2.75-0.51337-0.89656-1.7547-1.2877-2.6875-0.84375l-21.312 10.938h-6.3438l-6.0625-3.1875-5.4688-3.5625 20.188-12.75c0.85512-0.57978 1.1384-1.8535 0.625-2.75-0.51335-0.89656-1.7547-1.2877-2.6875-0.84375l-21.312 10.938h-6.3438l-4.7188-2.5-6.8125-4.4062 20.188-12.719c0.85511-0.57978 1.1384-1.8535 0.625-2.75-0.51335-0.89656-1.7547-1.2877-2.6875-0.84375l-21.312 10.938h-6.3438l-7.4375-3.9375-21.25-13.375a1.1109 1.1109 0 0 1 -0.15625 -0.15625 1.1109 1.1109 0 0 1 -0.25 -0.375 1.1109 1.1109 0 0 1 0 -0.65625 1.1109 1.1109 0 0 1 0.125 -0.40625 1.1109 1.1109 0 0 1 0.28125 -0.25l22.031-14.25 6.6562-3.5312h6.3438l21.312 10.906c0.93278 0.44398 2.1742 0.0528 2.6875-0.84375 0.5134-0.89648 0.23011-2.1702-0.625-2.75l-20.188-12.719 6.5625-4.25 4.9688-2.625h6.3438l21.312 10.906c0.93278 0.44398 2.1742 0.0528 2.6875-0.84375 0.5134-0.89648 0.23012-2.1702-0.625-2.75l-20.188-12.719 5.5625-3.5938 5.9688-3.1562h6.3438l21.312 10.906c0.93278 0.44399 2.1741 0.0528 2.6875-0.84375 0.51337-0.89648 0.19876-2.1702-0.65625-2.75l-18.281-11.531c-1.5488 0.50702-3.1211 0.97252-4.6562 1.5-4.2332 1.4546-8.4292 2.9951-12.562 4.5938-8.2667 3.1973-16.344 6.6402-24.25 10.312-7.6721 3.5634-15.15 7.3335-22.531 11.219l-1.4375 0.75z" fill="url(#linearGradient4235)" opacity=".5"/>
 </g>
</svg>
