<?xml version="1.0" encoding="UTF-8"?>
<!-- Created with Inkscape (http://www.inkscape.org/) -->
<svg width="307.2" height="307.2" version="1.1" xmlns="http://www.w3.org/2000/svg" xmlns:cc="http://creativecommons.org/ns#" xmlns:dc="http://purl.org/dc/elements/1.1/" xmlns:rdf="http://www.w3.org/1999/02/22-rdf-syntax-ns#" xmlns:xlink="http://www.w3.org/1999/xlink">
 <defs>
  <linearGradient id="linearGradient4659">
   <stop stop-color="#fff" stop-opacity=".5" offset="0"/>
   <stop stop-color="#fff" stop-opacity="0" offset="1"/>
  </linearGradient>
  <filter id="filter9869">
   <feGaussianBlur stdDeviation="6.4"/>
  </filter>
  <linearGradient id="linearGradient10136" x1="900.16" x2="644.16" y1="255.27" y2="511.27" gradientTransform="translate(-484.01 -156.7)" gradientUnits="userSpaceOnUse">
   <stop stop-color="#fff" offset="0"/>
   <stop stop-color="#fff" stop-opacity="0" offset="1"/>
  </linearGradient>
  <linearGradient id="linearGradient10179" x1="766.09" x2="651.41" y1="503.03" y2="262.68" gradientTransform="translate(-483.91 -155.96)" gradientUnits="userSpaceOnUse">
   <stop stop-color="#fff" offset="0"/>
   <stop stop-color="#fff" stop-opacity="0" offset="1"/>
  </linearGradient>
  <linearGradient id="linearGradient10189" x1="891.9" x2="778.22" y1="502.91" y2="262.37" gradientTransform="translate(-483.91 -155.96)" gradientUnits="userSpaceOnUse">
   <stop stop-color="#fff" offset="0"/>
   <stop stop-color="#fff" stop-opacity="0" offset="1"/>
  </linearGradient>
  <linearGradient id="linearGradient4749" x1="651.24" x2="651.24" y1="275.53" y2="263.3" gradientTransform="translate(-483.91 -155.96)" gradientUnits="userSpaceOnUse" spreadMethod="reflect" xlink:href="#linearGradient4659"/>
 </defs>
 <metadata>
  <rdf:RDF>
   <cc:Work rdf:about="">
    <dc:format>image/svg+xml</dc:format>
    <dc:type rdf:resource="http://purl.org/dc/dcmitype/StillImage"/>
    <dc:title/>
   </cc:Work>
  </rdf:RDF>
 </metadata>
 <g transform="translate(-134.65 -73.709)">
  <rect x="160.25" y="99.309" width="256" height="256" ry="10.051" filter="url(#filter9869)"/>
  <rect x="160.25" y="99.309" width="256" height="256" ry="10.051" fill="#b9c248"/>
  <path d="m282.18 106.79c-37.97-0.11661-75.941-0.17554-113.91 0.625-2.0288 8.2392 0.6714 16.725-0.5 25.062 0.23644 71.26-0.7131 142.53 0.65625 213.78 8.2381 2.0589 16.726-0.60406 25.062 0.53125 29.442-0.14333 58.869 6e-3 88.312 0.0937v-239.19c0-0.35654 0.24508-0.59806 0.375-0.90625z" fill="url(#linearGradient10179)"/>
  <path d="m401.46 103.1c-77.552 0.62325-155.21-0.15905-232.75 0.40625-6.9586 2.2925-4.1097 11.521-4.4634 16.969 0.2478 75.677-0.52269 151.44 0.40085 227.06 3.5349 6.6874 12.839 2.8973 18.781 3.7748 75.021-0.244 150.12 0.52223 225.09-0.39975 6.5599-3.5424 2.8725-12.766 3.7133-18.656-0.24823-75.052 0.52336-150.19-0.40081-225.19-1.513-3.9989-6.8046-4.1797-10.375-3.9688z" fill-opacity="0"/>
  <path d="m294.68 346.92c37.528 0.088 75.072 0.0307 112.59-0.8125 1.8572-8.5524-0.63499-17.333 0.46875-25.969-0.28376-70.958 0.73017-141.92-0.59375-212.88-2.8118-0.64462-5.6735-0.97099-8.5625-0.8125-34.757 0.57517-69.52 0.48335-104.28 0.375 0.12276 0.30087 0.375 0.52896 0.375 0.875v239.22z" fill="url(#linearGradient10189)"/>
  <rect x="167.33" y="107.34" width="240.5" height="24.328" ry="3.0267" fill="#9bb528"/>
  <rect x="167.33" y="131.23" width="240.5" height="24.328" ry="3.0267" fill="#9bb528"/>
  <rect x="167.33" y="155.12" width="240.5" height="24.328" ry="3.0267" fill="#9bb528"/>
  <rect x="167.33" y="179" width="240.5" height="24.328" ry="3.0267" fill="#9bb528"/>
  <rect x="167.33" y="202.89" width="240.5" height="24.328" ry="3.0267" fill="#9bb528"/>
  <path d="m282.18 106.79c-37.97-0.11661-75.941-0.17554-113.91 0.625-2.0288 8.2392 0.6714 16.725-0.5 25.062 0.23644 71.26-0.7131 142.53 0.65625 213.78 8.2381 2.0589 16.726-0.60406 25.062 0.53125 29.442-0.14333 58.869 6e-3 88.312 0.0937v-239.19c0-0.35654 0.24508-0.59806 0.375-0.90625z" fill-opacity="0" opacity=".55"/>
  <path d="m416.14 160.99c-1.722 0.31472-3.4828 0.56284-5.1875 0.90625-4.5722 0.92103-9.0786 1.9467-13.531 3.0625s-8.8478 2.3314-13.188 3.625-8.6105 2.6704-12.844 4.125c-4.2333 1.4546-8.4292 2.9638-12.562 4.5625-8.2668 3.1973-16.344 6.6715-24.25 10.344-7.9064 3.6722-15.652 7.5504-23.25 11.562s-15.032 8.1582-22.375 12.375-14.579 8.4949-21.719 12.781c-14.279 8.5727-28.22 17.147-42 25.188-6.8898 4.0201-13.719 7.9094-20.562 11.594s-13.682 7.1616-20.531 10.375-13.717 6.1739-20.625 8.7812c-1.1204 0.42288-2.2523 0.78262-3.375 1.1875v63.062c0 5.5683 4.4942 10.062 10.062 10.062h235.88c5.5682 0 10.062-4.4942 10.062-10.062v-183.53z" fill="url(#linearGradient10136)" opacity=".5"/>
  <rect x="167.33" y="107.34" width="240.5" height="24.328" ry="3.0267" fill="url(#linearGradient4749)"/>
  <rect x="167.33" y="131.23" width="240.5" height="24.328" ry="3.0267" fill="url(#linearGradient4749)"/>
  <rect x="167.33" y="155.12" width="240.5" height="24.328" ry="3.0267" fill="url(#linearGradient4749)"/>
  <rect x="167.33" y="179" width="240.5" height="24.328" ry="3.0267" fill="url(#linearGradient4749)"/>
  <rect x="167.33" y="202.89" width="240.5" height="24.328" ry="3.0267" fill="url(#linearGradient4749)"/>
 </g>
</svg>
