<?xml version="1.0" encoding="utf-8"?>
<!-- Generator: Adobe Illustrator 16.0.4, SVG Export Plug-In . SVG Version: 6.00 Build 0)  -->
<!DOCTYPE svg PUBLIC "-//W3C//DTD SVG 1.1//EN" "http://www.w3.org/Graphics/SVG/1.1/DTD/svg11.dtd">
<svg version="1.1" id="Capa_1" xmlns="http://www.w3.org/2000/svg" xmlns:xlink="http://www.w3.org/1999/xlink" x="0px" y="0px"
	 width="40px" height="40px" viewBox="3.4 3.8 40 40" style="enable-background:new 3.4 3.8 40 40;" xml:space="preserve">
<style type="text/css">
<![CDATA[
	.st0{fill:none;}
]]>
</style>
<g>
	<path d="M42.6,18.5c-0.9-3.6-4.7-5.8-8.3-4.9c-2.8,0.7-7.9,3.8-9.8,6.8c-0.1,0-0.2,0-0.2-0.1c0-3.5-2.6-8.8-4.6-10.8
		c-2.6-2.7-7-2.8-9.7-0.2c-2.7,2.6-2.8,6.8-0.2,9.5c1.9,1.9,6.5,4.5,10,5c0,0.4,0.1,0.7,0.2,1c-2.8,2.2-5.5,6.8-6.1,9.4
		c-0.8,3.6,1.5,7.3,5.2,8.1c3.7,0.8,7.4-1.4,8.2-5.1c0.6-2.6,0.2-7.9-1.3-11c0.2-0.2,0.3-0.3,0.4-0.5c3.2,1.5,8.7,1.7,11.3,1.1
		C41.3,25.8,43.5,22.1,42.6,18.5z M23.4,27c-1.8,0-3.3-1.5-3.3-3.3c0-1.8,1.5-3.3,3.3-3.3c1.8,0,3.3,1.5,3.3,3.3
		C26.7,25.6,25.2,27,23.4,27z"/>
	<path d="M23.4,22.4c-0.7,0-1.3,0.6-1.3,1.3c0,0.7,0.6,1.3,1.3,1.3c0.7,0,1.4-0.6,1.4-1.3C24.7,23,24.1,22.4,23.4,22.4z"/>
</g>
<g>
	<g>
		<ellipse class="st0" cx="16.3" cy="23.8" rx="0" ry="0.1"/>
		<ellipse class="st0" cx="16.3" cy="23.8" rx="0.1" ry="0"/>
		<ellipse class="st0" cx="16.3" cy="23.8" rx="0" ry="0.1"/>
		<ellipse class="st0" cx="16.3" cy="23.8" rx="0" ry="0"/>
		<ellipse class="st0" cx="16.3" cy="23.8" rx="0" ry="0"/>
		<ellipse class="st0" cx="16.3" cy="23.8" rx="0" ry="0"/>
	</g>
	<g>
		<line class="st0" x1="16.3" y1="23.8" x2="16.3" y2="23.8"/>
		<line class="st0" x1="16.3" y1="23.8" x2="16.2" y2="23.8"/>
		<line class="st0" x1="16.3" y1="23.8" x2="16.3" y2="23.8"/>
		<line class="st0" x1="16.3" y1="23.8" x2="16.4" y2="23.8"/>
		<line class="st0" x1="16.3" y1="23.8" x2="16.4" y2="23.8"/>
	</g>
</g>
</svg>