<?xml version="1.0" encoding="UTF-8"?>
<!-- Created with Inkscape (http://www.inkscape.org/) -->
<svg width="210" height="297" enable-background="new" version="1.1" xmlns="http://www.w3.org/2000/svg" xmlns:cc="http://creativecommons.org/ns#" xmlns:dc="http://purl.org/dc/elements/1.1/" xmlns:rdf="http://www.w3.org/1999/02/22-rdf-syntax-ns#" xmlns:xlink="http://www.w3.org/1999/xlink">
 <defs>
  <filter id="filter3920" x="-.042758" y="-.10054" width="1.0855" height="1.2011" color-interpolation-filters="sRGB">
   <feGaussianBlur stdDeviation="4.5608683"/>
  </filter>
  <filter id="filter4599">
   <feGaussianBlur stdDeviation="2.190454"/>
  </filter>
  <linearGradient id="linearGradient3097" x1="588.44" x2="567.75" y1="110.96" y2="86.331" gradientTransform="translate(11.392 69.807)" gradientUnits="userSpaceOnUse">
   <stop stop-color="#fdfffe" offset="0"/>
   <stop stop-color="#fdfffe" stop-opacity="0" offset="1"/>
  </linearGradient>
  <linearGradient id="linearGradient3101" x1="521.25" x2="500.73" y1="121.07" y2="95.078" gradientTransform="translate(17.493 75.845)" gradientUnits="userSpaceOnUse">
   <stop stop-color="#fdfffe" offset="0"/>
   <stop stop-color="#fdfffe" stop-opacity="0" offset="1"/>
  </linearGradient>
 </defs>
 <metadata>
  <rdf:RDF>
   <cc:Work rdf:about="">
    <dc:format>image/svg+xml</dc:format>
    <dc:type rdf:resource="http://purl.org/dc/dcmitype/StillImage"/>
    <dc:title/>
   </cc:Work>
  </rdf:RDF>
 </metadata>
 <g>
  <text x="30.656229" y="230.82533" enable-background="new" fill="#fffffe" font-family="'Bitstream Vera Sans'" font-size="6.0411px" xml:space="preserve"><tspan x="30.656229" y="230.82533" fill="#000000">#9bb528ff</tspan></text>
  <rect x="85.016" y="21.479" width="49.875" height="49.875" ry=".6934" fill="#403e3f" stroke="#eeeeea" stroke-width=".089549"/>
  <rect x="148.09" y="21.479" width="49.875" height="49.875" ry=".63037" fill="#534f45" stroke="#eeeeea" stroke-width=".077603"/>
  <rect x="208.69" y="21.479" width="49.875" height="49.875" ry=".57784" fill="#625e53" stroke="#eeeeea" stroke-width=".071265"/>
  <rect x="148.09" y="137.13" width="49.875" height="49.875" ry=".6934" fill="#bdcb2f" stroke="#eeeeea" stroke-width=".076551"/>
  <rect x="24.016" y="137.13" width="49.875" height="49.875" ry=".66038" fill="#9bb528" stroke="#eeeeea" stroke-width=".073309"/>
  <rect x="86.054" y="137.13" width="49.875" height="49.875" ry=".57784" fill="#b9c248" stroke="#eeeeea" stroke-width=".069881"/>
  <rect x="208.49" y="77.135" width="49.875" height="49.875" ry=".63037" fill="#908d6f" fill-opacity=".94118" stroke="#eeeeea" stroke-width=".077603"/>
  <rect x="24.016" y="76.793" width="49.875" height="49.875" ry=".57784" fill="#d2cdbc" stroke="#eeeeea" stroke-width=".072734"/>
  <rect x="24.016" y="21.479" width="50.001" height="48.942" ry=".71624" stroke="#eeeeea" stroke-width=".079442"/>
  <rect x="208.28" y="138.46" width="49.875" height="49.875" ry=".66038" fill="#979387" stroke="#eeeeea" stroke-width=".077756"/>
  <rect x="86.054" y="76.793" width="49.875" height="49.875" ry=".55472" fill="#ccc" stroke="#eeeeea" stroke-width=".068469"/>
  <rect x="148.09" y="76.793" width="49.875" height="49.875" ry=".66038" fill="#eee" stroke="#eeeeea" stroke-width=".068417"/>
  <text x="32.530369" y="48.202286" fill="#fffffe" font-family="Bitstream Vera Sans" font-size="6.0411px" xml:space="preserve"><tspan x="32.530369" y="48.202286">#000000ff</tspan></text>
  <text x="94.393616" y="48.668861" fill="#fffffe" font-family="Bitstream Vera Sans" font-size="6.0411px" xml:space="preserve"><tspan x="94.393616" y="48.668861">#403e3fff</tspan></text>
  <text x="157.40475" y="48.668869" fill="#fffffe" font-family="Bitstream Vera Sans" font-size="6.0411px" xml:space="preserve"><tspan x="157.40475" y="48.668869">#534f45ff</tspan></text>
  <text x="217.2108" y="48.668877" fill="#fffffe" font-family="Bitstream Vera Sans" font-size="6.0411px" xml:space="preserve"><tspan x="217.2108" y="48.668877">#625e53ff</tspan></text>
  <text x="217.20674" y="104.3242" fill="#fffffe" font-family="Bitstream Vera Sans" font-size="6.0411px" xml:space="preserve"><tspan x="217.20674" y="104.3242">#908d6ff0</tspan></text>
  <text x="216.73364" y="165.64813" fill="#fffffe" font-family="Bitstream Vera Sans" font-size="6.0411px" xml:space="preserve"><tspan x="216.73364" y="165.64813">#979387ff</tspan></text>
  <text x="157.68204" y="164.31813" fill="#fffffe" font-family="Bitstream Vera Sans" font-size="6.0411px" xml:space="preserve"><tspan x="157.68204" y="164.31813" fill="#000000">#bdcb2fff</tspan></text>
  <text x="94.770889" y="164.31815" fill="#fffffe" font-family="Bitstream Vera Sans" font-size="6.0411px" xml:space="preserve"><tspan x="94.770889" y="164.31815" fill="#000000">#b9c248ff</tspan></text>
  <text x="32.479179" y="164.31813" fill="#fffffe" font-family="Bitstream Vera Sans" font-size="6.0411px" xml:space="preserve"><tspan x="32.479179" y="164.31813" fill="#000000">#9bb528ff</tspan></text>
  <text x="33.004208" y="103.98284" fill="#fffffe" font-family="Bitstream Vera Sans" font-size="6.0411px" xml:space="preserve"><tspan x="33.004208" y="103.98284" fill="#000000">#d2cdbcff</tspan></text>
  <text x="96.062851" y="103.98284" fill="#fffffe" font-family="Bitstream Vera Sans" font-size="6.0411px" xml:space="preserve"><tspan x="96.062851" y="103.98284" fill="#000000">#ccccccff</tspan></text>
  <text x="156.93279" y="103.98283" fill="#fffffe" font-family="Bitstream Vera Sans" font-size="6.0411px" xml:space="preserve"><tspan x="156.93279" y="103.98283" fill="#000000">#eeeeeeff</tspan></text>
  <path d="m538.74 130.46-95.574 16.464-5e-3 30.468-44.781 11.125 5.9062 2.5312-5.9062 1.4688 109.06 46.812 146.94-52.812-6.5625-1.6562 6.5625-2.3438-45.938-11.469v-27.5l-69.702-13.088z" filter="url(#filter3920)"/>
  <path d="m398.37 192.51 140.38-34.91 115.62 28.923-146.92 52.802-109.08-46.816z" fill="#9bb528"/>
  <path d="m398.37 188.51 140.38-34.91 115.62 28.923-146.92 52.802-109.08-46.816z" fill="#bdcb2f"/>
  <path d="m538.74 168.75 69.699 17.621v-42.817l-69.699-13.092v38.287z" fill="#979387" fill-rule="evenodd" stroke="#000" stroke-width=".2"/>
  <path d="m443.17 191.42v-44.114l95.574-16.843v38.287l-95.574 22.67z" fill="#ccc" fill-rule="evenodd" stroke="#000" stroke-width=".2"/>
  <path d="m443.17 191.42 68.024 25.796 97.25-30.845-69.699-17.621z" fill="#625e53" fill-rule="evenodd"/>
  <path d="m506.74 174.43 69.699 18.93v-42.817l-69.699-14.401v38.287z" fill="#979387" fill-rule="evenodd" opacity=".5" stroke="#000" stroke-width=".2"/>
  <path d="m471.5 198.74v-44.114l95.574-18.813v38.287l-95.574 24.641z" fill="#ccc" fill-rule="evenodd" opacity=".5" stroke="#000" stroke-width=".2"/>
  <path d="m528.73 193.33v-19.77m9.6433-2.2724-8.1e-4 18.984-19.784 6.2748v-20.597l19.784-4.6621z" fill="url(#linearGradient3101)" stroke="#000" stroke-width=".2"/>
  <path d="m568.53 198.07v-33.969l-18.594 4.375v16.094 3.3125 16.094l18.594-5.9062z" fill="#ccc" stroke="#000" stroke-width=".2"/>
  <path d="m579.64 180.26 8.1e-4 -18.984 19.689-4.6395v17.379l-19.689 6.2449z" fill="url(#linearGradient3097)" stroke="#000" stroke-width=".2"/>
  <path d="m519.29 197.21-0.7016-0.65579 19.784-6.2748 0.69926 0.64936-19.781 6.2812z"/>
  <path d="m539.07 171.96v18.969l-0.69926-0.64936 8.1e-4 -18.984 0.69845 0.66506z"/>
  <path d="m550.51 204.74 18.594-5.9062-0.56833-0.76266-18.594 5.9062 0.56833 0.76266z"/>
  <path d="m568.53 198.07v-33.969l0.56833 0.82516v33.969l-0.56833-0.82516z"/>
  <path d="m608.45 143.55-97.25 22.906v50.75l39.312-12.469v-16.031-3.3125-16.094l18.594-4.375v33.906l39.344-12.469v-42.812zm-39.344 55.281-18.594 5.9062v0.0625l18.594-5.9062v-0.0625zm31.156-41.594v17.375l-19.688 6.25v-19l19.688-4.625zm-61.188 14.719v18.969l-19.781 6.2812v-20.594l19.781-4.6562z" fill="#eee" fill-rule="evenodd" stroke="#000" stroke-width=".2"/>
  <path d="m443.17 191.42 68.024 25.796v-50.745l-68.024-19.165v44.114z" fill="#d2cdbc" fill-rule="evenodd" stroke="#000" stroke-width=".2"/>
  <g transform="translate(0,-8)" fill="#00000f" fill-rule="evenodd" filter="url(#filter4599)" stroke="#000" stroke-width="1px">
   <path d="m422.95 138.58v29.312h-9.9688l6.9375 12 6.9062 11.969 6.9375-11.969 6.9062-12h-9.9688v-29.312h-7.75z"/>
   <path d="m472.08 94.103v29.313h-9.9688l6.9375 12 6.9062 11.969 6.9375-11.969 6.9062-12h-9.9688v-29.313h-7.75z"/>
   <path d="m535.14 82.818v29.313h-9.9688l6.9375 12 6.9062 11.969 6.9375-11.969 6.9062-12h-9.9688v-29.313h-7.75z"/>
   <path d="m578.28 92.775v29.313h-9.9688l6.9375 12 6.9062 11.969 6.9375-11.969 6.9062-12h-9.9688v-29.313h-7.75z"/>
   <path d="m511.24 103.4v29.312h-9.9688l6.9375 12 6.9062 11.969 6.9375-11.969 6.9062-12h-9.9688v-29.312h-7.75z"/>
  </g>
  <g transform="translate(0,-8)" fill="#625e53" fill-rule="evenodd" stroke="#000" stroke-width="1px">
   <path d="m422.95 138.58v29.312h-9.9688l6.9375 12 6.9062 11.969 6.9375-11.969 6.9062-12h-9.9688v-29.312h-7.75z"/>
   <path d="m472.08 94.103v29.313h-9.9688l6.9375 12 6.9062 11.969 6.9375-11.969 6.9062-12h-9.9688v-29.313h-7.75z"/>
   <path d="m535.14 82.818v29.313h-9.9688l6.9375 12 6.9062 11.969 6.9375-11.969 6.9062-12h-9.9688v-29.313h-7.75z"/>
   <path d="m578.28 92.775v29.313h-9.9688l6.9375 12 6.9062 11.969 6.9375-11.969 6.9062-12h-9.9688v-29.313h-7.75z"/>
   <path d="m511.24 103.4v29.312h-9.9688l6.9375 12 6.9062 11.969 6.9375-11.969 6.9062-12h-9.9688v-29.312h-7.75z"/>
  </g>
  <path d="m596.28 141.28c-5.4605 1.1687-10.856 2.4187-16.094 3.8125-6.0922 1.6212-12.048 3.388-17.875 5.25s-11.525 3.8094-17.125 5.8438c-11.199 4.0687-21.977 8.4032-32.5 12.75s-20.782 8.7044-30.938 12.781c-5.0775 2.0384-10.144 4.0068-15.188 5.875s-10.077 3.6519-15.125 5.2812-10.097 3.1154-15.188 4.4375-10.203 2.46-15.375 3.4062c-0.85581 0.15656-1.7351 0.22982-2.5938 0.375l89.156 38.25 146.94-52.812v-4l-45.938-11.469v-27.5l-12.156-2.2812z" fill="#fff" opacity=".4"/>
  <rect x="24.184" y="203.64" width="49.875" height="49.875" ry=".57784" enable-background="new" fill="#cdda93" stroke="#eeeeea" stroke-width=".069881"/>
  <text x="33.548313" y="231.94334" enable-background="new" fill="#000000" font-family="'Bitstream Vera Sans'" font-size="6.0411px" writing-mode="lr" style="line-height:125%" xml:space="preserve"><tspan>#cdda93</tspan></text>
  <rect x="23.147" y="285.18" width="49.875" height="49.875" ry=".66038" enable-background="new" fill="#9bb528" stroke="#eeeeea" stroke-width=".073309"/>
  <rect x="85.185" y="285.18" width="49.875" height="49.875" ry=".57784" enable-background="new" fill="#b9c248" stroke="#eeeeea" stroke-width=".069881"/>
  <text x="93.902199" y="312.36472" enable-background="new" fill="#fffffe" font-family="'Bitstream Vera Sans'" font-size="6.0411px" xml:space="preserve"><tspan x="93.902199" y="312.36472" fill="#000000">#b9c248ff</tspan></text>
  <text x="31.610497" y="312.36469" enable-background="new" fill="#fffffe" font-family="'Bitstream Vera Sans'" font-size="6.0411px" xml:space="preserve"><tspan x="31.610497" y="312.36469" fill="#000000">#9bb528ff</tspan></text>
  <text x="158.01196" y="311.70554" enable-background="new" fill="#fffffe" font-family="'Bitstream Vera Sans'" font-size="6.0411px" xml:space="preserve"><tspan x="158.01196" y="311.70554" fill="#000000">#9bb528ff</tspan></text>
  <rect x="151.54" y="284.52" width="49.875" height="49.875" ry=".57784" enable-background="new" fill="#cdda93" stroke="#eeeeea" stroke-width=".069881"/>
  <text x="160.90404" y="312.82355" enable-background="new" fill="#000000" font-family="'Bitstream Vera Sans'" font-size="6.0411px" style="line-height:125%" xml:space="preserve"><tspan x="160.90404" y="312.82355">#cdda93</tspan></text>
  <rect x="53.837" y="311" width="49.875" height="49.875" ry=".6934" enable-background="new" fill="#bdcb2f" stroke="#eeeeea" stroke-width=".076551"/>
  <text x="63.426548" y="338.18979" enable-background="new" fill="#fffffe" font-family="'Bitstream Vera Sans'" font-size="6.0411px" xml:space="preserve"><tspan x="63.426548" y="338.18979" fill="#000000">#bdcb2fff</tspan></text>
  <rect x="117.69" y="316.13" width="49.875" height="49.875" ry=".63037" enable-background="new" fill="#908d6f" fill-opacity=".94118" stroke="#eeeeea" stroke-width=".077603"/>
  <text x="126.41317" y="343.31708" enable-background="new" fill="#fffffe" font-family="'Bitstream Vera Sans'" font-size="6.0411px" xml:space="preserve"><tspan x="126.41317" y="343.31708">#908d6ff0</tspan></text>
 </g>
</svg>
